<svg width="24" height="24" viewBox="0 0 24 24" fill="none" xmlns="http://www.w3.org/2000/svg">
<path fill-rule="evenodd" clip-rule="evenodd" d="M11.9574 1.25146C10.7315 1.25146 9.51487 1.94325 8.51454 2.66043C7.83446 3.14801 7.15332 3.72713 6.57934 4.21514C6.3078 4.446 6.06024 4.65648 5.84812 4.82723C5.83449 4.8382 5.82125 4.84965 5.80843 4.86154C5.40241 5.23808 5.03703 5.56216 4.70521 5.85462L4.57074 5.97306C4.29318 6.21745 4.03525 6.44456 3.80306 6.6589C3.26371 7.15676 2.80972 7.63294 2.46882 8.22781C1.78807 9.4157 1.64941 10.9275 1.64941 13.7145C1.64941 15.8019 1.77123 17.4335 2.09879 18.694C2.43145 19.9742 2.99092 20.926 3.89494 21.5749C4.77503 22.2066 5.89106 22.4838 7.19306 22.618C8.48771 22.7515 10.072 22.7515 11.9482 22.7515H11.9483H11.9854H12.0226H12.0226C13.8989 22.7515 15.4831 22.7515 16.7778 22.618C18.0798 22.4838 19.1958 22.2066 20.0759 21.5749C20.9799 20.926 21.5394 19.9742 21.872 18.694C22.1996 17.4335 22.3214 15.8019 22.3214 13.7145C22.3214 10.9276 22.183 9.4158 21.5026 8.22793C21.1618 7.63304 20.7079 7.15683 20.1687 6.65894C19.9363 6.44445 19.6782 6.21716 19.4005 5.97257L19.4003 5.97243L19.2666 5.85464C18.9348 5.56217 18.5694 5.23809 18.1634 4.86154C18.1506 4.84969 18.1374 4.83828 18.1238 4.82734C17.9213 4.6642 17.6894 4.46876 17.4364 4.25562C16.8435 3.75595 16.1353 3.15906 15.4193 2.65327C14.4064 1.93779 13.1799 1.25146 11.9574 1.25146ZM8.32837 16.1364C8.32837 15.7221 8.66416 15.3864 9.07837 15.3864H14.8934C15.3076 15.3864 15.6434 15.7221 15.6434 16.1364C15.6434 16.5506 15.3076 16.8864 14.8934 16.8864H9.07837C8.66416 16.8864 8.32837 16.5506 8.32837 16.1364Z" fill="#E25450"/>
</svg>
