<svg width="24" height="24" viewBox="0 0 24 24" fill="none" xmlns="http://www.w3.org/2000/svg">
<path fill-rule="evenodd" clip-rule="evenodd" d="M7.15986 5.72765C6.74731 6.10978 6.3769 6.43822 6.04762 6.72845C6.00114 6.76941 5.95563 6.80949 5.91104 6.84875C5.63213 7.09435 5.38925 7.30824 5.17107 7.50963C4.66576 7.97608 4.34657 8.32827 4.12085 8.72216C3.66835 9.51176 3.5 10.619 3.5 13.463C3.5 15.5191 3.62306 16.9951 3.90116 18.0653C4.17415 19.1158 4.58112 19.7179 5.12022 20.1048C5.68325 20.509 6.48704 20.7497 7.69745 20.8745C8.90666 20.9991 10.415 21 12.336 21C14.257 21 15.7653 20.9991 16.9746 20.8745C18.185 20.7497 18.9887 20.509 19.5518 20.1048C20.0909 19.7179 20.4979 19.1158 20.7708 18.0653C21.0489 16.9951 21.172 15.5191 21.172 13.463C21.172 10.6189 21.0039 9.51166 20.5516 8.72204C20.326 8.32818 20.0069 7.97601 19.5017 7.50958C19.2833 7.30797 19.0402 7.09382 18.7609 6.84787C18.7166 6.80888 18.6714 6.76909 18.6253 6.72843C18.2961 6.4382 17.9257 6.10976 17.5131 5.72762C17.2689 5.53041 17.0159 5.31703 16.7537 5.09588C16.1826 4.61414 15.5677 4.09554 14.9044 3.62695C13.9195 2.93117 13.0275 2.5 12.308 2.5C11.5909 2.5 10.711 2.93121 9.73913 3.62803C9.10484 4.08278 8.52462 4.57699 7.97942 5.04137C7.69776 5.28128 7.42544 5.51323 7.15986 5.72765ZM8.86512 2.40897C9.86545 1.69179 11.0821 1 12.308 1C13.5305 1 14.757 1.68632 15.7699 2.4018C16.4858 2.90759 17.1941 3.50449 17.787 4.00416C18.0399 4.21729 18.2719 4.41274 18.4744 4.57587C18.488 4.58681 18.5012 4.59822 18.514 4.61008C18.92 4.98662 19.2854 5.3107 19.6172 5.60318C19.6622 5.64289 19.7068 5.68215 19.7509 5.72097C20.0287 5.96562 20.2869 6.19294 20.5192 6.40748C21.0585 6.90537 21.5124 7.38157 21.8532 7.97646C22.5336 9.16434 22.672 10.6761 22.672 13.463C22.672 15.5504 22.5502 17.182 22.2226 18.4426C21.89 19.7227 21.3305 20.6745 20.4265 21.3234C19.5464 21.9551 18.4304 22.2324 17.1284 22.3666C15.8337 22.5 14.2494 22.5 12.3732 22.5H12.336H12.2988C10.4226 22.5 8.83831 22.5 7.54365 22.3666C6.24165 22.2324 5.12562 21.9551 4.24553 21.3234C3.34151 20.6745 2.78203 19.7227 2.44937 18.4426C2.12181 17.182 2 15.5504 2 13.463C2 10.676 2.13865 9.16424 2.8194 7.97634C3.1603 7.38148 3.6143 6.9053 4.15365 6.40743C4.38584 6.1931 4.64377 5.96599 4.92133 5.72159C4.96566 5.68256 5.01049 5.64309 5.0558 5.60316C5.38761 5.31069 5.75299 4.98661 6.15901 4.61008C6.17184 4.59818 6.18508 4.58674 6.19871 4.57577C6.41083 4.40502 6.65839 4.19454 6.92992 3.96367C7.50391 3.47566 8.18504 2.89655 8.86512 2.40897ZM8.67896 15.8849C8.67896 15.4707 9.01474 15.1349 9.42896 15.1349H15.244C15.6582 15.1349 15.994 15.4707 15.994 15.8849C15.994 16.2991 15.6582 16.6349 15.244 16.6349H9.42896C9.01474 16.6349 8.67896 16.2991 8.67896 15.8849Z" fill="#6A747D"/>
</svg>
