<svg width="343" height="156" viewBox="0 0 343 156" fill="none" xmlns="http://www.w3.org/2000/svg">
<g opacity="0.5">
<path d="M-34.5812 445.252C-70.4794 411.312 -100.814 371.935 -124.474 328.567L289 103L-34.5812 445.252Z" fill="#DDBDFF"/>
<path d="M-173.886 190.047C-183.017 141.495 -184.452 91.8097 -178.139 42.8123L289 103L-173.886 190.047Z" fill="#DDBDFF"/>
<path d="M-136.997 -97.9178C-115.923 -142.6 -87.9502 -183.688 -54.1052 -219.676L289 103L-136.997 -97.9178Z" fill="#DDBDFF"/>
<path d="M62.3012 -309.854C105.605 -333.632 152.38 -350.45 200.91 -359.689L289 103L62.3012 -309.854Z" fill="#DDBDFF"/>
<path d="M347.833 -364.311C396.848 -358.14 444.588 -344.296 489.3 -323.287L289 103L347.833 -364.311Z" fill="#DDBDFF"/>
<path d="M609.359 -242.27C645.573 -208.668 676.276 -169.578 700.341 -126.433L289 103L609.359 -242.27Z" fill="#DDBDFF"/>
<path d="M750.566 9.20108C760.404 57.6139 762.565 107.273 756.968 156.358L289 103L750.566 9.20108Z" fill="#DDBDFF"/>
<path d="M718.27 296.825C697.94 341.85 670.653 383.397 637.41 419.941L289 103L718.27 296.825Z" fill="#DDBDFF"/>
<path d="M524.069 511.146C481.26 535.802 434.837 553.57 386.505 563.797L289 103L524.069 511.146Z" fill="#DDBDFF"/>
<path d="M230.019 570.292C179.721 563.944 130.779 549.517 85.0797 527.567L289 103L230.019 570.292Z" fill="#DDBDFF"/>
</g>
</svg>
