<svg width="375" height="340" viewBox="0 0 375 340" fill="none" xmlns="http://www.w3.org/2000/svg">
<g clip-path="url(#clip0_1_45560)">
<rect width="375" height="340" fill="#FBEDC3"/>
<g clip-path="url(#clip1_1_45560)">
<path d="M59.8659 316.775C59.6849 314.694 59.901 312.554 59.8165 310.466C59.6797 307.08 59.2262 303.705 59.15 300.317C57.2934 302.002 55.6505 303.932 53.7638 305.583C51.6331 307.447 49.2062 309.259 47.3994 311.446C47.0548 306.415 46.7197 301.381 46.4045 296.348C42.5568 299.689 38.5431 303.19 35.0109 306.841L33.2909 291.885C28.9131 294.975 25.0891 298.878 20.6815 301.978C20.5922 297.688 20.0949 293.26 20.2224 289C16.6426 291.659 13.2552 295.118 10 298.156" stroke="#F5CE93" stroke-width="2" stroke-miterlimit="1.5" stroke-linecap="round" stroke-linejoin="round"/>
<path d="M388.745 79.0726C391.912 75.7208 395.407 72.6374 398.701 69.4094C394.174 69.1601 389.601 68.4469 385.066 68.6465C385.006 65.4503 384.811 62.2723 384.126 59.1334C381.405 61.738 378.455 64.2688 376.202 67.2932C374.875 63.6954 372.993 60.1075 370.754 57C368.575 60.5784 366.646 64.6149 365.422 68.6031C362.343 68.0078 359.099 67.6757 355.967 67.6695C356.901 70.8449 358.126 73.9382 359.285 77.037C357.295 79.1565 355.446 81.6691 354 84.2051C356.09 84.7624 358.266 84.9811 360.384 85.4143C359.946 88.7324 359.872 92.0973 359.667 95.4359C362.404 94.1789 364.955 92.5652 367.431 90.8615C368.986 93.8172 370.36 96.8612 371.901 99.8242C373.673 96.9357 375.457 93.961 377.428 91.2005C379.606 93.4306 382.425 94.957 384.785 96.997C384.506 93.9829 384.679 90.9637 384.659 87.9433C388.011 88.0758 391.437 87.9678 394.797 87.9715C392.684 85.2873 390.581 82.598 388.622 79.7978" stroke="#F5CE93" stroke-width="2" stroke-miterlimit="1.5" stroke-linecap="round" stroke-linejoin="round"/>
<circle cx="364.5" cy="130.5" r="3.5" fill="#F5CE93"/>
<circle cx="16.5" cy="117.5" r="3.5" fill="#F5CE93"/>
<circle cx="360" cy="112" r="2" fill="#F5CE93"/>
<circle cx="105" cy="305" r="2" fill="#F5CE93"/>
</g>
<g clip-path="url(#clip2_1_45560)">
<path d="M306.634 112.058C320.04 130.569 328.628 151.928 331.668 174.327C334.567 195.688 332.34 217.392 325.176 237.765C324.117 240.177 321.5 246.5 321.5 246.5M306.641 112.057C293.234 93.5464 275.404 78.4317 254.662 67.9946C233.921 57.5574 210.879 52.1055 187.492 52.1012C164.105 52.0969 141.058 57.5422 120.314 67.9718C99.5688 78.4014 81.7342 93.5095 68.3223 112.015M68.323 112.011C54.911 130.516 46.3173 151.873 43.2706 174.27C40.365 195.63 42.5864 217.335 49.7443 237.71C50.7243 240.5 53.2 245.4 54 247" stroke="#EDA076" stroke-width="10" stroke-dasharray="1.84 1.84"/>
<path d="M320.703 180.448C323.391 200.95 321.325 221.781 314.683 241.334C314.149 242.907 312.418 243.711 310.857 243.141L286.145 234.127C284.584 233.558 283.785 231.832 284.308 230.255C289.175 215.588 290.667 199.997 288.655 184.649C286.513 168.306 280.461 152.72 271.012 139.214L297.497 120.686C309.925 138.451 317.886 158.951 320.703 180.448Z" fill="#FFE082" stroke="black"/>
<path d="M249.321 78.3969C268.549 88.4137 285.078 102.92 297.506 120.685L271.021 139.213C261.572 125.707 249.006 114.678 234.388 107.063C219.769 99.4473 203.53 95.4696 187.047 95.4669L187.052 63.1446C208.733 63.1481 230.093 68.3802 249.321 78.3969Z" fill="#F69563"/>
<path d="M249.321 78.3969C268.549 88.4137 285.078 102.92 297.506 120.685L271.021 139.213C261.572 125.707 249.006 114.678 234.388 107.063C219.769 99.4473 203.53 95.4696 187.047 95.4669L187.052 63.1446C208.733 63.1481 230.093 68.3802 249.321 78.3969Z" fill="#FFDF82" fill-opacity="0.5"/>
<path d="M249.321 78.3969C268.549 88.4137 285.078 102.92 297.506 120.685L271.021 139.213C261.572 125.707 249.006 114.678 234.388 107.063C219.769 99.4473 203.53 95.4696 187.047 95.4669L187.052 63.1446C208.733 63.1481 230.093 68.3802 249.321 78.3969Z" stroke="black"/>
<path d="M124.776 78.3785C144.007 68.368 165.369 63.1431 187.049 63.1467L187.044 95.469C170.561 95.4663 154.32 99.4386 139.699 107.049C125.079 114.66 112.509 125.684 103.056 139.187L76.5769 120.65C89.0106 102.889 105.544 88.3889 124.776 78.3785Z" fill="#F6DB8B"/>
<path d="M124.776 78.3785C144.007 68.368 165.369 63.1431 187.049 63.1467L187.044 95.469C170.561 95.4663 154.32 99.4386 139.699 107.049C125.079 114.66 112.509 125.684 103.056 139.187L76.5769 120.65C89.0106 102.889 105.544 88.3889 124.776 78.3785Z" fill="#F7403B" fill-opacity="0.5"/>
<path d="M124.776 78.3785C144.007 68.368 165.369 63.1431 187.049 63.1467L187.044 95.469C170.561 95.4663 154.32 99.4386 139.699 107.049C125.079 114.66 112.509 125.684 103.056 139.187L76.5769 120.65C89.0106 102.889 105.544 88.3889 124.776 78.3785Z" stroke="black"/>
<path d="M53.3507 180.401C56.1756 158.905 64.1428 138.408 76.5765 120.647L103.055 139.183C93.6023 152.687 87.5452 168.27 85.3975 184.613C83.3806 199.96 84.8674 215.552 89.7297 230.22C90.2526 231.797 89.4525 233.523 87.8912 234.092L63.1763 243.098C61.6149 243.667 59.8846 242.863 59.3506 241.289C52.7154 221.734 50.6566 200.902 53.3507 180.401Z" fill="#E25450"/>
<path d="M53.3507 180.401C56.1756 158.905 64.1428 138.408 76.5765 120.647L103.055 139.183C93.6023 152.687 87.5452 168.27 85.3975 184.613C83.3806 199.96 84.8674 215.552 89.7297 230.22C90.2526 231.797 89.4525 233.523 87.8912 234.092L63.1763 243.098C61.6149 243.667 59.8846 242.863 59.3506 241.289C52.7154 221.734 50.6566 200.902 53.3507 180.401Z" fill="#FD935C" fill-opacity="0.5"/>
<path d="M53.3507 180.401C56.1756 158.905 64.1428 138.408 76.5765 120.647L103.055 139.183C93.6023 152.687 87.5452 168.27 85.3975 184.613C83.3806 199.96 84.8674 215.552 89.7297 230.22C90.2526 231.797 89.4525 233.523 87.8912 234.092L63.1763 243.098C61.6149 243.667 59.8846 242.863 59.3506 241.289C52.7154 221.734 50.6566 200.902 53.3507 180.401Z" stroke="black"/>
<path d="M95.4118 230.398C92.4331 218.487 90.2022 206.158 91.6776 193.978C93.6821 177.43 99.3556 161.648 108.217 147.97C117.078 134.292 128.866 123.121 142.58 115.405C156.294 107.689 171.531 103.656 186.998 103.647C202.464 103.638 217.705 107.654 231.427 115.354C245.149 123.054 256.947 134.211 265.822 147.88C274.697 161.548 280.385 177.323 282.406 193.869C283.893 206.04 281.686 218.363 278.716 230.271" stroke="#F7DF95" stroke-width="2" stroke-linecap="round"/>
<path d="M145.581 170.135C150.151 171.789 154.749 173.625 159.165 175.674" stroke="#F5CE93" stroke-width="2" stroke-miterlimit="1.5" stroke-linecap="round" stroke-linejoin="round"/>
<path d="M163.736 178.374C164.24 178.608 164.752 178.826 165.262 179.048" stroke="#F5CE93" stroke-width="2" stroke-miterlimit="1.5" stroke-linecap="round" stroke-linejoin="round"/>
<path d="M139 182.884C143.916 183.375 148.853 183.594 153.771 184.052" stroke="#F5CE93" stroke-width="2" stroke-miterlimit="1.5" stroke-linecap="round" stroke-linejoin="round"/>
<path d="M139.752 204.35C146.433 200.675 153.231 197.126 160.141 193.853" stroke="#F5CE93" stroke-width="2" stroke-miterlimit="1.5" stroke-linecap="round" stroke-linejoin="round"/>
<path d="M165.351 159.417C168.75 164.109 171.584 169.164 174.916 173.899" stroke="#F5CE93" stroke-width="2" stroke-miterlimit="1.5" stroke-linecap="round" stroke-linejoin="round"/>
<path d="M179.859 155.596C180.464 157.091 181.095 158.581 181.603 160.113" stroke="#F5CE93" stroke-width="2" stroke-miterlimit="1.5" stroke-linecap="round" stroke-linejoin="round"/>
<path d="M183.115 165.445C183.208 165.76 183.297 166.076 183.398 166.389" stroke="#F5CE93" stroke-width="2" stroke-miterlimit="1.5" stroke-linecap="round" stroke-linejoin="round"/>
<path d="M206.14 155C203.96 158.51 201.387 161.903 199.698 165.691" stroke="#F5CE93" stroke-width="2" stroke-miterlimit="1.5" stroke-linecap="round" stroke-linejoin="round"/>
<path d="M196.017 171.336C195.66 171.87 195.29 172.399 194.942 172.94" stroke="#F5CE93" stroke-width="2" stroke-miterlimit="1.5" stroke-linecap="round" stroke-linejoin="round"/>
<path d="M223.65 162.819C218.384 167.362 212.935 171.66 207.636 176.152" stroke="#F5CE93" stroke-width="2" stroke-miterlimit="1.5" stroke-linecap="round" stroke-linejoin="round"/>
<path d="M239.951 173.929C231.893 177.322 223.649 181.209 215.355 183.955" stroke="#F5CE93" stroke-width="2" stroke-miterlimit="1.5" stroke-linecap="round" stroke-linejoin="round"/>
<path d="M227.756 170.633C228.968 169.9 230.171 169.153 231.388 168.427" stroke="#F5CE93" stroke-width="2" stroke-miterlimit="1.5" stroke-linecap="round" stroke-linejoin="round"/>
<path d="M244.812 192.552C235.76 191.837 226.621 192.528 217.615 193.502" stroke="#F5CE93" stroke-width="2" stroke-miterlimit="1.5" stroke-linecap="round" stroke-linejoin="round"/>
<path d="M149.341 214.531C152.513 211.635 155.576 208.547 158.838 205.755" stroke="#F5CE93" stroke-width="2" stroke-miterlimit="1.5" stroke-linecap="round" stroke-linejoin="round"/>
<path d="M163.463 201.75C164.149 201.05 164.822 200.328 165.569 199.692" stroke="#F5CE93" stroke-width="2" stroke-miterlimit="1.5" stroke-linecap="round" stroke-linejoin="round"/>
<path d="M176.231 203.226C175.155 205.908 174.151 208.617 172.993 211.265" stroke="#F5CE93" stroke-width="2" stroke-miterlimit="1.5" stroke-linecap="round" stroke-linejoin="round"/>
<path d="M185.995 206.098C185.533 211.393 185.32 216.713 184.823 222" stroke="#F5CE93" stroke-width="2" stroke-miterlimit="1.5" stroke-linecap="round" stroke-linejoin="round"/>
<path d="M195.72 203.61C195.958 204.312 196.212 205.009 196.487 205.697" stroke="#F5CE93" stroke-width="2" stroke-miterlimit="1.5" stroke-linecap="round" stroke-linejoin="round"/>
<path d="M199.031 211.862C199.949 214.615 200.825 217.443 202.076 220.069" stroke="#F5CE93" stroke-width="2" stroke-miterlimit="1.5" stroke-linecap="round" stroke-linejoin="round"/>
<path d="M207.517 201.693C211.804 206.412 215.688 211.147 219.119 216.526" stroke="#F5CE93" stroke-width="2" stroke-miterlimit="1.5" stroke-linecap="round" stroke-linejoin="round"/>
<path d="M217.422 200.433C218.088 201.023 218.744 201.615 219.451 202.156" stroke="#F5CE93" stroke-width="2" stroke-miterlimit="1.5" stroke-linecap="round" stroke-linejoin="round"/>
<path d="M225.167 205.513C227.183 207.323 229.425 208.84 231.439 210.64" stroke="#F5CE93" stroke-width="2" stroke-miterlimit="1.5" stroke-linecap="round" stroke-linejoin="round"/>
</g>
<g filter="url(#filter0_b_1_45560)">
<rect x="113" y="232" width="149" height="44" rx="22" fill="white"/>
<path d="M138.044 259H136.448L131.646 251.734V259H130.05V249.256H131.646L136.448 256.508V249.256H138.044V259ZM143.286 259.126C142.558 259.126 141.9 258.963 141.312 258.636C140.724 258.3 140.262 257.833 139.926 257.236C139.59 256.629 139.422 255.929 139.422 255.136C139.422 254.352 139.595 253.657 139.94 253.05C140.285 252.443 140.757 251.977 141.354 251.65C141.951 251.323 142.619 251.16 143.356 251.16C144.093 251.16 144.761 251.323 145.358 251.65C145.955 251.977 146.427 252.443 146.772 253.05C147.117 253.657 147.29 254.352 147.29 255.136C147.29 255.92 147.113 256.615 146.758 257.222C146.403 257.829 145.918 258.3 145.302 258.636C144.695 258.963 144.023 259.126 143.286 259.126ZM143.286 257.74C143.697 257.74 144.079 257.642 144.434 257.446C144.798 257.25 145.092 256.956 145.316 256.564C145.54 256.172 145.652 255.696 145.652 255.136C145.652 254.576 145.545 254.105 145.33 253.722C145.115 253.33 144.831 253.036 144.476 252.84C144.121 252.644 143.739 252.546 143.328 252.546C142.917 252.546 142.535 252.644 142.18 252.84C141.835 253.036 141.559 253.33 141.354 253.722C141.149 254.105 141.046 254.576 141.046 255.136C141.046 255.967 141.256 256.611 141.676 257.068C142.105 257.516 142.642 257.74 143.286 257.74ZM150.53 252.588V256.858C150.53 257.147 150.595 257.357 150.726 257.488C150.866 257.609 151.099 257.67 151.426 257.67H152.406V259H151.146C150.427 259 149.876 258.832 149.494 258.496C149.111 258.16 148.92 257.614 148.92 256.858V252.588H148.01V251.286H148.92V249.368H150.53V251.286H152.406V252.588H150.53ZM164.183 254.954C164.183 255.243 164.165 255.505 164.127 255.738H158.233C158.28 256.354 158.509 256.849 158.919 257.222C159.33 257.595 159.834 257.782 160.431 257.782C161.29 257.782 161.897 257.423 162.251 256.704H163.973C163.74 257.413 163.315 257.997 162.699 258.454C162.093 258.902 161.337 259.126 160.431 259.126C159.694 259.126 159.031 258.963 158.443 258.636C157.865 258.3 157.407 257.833 157.071 257.236C156.745 256.629 156.581 255.929 156.581 255.136C156.581 254.343 156.74 253.647 157.057 253.05C157.384 252.443 157.837 251.977 158.415 251.65C159.003 251.323 159.675 251.16 160.431 251.16C161.159 251.16 161.808 251.319 162.377 251.636C162.947 251.953 163.39 252.401 163.707 252.98C164.025 253.549 164.183 254.207 164.183 254.954ZM162.517 254.45C162.508 253.862 162.298 253.391 161.887 253.036C161.477 252.681 160.968 252.504 160.361 252.504C159.811 252.504 159.339 252.681 158.947 253.036C158.555 253.381 158.322 253.853 158.247 254.45H162.517ZM169.446 251.16C170.053 251.16 170.594 251.286 171.07 251.538C171.555 251.79 171.933 252.163 172.204 252.658C172.475 253.153 172.61 253.75 172.61 254.45V259H171.028V254.688C171.028 253.997 170.855 253.47 170.51 253.106C170.165 252.733 169.693 252.546 169.096 252.546C168.499 252.546 168.023 252.733 167.668 253.106C167.323 253.47 167.15 253.997 167.15 254.688V259H165.554V251.286H167.15V252.168C167.411 251.851 167.743 251.603 168.144 251.426C168.555 251.249 168.989 251.16 169.446 251.16ZM177.792 259.126C177.064 259.126 176.406 258.963 175.818 258.636C175.23 258.3 174.768 257.833 174.432 257.236C174.096 256.629 173.928 255.929 173.928 255.136C173.928 254.352 174.1 253.657 174.446 253.05C174.791 252.443 175.262 251.977 175.86 251.65C176.457 251.323 177.124 251.16 177.862 251.16C178.599 251.16 179.266 251.323 179.864 251.65C180.461 251.977 180.932 252.443 181.278 253.05C181.623 253.657 181.796 254.352 181.796 255.136C181.796 255.92 181.618 256.615 181.264 257.222C180.909 257.829 180.424 258.3 179.808 258.636C179.201 258.963 178.529 259.126 177.792 259.126ZM177.792 257.74C178.202 257.74 178.585 257.642 178.94 257.446C179.304 257.25 179.598 256.956 179.822 256.564C180.046 256.172 180.158 255.696 180.158 255.136C180.158 254.576 180.05 254.105 179.836 253.722C179.621 253.33 179.336 253.036 178.982 252.84C178.627 252.644 178.244 252.546 177.834 252.546C177.423 252.546 177.04 252.644 176.686 252.84C176.34 253.036 176.065 253.33 175.86 253.722C175.654 254.105 175.552 254.576 175.552 255.136C175.552 255.967 175.762 256.611 176.182 257.068C176.611 257.516 177.148 257.74 177.792 257.74ZM190.159 251.286V259H188.563V258.09C188.311 258.407 187.98 258.659 187.569 258.846C187.168 259.023 186.739 259.112 186.281 259.112C185.675 259.112 185.129 258.986 184.643 258.734C184.167 258.482 183.789 258.109 183.509 257.614C183.239 257.119 183.103 256.522 183.103 255.822V251.286H184.685V255.584C184.685 256.275 184.858 256.807 185.203 257.18C185.549 257.544 186.02 257.726 186.617 257.726C187.215 257.726 187.686 257.544 188.031 257.18C188.386 256.807 188.563 256.275 188.563 255.584V251.286H190.159ZM195.173 251.16C195.771 251.16 196.298 251.281 196.755 251.524C197.222 251.757 197.586 252.051 197.847 252.406V251.286H199.457V259.126C199.457 259.835 199.308 260.465 199.009 261.016C198.711 261.576 198.277 262.015 197.707 262.332C197.147 262.649 196.475 262.808 195.691 262.808C194.646 262.808 193.778 262.561 193.087 262.066C192.397 261.581 192.005 260.918 191.911 260.078H193.493C193.615 260.479 193.871 260.801 194.263 261.044C194.665 261.296 195.141 261.422 195.691 261.422C196.335 261.422 196.853 261.226 197.245 260.834C197.647 260.442 197.847 259.873 197.847 259.126V257.838C197.577 258.202 197.208 258.51 196.741 258.762C196.284 259.005 195.761 259.126 195.173 259.126C194.501 259.126 193.885 258.958 193.325 258.622C192.775 258.277 192.336 257.801 192.009 257.194C191.692 256.578 191.533 255.883 191.533 255.108C191.533 254.333 191.692 253.647 192.009 253.05C192.336 252.453 192.775 251.991 193.325 251.664C193.885 251.328 194.501 251.16 195.173 251.16ZM197.847 255.136C197.847 254.604 197.735 254.142 197.511 253.75C197.297 253.358 197.012 253.059 196.657 252.854C196.303 252.649 195.92 252.546 195.509 252.546C195.099 252.546 194.716 252.649 194.361 252.854C194.007 253.05 193.717 253.344 193.493 253.736C193.279 254.119 193.171 254.576 193.171 255.108C193.171 255.64 193.279 256.107 193.493 256.508C193.717 256.909 194.007 257.217 194.361 257.432C194.725 257.637 195.108 257.74 195.509 257.74C195.92 257.74 196.303 257.637 196.657 257.432C197.012 257.227 197.297 256.928 197.511 256.536C197.735 256.135 197.847 255.668 197.847 255.136ZM205.344 251.16C205.932 251.16 206.454 251.286 206.912 251.538C207.378 251.79 207.742 252.163 208.004 252.658C208.274 253.153 208.41 253.75 208.41 254.45V259H206.828V254.688C206.828 253.997 206.655 253.47 206.31 253.106C205.964 252.733 205.493 252.546 204.896 252.546C204.298 252.546 203.822 252.733 203.468 253.106C203.122 253.47 202.95 253.997 202.95 254.688V259H201.354V248.64H202.95V252.182C203.22 251.855 203.561 251.603 203.972 251.426C204.392 251.249 204.849 251.16 205.344 251.16ZM213.15 255.108C213.15 254.333 213.309 253.647 213.626 253.05C213.953 252.453 214.391 251.991 214.942 251.664C215.502 251.328 216.123 251.16 216.804 251.16C217.308 251.16 217.803 251.272 218.288 251.496C218.783 251.711 219.175 252 219.464 252.364V248.64H221.074V259H219.464V257.838C219.203 258.211 218.839 258.519 218.372 258.762C217.915 259.005 217.387 259.126 216.79 259.126C216.118 259.126 215.502 258.958 214.942 258.622C214.391 258.277 213.953 257.801 213.626 257.194C213.309 256.578 213.15 255.883 213.15 255.108ZM219.464 255.136C219.464 254.604 219.352 254.142 219.128 253.75C218.913 253.358 218.629 253.059 218.274 252.854C217.919 252.649 217.537 252.546 217.126 252.546C216.715 252.546 216.333 252.649 215.978 252.854C215.623 253.05 215.334 253.344 215.11 253.736C214.895 254.119 214.788 254.576 214.788 255.108C214.788 255.64 214.895 256.107 215.11 256.508C215.334 256.909 215.623 257.217 215.978 257.432C216.342 257.637 216.725 257.74 217.126 257.74C217.537 257.74 217.919 257.637 218.274 257.432C218.629 257.227 218.913 256.928 219.128 256.536C219.352 256.135 219.464 255.668 219.464 255.136ZM222.438 255.108C222.438 254.333 222.597 253.647 222.914 253.05C223.241 252.453 223.68 251.991 224.23 251.664C224.79 251.328 225.406 251.16 226.078 251.16C226.685 251.16 227.212 251.281 227.66 251.524C228.118 251.757 228.482 252.051 228.752 252.406V251.286H230.362V259H228.752V257.852C228.482 258.216 228.113 258.519 227.646 258.762C227.18 259.005 226.648 259.126 226.05 259.126C225.388 259.126 224.781 258.958 224.23 258.622C223.68 258.277 223.241 257.801 222.914 257.194C222.597 256.578 222.438 255.883 222.438 255.108ZM228.752 255.136C228.752 254.604 228.64 254.142 228.416 253.75C228.202 253.358 227.917 253.059 227.562 252.854C227.208 252.649 226.825 252.546 226.414 252.546C226.004 252.546 225.621 252.649 225.266 252.854C224.912 253.05 224.622 253.344 224.398 253.736C224.184 254.119 224.076 254.576 224.076 255.108C224.076 255.64 224.184 256.107 224.398 256.508C224.622 256.909 224.912 257.217 225.266 257.432C225.63 257.637 226.013 257.74 226.414 257.74C226.825 257.74 227.208 257.637 227.562 257.432C227.917 257.227 228.202 256.928 228.416 256.536C228.64 256.135 228.752 255.668 228.752 255.136ZM234.121 252.588V256.858C234.121 257.147 234.186 257.357 234.317 257.488C234.457 257.609 234.69 257.67 235.017 257.67H235.997V259H234.737C234.018 259 233.467 258.832 233.085 258.496C232.702 258.16 232.511 257.614 232.511 256.858V252.588H231.601V251.286H232.511V249.368H234.121V251.286H235.997V252.588H234.121ZM236.736 255.108C236.736 254.333 236.894 253.647 237.212 253.05C237.538 252.453 237.977 251.991 238.528 251.664C239.088 251.328 239.704 251.16 240.376 251.16C240.982 251.16 241.51 251.281 241.958 251.524C242.415 251.757 242.779 252.051 243.05 252.406V251.286H244.66V259H243.05V257.852C242.779 258.216 242.41 258.519 241.944 258.762C241.477 259.005 240.945 259.126 240.348 259.126C239.685 259.126 239.078 258.958 238.528 258.622C237.977 258.277 237.538 257.801 237.212 257.194C236.894 256.578 236.736 255.883 236.736 255.108ZM243.05 255.136C243.05 254.604 242.938 254.142 242.714 253.75C242.499 253.358 242.214 253.059 241.86 252.854C241.505 252.649 241.122 252.546 240.712 252.546C240.301 252.546 239.918 252.649 239.564 252.854C239.209 253.05 238.92 253.344 238.696 253.736C238.481 254.119 238.374 254.576 238.374 255.108C238.374 255.64 238.481 256.107 238.696 256.508C238.92 256.909 239.209 257.217 239.564 257.432C239.928 257.637 240.31 257.74 240.712 257.74C241.122 257.74 241.505 257.637 241.86 257.432C242.214 257.227 242.499 256.928 242.714 256.536C242.938 256.135 243.05 255.668 243.05 255.136Z" fill="#202F3D"/>
</g>
<path d="M154.42 153.07C153.773 153.07 153.177 152.92 152.63 152.62C152.09 152.313 151.66 151.89 151.34 151.35C151.027 150.803 150.87 150.19 150.87 149.51C150.87 148.83 151.027 148.22 151.34 147.68C151.66 147.14 152.09 146.72 152.63 146.42C153.177 146.113 153.773 145.96 154.42 145.96C155.073 145.96 155.67 146.113 156.21 146.42C156.757 146.72 157.187 147.14 157.5 147.68C157.813 148.22 157.97 148.83 157.97 149.51C157.97 150.19 157.813 150.803 157.5 151.35C157.187 151.89 156.757 152.313 156.21 152.62C155.67 152.92 155.073 153.07 154.42 153.07ZM154.42 152.08C154.88 152.08 155.29 151.977 155.65 151.77C156.01 151.557 156.29 151.257 156.49 150.87C156.697 150.477 156.8 150.023 156.8 149.51C156.8 148.997 156.697 148.547 156.49 148.16C156.29 147.773 156.01 147.477 155.65 147.27C155.29 147.063 154.88 146.96 154.42 146.96C153.96 146.96 153.55 147.063 153.19 147.27C152.83 147.477 152.547 147.773 152.34 148.16C152.14 148.547 152.04 148.997 152.04 149.51C152.04 150.023 152.14 150.477 152.34 150.87C152.547 151.257 152.83 151.557 153.19 151.77C153.55 151.977 153.96 152.08 154.42 152.08ZM158.612 150.24C158.612 149.673 158.725 149.177 158.952 148.75C159.185 148.317 159.505 147.983 159.912 147.75C160.318 147.517 160.785 147.4 161.312 147.4C161.978 147.4 162.528 147.56 162.962 147.88C163.402 148.193 163.698 148.643 163.852 149.23H162.622C162.522 148.957 162.362 148.743 162.142 148.59C161.922 148.437 161.645 148.36 161.312 148.36C160.845 148.36 160.472 148.527 160.192 148.86C159.918 149.187 159.782 149.647 159.782 150.24C159.782 150.833 159.918 151.297 160.192 151.63C160.472 151.963 160.845 152.13 161.312 152.13C161.972 152.13 162.408 151.84 162.622 151.26H163.852C163.692 151.82 163.392 152.267 162.952 152.6C162.512 152.927 161.965 153.09 161.312 153.09C160.785 153.09 160.318 152.973 159.912 152.74C159.505 152.5 159.185 152.167 158.952 151.74C158.725 151.307 158.612 150.807 158.612 150.24ZM164.508 150.24C164.508 149.673 164.621 149.177 164.848 148.75C165.081 148.317 165.401 147.983 165.808 147.75C166.215 147.517 166.681 147.4 167.208 147.4C167.875 147.4 168.425 147.56 168.858 147.88C169.298 148.193 169.595 148.643 169.748 149.23H168.518C168.418 148.957 168.258 148.743 168.038 148.59C167.818 148.437 167.541 148.36 167.208 148.36C166.741 148.36 166.368 148.527 166.088 148.86C165.815 149.187 165.678 149.647 165.678 150.24C165.678 150.833 165.815 151.297 166.088 151.63C166.368 151.963 166.741 152.13 167.208 152.13C167.868 152.13 168.305 151.84 168.518 151.26H169.748C169.588 151.82 169.288 152.267 168.848 152.6C168.408 152.927 167.861 153.09 167.208 153.09C166.681 153.09 166.215 152.973 165.808 152.74C165.401 152.5 165.081 152.167 164.848 151.74C164.621 151.307 164.508 150.807 164.508 150.24ZM175.774 147.49V153H174.634V152.35C174.454 152.577 174.217 152.757 173.924 152.89C173.637 153.017 173.331 153.08 173.004 153.08C172.571 153.08 172.181 152.99 171.834 152.81C171.494 152.63 171.224 152.363 171.024 152.01C170.831 151.657 170.734 151.23 170.734 150.73V147.49H171.864V150.56C171.864 151.053 171.987 151.433 172.234 151.7C172.481 151.96 172.817 152.09 173.244 152.09C173.671 152.09 174.007 151.96 174.254 151.7C174.507 151.433 174.634 151.053 174.634 150.56V147.49H175.774ZM178.318 148.31C178.511 148.043 178.775 147.827 179.108 147.66C179.448 147.487 179.825 147.4 180.238 147.4C180.725 147.4 181.165 147.517 181.558 147.75C181.951 147.983 182.261 148.317 182.488 148.75C182.715 149.177 182.828 149.667 182.828 150.22C182.828 150.773 182.715 151.27 182.488 151.71C182.261 152.143 181.948 152.483 181.548 152.73C181.155 152.97 180.718 153.09 180.238 153.09C179.811 153.09 179.431 153.007 179.098 152.84C178.771 152.673 178.511 152.46 178.318 152.2V153H177.178V145.6H178.318V148.31ZM181.668 150.22C181.668 149.84 181.588 149.513 181.428 149.24C181.275 148.96 181.068 148.75 180.808 148.61C180.555 148.463 180.281 148.39 179.988 148.39C179.701 148.39 179.428 148.463 179.168 148.61C178.915 148.757 178.708 148.97 178.548 149.25C178.395 149.53 178.318 149.86 178.318 150.24C178.318 150.62 178.395 150.953 178.548 151.24C178.708 151.52 178.915 151.733 179.168 151.88C179.428 152.027 179.701 152.1 179.988 152.1C180.281 152.1 180.555 152.027 180.808 151.88C181.068 151.727 181.275 151.507 181.428 151.22C181.588 150.933 181.668 150.6 181.668 150.22ZM188.845 147.49V153H187.705V152.35C187.525 152.577 187.289 152.757 186.995 152.89C186.709 153.017 186.402 153.08 186.075 153.08C185.642 153.08 185.252 152.99 184.905 152.81C184.565 152.63 184.295 152.363 184.095 152.01C183.902 151.657 183.805 151.23 183.805 150.73V147.49H184.935V150.56C184.935 151.053 185.059 151.433 185.305 151.7C185.552 151.96 185.889 152.09 186.315 152.09C186.742 152.09 187.079 151.96 187.325 151.7C187.579 151.433 187.705 151.053 187.705 150.56V147.49H188.845ZM195.21 147.49L191.83 155.59H190.65L191.77 152.91L189.6 147.49H190.87L192.42 151.69L194.03 147.49H195.21ZM200.468 153.09C200.034 153.09 199.644 153.013 199.298 152.86C198.958 152.7 198.688 152.487 198.488 152.22C198.288 151.947 198.181 151.643 198.168 151.31H199.348C199.368 151.543 199.478 151.74 199.678 151.9C199.884 152.053 200.141 152.13 200.448 152.13C200.768 152.13 201.014 152.07 201.188 151.95C201.368 151.823 201.458 151.663 201.458 151.47C201.458 151.263 201.358 151.11 201.158 151.01C200.964 150.91 200.654 150.8 200.228 150.68C199.814 150.567 199.478 150.457 199.218 150.35C198.958 150.243 198.731 150.08 198.538 149.86C198.351 149.64 198.258 149.35 198.258 148.99C198.258 148.697 198.344 148.43 198.518 148.19C198.691 147.943 198.938 147.75 199.258 147.61C199.584 147.47 199.958 147.4 200.378 147.4C201.004 147.4 201.508 147.56 201.888 147.88C202.274 148.193 202.481 148.623 202.508 149.17H201.368C201.348 148.923 201.248 148.727 201.068 148.58C200.888 148.433 200.644 148.36 200.338 148.36C200.038 148.36 199.808 148.417 199.648 148.53C199.488 148.643 199.408 148.793 199.408 148.98C199.408 149.127 199.461 149.25 199.568 149.35C199.674 149.45 199.804 149.53 199.958 149.59C200.111 149.643 200.338 149.713 200.638 149.8C201.038 149.907 201.364 150.017 201.618 150.13C201.878 150.237 202.101 150.397 202.288 150.61C202.474 150.823 202.571 151.107 202.578 151.46C202.578 151.773 202.491 152.053 202.318 152.3C202.144 152.547 201.898 152.74 201.578 152.88C201.264 153.02 200.894 153.09 200.468 153.09ZM203.329 150.24C203.329 149.673 203.443 149.177 203.669 148.75C203.903 148.317 204.223 147.983 204.629 147.75C205.036 147.517 205.503 147.4 206.029 147.4C206.696 147.4 207.246 147.56 207.679 147.88C208.119 148.193 208.416 148.643 208.569 149.23H207.339C207.239 148.957 207.079 148.743 206.859 148.59C206.639 148.437 206.363 148.36 206.029 148.36C205.563 148.36 205.189 148.527 204.909 148.86C204.636 149.187 204.499 149.647 204.499 150.24C204.499 150.833 204.636 151.297 204.909 151.63C205.189 151.963 205.563 152.13 206.029 152.13C206.689 152.13 207.126 151.84 207.339 151.26H208.569C208.409 151.82 208.109 152.267 207.669 152.6C207.229 152.927 206.683 153.09 206.029 153.09C205.503 153.09 205.036 152.973 204.629 152.74C204.223 152.5 203.903 152.167 203.669 151.74C203.443 151.307 203.329 150.807 203.329 150.24ZM211.995 153.09C211.475 153.09 211.005 152.973 210.585 152.74C210.165 152.5 209.835 152.167 209.595 151.74C209.355 151.307 209.235 150.807 209.235 150.24C209.235 149.68 209.359 149.183 209.605 148.75C209.852 148.317 210.189 147.983 210.615 147.75C211.042 147.517 211.519 147.4 212.045 147.4C212.572 147.4 213.049 147.517 213.475 147.75C213.902 147.983 214.239 148.317 214.485 148.75C214.732 149.183 214.855 149.68 214.855 150.24C214.855 150.8 214.729 151.297 214.475 151.73C214.222 152.163 213.875 152.5 213.435 152.74C213.002 152.973 212.522 153.09 211.995 153.09ZM211.995 152.1C212.289 152.1 212.562 152.03 212.815 151.89C213.075 151.75 213.285 151.54 213.445 151.26C213.605 150.98 213.685 150.64 213.685 150.24C213.685 149.84 213.609 149.503 213.455 149.23C213.302 148.95 213.099 148.74 212.845 148.6C212.592 148.46 212.319 148.39 212.025 148.39C211.732 148.39 211.459 148.46 211.205 148.6C210.959 148.74 210.762 148.95 210.615 149.23C210.469 149.503 210.395 149.84 210.395 150.24C210.395 150.833 210.545 151.293 210.845 151.62C211.152 151.94 211.535 152.1 211.995 152.1ZM217.022 148.29C217.189 148.01 217.409 147.793 217.682 147.64C217.962 147.48 218.292 147.4 218.672 147.4V148.58H218.382C217.936 148.58 217.596 148.693 217.362 148.92C217.136 149.147 217.022 149.54 217.022 150.1V153H215.882V147.49H217.022V148.29ZM224.67 150.11C224.67 150.317 224.657 150.503 224.63 150.67H220.42C220.454 151.11 220.617 151.463 220.91 151.73C221.204 151.997 221.564 152.13 221.99 152.13C222.604 152.13 223.037 151.873 223.29 151.36H224.52C224.354 151.867 224.05 152.283 223.61 152.61C223.177 152.93 222.637 153.09 221.99 153.09C221.464 153.09 220.99 152.973 220.57 152.74C220.157 152.5 219.83 152.167 219.59 151.74C219.357 151.307 219.24 150.807 219.24 150.24C219.24 149.673 219.354 149.177 219.58 148.75C219.814 148.317 220.137 147.983 220.55 147.75C220.97 147.517 221.45 147.4 221.99 147.4C222.51 147.4 222.974 147.513 223.38 147.74C223.787 147.967 224.104 148.287 224.33 148.7C224.557 149.107 224.67 149.577 224.67 150.11ZM223.48 149.75C223.474 149.33 223.324 148.993 223.03 148.74C222.737 148.487 222.374 148.36 221.94 148.36C221.547 148.36 221.21 148.487 220.93 148.74C220.65 148.987 220.484 149.323 220.43 149.75H223.48Z" fill="#202F3D"/>
<path d="M176.753 185C176.753 180.413 177.633 176.8 179.393 174.16C181.18 171.52 184.046 170.2 187.993 170.2C191.94 170.2 194.793 171.52 196.553 174.16C198.34 176.8 199.233 180.413 199.233 185C199.233 189.64 198.34 193.28 196.553 195.92C194.793 198.56 191.94 199.88 187.993 199.88C184.046 199.88 181.18 198.56 179.393 195.92C177.633 193.28 176.753 189.64 176.753 185ZM192.513 185C192.513 182.307 192.22 180.24 191.633 178.8C191.046 177.333 189.833 176.6 187.993 176.6C186.153 176.6 184.94 177.333 184.353 178.8C183.766 180.24 183.473 182.307 183.473 185C183.473 186.813 183.58 188.32 183.793 189.52C184.006 190.693 184.433 191.653 185.073 192.4C185.74 193.12 186.713 193.48 187.993 193.48C189.273 193.48 190.233 193.12 190.873 192.4C191.54 191.653 191.98 190.693 192.193 189.52C192.406 188.32 192.513 186.813 192.513 185Z" fill="#202F3D"/>
</g>
<defs>
<filter id="filter0_b_1_45560" x="105" y="224" width="165" height="60" filterUnits="userSpaceOnUse" color-interpolation-filters="sRGB">
<feFlood flood-opacity="0" result="BackgroundImageFix"/>
<feGaussianBlur in="BackgroundImage" stdDeviation="4"/>
<feComposite in2="SourceAlpha" operator="in" result="effect1_backgroundBlur_1_45560"/>
<feBlend mode="normal" in="SourceGraphic" in2="effect1_backgroundBlur_1_45560" result="shape"/>
</filter>
<clipPath id="clip0_1_45560">
<rect width="375" height="340" fill="white"/>
</clipPath>
<clipPath id="clip1_1_45560">
<rect width="375" height="340" fill="white"/>
</clipPath>
<clipPath id="clip2_1_45560">
<rect width="303" height="208" fill="white" transform="translate(36 46)"/>
</clipPath>
</defs>
</svg>
