<svg width="375" height="300" viewBox="0 0 375 300" fill="none" xmlns="http://www.w3.org/2000/svg">
<g clip-path="url(#clip0_1_45666)">
<rect width="375" height="300" fill="#FBEDC3"/>
<path d="M-38.2106 280.226C-42.0311 277.476 -43.3392 272.719 -42.9273 268.148C-40.934 246.031 -10.1707 235.327 8.79552 236.033C66.9775 238.199 114.143 278.704 171.135 285.354C180.933 286.497 220.301 286.96 223.669 273.829C226.674 262.112 208.453 259.647 201.057 260.27C176.034 262.378 152.485 277.003 129.475 285.778C121.324 288.887 113.215 292.003 105.002 294.979C94.0218 298.956 83.0307 300.382 71.5608 302" stroke="#F5CE93" stroke-width="2" stroke-miterlimit="1.5" stroke-linecap="round" stroke-linejoin="round"/>
<path d="M295.194 131.96L290.778 149.656H289.674L294.058 131.96H295.194Z" fill="#6A747D"/>
<path d="M301.167 136.76V135.432H304.175V147H302.703V136.76H301.167ZM306.092 136.76V135.432H309.1V147H307.628V136.76H306.092ZM311.401 141.096C311.401 139.261 311.7 137.832 312.297 136.808C312.895 135.773 313.94 135.256 315.433 135.256C316.916 135.256 317.956 135.773 318.553 136.808C319.151 137.832 319.449 139.261 319.449 141.096C319.449 142.963 319.151 144.413 318.553 145.448C317.956 146.483 316.916 147 315.433 147C313.94 147 312.895 146.483 312.297 145.448C311.7 144.413 311.401 142.963 311.401 141.096ZM318.009 141.096C318.009 140.168 317.945 139.384 317.817 138.744C317.7 138.093 317.449 137.571 317.065 137.176C316.692 136.781 316.148 136.584 315.433 136.584C314.708 136.584 314.153 136.781 313.769 137.176C313.396 137.571 313.145 138.093 313.017 138.744C312.9 139.384 312.841 140.168 312.841 141.096C312.841 142.056 312.9 142.861 313.017 143.512C313.145 144.163 313.396 144.685 313.769 145.08C314.153 145.475 314.708 145.672 315.433 145.672C316.148 145.672 316.692 145.475 317.065 145.08C317.449 144.685 317.7 144.163 317.817 143.512C317.945 142.861 318.009 142.056 318.009 141.096ZM336.098 138.072C336.781 138.072 337.389 138.216 337.922 138.504C338.455 138.781 338.877 139.203 339.186 139.768C339.495 140.333 339.65 141.021 339.65 141.832V147H338.21V142.04C338.21 141.165 337.991 140.499 337.554 140.04C337.127 139.571 336.546 139.336 335.81 139.336C335.053 139.336 334.45 139.581 334.002 140.072C333.554 140.552 333.33 141.251 333.33 142.168V147H331.89V142.04C331.89 141.165 331.671 140.499 331.234 140.04C330.807 139.571 330.226 139.336 329.49 139.336C328.733 139.336 328.13 139.581 327.682 140.072C327.234 140.552 327.01 141.251 327.01 142.168V147H325.554V138.232H327.01V139.496C327.298 139.037 327.682 138.685 328.162 138.44C328.653 138.195 329.191 138.072 329.778 138.072C330.514 138.072 331.165 138.237 331.73 138.568C332.295 138.899 332.717 139.384 332.994 140.024C333.239 139.405 333.645 138.925 334.21 138.584C334.775 138.243 335.405 138.072 336.098 138.072ZM345.662 147.144C344.841 147.144 344.094 146.957 343.422 146.584C342.761 146.211 342.238 145.683 341.854 145C341.481 144.307 341.294 143.507 341.294 142.6C341.294 141.704 341.486 140.915 341.87 140.232C342.265 139.539 342.798 139.011 343.47 138.648C344.142 138.275 344.894 138.088 345.726 138.088C346.558 138.088 347.31 138.275 347.982 138.648C348.654 139.011 349.182 139.533 349.566 140.216C349.961 140.899 350.158 141.693 350.158 142.6C350.158 143.507 349.956 144.307 349.55 145C349.156 145.683 348.617 146.211 347.934 146.584C347.252 146.957 346.494 147.144 345.662 147.144ZM345.662 145.864C346.185 145.864 346.676 145.741 347.134 145.496C347.593 145.251 347.961 144.883 348.238 144.392C348.526 143.901 348.67 143.304 348.67 142.6C348.67 141.896 348.532 141.299 348.254 140.808C347.977 140.317 347.614 139.955 347.166 139.72C346.718 139.475 346.233 139.352 345.71 139.352C345.177 139.352 344.686 139.475 344.238 139.72C343.801 139.955 343.449 140.317 343.182 140.808C342.916 141.299 342.782 141.896 342.782 142.6C342.782 143.315 342.91 143.917 343.166 144.408C343.433 144.899 343.785 145.267 344.222 145.512C344.66 145.747 345.14 145.864 345.662 145.864ZM354.977 147.144C354.305 147.144 353.702 147.032 353.169 146.808C352.635 146.573 352.214 146.253 351.905 145.848C351.595 145.432 351.425 144.957 351.393 144.424H352.897C352.939 144.861 353.142 145.219 353.505 145.496C353.878 145.773 354.363 145.912 354.961 145.912C355.515 145.912 355.953 145.789 356.273 145.544C356.593 145.299 356.753 144.989 356.753 144.616C356.753 144.232 356.582 143.949 356.241 143.768C355.899 143.576 355.371 143.389 354.657 143.208C354.006 143.037 353.473 142.867 353.057 142.696C352.651 142.515 352.299 142.253 352.001 141.912C351.713 141.56 351.569 141.101 351.569 140.536C351.569 140.088 351.702 139.677 351.969 139.304C352.235 138.931 352.614 138.637 353.105 138.424C353.595 138.2 354.155 138.088 354.785 138.088C355.755 138.088 356.539 138.333 357.137 138.824C357.734 139.315 358.054 139.987 358.097 140.84H356.641C356.609 140.381 356.422 140.013 356.081 139.736C355.75 139.459 355.302 139.32 354.737 139.32C354.214 139.32 353.798 139.432 353.489 139.656C353.179 139.88 353.025 140.173 353.025 140.536C353.025 140.824 353.115 141.064 353.297 141.256C353.489 141.437 353.723 141.587 354.001 141.704C354.289 141.811 354.683 141.933 355.185 142.072C355.814 142.243 356.326 142.413 356.721 142.584C357.115 142.744 357.451 142.989 357.729 143.32C358.017 143.651 358.166 144.083 358.177 144.616C358.177 145.096 358.043 145.528 357.777 145.912C357.51 146.296 357.131 146.6 356.641 146.824C356.161 147.037 355.606 147.144 354.977 147.144Z" fill="#6A747D"/>
<g clip-path="url(#clip1_1_45666)">
<path d="M17 174.001C17 171.24 19.2386 169.001 22 169.001H353C355.761 169.001 358 171.24 358 174.001V182.001C358 184.762 355.761 187.001 353 187.001H22C19.2386 187.001 17 184.762 17 182.001V174.001Z" fill="#F5CE93" stroke="#EDA076" stroke-width="2"/>
<path d="M50.2 173.5C50.2 173.224 50.4238 173 50.7 173C50.9761 173 51.2 173.224 51.2 173.5V182.5C51.2 182.777 50.9761 183 50.7 183C50.4238 183 50.2 182.777 50.2 182.5V173.5Z" fill="#202F3D"/>
<path d="M84.3999 173.5C84.3999 173.224 84.6238 173 84.8999 173C85.176 173 85.3999 173.224 85.3999 173.5V182.5C85.3999 182.777 85.176 183 84.8999 183C84.6238 183 84.3999 182.777 84.3999 182.5V173.5Z" fill="#202F3D"/>
<path d="M118.6 173.5C118.6 173.224 118.824 173 119.1 173C119.376 173 119.6 173.224 119.6 173.5V182.5C119.6 182.777 119.376 183 119.1 183C118.824 183 118.6 182.777 118.6 182.5V173.5Z" fill="#202F3D"/>
<path d="M152.8 173.5C152.8 173.224 153.024 173 153.3 173C153.576 173 153.8 173.224 153.8 173.5V182.5C153.8 182.777 153.576 183 153.3 183C153.024 183 152.8 182.777 152.8 182.5V173.5Z" fill="#202F3D"/>
<path d="M187 173.5C187 173.224 187.224 173 187.5 173C187.776 173 188 173.224 188 173.5V182.5C188 182.777 187.776 183 187.5 183C187.224 183 187 182.777 187 182.5V173.5Z" fill="#202F3D"/>
<path d="M221.2 173.5C221.2 173.224 221.424 173 221.7 173C221.976 173 222.2 173.224 222.2 173.5V182.5C222.2 182.777 221.976 183 221.7 183C221.424 183 221.2 182.777 221.2 182.5V173.5Z" fill="#202F3D"/>
<path d="M255.4 173.5C255.4 173.224 255.624 173 255.9 173C256.176 173 256.4 173.224 256.4 173.5V182.5C256.4 182.777 256.176 183 255.9 183C255.624 183 255.4 182.777 255.4 182.5V173.5Z" fill="#202F3D"/>
<path d="M289.6 173.5C289.6 173.224 289.824 173 290.1 173C290.376 173 290.6 173.224 290.6 173.5V182.5C290.6 182.777 290.376 183 290.1 183C289.824 183 289.6 182.777 289.6 182.5V173.5Z" fill="#202F3D"/>
<path d="M323.8 173.5C323.8 173.224 324.024 173 324.3 173C324.576 173 324.8 173.224 324.8 173.5V182.5C324.8 182.777 324.576 183 324.3 183C324.024 183 323.8 182.777 323.8 182.5V173.5Z" fill="#202F3D"/>
<path d="M358 173.5C358 173.224 358.224 173 358.5 173C358.776 173 359 173.224 359 173.5V182.5C359 182.777 358.776 183 358.5 183C358.224 183 358 182.777 358 182.5V173.5Z" fill="#202F3D"/>
<path d="M16.5 172.001C16.5 170.068 18.067 168.501 20 168.501H31.1V187.501H20C18.067 187.501 16.5 185.934 16.5 184.001V172.001Z" fill="#FFA9D8" stroke="#202F3D"/>
</g>
<rect x="16.5" y="168.501" width="342" height="19" rx="5.5" stroke="#202F3D"/>
<path d="M31.652 130.732H22.916V134.596C23.2893 134.185 23.812 133.849 24.484 133.588C25.156 133.327 25.884 133.196 26.668 133.196C28.068 133.196 29.2253 133.513 30.14 134.148C31.0733 134.783 31.7547 135.604 32.184 136.612C32.6133 137.62 32.828 138.712 32.828 139.888C32.828 142.072 32.212 143.808 30.98 145.096C29.748 146.365 28.012 147 25.772 147C24.2787 147 22.9813 146.748 21.88 146.244C20.7787 145.721 19.9293 145.003 19.332 144.088C18.7347 143.173 18.408 142.119 18.352 140.924H23.028C23.14 141.503 23.4107 141.988 23.84 142.38C24.2693 142.753 24.8573 142.94 25.604 142.94C26.4813 142.94 27.1347 142.66 27.564 142.1C27.9933 141.54 28.208 140.793 28.208 139.86C28.208 138.945 27.984 138.245 27.536 137.76C27.088 137.275 26.4347 137.032 25.576 137.032C24.9413 137.032 24.4187 137.191 24.008 137.508C23.5973 137.807 23.3267 138.208 23.196 138.712H18.576V126.532H31.652V130.732ZM60.8165 131.208C62.7579 131.208 64.2979 131.796 65.4365 132.972C66.5939 134.148 67.1725 135.781 67.1725 137.872V147H62.4125V138.516C62.4125 137.508 62.1419 136.733 61.6005 136.192C61.0779 135.632 60.3499 135.352 59.4165 135.352C58.4832 135.352 57.7459 135.632 57.2045 136.192C56.6819 136.733 56.4205 137.508 56.4205 138.516V147H51.6605V138.516C51.6605 137.508 51.3899 136.733 50.8485 136.192C50.3259 135.632 49.5979 135.352 48.6645 135.352C47.7312 135.352 46.9939 135.632 46.4525 136.192C45.9299 136.733 45.6685 137.508 45.6685 138.516V147H40.8805V131.376H45.6685V133.336C46.1539 132.683 46.7885 132.169 47.5725 131.796C48.3565 131.404 49.2432 131.208 50.2325 131.208C51.4085 131.208 52.4539 131.46 53.3685 131.964C54.3019 132.468 55.0299 133.187 55.5525 134.12C56.0939 133.261 56.8312 132.561 57.7645 132.02C58.6979 131.479 59.7152 131.208 60.8165 131.208ZM77.1332 147.224C75.6025 147.224 74.2212 146.897 72.9892 146.244C71.7758 145.591 70.8145 144.657 70.1052 143.444C69.4145 142.231 69.0692 140.812 69.0692 139.188C69.0692 137.583 69.4238 136.173 70.1332 134.96C70.8425 133.728 71.8132 132.785 73.0452 132.132C74.2772 131.479 75.6585 131.152 77.1892 131.152C78.7198 131.152 80.1012 131.479 81.3332 132.132C82.5652 132.785 83.5358 133.728 84.2452 134.96C84.9545 136.173 85.3092 137.583 85.3092 139.188C85.3092 140.793 84.9452 142.212 84.2172 143.444C83.5078 144.657 82.5278 145.591 81.2772 146.244C80.0452 146.897 78.6638 147.224 77.1332 147.224ZM77.1332 143.08C78.0478 143.08 78.8225 142.744 79.4572 142.072C80.1105 141.4 80.4372 140.439 80.4372 139.188C80.4372 137.937 80.1198 136.976 79.4852 136.304C78.8692 135.632 78.1038 135.296 77.1892 135.296C76.2558 135.296 75.4812 135.632 74.8652 136.304C74.2492 136.957 73.9412 137.919 73.9412 139.188C73.9412 140.439 74.2398 141.4 74.8372 142.072C75.4532 142.744 76.2185 143.08 77.1332 143.08ZM93.7053 147.224C92.3426 147.224 91.1293 146.991 90.0653 146.524C89.0013 146.057 88.1613 145.423 87.5453 144.62C86.9293 143.799 86.5839 142.884 86.5093 141.876H91.2413C91.2973 142.417 91.5493 142.856 91.9973 143.192C92.4453 143.528 92.9959 143.696 93.6493 143.696C94.2466 143.696 94.7039 143.584 95.0213 143.36C95.3573 143.117 95.5253 142.809 95.5253 142.436C95.5253 141.988 95.2919 141.661 94.8253 141.456C94.3586 141.232 93.6026 140.989 92.5573 140.728C91.4373 140.467 90.5039 140.196 89.7573 139.916C89.0106 139.617 88.3666 139.16 87.8253 138.544C87.2839 137.909 87.0133 137.06 87.0133 135.996C87.0133 135.1 87.2559 134.288 87.7413 133.56C88.2453 132.813 88.9733 132.225 89.9253 131.796C90.8959 131.367 92.0439 131.152 93.3693 131.152C95.3293 131.152 96.8693 131.637 97.9893 132.608C99.1279 133.579 99.7813 134.867 99.9493 136.472H95.5253C95.4506 135.931 95.2079 135.501 94.7973 135.184C94.4053 134.867 93.8826 134.708 93.2293 134.708C92.6693 134.708 92.2399 134.82 91.9413 135.044C91.6426 135.249 91.4933 135.539 91.4933 135.912C91.4933 136.36 91.7266 136.696 92.1933 136.92C92.6786 137.144 93.4253 137.368 94.4333 137.592C95.5906 137.891 96.5333 138.189 97.2613 138.488C97.9893 138.768 98.6239 139.235 99.1653 139.888C99.7253 140.523 100.015 141.381 100.033 142.464C100.033 143.379 99.7719 144.2 99.2493 144.928C98.7453 145.637 98.0079 146.197 97.0373 146.608C96.0853 147.019 94.9746 147.224 93.7053 147.224Z" fill="#202F3D"/>
<circle cx="147.5" cy="91.5" r="3.5" fill="#F5CE93"/>
<circle cx="293" cy="64" r="3" fill="#F5CE93"/>
<path d="M175.914 69.3254C175.755 77.1142 170.779 81.0086 179.106 79.9571C191.874 78.3215 194.432 75.3033 193.223 84.4162C193.064 85.643 193.005 85.2535 199.171 87.707C202.264 88.9532 200.856 90.4915 199.171 89.8489C193.54 87.5901 191.062 87.2591 191.24 84.8446C191.637 80.5802 192.192 79.8208 190.546 80.0934C179.423 81.8459 177.54 82.2548 175.537 82.0406C167.725 81.2228 177.678 69.0139 172.345 66.4631C168.598 64.6327 167.348 67.5535 149.365 74.5829C148.374 74.9723 147.383 75.3618 147.065 74.4466C146.748 73.5314 147.66 73.473 148.156 73.2783C166 66.0931 164.176 65.7426 167.983 64.5159C168.821 64.1308 169.743 63.9567 170.666 64.0091C171.59 64.0615 172.485 64.3388 173.272 64.8161C174.058 65.2933 174.713 65.9553 175.174 66.7427C175.635 67.5298 175.889 68.4174 175.914 69.3254Z" fill="#F5CE93"/>
<path fill-rule="evenodd" clip-rule="evenodd" d="M329.884 85.9425C335.09 83.1487 340.059 80.4962 345.15 77.5015C347.578 76.0731 350.18 74.258 352.537 72.7098C349.471 71.0826 347.602 70.6589 344.561 69.0032C344.561 69.0032 348.677 62.8475 351.47 58.3528C344.777 61.1619 337.552 67.6995 333.771 71.5246C335.956 72.6019 338.204 73.6681 340.472 74.5582C336.993 78.3928 333.408 82.153 329.884 85.9425Z" stroke="#F5CE93" stroke-width="2" stroke-miterlimit="1.5" stroke-linecap="round" stroke-linejoin="round"/>
<mask id="path-23-outside-1_1_45666" maskUnits="userSpaceOnUse" x="220.456" y="106.066" width="51.0935" height="52.7962" fill="black">
<rect fill="white" x="220.456" y="106.066" width="51.0935" height="52.7962"/>
<path d="M227.964 151.924L258.107 156.153C258.161 156.161 258.212 156.126 258.224 156.073C258.275 155.845 263.287 133.54 263.894 128.601C264.008 128.682 264.057 128.708 264.088 128.72C264.955 129.073 266.985 128.747 267.343 127.87C267.371 127.801 267.352 127.715 267.28 127.591C266.693 126.569 262.184 122.381 257.977 118.682C254.074 115.252 249.255 111.21 248.515 111.106C247.696 110.992 240.94 114.225 237.078 116.153C234.336 117.522 231.784 118.852 229.892 119.898C226.617 121.707 226.581 121.964 226.565 122.073C226.506 122.5 226.788 123.126 227.321 123.748C227.818 124.328 228.388 124.738 228.773 124.792C228.857 124.804 229.044 124.765 229.793 124.418C229.033 129.089 227.886 151.586 227.875 151.816C227.872 151.87 227.911 151.917 227.964 151.924ZM258.041 155.934L228.088 151.731C228.172 150.096 229.3 128.299 230.032 124.258C230.039 124.22 230.024 124.181 229.993 124.157C229.962 124.133 229.921 124.129 229.885 124.145C229.004 124.56 228.832 124.587 228.8 124.586C228.469 124.539 227.938 124.148 227.479 123.612C226.993 123.045 226.722 122.468 226.771 122.105C226.801 122.029 227.133 121.656 230.091 120.025C231.994 118.977 234.539 117.652 237.26 116.295C243.301 113.282 247.917 111.233 248.486 111.313C249.055 111.393 253.185 114.729 258.301 119.246C260.663 121.331 262.84 123.322 264.429 124.851C266.899 127.228 267.137 127.707 267.147 127.799C266.829 128.546 264.924 128.836 264.167 128.527C264.143 128.517 264.073 128.479 263.874 128.328C263.844 128.305 263.804 128.3 263.77 128.315C263.735 128.33 263.712 128.362 263.708 128.4C263.225 132.789 258.403 154.323 258.041 155.934L258.041 155.934Z"/>
</mask>
<path d="M227.964 151.924L258.107 156.153C258.161 156.161 258.212 156.126 258.224 156.073C258.275 155.845 263.287 133.54 263.894 128.601C264.008 128.682 264.057 128.708 264.088 128.72C264.955 129.073 266.985 128.747 267.343 127.87C267.371 127.801 267.352 127.715 267.28 127.591C266.693 126.569 262.184 122.381 257.977 118.682C254.074 115.252 249.255 111.21 248.515 111.106C247.696 110.992 240.94 114.225 237.078 116.153C234.336 117.522 231.784 118.852 229.892 119.898C226.617 121.707 226.581 121.964 226.565 122.073C226.506 122.5 226.788 123.126 227.321 123.748C227.818 124.328 228.388 124.738 228.773 124.792C228.857 124.804 229.044 124.765 229.793 124.418C229.033 129.089 227.886 151.586 227.875 151.816C227.872 151.87 227.911 151.917 227.964 151.924ZM258.041 155.934L228.088 151.731C228.172 150.096 229.3 128.299 230.032 124.258C230.039 124.22 230.024 124.181 229.993 124.157C229.962 124.133 229.921 124.129 229.885 124.145C229.004 124.56 228.832 124.587 228.8 124.586C228.469 124.539 227.938 124.148 227.479 123.612C226.993 123.045 226.722 122.468 226.771 122.105C226.801 122.029 227.133 121.656 230.091 120.025C231.994 118.977 234.539 117.652 237.26 116.295C243.301 113.282 247.917 111.233 248.486 111.313C249.055 111.393 253.185 114.729 258.301 119.246C260.663 121.331 262.84 123.322 264.429 124.851C266.899 127.228 267.137 127.707 267.147 127.799C266.829 128.546 264.924 128.836 264.167 128.527C264.143 128.517 264.073 128.479 263.874 128.328C263.844 128.305 263.804 128.3 263.77 128.315C263.735 128.33 263.712 128.362 263.708 128.4C263.225 132.789 258.403 154.323 258.041 155.934L258.041 155.934Z" fill="#F5CE93"/>
<path d="M258.224 156.073L256.745 155.741L256.745 155.74L258.224 156.073ZM263.894 128.601L262.389 128.416L262.699 125.895L264.771 127.365L263.894 128.601ZM264.088 128.72L263.516 130.124L263.516 130.124L264.088 128.72ZM267.343 127.87L268.746 128.443L268.746 128.443L267.343 127.87ZM267.28 127.591L265.966 128.347L265.966 128.346L267.28 127.591ZM257.977 118.682L256.976 119.821L256.976 119.821L257.977 118.682ZM237.078 116.153L236.4 114.797L236.4 114.797L237.078 116.153ZM229.892 119.898L229.158 118.571L229.158 118.571L229.892 119.898ZM227.321 123.748L228.472 122.762L228.472 122.762L227.321 123.748ZM229.793 124.418L229.157 123.042L231.748 121.844L231.29 124.662L229.793 124.418ZM227.875 151.816L229.388 151.893L229.388 151.894L227.875 151.816ZM228.088 151.731L227.877 153.232L226.503 153.039L226.574 151.654L228.088 151.731ZM230.032 124.258L231.524 124.528L231.524 124.528L230.032 124.258ZM229.993 124.157L229.07 125.359L229.07 125.359L229.993 124.157ZM229.885 124.145L229.239 122.774L229.242 122.773L229.885 124.145ZM228.8 124.586L228.724 126.1L228.656 126.096L228.589 126.087L228.8 124.586ZM227.479 123.612L228.63 122.626L228.63 122.626L227.479 123.612ZM226.771 122.105L225.269 121.903L225.293 121.725L225.358 121.557L226.771 122.105ZM230.091 120.025L229.36 118.698L229.36 118.698L230.091 120.025ZM237.26 116.295L236.583 114.939L236.583 114.939L237.26 116.295ZM258.301 119.246L257.298 120.382L257.298 120.382L258.301 119.246ZM264.429 124.851L265.48 123.759L265.48 123.759L264.429 124.851ZM267.147 127.799L268.655 127.648L268.694 128.035L268.541 128.393L267.147 127.799ZM264.167 128.527L264.738 127.123L264.738 127.123L264.167 128.527ZM263.874 128.328L264.789 127.119L264.79 127.12L263.874 128.328ZM263.77 128.315L263.172 126.923L263.172 126.922L263.77 128.315ZM263.708 128.4L265.214 128.565L265.214 128.565L263.708 128.4ZM258.041 155.934L257.831 157.435L256.202 157.206L256.562 155.602L258.041 155.934ZM228.175 150.423L258.318 154.652L257.897 157.654L227.754 153.425L228.175 150.423ZM258.318 154.652C257.59 154.55 256.906 155.024 256.745 155.741L259.702 156.405C259.518 157.228 258.732 157.772 257.897 157.654L258.318 154.652ZM256.745 155.74C256.81 155.452 261.795 133.258 262.389 128.416L265.398 128.786C264.78 133.822 259.74 156.239 259.702 156.406L256.745 155.74ZM264.771 127.365C264.807 127.391 264.812 127.392 264.795 127.383C264.786 127.377 264.768 127.367 264.744 127.354C264.718 127.341 264.69 127.329 264.66 127.316L263.516 130.124C263.324 130.046 263.162 129.941 263.017 129.838L264.771 127.365ZM264.659 127.316C264.639 127.308 264.724 127.34 264.938 127.344C265.133 127.347 265.36 127.325 265.577 127.277C265.801 127.227 265.958 127.162 266.041 127.113C266.142 127.055 266.025 127.089 265.94 127.297L268.746 128.443C268.482 129.09 267.977 129.494 267.569 129.732C267.144 129.98 266.673 130.139 266.236 130.236C265.427 130.416 264.353 130.465 263.516 130.124L264.659 127.316ZM265.94 127.297C265.813 127.609 265.828 127.895 265.87 128.084C265.907 128.247 265.965 128.343 265.966 128.347L268.594 126.835C268.7 127.019 269.061 127.672 268.746 128.443L265.94 127.297ZM265.966 128.346C265.967 128.348 265.91 128.259 265.732 128.052C265.571 127.863 265.352 127.624 265.078 127.338C264.53 126.768 263.798 126.051 262.943 125.24C261.235 123.62 259.071 121.662 256.976 119.821L258.978 117.544C261.091 119.401 263.285 121.386 265.029 123.04C265.9 123.866 266.669 124.619 267.263 125.238C267.807 125.803 268.338 126.39 268.594 126.835L265.966 128.346ZM256.976 119.821C255.033 118.113 252.868 116.259 251.103 114.823C250.219 114.103 249.45 113.502 248.867 113.079C248.573 112.866 248.348 112.714 248.189 112.618C248.109 112.57 248.067 112.548 248.055 112.543C248.017 112.525 248.121 112.582 248.304 112.608L248.725 109.605C249.001 109.644 249.23 109.745 249.345 109.799C249.487 109.866 249.628 109.945 249.758 110.024C250.02 110.183 250.323 110.39 250.646 110.624C251.297 111.096 252.116 111.739 253.016 112.471C254.822 113.94 257.019 115.822 258.978 117.544L256.976 119.821ZM248.304 112.608C248.506 112.636 248.631 112.602 248.572 112.613C248.55 112.617 248.49 112.631 248.382 112.663C248.169 112.727 247.867 112.834 247.479 112.987C246.707 113.289 245.694 113.73 244.566 114.243C242.314 115.268 239.677 116.55 237.755 117.509L236.4 114.797C238.341 113.828 241.013 112.529 243.31 111.484C244.455 110.963 245.526 110.496 246.372 110.164C246.793 109.999 247.183 109.858 247.511 109.759C247.674 109.71 247.847 109.664 248.015 109.633C248.148 109.608 248.421 109.563 248.725 109.605L248.304 112.608ZM237.755 117.509C235.025 118.872 232.493 120.192 230.625 121.224L229.158 118.571C231.075 117.511 233.647 116.171 236.4 114.797L237.755 117.509ZM230.625 121.224C228.994 122.125 228.235 122.605 227.895 122.851C227.714 122.982 227.728 122.993 227.793 122.915C227.835 122.865 227.911 122.763 227.975 122.611C228.008 122.533 228.031 122.458 228.047 122.389C228.061 122.326 228.068 122.274 228.067 122.284L225.064 121.863C225.07 121.823 225.093 121.645 225.181 121.434C225.263 121.24 225.37 121.086 225.469 120.968C225.648 120.755 225.878 120.569 226.118 120.395C226.618 120.033 227.514 119.48 229.158 118.571L230.625 121.224ZM228.067 122.284C228.074 122.231 228.074 122.19 228.073 122.164C228.071 122.139 228.068 122.124 228.068 122.122C228.068 122.121 228.074 122.151 228.103 122.214C228.161 122.343 228.278 122.535 228.472 122.762L226.17 124.734C225.831 124.339 225.54 123.907 225.339 123.46C225.149 123.04 224.979 122.472 225.064 121.863L228.067 122.284ZM228.472 122.762C228.654 122.974 228.833 123.136 228.974 123.237C229.044 123.287 229.089 123.312 229.107 123.32C229.131 123.332 229.086 123.306 228.983 123.291L228.562 126.294C228.011 126.216 227.533 125.935 227.204 125.698C226.839 125.436 226.485 125.102 226.17 124.734L228.472 122.762ZM228.983 123.291C228.803 123.266 228.662 123.284 228.592 123.296C228.53 123.307 228.506 123.318 228.542 123.306C228.574 123.295 228.637 123.272 228.742 123.227C228.845 123.184 228.981 123.124 229.157 123.042L230.43 125.794C230.043 125.973 229.752 126.096 229.525 126.174C229.342 126.236 228.982 126.353 228.562 126.294L228.983 123.291ZM231.29 124.662C230.925 126.902 230.452 133.597 230.066 139.875C229.684 146.104 229.394 151.78 229.388 151.893L226.361 151.739C226.367 151.622 226.657 145.934 227.04 139.689C227.421 133.494 227.902 126.605 228.297 124.175L231.29 124.662ZM229.388 151.894C229.426 151.162 228.898 150.525 228.175 150.423L227.754 153.425C226.924 153.309 226.318 152.578 226.361 151.738L229.388 151.894ZM257.831 157.435L227.877 153.232L228.298 150.23L258.252 154.432L257.831 157.435ZM226.574 151.654C226.616 150.834 226.919 144.969 227.304 138.802C227.685 132.697 228.154 126.12 228.541 123.988L231.524 124.528C231.178 126.437 230.717 132.779 230.33 138.991C229.946 145.141 229.643 150.993 229.601 151.809L226.574 151.654ZM228.541 123.988C228.447 124.508 228.651 125.037 229.07 125.359L230.917 122.955C231.398 123.324 231.632 123.931 231.524 124.528L228.541 123.988ZM229.07 125.359C229.49 125.682 230.053 125.741 230.529 125.517L229.242 122.773C229.788 122.516 230.435 122.585 230.917 122.955L229.07 125.359ZM230.531 125.516C230.074 125.732 229.767 125.863 229.552 125.943C229.446 125.982 229.339 126.018 229.235 126.045C229.159 126.064 228.964 126.112 228.724 126.1L228.876 123.072C228.748 123.066 228.649 123.077 228.598 123.085C228.542 123.093 228.502 123.103 228.483 123.108C228.447 123.117 228.445 123.12 228.496 123.101C228.595 123.064 228.815 122.974 229.239 122.774L230.531 125.516ZM228.589 126.087C228.043 126.01 227.578 125.716 227.289 125.503C226.952 125.255 226.622 124.942 226.328 124.598L228.63 122.626C228.795 122.819 228.96 122.969 229.087 123.062C229.15 123.109 229.187 123.129 229.195 123.133C229.213 123.142 229.146 123.104 229.011 123.085L228.589 126.087ZM226.328 124.598C226.016 124.234 225.744 123.835 225.553 123.426C225.379 123.057 225.188 122.506 225.269 121.903L228.274 122.308C228.292 122.17 228.273 122.084 228.271 122.076C228.267 122.062 228.271 122.083 228.297 122.138C228.35 122.251 228.456 122.423 228.63 122.626L226.328 124.598ZM225.358 121.557C225.512 121.16 225.802 120.912 225.889 120.836C226.039 120.705 226.235 120.56 226.488 120.39C226.999 120.047 227.866 119.521 229.36 118.698L230.823 121.353C229.358 122.161 228.58 122.637 228.178 122.907C227.975 123.043 227.897 123.107 227.884 123.119C227.808 123.185 228.046 123.012 228.185 122.653L225.358 121.557ZM229.36 118.698C231.286 117.636 233.851 116.302 236.583 114.939L237.936 117.652C235.228 119.003 232.702 120.317 230.823 121.353L229.36 118.698ZM236.583 114.939C239.616 113.426 242.302 112.15 244.31 111.259C245.311 110.814 246.161 110.458 246.809 110.215C247.13 110.094 247.425 109.992 247.677 109.922C247.801 109.886 247.939 109.852 248.077 109.828C248.184 109.81 248.423 109.773 248.696 109.812L248.275 112.814C248.393 112.83 248.481 112.827 248.517 112.824C248.559 112.822 248.584 112.817 248.588 112.817C248.593 112.816 248.567 112.82 248.499 112.839C248.366 112.877 248.16 112.946 247.874 113.053C247.307 113.266 246.519 113.595 245.54 114.03C243.587 114.896 240.944 116.151 237.936 117.652L236.583 114.939ZM248.696 109.812C248.97 109.85 249.192 109.952 249.286 109.997C249.412 110.057 249.535 110.127 249.648 110.196C249.874 110.333 250.139 110.514 250.427 110.721C251.006 111.14 251.76 111.725 252.641 112.437C254.406 113.863 256.736 115.842 259.304 118.109L257.298 120.382C254.751 118.133 252.456 116.185 250.735 114.794C249.873 114.097 249.168 113.551 248.653 113.18C248.394 112.993 248.202 112.865 248.074 112.787C248.009 112.748 247.981 112.734 247.981 112.734C247.982 112.734 248.003 112.744 248.04 112.758C248.072 112.769 248.156 112.797 248.275 112.814L248.696 109.812ZM259.304 118.109C261.677 120.204 263.87 122.21 265.48 123.759L263.378 125.944C261.809 124.434 259.65 122.459 257.298 120.382L259.304 118.109ZM265.48 123.759C266.727 124.96 267.443 125.711 267.858 126.192C268.064 126.43 268.219 126.629 268.333 126.803C268.406 126.914 268.613 127.229 268.655 127.648L265.638 127.951C265.676 128.323 265.849 128.543 265.797 128.465C265.787 128.448 265.727 128.362 265.563 128.172C265.239 127.796 264.6 127.12 263.378 125.944L265.48 123.759ZM268.541 128.393C268.269 129.033 267.746 129.403 267.375 129.604C266.975 129.821 266.534 129.959 266.13 130.043C265.72 130.128 265.29 130.171 264.883 130.164C264.5 130.158 264.029 130.108 263.595 129.931L264.738 127.123C264.683 127.101 264.734 127.13 264.931 127.133C265.104 127.136 265.312 127.117 265.512 127.075C265.72 127.032 265.862 126.976 265.932 126.939C266.031 126.885 265.865 126.939 265.752 127.206L268.541 128.393ZM263.595 129.931C263.357 129.834 263.134 129.669 262.959 129.536L264.79 127.12C264.831 127.151 264.861 127.173 264.883 127.189C264.905 127.205 264.916 127.212 264.919 127.214C264.921 127.216 264.909 127.207 264.885 127.194C264.873 127.187 264.855 127.177 264.832 127.166C264.809 127.154 264.777 127.139 264.738 127.123L263.595 129.931ZM262.96 129.537C263.364 129.843 263.902 129.908 264.368 129.708L263.172 126.922C263.707 126.693 264.324 126.767 264.789 127.119L262.96 129.537ZM264.368 129.708C264.837 129.507 265.159 129.069 265.214 128.565L262.201 128.234C262.264 127.655 262.634 127.153 263.172 126.923L264.368 129.708ZM265.214 128.565C264.963 130.857 263.613 137.435 262.311 143.526C260.999 149.667 259.701 155.459 259.52 156.265L256.562 155.602C256.743 154.798 258.037 149.018 259.347 142.892C260.667 136.715 261.97 130.332 262.201 128.234L265.214 128.565ZM258.252 154.432L258.252 154.432L257.831 157.435L257.831 157.435L258.252 154.432Z" fill="#FBEDC3" mask="url(#path-23-outside-1_1_45666)"/>
<path d="M263.305 128.355C263.067 130.524 261.747 136.979 260.433 143.124C259.248 148.668 258.075 153.929 257.728 155.481L228.511 151.382C228.593 149.808 228.874 144.488 229.221 138.922C229.606 132.749 230.07 126.321 230.431 124.33L230.431 124.33C230.461 124.165 230.408 123.998 230.291 123.881L230.316 123.73L230.178 123.794C230.036 123.715 229.863 123.708 229.714 123.778L229.713 123.779C229.277 123.984 229.025 124.089 228.883 124.142C228.849 124.155 228.822 124.164 228.802 124.171C228.724 124.144 228.596 124.08 228.428 123.957C228.225 123.807 227.999 123.597 227.787 123.349L227.787 123.349C227.562 123.087 227.395 122.831 227.292 122.61C227.221 122.46 227.188 122.344 227.176 122.262C227.244 122.206 227.362 122.117 227.559 121.984C228.001 121.688 228.811 121.193 230.287 120.38C232.183 119.335 234.724 118.013 237.441 116.658C240.458 115.153 243.116 113.89 245.089 113.014C246.077 112.576 246.888 112.237 247.484 112.013C247.783 111.901 248.021 111.82 248.198 111.77C248.287 111.745 248.353 111.73 248.401 111.722C248.413 111.72 248.422 111.718 248.429 111.717C248.437 111.721 248.447 111.725 248.459 111.731C248.505 111.753 248.569 111.788 248.651 111.838C248.815 111.937 249.033 112.085 249.303 112.279C249.842 112.668 250.565 113.228 251.434 113.931C253.171 115.334 255.478 117.294 258.033 119.549C260.393 121.632 262.565 123.619 264.148 125.143C265.38 126.329 266.047 127.032 266.404 127.447C266.529 127.592 266.613 127.698 266.669 127.774C266.62 127.818 266.552 127.866 266.461 127.915C266.27 128.019 266.018 128.104 265.739 128.162C265.462 128.22 265.173 128.248 264.914 128.244C264.658 128.24 264.458 128.205 264.333 128.157C264.328 128.154 264.32 128.149 264.309 128.142C264.274 128.119 264.214 128.077 264.119 128.005L264.119 128.005C263.983 127.902 263.806 127.875 263.647 127.929L263.575 127.878L263.564 127.966C263.42 128.046 263.323 128.19 263.305 128.355ZM263.305 128.355L263.513 128.378L263.513 128.378L263.305 128.355ZM229.29 125.077C229.244 125.095 229.203 125.11 229.165 125.123C229.006 125.178 228.86 125.214 228.717 125.193C228.428 125.153 228.126 124.993 227.853 124.796C227.57 124.593 227.28 124.322 227.013 124.011C226.728 123.678 226.501 123.334 226.352 123.004C226.206 122.681 226.12 122.336 226.165 122.017L226.165 122.015C226.168 121.993 226.176 121.935 226.205 121.865C226.234 121.798 226.274 121.738 226.321 121.682C226.41 121.575 226.551 121.453 226.769 121.295C227.211 120.976 228.057 120.449 229.696 119.543C231.595 118.493 234.152 117.161 236.897 115.791C238.831 114.825 241.49 113.533 243.77 112.495C244.909 111.976 245.959 111.519 246.778 111.198C247.187 111.038 247.545 110.909 247.831 110.823C247.973 110.78 248.105 110.746 248.22 110.725C248.325 110.705 248.453 110.689 248.571 110.705C248.679 110.72 248.785 110.763 248.873 110.804C248.967 110.849 249.072 110.907 249.184 110.975C249.408 111.11 249.682 111.297 249.995 111.524C250.62 111.977 251.421 112.605 252.316 113.333C254.106 114.79 256.291 116.661 258.244 118.378C260.351 120.229 262.534 122.205 264.265 123.846C265.13 124.667 265.886 125.407 266.463 126.007C267.026 126.594 267.456 127.083 267.632 127.389M267.632 127.389C267.632 127.389 267.632 127.389 267.632 127.389L267.454 127.491C267.454 127.491 267.454 127.491 267.454 127.491L267.632 127.389ZM227.908 152.325C227.647 152.289 227.457 152.059 227.47 151.795L258.224 156.073L258.619 156.162C258.619 156.162 258.619 156.162 258.619 156.162C258.561 156.42 258.314 156.591 258.051 156.554L227.908 152.325Z" fill="#F5CE93" stroke="#F5CE93" stroke-width="0.809982"/>
<g clip-path="url(#clip2_1_45666)">
<mask id="path-26-outside-2_1_45666" maskUnits="userSpaceOnUse" x="223.962" y="110.928" width="42.6153" height="47.7235" fill="black">
<rect fill="white" x="223.962" y="110.928" width="42.6153" height="47.7235"/>
<path d="M228.07 152.479L257.971 156.674C258.02 156.681 258.065 156.649 258.076 156.6C258.091 156.531 259.641 149.591 261.114 142.62C264.102 128.485 263.875 127.997 263.801 127.837C263.545 127.286 259.751 123.83 256.31 120.857C254.618 119.396 249.024 114.615 248.097 114.485C247.334 114.378 242.839 116.573 238.886 118.663C234.982 120.726 230.593 123.228 230.182 123.843C230.066 124.016 229.871 124.72 229.512 128.81C229.301 131.219 229.061 134.497 228.799 138.552C228.353 145.456 227.993 152.311 227.99 152.38C227.987 152.429 228.022 152.472 228.07 152.479L228.07 152.479ZM257.912 156.473L228.182 152.302C228.225 151.481 228.568 145.043 228.986 138.564C229.77 126.435 230.169 124.202 230.337 123.95C230.663 123.462 234.375 121.262 238.971 118.832C243.831 116.264 247.487 114.593 248.07 114.675C248.645 114.755 251.831 117.239 256.188 121.003C260.085 124.37 263.424 127.472 263.631 127.919C263.685 128.036 263.665 128.82 262.922 132.763C262.466 135.184 261.796 138.487 260.931 142.58C259.547 149.13 258.095 155.652 257.912 156.473Z"/>
</mask>
<path d="M228.07 152.479L257.971 156.674C258.02 156.681 258.065 156.649 258.076 156.6C258.091 156.531 259.641 149.591 261.114 142.62C264.102 128.485 263.875 127.997 263.801 127.837C263.545 127.286 259.751 123.83 256.31 120.857C254.618 119.396 249.024 114.615 248.097 114.485C247.334 114.378 242.839 116.573 238.886 118.663C234.982 120.726 230.593 123.228 230.182 123.843C230.066 124.016 229.871 124.72 229.512 128.81C229.301 131.219 229.061 134.497 228.799 138.552C228.353 145.456 227.993 152.311 227.99 152.38C227.987 152.429 228.022 152.472 228.07 152.479L228.07 152.479ZM257.912 156.473L228.182 152.302C228.225 151.481 228.568 145.043 228.986 138.564C229.77 126.435 230.169 124.202 230.337 123.95C230.663 123.462 234.375 121.262 238.971 118.832C243.831 116.264 247.487 114.593 248.07 114.675C248.645 114.755 251.831 117.239 256.188 121.003C260.085 124.37 263.424 127.472 263.631 127.919C263.685 128.036 263.665 128.82 262.922 132.763C262.466 135.184 261.796 138.487 260.931 142.58C259.547 149.13 258.095 155.652 257.912 156.473Z" fill="#F5CE93"/>
<path d="M228.07 152.479L227.769 151.567L227.982 151.497L228.204 151.528L228.07 152.479ZM258.076 156.6L257.138 156.391L257.139 156.391L258.076 156.6ZM261.114 142.62L262.054 142.818L262.054 142.818L261.114 142.62ZM263.801 127.837L262.93 128.241L262.93 128.241L263.801 127.837ZM256.31 120.857L255.682 121.584L255.682 121.584L256.31 120.857ZM238.886 118.663L239.334 119.512L239.334 119.512L238.886 118.663ZM230.182 123.843L229.383 123.31L229.383 123.31L230.182 123.843ZM229.512 128.81L228.555 128.726L228.555 128.726L229.512 128.81ZM228.799 138.552L227.84 138.49L227.84 138.49L228.799 138.552ZM227.99 152.38L227.031 152.33L227.031 152.33L227.99 152.38ZM228.07 152.479L228.372 153.391L228.159 153.461L227.937 153.43L228.07 152.479ZM228.182 152.302L228.049 153.253L227.176 153.13L227.223 152.251L228.182 152.302ZM228.986 138.564L229.945 138.626L229.945 138.626L228.986 138.564ZM230.337 123.95L231.136 124.483L231.136 124.483L230.337 123.95ZM238.971 118.832L238.523 117.983L238.523 117.983L238.971 118.832ZM256.188 121.003L256.816 120.277L256.816 120.277L256.188 121.003ZM263.631 127.919L264.502 127.515L264.502 127.515L263.631 127.919ZM262.922 132.763L263.866 132.941L263.866 132.941L262.922 132.763ZM260.931 142.58L259.991 142.382L259.991 142.382L260.931 142.58ZM228.204 151.528L258.105 155.723L257.838 157.625L227.937 153.43L228.204 151.528ZM258.105 155.723C257.643 155.658 257.233 155.965 257.138 156.391L259.013 156.809C258.897 157.332 258.396 157.704 257.838 157.625L258.105 155.723ZM257.139 156.391C257.154 156.322 258.702 149.387 260.175 142.421L262.054 142.818C260.58 149.795 259.029 156.739 259.013 156.809L257.139 156.391ZM260.175 142.421C261.668 135.356 262.354 131.719 262.658 129.835C262.81 128.887 262.861 128.412 262.873 128.177C262.88 128.058 262.874 128.037 262.877 128.065C262.88 128.084 262.886 128.119 262.9 128.164C262.915 128.211 262.932 128.246 262.93 128.241L264.672 127.432C264.708 127.51 264.758 127.631 264.782 127.812C264.8 127.952 264.801 128.105 264.792 128.276C264.774 128.62 264.709 129.18 264.554 130.141C264.243 132.074 263.548 135.749 262.054 142.818L260.175 142.421ZM262.93 128.241C262.965 128.318 262.975 128.304 262.826 128.136C262.71 128.003 262.542 127.827 262.325 127.609C261.894 127.175 261.299 126.609 260.598 125.96C259.197 124.665 257.397 123.065 255.682 121.584L256.938 120.131C258.664 121.622 260.481 123.236 261.902 124.55C262.611 125.206 263.228 125.793 263.688 126.254C263.916 126.484 264.114 126.692 264.267 126.865C264.389 127.003 264.572 127.217 264.672 127.432L262.93 128.241ZM255.682 121.584C254.838 120.855 253.026 119.303 251.313 117.919C250.455 117.226 249.632 116.584 248.973 116.11C248.642 115.873 248.366 115.687 248.155 115.562C248.049 115.499 247.972 115.458 247.921 115.435C247.856 115.405 247.881 115.425 247.963 115.437L248.23 113.534C248.428 113.562 248.606 113.635 248.725 113.69C248.859 113.752 248.999 113.829 249.138 113.911C249.417 114.078 249.743 114.299 250.094 114.55C250.797 115.055 251.652 115.724 252.52 116.425C254.258 117.829 256.09 119.398 256.938 120.131L255.682 121.584ZM247.963 115.437C248.078 115.453 248.092 115.423 247.89 115.477C247.731 115.519 247.512 115.591 247.232 115.697C246.674 115.909 245.941 116.227 245.093 116.621C243.4 117.408 241.304 118.471 239.334 119.512L238.437 117.814C240.421 116.765 242.549 115.685 244.283 114.879C245.148 114.477 245.929 114.136 246.552 113.901C246.862 113.783 247.15 113.686 247.399 113.62C247.603 113.566 247.925 113.491 248.23 113.534L247.963 115.437ZM239.334 119.512C237.391 120.539 235.331 121.674 233.71 122.624C232.898 123.101 232.207 123.525 231.699 123.864C231.444 124.033 231.246 124.174 231.107 124.283C230.937 124.417 230.938 124.441 230.981 124.377L229.383 123.31C229.529 123.092 229.756 122.902 229.92 122.773C230.115 122.62 230.358 122.448 230.633 122.265C231.186 121.897 231.913 121.451 232.738 120.967C234.39 119.998 236.477 118.85 238.437 117.814L239.334 119.512ZM230.981 124.376C231.042 124.285 231.04 124.238 231.008 124.359C230.98 124.467 230.94 124.662 230.888 125.002C230.784 125.68 230.648 126.854 230.469 128.893L228.555 128.726C228.735 126.675 228.876 125.453 228.989 124.713C229.045 124.344 229.097 124.075 229.149 123.875C229.198 123.688 229.264 123.488 229.383 123.31L230.981 124.376ZM230.469 128.893C230.259 131.293 230.019 134.562 229.757 138.614L227.84 138.49C228.102 134.432 228.343 131.146 228.555 128.726L230.469 128.893ZM229.757 138.614C229.312 145.512 228.953 152.363 228.949 152.43L227.031 152.33C227.034 152.26 227.394 145.4 227.84 138.49L229.757 138.614ZM228.949 152.43C228.972 151.996 228.663 151.592 228.204 151.528L227.937 153.43C227.381 153.352 227.003 152.862 227.031 152.33L228.949 152.43ZM227.769 151.567L227.769 151.567L228.372 153.391L228.372 153.391L227.769 151.567ZM257.779 157.424L228.049 153.253L228.315 151.35L258.046 155.521L257.779 157.424ZM227.223 152.251C227.266 151.429 227.609 144.987 228.028 138.502L229.945 138.626C229.527 145.1 229.184 151.533 229.141 152.352L227.223 152.251ZM228.028 138.502C228.42 132.434 228.716 128.829 228.937 126.704C229.047 125.643 229.14 124.938 229.218 124.474C229.257 124.243 229.295 124.057 229.334 123.909C229.363 123.796 229.42 123.594 229.538 123.417L231.136 124.483C231.212 124.369 231.219 124.292 231.192 124.396C231.174 124.466 231.147 124.591 231.112 124.794C231.044 125.199 230.956 125.857 230.848 126.902C230.631 128.989 230.336 132.565 229.945 138.626L228.028 138.502ZM229.538 123.417C229.674 123.213 229.884 123.042 230.019 122.935C230.187 122.802 230.399 122.652 230.641 122.489C231.128 122.162 231.784 121.755 232.563 121.293C234.123 120.368 236.214 119.203 238.523 117.983L239.42 119.681C237.132 120.891 235.069 122.041 233.542 122.946C232.778 123.399 232.157 123.785 231.713 124.084C231.49 124.233 231.322 124.354 231.207 124.444C231.059 124.561 231.081 124.565 231.136 124.483L229.538 123.417ZM238.523 117.983C240.962 116.694 243.108 115.625 244.725 114.886C245.532 114.517 246.22 114.225 246.753 114.028C247.018 113.93 247.261 113.849 247.47 113.795C247.634 113.752 247.922 113.684 248.204 113.723L247.937 115.626C248.073 115.645 248.119 115.611 247.952 115.654C247.831 115.686 247.655 115.742 247.419 115.829C246.951 116.003 246.312 116.273 245.524 116.633C243.952 117.351 241.84 118.402 239.42 119.681L238.523 117.983ZM248.204 113.723C248.47 113.761 248.721 113.893 248.869 113.974C249.056 114.077 249.271 114.213 249.507 114.373C249.98 114.693 250.587 115.144 251.301 115.7C252.732 116.815 254.631 118.389 256.816 120.277L255.56 121.73C253.388 119.854 251.516 118.303 250.12 117.215C249.421 116.67 248.852 116.249 248.43 115.964C248.218 115.82 248.056 115.72 247.942 115.657C247.788 115.572 247.815 115.609 247.937 115.626L248.204 113.723ZM256.816 120.277C258.771 121.965 260.589 123.59 261.947 124.852C262.625 125.482 263.194 126.027 263.61 126.447C263.818 126.656 263.995 126.841 264.131 126.995C264.199 127.071 264.263 127.148 264.319 127.221C264.365 127.281 264.443 127.387 264.502 127.515L262.76 128.323C262.793 128.395 262.821 128.425 262.793 128.388C262.775 128.365 262.743 128.326 262.692 128.268C262.591 128.153 262.442 127.997 262.247 127.8C261.857 127.407 261.309 126.882 260.639 126.259C259.302 125.017 257.502 123.408 255.56 121.73L256.816 120.277ZM264.502 127.515C264.584 127.69 264.599 127.856 264.604 127.923C264.611 128.015 264.611 128.112 264.607 128.208C264.6 128.401 264.575 128.666 264.528 129.029C264.433 129.76 264.239 130.963 263.866 132.941L261.978 132.585C262.349 130.619 262.535 129.459 262.623 128.783C262.667 128.443 262.684 128.243 262.688 128.133C262.69 128.078 262.688 128.063 262.689 128.074C262.69 128.081 262.692 128.104 262.699 128.139C262.705 128.17 262.721 128.239 262.76 128.323L264.502 127.515ZM263.866 132.941C263.408 135.372 262.736 138.683 261.871 142.779L259.991 142.382C260.856 138.291 261.524 134.996 261.978 132.585L263.866 132.941ZM261.871 142.779C260.485 149.334 259.033 155.86 258.85 156.682L256.975 156.264C257.157 155.444 258.608 148.926 259.991 142.382L261.871 142.779Z" fill="#F5CE93" mask="url(#path-26-outside-2_1_45666)"/>
<path d="M257.484 140.313C257.211 139.792 246.1 137.295 245.52 137.674C244.939 138.052 243.424 148.598 243.753 149.011C244.082 149.425 254.895 151.508 255.166 151.085C255.436 150.663 257.758 140.835 257.484 140.313Z" fill="#F5CE93"/>
<path d="M253.094 151.06C253.937 151.178 254.619 151.248 254.959 151.231C255.123 151.222 255.206 151.194 255.244 151.135C255.4 150.89 256.08 148.152 256.619 145.756C256.841 144.771 257.151 143.35 257.367 142.173C257.677 140.48 257.6 140.333 257.567 140.27C257.529 140.198 257.429 140.007 254.84 139.334C253.127 138.888 250.913 138.387 249.061 138.027C248.097 137.839 247.272 137.698 246.677 137.62C245.76 137.499 245.551 137.544 245.47 137.596C245.408 137.637 245.262 137.732 244.955 139.101C244.781 139.877 244.584 140.935 244.386 142.159C244.136 143.699 243.91 145.333 243.767 146.643C243.523 148.869 243.639 149.014 243.682 149.068C243.721 149.117 243.811 149.231 245.393 149.606C246.319 149.826 247.553 150.086 248.87 150.339C250.233 150.601 251.841 150.884 253.094 151.06L253.094 151.06ZM255.094 151.027C254.874 151.133 252.868 150.904 249.419 150.256C246.174 149.647 243.997 149.108 243.827 148.954C243.722 148.743 243.908 146.526 244.395 143.29C244.917 139.819 245.382 137.876 245.57 137.75C245.766 137.627 247.929 137.93 251.552 138.735C255.031 139.508 257.256 140.166 257.404 140.357C257.479 140.527 257.27 142.035 256.436 145.732C255.809 148.517 255.217 150.796 255.094 151.027L255.094 151.027Z" fill="#F5CE93"/>
<path d="M256.487 140.604C256.054 140.088 252.28 139.227 252.015 139.521C251.749 139.815 249.812 148.753 250.004 148.988C250.196 149.222 254.306 150.364 254.536 150.188C254.765 150.012 256.919 141.119 256.487 140.604L256.487 140.604Z" fill="#F8E2A0"/>
<path d="M254.176 150.277C254.511 150.324 254.559 150.287 254.591 150.263C254.627 150.235 254.686 150.19 254.975 149.132C255.153 148.48 255.369 147.62 255.582 146.711C256.103 144.496 256.482 142.556 256.596 141.522C256.676 140.799 256.621 140.623 256.557 140.546L256.486 140.605L256.557 140.546C256.166 140.08 253.354 139.39 252.355 139.372C252.132 139.368 252.006 139.395 251.946 139.461C251.73 139.701 250.847 143.793 250.748 144.259C250.487 145.472 250.261 146.6 250.109 147.436C249.838 148.932 249.893 148.999 249.933 149.047C250.098 149.249 252.013 149.773 252.231 149.832C252.803 149.987 253.339 150.118 253.739 150.199C253.923 150.237 254.065 150.262 254.176 150.277L254.176 150.277ZM254.477 150.114C254.328 150.143 253.53 149.995 252.248 149.646C251.051 149.321 250.21 149.031 250.083 148.938C250.054 148.716 250.335 147.054 250.941 144.232C251.527 141.507 251.98 139.735 252.082 139.585C252.178 139.514 252.912 139.552 254.198 139.858C255.331 140.127 256.243 140.459 256.416 140.664C256.436 140.689 256.527 140.879 256.31 142.25C256.181 143.067 255.966 144.165 255.687 145.425C255.164 147.788 254.608 149.883 254.477 150.114L254.477 150.114Z" fill="#F8E2A0"/>
<path d="M250.825 139.354C250.918 139.647 249.102 148.504 248.814 148.82C248.527 149.136 244.909 148.642 244.685 148.449C244.462 148.256 245.797 138.625 246.104 138.338C246.411 138.05 250.731 139.061 250.825 139.354L250.825 139.354Z" fill="#F8E2A0"/>
<path d="M246.094 148.838C246.316 148.869 246.532 148.896 246.717 148.917C247.087 148.958 247.624 149.009 248.079 149.015C248.678 149.022 248.823 148.948 248.883 148.882C249.083 148.662 249.768 145.462 250.053 144.097C250.092 143.913 250.995 139.581 250.913 139.326C250.894 139.268 250.845 139.115 249.376 138.734C248.691 138.557 247.923 138.392 247.323 138.295C246.209 138.115 246.092 138.224 246.042 138.271C246.002 138.309 245.918 138.387 245.664 139.811C245.52 140.62 245.346 141.725 245.175 142.925C244.874 145.032 244.556 147.611 244.57 148.293C244.572 148.428 244.587 148.484 244.626 148.518C244.745 148.621 245.445 148.747 246.094 148.838L246.094 148.838ZM250.737 139.387C250.749 139.627 250.364 141.709 249.868 144.085C249.324 146.685 248.863 148.608 248.746 148.76C248.69 148.821 248.199 148.897 246.753 148.736C245.685 148.617 244.898 148.458 244.759 148.387C244.704 148.115 244.931 145.99 245.296 143.379C245.724 140.319 246.059 138.566 246.169 138.404C246.283 138.328 247.13 138.408 248.484 138.709C249.745 138.989 250.623 139.275 250.737 139.387L250.737 139.387Z" fill="#F8E2A0"/>
<path d="M255.699 140.197L256.424 142.117C256.369 142.478 256.298 142.885 256.216 143.32L254.952 139.958C255.221 140.035 255.476 140.116 255.699 140.197L255.699 140.197Z" fill="#FBEDC3"/>
<path d="M256.202 143.411C256.209 143.412 256.216 143.412 256.223 143.411C256.264 143.408 256.298 143.377 256.305 143.337C256.391 142.885 256.461 142.479 256.514 142.13C256.516 142.115 256.514 142.099 256.509 142.084L255.784 140.164C255.775 140.139 255.755 140.119 255.729 140.11C255.509 140.03 255.256 139.949 254.975 139.869C254.942 139.859 254.906 139.869 254.883 139.895C254.859 139.92 254.852 139.957 254.864 139.99L256.129 143.352C256.141 143.384 256.169 143.406 256.202 143.411L256.202 143.411ZM256.328 142.126C256.289 142.381 256.241 142.667 256.185 142.978L255.101 140.097C255.292 140.154 255.468 140.212 255.627 140.268L256.328 142.126L256.328 142.126Z" fill="#FBEDC3"/>
<path d="M254.08 139.735L255.968 144.553C255.921 144.776 255.873 145.002 255.823 145.229L252.824 139.502C253.184 139.548 253.627 139.631 254.08 139.735L254.08 139.735Z" fill="#FBEDC3"/>
<path d="M255.811 145.318C255.819 145.319 255.827 145.32 255.836 145.318C255.874 145.313 255.905 145.285 255.913 145.247C255.963 145.017 256.012 144.789 256.058 144.57C256.062 144.553 256.06 144.534 256.054 144.518L254.165 139.7C254.154 139.672 254.13 139.651 254.1 139.644C253.638 139.538 253.189 139.455 252.835 139.41C252.801 139.406 252.768 139.42 252.748 139.449C252.728 139.477 252.726 139.513 252.742 139.544L255.742 145.27C255.756 145.297 255.782 145.314 255.811 145.318L255.811 145.318ZM255.873 144.559C255.845 144.69 255.816 144.824 255.787 144.96L252.988 139.617C253.29 139.662 253.646 139.73 254.012 139.812L255.873 144.559Z" fill="#FBEDC3"/>
<path d="M230.66 151.183L239.701 152.451C239.701 152.451 242.424 135.746 242.087 135.444C241.75 135.142 231.969 134.379 231.631 134.693C231.293 135.007 230.66 151.183 230.66 151.183Z" fill="#F5CE93"/>
<path d="M230.647 151.274L239.688 152.543C239.738 152.549 239.784 152.516 239.792 152.466C239.799 152.425 240.48 148.241 241.111 144.075C242.396 135.597 242.235 135.453 242.148 135.376C241.871 135.127 237.377 134.784 236.866 134.746C235.531 134.646 234.287 134.574 233.363 134.544C231.715 134.489 231.62 134.578 231.568 134.626C231.497 134.692 231.33 134.847 230.927 143.051C230.729 147.088 230.57 151.139 230.568 151.179C230.566 151.227 230.6 151.268 230.647 151.274L230.647 151.274ZM239.625 152.348L230.755 151.104C231.004 144.764 231.456 135.285 231.697 134.76C231.909 134.667 233.737 134.696 236.874 134.931C239.835 135.153 241.787 135.395 242.016 135.508C242.067 135.71 241.978 137.143 240.908 144.194C240.334 147.973 239.725 151.728 239.625 152.348Z" fill="#F5CE93"/>
<path d="M239.6 145.013C239.332 144.975 239.145 144.727 239.182 144.459C239.22 144.191 239.468 144.004 239.736 144.041C240.004 144.079 240.191 144.327 240.154 144.595C240.116 144.864 239.868 145.051 239.6 145.013Z" fill="#F8E2A0"/>
<path d="M239.588 145.105C239.906 145.149 240.201 144.927 240.245 144.609C240.29 144.291 240.067 143.996 239.749 143.951C239.431 143.906 239.136 144.129 239.092 144.447C239.047 144.765 239.269 145.06 239.588 145.105ZM239.724 144.133C239.942 144.164 240.094 144.366 240.063 144.583C240.033 144.801 239.831 144.953 239.613 144.922C239.395 144.892 239.243 144.69 239.274 144.472C239.304 144.255 239.506 144.103 239.724 144.133Z" fill="#F8E2A0"/>
<path d="M240.787 136.853C240.548 136.616 232.826 135.975 232.58 136.268C232.333 136.56 231.879 142.244 232.16 142.571C232.44 142.898 239.452 143.343 239.743 143.064C240.034 142.785 241.026 137.089 240.787 136.853Z" fill="#F8E2A0"/>
<path d="M233.007 142.865C233.222 142.895 233.488 142.927 233.819 142.962C234.718 143.056 235.854 143.14 236.936 143.193C237.693 143.23 238.352 143.247 238.84 143.244C239.696 143.237 239.769 143.168 239.808 143.131C240.001 142.946 240.334 141.197 240.468 140.454C240.688 139.24 240.911 137.738 240.916 137.12C240.918 136.899 240.892 136.827 240.852 136.788C240.818 136.754 240.755 136.691 239.718 136.562C239.116 136.487 238.3 136.404 237.42 136.329C235.923 136.202 233.86 136.068 232.973 136.108C232.61 136.125 232.545 136.167 232.51 136.209C232.298 136.461 232.09 139.28 232.082 139.4C232.024 140.194 231.988 140.936 231.982 141.489C231.97 142.49 232.052 142.585 232.091 142.631C232.125 142.67 232.194 142.751 233.007 142.865L233.007 142.865ZM239.682 142.996C239.528 143.082 238.172 143.096 235.943 142.952C233.709 142.809 232.366 142.618 232.23 142.511C232.144 142.379 232.129 141.275 232.265 139.41C232.391 137.686 232.56 136.483 232.648 136.332C232.814 136.253 234.143 136.258 236.7 136.455C238.964 136.63 240.528 136.83 240.719 136.919C240.775 137.087 240.671 138.199 240.365 139.982C240.066 141.719 239.784 142.873 239.682 142.996Z" fill="#F8E2A0"/>
<path d="M239.336 145.629C239.097 145.393 232.462 144.433 232.216 144.726C231.97 145.018 231.6 149.895 231.881 150.222C232.161 150.548 238.334 151.441 238.625 151.162C238.916 150.883 239.575 145.866 239.336 145.629Z" fill="#F8E2A0"/>
<path d="M235.327 151.022C236.346 151.165 237.296 151.268 237.903 151.297C238.497 151.326 238.63 151.281 238.686 151.227C238.861 151.059 239.073 149.766 239.183 149.01C239.354 147.837 239.472 146.651 239.477 146.058C239.48 145.676 239.438 145.602 239.399 145.563C239.221 145.388 236.982 145.056 236.3 144.958C234.884 144.755 233.131 144.55 232.459 144.581C232.248 144.59 232.181 144.621 232.144 144.665C231.932 144.917 231.764 147.35 231.757 147.454C231.705 148.224 231.605 150.043 231.809 150.28C231.964 150.461 233.264 150.702 234.327 150.872C234.661 150.926 234.998 150.976 235.327 151.022L235.327 151.022ZM238.561 151.093C238.414 151.171 237.203 151.104 235.229 150.822C233.321 150.55 232.062 150.272 231.947 150.16C231.861 150.049 231.83 149.087 231.94 147.466C232.042 145.974 232.195 144.925 232.281 144.789C232.434 144.716 233.591 144.773 235.796 145.073C237.691 145.331 239.106 145.599 239.267 145.693C239.331 145.837 239.288 146.827 239.08 148.413C238.878 149.95 238.659 150.978 238.561 151.093Z" fill="#F8E2A0"/>
<path d="M245.493 128.468C242.407 128.035 240.169 125.8 240.495 123.475C240.822 121.15 243.588 119.617 246.674 120.05C249.76 120.483 251.998 122.718 251.672 125.043C251.346 127.368 248.579 128.901 245.493 128.468Z" fill="#F5CE93"/>
<path d="M245.48 128.558C248.611 128.998 251.43 127.426 251.762 125.055C252.095 122.684 249.818 120.397 246.686 119.958C243.555 119.519 240.737 121.09 240.404 123.461C240.071 125.832 242.348 128.119 245.48 128.558ZM246.661 120.14C249.692 120.565 251.899 122.759 251.58 125.029C251.262 127.3 248.536 128.801 245.505 128.376C242.474 127.951 240.267 125.758 240.586 123.487C240.905 121.216 243.63 119.715 246.661 120.14Z" fill="#F5CE93"/>
<path d="M245.612 127.616C243.151 127.271 241.366 125.488 241.626 123.634C241.886 121.78 244.093 120.557 246.554 120.902C249.016 121.247 250.801 123.03 250.54 124.885C250.28 126.739 248.074 127.962 245.612 127.616Z" fill="#F8E2A0"/>
<path d="M245.6 127.706C248.108 128.058 250.365 126.797 250.632 124.896C250.899 122.995 249.075 121.162 246.567 120.81C244.059 120.458 241.802 121.718 241.535 123.62C241.269 125.521 243.092 127.354 245.6 127.706ZM246.542 120.992C248.949 121.329 250.703 123.069 250.45 124.87C250.197 126.671 248.033 127.862 245.625 127.524C243.218 127.186 241.465 125.446 241.717 123.645C241.97 121.844 244.134 120.654 246.542 120.992Z" fill="#F8E2A0"/>
<path d="M248.964 121.823L250.522 125C250.483 125.206 250.42 125.405 250.335 125.594L248.035 121.31C248.371 121.454 248.683 121.626 248.964 121.823L248.964 121.823Z" fill="#FBEDC3"/>
<path d="M250.324 125.684C250.329 125.685 250.334 125.685 250.34 125.685C250.375 125.684 250.406 125.663 250.42 125.631C250.509 125.434 250.574 125.227 250.614 125.016C250.617 124.997 250.614 124.977 250.606 124.959L249.048 121.782C249.041 121.768 249.031 121.756 249.018 121.747C248.729 121.545 248.411 121.37 248.072 121.225C248.036 121.21 247.994 121.219 247.968 121.248C247.941 121.276 247.936 121.319 247.955 121.353L250.256 125.637C250.27 125.663 250.295 125.68 250.324 125.684ZM250.427 125.012C250.402 125.136 250.368 125.258 250.325 125.377L248.246 121.507C248.474 121.618 248.691 121.745 248.893 121.884L250.427 125.012L250.427 125.012Z" fill="#FBEDC3"/>
<path d="M246.554 120.901C246.672 120.917 246.789 120.937 246.903 120.96L249.906 126.266C249.658 126.559 249.348 126.814 248.99 127.024L246.457 120.888C246.489 120.892 246.522 120.896 246.554 120.901L246.554 120.901Z" fill="#FBEDC3"/>
<path d="M248.979 127.115C248.999 127.118 249.02 127.114 249.038 127.103C249.408 126.887 249.724 126.625 249.977 126.327C250.002 126.297 250.006 126.255 249.987 126.222L246.985 120.916C246.971 120.892 246.949 120.876 246.923 120.871C246.772 120.841 246.62 120.816 246.47 120.797C246.437 120.793 246.405 120.807 246.385 120.833C246.365 120.859 246.361 120.893 246.373 120.924L248.907 127.059C248.917 127.084 248.937 127.103 248.962 127.111C248.968 127.113 248.973 127.114 248.979 127.115L248.979 127.115ZM249.795 126.256C249.584 126.494 249.329 126.707 249.036 126.89L246.604 121.001C246.685 121.013 246.765 121.027 246.845 121.043L249.795 126.256Z" fill="#FBEDC3"/>
</g>
</g>
<defs>
<clipPath id="clip0_1_45666">
<rect width="375" height="300" fill="white"/>
</clipPath>
<clipPath id="clip1_1_45666">
<rect x="16" y="168.001" width="343" height="20" rx="6" fill="white"/>
</clipPath>
<clipPath id="clip2_1_45666">
<rect width="40.0014" height="42.0254" fill="white" transform="matrix(-0.990302 -0.138934 -0.138934 0.990302 268.139 114.097)"/>
</clipPath>
</defs>
</svg>
