<svg width="147" height="145" viewBox="0 0 147 145" fill="none" xmlns="http://www.w3.org/2000/svg">
<path d="M29.7518 134.034L33.1481 144.15L37.5893 141.872L32.9809 132.31C32.9809 132.31 29.9713 133.867 29.7518 134.034Z" fill="#BDE9A7"/>
<path d="M51.7385 105.338C57.4398 103.729 62.9566 101.526 68.1972 98.7651L94.1342 102.841C94.1342 102.841 98.8785 105.589 99.4532 105.673C101.076 105.54 102.702 105.905 104.114 106.718C106.026 108.045 109.851 108.045 110.844 108.212C112.277 108.675 113.647 109.318 114.919 110.124C115.912 110.709 120.322 112.12 121.074 112.622C121.827 113.123 123.561 113.667 123.979 115.757C124.564 118.325 124.914 120.942 125.024 123.573C124.941 125.486 124.45 130.638 123.697 132.634C122.945 134.63 119.705 145.017 119.517 146.219C119.329 147.42 118.942 155.53 118.472 157.202C118.002 158.874 115.734 167.652 115.337 169.25C114.94 170.849 111.931 178.812 111.429 180.223C110.927 181.634 110.175 184.215 110.384 185.291C110.686 186.457 110.771 187.669 110.635 188.865C110.468 190.203 111.554 196.765 111.22 197.225C110.886 197.685 99.2442 198.218 95.1791 196.974C91.1141 195.731 74.8957 197.476 68.3227 197.141C61.7496 196.807 44.3818 196.64 41.8947 196.096C39.4076 195.553 36.3248 195.438 37.8192 193.777C39.3135 192.115 39.4807 189.785 39.5643 187.507C39.7832 185.447 40.1996 183.414 40.8079 181.435L35.5829 145.644L43.2532 129.969L51.7385 105.338Z" fill="#BED4FC"/>
<path d="M67.9046 111.619C68.3957 113.938 68.8764 114.21 68.333 114.127C63.5992 113.385 58.9803 108.703 58.0293 104.774C57.8517 104.032 57.7263 104.105 58.5205 103.833C60.8508 103.008 62.0526 102.12 61.76 102.642C61.1748 103.687 61.5928 105.035 61.5196 105.516C61.2479 107.324 62.5019 108.849 64.3098 109.811C64.5501 109.936 64.4665 109.915 66.0654 110.02C67.1104 109.769 67.2462 109.664 67.3716 110.02C67.6059 110.533 67.7844 111.068 67.9046 111.619Z" fill="#FFC6A6"/>
<path d="M105.149 32.0628C108.012 33.2645 108.817 33.4526 106.883 33.9333C105.671 33.6407 105.525 33.6198 104.793 32.1359C104.72 31.9478 104.95 31.9792 105.149 32.0628Z" fill="#E6FCFF"/>
<path d="M110.875 31.6028C111.053 31.6028 111.042 31.7282 110.969 31.8223C110.541 32.397 110.05 33.2435 109.245 32.7314C107.155 31.3834 103.079 30.7668 104.198 29.0217C104.657 28.3111 104.281 29.1262 106.664 30.1503C109.245 31.258 110.175 31.6864 110.875 31.6028Z" fill="#E6FCFF"/>
<path d="M111.732 29.3458C112.369 29.4085 111.586 30.5475 110.572 30.5266C108.89 29.9414 103.821 28.0813 105.222 26.9736C105.389 26.8482 105.305 26.4929 105.546 26.5138C105.964 26.5138 105.41 26.9527 108.179 28.0604C110.948 29.1681 111.189 29.2622 111.732 29.3458Z" fill="#E6FCFF"/>
<path d="M106.497 24.2776C112.035 28.4576 114.23 26.3049 112.558 28.2486C112.244 28.6143 111.032 27.9978 110.572 27.8306C108.336 27.005 104.605 25.8137 106.497 24.2776Z" fill="#E6FCFF"/>
<path d="M121.147 16.8475C121.471 16.9416 121.231 17.7044 120.938 17.5477C119.831 16.9834 120.761 16.7221 121.147 16.8475Z" fill="#F8E2A0"/>
<path d="M110.102 13.9841C109.527 14.4544 109.266 13.5452 109.642 13.4407C109.767 13.4094 109.987 13.8065 110.102 13.9841Z" fill="#F8E2A0"/>
<path d="M114.042 5.43617C126.989 5.36302 129.779 22.3965 116.32 23.9327C114.564 24.1417 114.23 23.6401 113.686 24.3402C112.704 25.7301 113.341 26.3571 112.537 26.1481C110.894 25.7284 109.329 25.0512 107.897 24.1417C106.57 23.337 108.942 23.0967 108.252 21.6023C107.563 20.108 107.531 21.247 106.444 19.5123C101.418 11.4972 108.545 5.13312 114.042 5.43617ZM120.5 18.7495C121.158 20.3797 123.206 16.5236 121.628 16.0116C120.05 15.4995 119.632 16.6072 119.382 16.5445C116.957 16.0011 118.462 16.3146 117.062 15.5936C116.414 15.2592 115.902 16.0429 115.379 15.301C114.554 14.1097 115.149 15.301 111.272 13.7544C111.001 13.6499 110.854 13.2737 110.645 13.0229C110.436 12.7721 110.112 12.7721 109.726 12.6676C108.597 12.3645 107.949 14.674 109.726 14.977C109.914 14.977 110.05 14.977 109.987 15.301C109.59 17.0043 111.899 18.436 111.44 19.2615C110.815 20.4562 110.375 21.7387 110.133 23.0653C110.081 23.3788 110.363 23.2116 110.478 23.3057C110.917 23.6819 111.126 21.7173 112.255 19.5959C113.018 18.1852 110.802 16.7744 110.854 15.5622C110.917 14.0052 111.523 14.8934 112.944 15.3428C113.739 15.5936 114.345 15.3428 114.564 15.8653C114.706 16.1445 114.944 16.3635 115.233 16.4823C115.523 16.6013 115.845 16.6122 116.142 16.5132C117.104 16.2624 116.853 17.0043 117.981 17.2447C119.11 17.485 119.099 17.4328 119.099 17.8508C119.099 17.9971 119.099 18.1538 118.922 18.1956C118.384 18.3789 117.872 18.6282 117.396 18.9376C116.8 19.2197 117.062 18.739 116.069 19.3869C114.575 20.3588 114.825 19.7422 114.198 20.2334C113.153 21.0798 110.865 23.4938 111.596 24.0685C112.328 24.6433 112.411 23.1385 113.895 21.78C115.379 20.4215 115.149 21.0798 115.651 20.735C116.696 20.0871 116.842 19.993 116.999 19.9826C117.898 19.9094 118.587 19.157 119.267 19.0943C120.186 19.0107 119.946 18.2061 120.144 18.2688C120.343 18.3315 120.427 18.5718 120.5 18.7495Z" fill="#F8E2A0"/>
<path d="M104.229 81.2092C103.424 78.4608 105.41 71.5325 106.005 69.9964C106.813 67.2269 107.048 64.3218 106.695 61.4587C106.277 58.1878 103.978 52.6493 102.766 49.9637C101.554 47.278 96.2868 42.3038 94.6148 41.008C92.9428 39.7122 84.9276 36.3473 82.0748 35.0933C79.2219 33.8393 74.091 33.5572 74.091 33.5572C73.3255 32.5991 72.257 31.9294 71.0605 31.658C69.8648 31.3865 68.6117 31.5292 67.5075 32.0628C64.3725 33.4527 63.85 36.7967 63.5783 36.8698C57.0993 36.7967 56.1901 42.0217 56.1901 42.0217C53.7866 44.4565 54.4554 45.9927 55.4586 47.5915C56.4618 49.1904 59.7118 49.2322 59.7118 49.2322C59.7118 49.2322 79.4727 44.9372 85.5024 54.3423C91.532 63.7472 89.1599 79.0878 89.1599 79.0878L89.3271 94.3239C90.2841 95.233 91.4806 95.8496 92.7764 96.1038C94.0714 96.3573 95.4125 96.2362 96.6421 95.7555C92.8905 92.8922 93.6116 91.262 93.6116 91.262C99.2964 94.7732 101.804 91.262 101.804 91.262C100.839 91.073 99.933 90.6507 99.1684 90.0315C98.4029 89.4115 97.8012 88.6147 97.4154 87.709C99.09 88.2167 100.819 88.5215 102.567 88.6182C107.238 89.0675 108.283 86.5282 108.283 86.5282C108.283 86.5282 105.023 83.9575 104.229 81.2092Z" fill="#EDA076"/>
<path d="M64.2054 88.8271C63.9137 88.5015 63.7517 88.0791 63.7517 87.6411C63.7517 87.203 63.9137 86.7807 64.2054 86.455C57.7787 82.4944 59.1581 79.2235 57.7787 79.8819C56.3 80.5347 54.7203 80.9305 53.1075 81.0523C52.6895 81.1777 54.2675 83.8738 57.7473 85.0338C60.6942 86.0161 54.6123 88.8271 53.6823 88.9003C52.167 89.0152 58.5624 92.8504 62.1886 90.4051C62.2739 90.3363 62.3793 90.2954 62.4881 90.2893C62.5979 90.2832 62.7067 90.311 62.799 90.3703C62.8913 90.4295 62.9627 90.5157 63.0037 90.6176C63.0446 90.7195 63.0516 90.8318 63.0246 90.9381C62.7311 92.3984 62.2051 93.8022 61.4675 95.0972C63.2754 95.4211 65.3445 94.2298 66.8493 93.2057C67.2464 92.9444 67.1001 92.4847 67.2568 92.1607C67.3195 92.0144 66.0028 91.0425 64.2054 88.8271Z" fill="#EDA076"/>
<path d="M47.7468 101.701C49.659 105.672 49.7426 105.474 49.2724 105.641L28.0276 112.653C27.7768 112.653 28.1217 113.249 23.3983 103.906C23.1579 103.436 21.8935 104.074 36.8056 99.0784C39.3972 98.2111 41.8634 97.3437 44.6327 96.4346C45.3433 96.2047 44.7476 95.4941 47.7468 101.701ZM44.8939 105.098C44.4446 104.324 44.0893 104.857 43.5354 104.878C43.3996 104.878 29.8668 109.058 28.9054 109.518C28.4352 109.717 28.0067 110.344 28.5815 110.49C28.8009 110.542 44.0893 106.028 44.8939 105.098ZM41.6126 100.688C41.947 100.521 42.1769 99.9353 41.4663 99.789C41.3409 99.789 40.5363 100.029 39.3763 100.322C35.2486 101.367 34.6738 102.14 33.6079 102.119C32.3748 102.119 32.4271 102.621 30.5879 103.029C26.4079 103.959 27.0871 104.356 25.969 104.408C25.8331 104.408 25.6137 104.732 25.5719 104.857C25.4778 105.233 26.6169 105.453 27.1603 105.15C28.3223 104.525 29.5914 104.125 30.9014 103.969C32.6256 103.666 32.5629 103.112 33.5766 103.164C35.5098 102.903 36.2413 102.119 37.9969 101.68C39.7525 101.242 40.275 101.367 41.6126 100.688ZM38.8643 104.502C39.0391 104.513 39.2124 104.462 39.3525 104.357C39.4924 104.25 39.5899 104.099 39.6271 103.927C39.6271 102.725 35.4471 104.638 33.4721 104.972C31.6747 105.275 27.5887 106.467 26.9931 107.114C26.5751 107.574 26.805 107.836 27.3693 107.867C29.4593 107.156 29.1771 107.062 29.9295 106.822C34.2767 105.599 31.288 106.602 35.8965 105.275C37.9865 104.711 38.1223 104.502 38.8643 104.502Z" fill="#FFF5DB"/>
<path d="M31.1626 129.906C31.4761 130.544 30.3266 130.899 29.6578 131.024C29.2607 130.763 30.1385 132.216 20.5663 112.935C14.4426 100.751 14.4426 101.242 15.0696 101.242C18.33 101.252 13.2827 94.0522 31.1626 129.906Z" fill="#BDE9A7"/>
<path d="M17.3897 108.839C29.031 132.456 28.8116 131.369 28.31 131.547C22.04 133.699 25.175 137.817 24.5271 139.227C24.1822 138.736 2.58209 94.4805 2.43579 94.1147C2.60299 94.052 2.03869 93.7699 11.1929 99.2352C14.1293 100.991 12.426 98.7545 17.3897 108.839Z" fill="#BDE9A7"/>
<path d="M49.5546 97.2605C45.9916 89.8723 46.232 90.3112 45.9394 90.4157C42.8044 91.5339 26.3979 96.9783 23.6286 97.8875C16.8048 100.145 17.2332 99.7058 17.6512 100.521C33.6397 131.777 31.2362 130.011 33.065 129.52C35.2072 129.467 33.7756 133.031 33.8487 133.219C33.9219 133.407 34.4444 134.713 34.737 134.609C35.3682 134.334 36.0134 134.093 36.6702 133.888C38.1472 133.669 39.5861 133.243 40.9443 132.623C43.8703 131.129 43.9121 135.821 40.2128 137.629C39.212 138.238 38.1373 138.715 37.0151 139.05C36.827 139.05 36.7852 139.196 36.8688 139.364C37.6212 140.952 37.4331 140.827 37.9138 140.827C43.5568 140.827 42.888 139.917 46.7963 139.092C47.9458 138.841 48.426 140.252 47.9771 141.182C47.8726 141.391 48.0503 141.37 48.2693 141.307C48.2693 141.307 67.0793 135.737 67.8944 135.476C68.7095 135.215 68.3228 136.155 49.5546 97.2605ZM49.9726 106.467C49.8054 106.53 30.3689 112.977 28.0281 113.667C27.1607 113.573 27.3279 114.043 22.4896 103.98C21.8417 102.642 20.9848 103.269 44.8003 95.3481C45.7408 95.0346 45.699 95.3481 47.0053 98.0233C50.5369 105.276 51.3102 106.007 49.9726 106.467Z" fill="#BDE9A7"/>
<path d="M106.319 158.257C107.364 159.814 107.604 157.369 98.9202 169.627C97.9788 170.901 96.9599 172.115 95.8688 173.263C94.3953 174.967 93.2145 176.868 90.8841 178.655C85.4292 182.835 81.3433 181.79 76.5885 176.221C75.8683 174.997 75.3563 173.662 75.0733 172.27C74.394 169.522 73.1818 168.759 72.3354 165.645C70.12 157.505 72.5339 118.171 72.7534 117.972C73.6521 117.147 72.2518 117.554 70.2349 114.921C68.5943 112.831 69.3571 110.595 66.0549 105.223C65.9887 105.078 65.8903 104.95 65.7675 104.848C65.6439 104.747 65.4993 104.675 65.3443 104.638C64.7069 104.534 65.2294 105.359 65.522 106.007C65.9609 106.958 65.0622 106.352 64.895 106.341C64.4665 106.289 64.1739 106.78 65.6369 107.637C65.8146 107.742 66.2953 107.752 66.4207 107.919C66.5435 108.153 66.6314 108.403 66.6819 108.661C66.6819 108.808 66.6819 108.849 66.5461 108.86C65.3966 108.996 64.895 109.236 63.944 108.431C63.4006 107.972 62.4288 106.927 62.4497 106.216C62.5019 104.126 62.1466 103.081 63.944 102.036C64.6442 101.649 64.7696 100.991 64.8114 100.218C64.8845 98.7965 66.3162 99.5698 66.9014 97.7201C67.7374 95.0867 71.5621 97.4066 71.0082 95.9332C69.3153 91.4919 64.0067 88.6182 64.7382 87.3433C65.4279 86.2251 67.9464 88.3047 68.5943 89.0571C70.6216 91.3456 74.3418 94.4597 74.6762 96.6333C74.8852 97.9396 75.7943 98.3889 76.7035 101.44C78.3441 106.916 80.2042 109.246 80.4237 115.297C80.7685 124.702 90.4766 160.796 90.487 160.828C90.7587 161.392 91.4066 161.152 91.3753 160.566C90.9991 153.554 87.0908 145.821 88.0522 145.769C89.6371 145.66 91.2229 145.97 92.6502 146.668C93.6116 147.389 99.5472 152.666 100.07 153.157C102.348 155.185 104.762 155.874 106.319 158.257Z" fill="#FFC6A6"/>
<path d="M94.4892 69.6096C98.8991 65.8789 104.114 68.9094 99.7142 75.9527C98.8364 77.3426 97.9586 78.5443 94.1235 80.1327C89.1388 82.2227 88.5432 69.4633 88.4491 92.6727C88.4491 99.2562 89.1597 101.231 98.408 105.714C98.7737 105.892 95.5656 108.285 95.5447 108.295C89.9748 112.287 93.2457 110.385 87.0802 112.862C86.0352 113.259 81.7193 115.046 81.6462 114.388C80.8102 107.397 79.1382 105.798 77.9887 101.702C76.9437 98.0858 75.7733 97.1662 75.6688 95.954C75.5225 94.1775 71.4888 90.729 70.9976 90.102C70.82 89.893 70.8409 89.8094 71.1021 89.7154C82.8793 85.8802 81.0923 82.9647 79.901 83.6648C77.4766 85.0756 66.6191 88.963 61.5613 83.1632C56.0123 76.7887 55.8869 65.4714 58.1859 66.182C59.136 66.3921 60.1262 66.3376 61.0475 66.0243C61.968 65.7111 62.7857 65.1512 63.4109 64.4055C64.017 63.7994 63.4109 66.1088 66.3369 66.6418C66.943 66.7567 67.1729 66.0148 66.8072 65.8371C65.9189 65.3878 65.0829 65.1788 64.6022 63.6844C64.226 62.5245 67.8417 63.4545 67.7372 60.7375C67.7372 60.0165 67.0371 59.9956 66.8803 60.6435C66.5982 61.7616 66.8803 61.5944 65.2083 61.9079C65.062 61.9079 65.0202 61.9079 65.0725 61.7303C65.9921 58.8356 65.6995 58.0101 66.64 57.3099C67.0475 57.0718 67.5117 56.9475 67.9828 56.95C68.4548 56.9525 68.9172 57.0817 69.3222 57.3242C69.7271 57.5666 70.0589 57.9134 70.2844 58.3282C70.5091 58.7429 70.6188 59.2106 70.6005 59.6821C70.7364 63.0992 74.049 68.1048 77.9155 67.9585C83.3913 67.739 84.9693 62.096 85.962 61.4795C86.6204 61.0615 87.3101 61.3227 90.0898 63.0261C90.9049 63.5172 88.5327 68.4705 92.3992 70.1634C92.8068 70.3411 91.9185 70.8845 92.9113 71.2084C93.0262 71.3338 93.5905 70.362 94.4892 69.6096ZM99.4948 72.8909C99.6393 72.599 99.6994 72.2723 99.6681 71.9479C99.6367 71.6236 99.5157 71.3146 99.318 71.0557C99.1195 70.7968 98.853 70.5986 98.5482 70.4834C98.2434 70.3681 97.9125 70.3406 97.5929 70.4038C95.9 70.7695 94.0503 72.9222 94.949 74.6674C95.2521 75.263 94.949 76.4961 94.322 76.6424C93.0785 76.9141 92.9949 76.3289 92.6918 76.8932C92.3888 77.4575 93.0576 77.9382 93.7368 77.9382C95.8895 77.9382 96.6106 75.472 95.9209 74.1449C95.8329 74.0001 95.7807 73.836 95.7694 73.6667C95.7589 73.4974 95.7894 73.3279 95.8582 73.173C96.2971 72.128 98.4811 70.153 98.6901 72.9536C98.7424 73.2462 99.2753 73.3507 99.4948 72.8909ZM66.5146 74.0717C66.5146 73.6955 66.2847 72.5983 65.4069 72.5774C64.3619 72.5774 64.2051 74.1344 64.9575 74.8973C65.4069 75.3675 66.2638 75.472 66.5146 74.0717Z" fill="#FFC6A6"/>
<path d="M49.6278 151.955C52.6792 154.045 52.2089 152.05 50.7354 161.956C50.0214 166.23 49.0199 170.451 47.7362 174.59C47.4436 175.447 47.8825 172.134 47.7362 168.623C47.5899 163.858 42.6784 155.895 42.1559 156.083C41.1109 156.428 43.2009 157.651 45.7507 164.715C47.4959 169.668 46.5763 176.482 45.3536 178.3C43.7652 180.641 42.3858 181.633 38.3835 181.027C36.5881 180.757 34.9132 179.96 33.5704 178.738C32.2275 177.516 31.2769 175.923 30.8386 174.162C30.2743 171.842 29.3547 169.167 29.7936 166.356C31.8836 151.308 30.6296 158.278 33.2421 161.873H33.7123C33.566 160.733 33.4615 160.828 32.0612 156.23C31.6223 154.767 31.6119 154.558 31.1521 154.265C29.177 153.032 29.5428 152.833 29.1561 150.743C28.9158 149.479 27.3587 149.813 27.5573 148.037C27.6115 147.536 27.5374 147.029 27.3417 146.565C27.1461 146.1 26.8355 145.693 26.4391 145.382C25.7181 144.703 25.8853 142.697 27.1393 141.391C29.3756 139.071 29.6264 138.036 31.8 136.427C32.1448 136.166 32.2284 136.26 35.447 135.507C36.1472 135.34 35.7187 135.173 37.1922 134.912C41.1318 134.201 42.1246 132.822 42.0828 133.699C41.9925 134.406 41.7072 135.074 41.2586 135.627C40.8101 136.181 40.2161 136.599 39.5434 136.834C38.6963 137.327 37.7997 137.73 36.8682 138.036C30.5982 139.457 30.9326 143.658 31.9567 142.456C33.2943 140.889 33.0958 140.565 33.5974 141.485C33.9736 142.174 33.7855 141.861 32.5524 142.968C31.5074 143.909 28.0171 146.73 29.71 146.48C29.9503 146.48 30.0862 146.323 32.3016 144.463C33.8795 143.125 34.517 141.923 39.6166 141.871C42.553 141.871 44.8416 140.523 46.8375 140.137C47.6004 139.98 47.4018 142.425 42.0514 143.867C40.8839 144.335 39.6726 144.685 38.4357 144.912C37.4574 144.961 36.514 145.291 35.7187 145.863C34.9872 146.553 34.4438 146.908 34.82 147.295C34.9559 147.441 35.0813 147.556 35.2798 147.347C36.5443 146.03 37.8505 146.093 40.5048 145.56C41.299 145.403 41.1318 145.006 42.3963 144.881C43.6897 144.659 44.97 144.365 46.2314 144.003C47.2764 144.003 46.4718 146.218 41.0064 148.329C38.3626 149.374 37.119 149.656 36.189 151.046C35.9382 151.423 35.7292 151.987 36.189 152.196C36.9518 152.541 36.492 150.942 39.2195 149.949C39.6897 149.782 39.8047 149.74 39.9719 151.83C40.3272 156.365 38.6552 158.351 38.5193 160.19C38.5193 160.441 38.8119 160.765 39.1254 160.378C39.6 159.355 40.022 158.309 40.3899 157.243C42.7307 150.242 37.2549 147.964 44.5699 150.21C47.8825 151.234 48.3424 151.078 49.6278 151.955Z" fill="#FFC6A6"/>
<path d="M32.7092 130.732C34.1304 130.408 32.9495 133.48 30.3475 134.912C28.2575 136.093 28.0485 136.208 27.7559 136.563C27.4633 136.918 27.7559 137.367 28.0276 137.273C29.7414 136.772 32.5838 133.71 26.7527 140.408C25.3733 141.997 25.5823 142.112 25.3942 140.712C25.4066 140.179 25.4556 139.649 25.5405 139.123C25.8017 137.88 24.4328 134.943 25.8958 134.013C27.7891 132.862 29.7999 131.916 31.8941 131.192C32.1459 131.005 32.4196 130.851 32.7092 130.732Z" fill="#FFC6A6"/>
<path d="M58.667 53.2973C58.667 53.151 59.503 49.1173 60.5271 47.6439C61.5512 46.1704 65.0624 42.4189 65.0624 42.4189C65.0624 42.4189 67.6749 43.7774 67.9152 41.3739C67.9152 41.3739 68.8975 42.3039 70.0052 40.5797C71.1129 38.8554 74.0076 39.0331 75.0526 39.4929C76.0976 39.9527 78.9713 40.4752 80.5597 43.1399C82.1481 45.8047 87.5926 55.0947 88.5644 56.4323C89.5363 57.7699 92.619 61.6573 90.3305 62.3157L86.1505 59.9331C86.1505 59.9331 84.6979 55.6799 81.0509 55.0738C77.4038 54.4677 73.0671 54.102 71.2906 57.1638C71.2906 57.1638 67.7898 55.0738 65.355 57.2997C65.355 57.2997 64.8011 54.0288 61.7602 53.5168C58.7192 53.0047 58.667 53.2973 58.667 53.2973Z" fill="#FFC6A6"/>
<path d="M139.194 72.4519C134.314 76.3393 133.792 83.7903 131.336 82.0033C128.525 79.9132 126.727 77.7292 126.644 74.5942C126.644 73.7268 126.174 72.8804 125.338 73.1939C124.658 73.4901 123.96 73.7415 123.248 73.9463C120.855 74.5733 120.949 72.3997 119.841 73.4133C119.395 73.7218 118.978 74.0717 118.597 74.4583C118.253 74.7718 118.42 74.5942 117.626 73.9985C116.831 73.4029 115.682 74.218 115.839 74.6778C115.915 74.7896 116.027 74.8722 116.156 74.912C116.284 74.9519 116.424 74.9467 116.549 74.8972C117.166 74.6255 117.26 75.2107 117.887 75.7123C118.932 76.5588 119.757 73.8 120.656 74.4374C122.15 75.4824 122.83 75.1271 125.108 74.3538C126.518 73.8836 123.812 77.0081 129.465 81.8047C132.6 84.4904 133.133 83.644 135.589 78.7324C136.488 76.935 138.254 74.009 139.853 73.0267C140.511 72.6191 141.284 72.4101 142.894 73.5492C146.666 76.2244 144.984 76.9036 144.492 78.0636C144.409 78.2726 144.858 78.6488 145.057 78.3771C146.3 76.6737 145.955 77.2067 146.217 76.3811C145.767 73.7895 141.535 70.5918 139.194 72.4519Z" fill="#000001"/>
<path d="M137.627 59.1284C137.544 58.6059 137.376 58.0833 137.272 57.5712C137.26 57.4475 137.21 57.3303 137.13 57.2352C137.05 57.1401 136.943 57.0715 136.823 57.0384C136.415 56.913 136.363 57.1428 134.962 58.8043C133.719 60.2778 134.461 60.027 131.409 59.2746C131.241 59.3046 131.082 59.3716 130.943 59.4711C130.803 59.5705 130.688 59.6997 130.605 59.8493C130.396 60.1524 130.417 60.2673 131.347 61.7721C132.141 63.0575 132.392 62.744 132.016 63.2978C130.041 66.2552 129.152 67.227 132.789 65.8999C134.879 65.1475 134.795 65.0325 135.098 65.3356C136.509 66.7463 138.453 69.1289 138.568 67.133C138.617 66.35 138.496 65.5656 138.212 64.834C138.066 64.0816 140.94 63.6949 141.107 62.6186C141.121 62.572 141.125 62.5229 141.12 62.4745C141.114 62.4261 141.099 62.3793 141.074 62.3371C141.05 62.295 141.017 62.2583 140.977 62.2295C140.938 62.2006 140.894 62.1801 140.846 62.1692C136.864 60.7585 138.097 62.138 137.627 59.1284ZM137.679 63.7995C136.634 64.5728 137.617 65.2206 137.533 66.3074C136.718 65.9626 135.798 64.2174 134.586 64.2174C132.402 64.9489 132.266 65.2624 131.88 65.2624C132.005 64.4787 133.844 62.8904 132.799 62.0439C132.392 61.7304 131.378 60.236 131.89 60.3509C133.917 60.8212 133.907 60.9152 134.294 60.6435C136.331 59.2432 136.384 57.0905 136.76 60.0374C137.084 62.6917 136.425 61.6049 139.362 62.6708C139.843 62.8694 138.338 63.3188 137.679 63.7995Z" fill="#000001"/>
<path d="M124.585 42.1363C124.669 46.3163 127.292 48.4063 122.903 47.842C116.173 46.9642 114.825 45.3445 115.463 50.2351C115.546 50.8934 115.578 50.6844 112.328 52.0011C110.697 52.6699 111.439 53.4955 112.328 53.1506C115.295 51.9384 116.602 51.7608 116.508 50.465C116.299 48.1764 116.006 47.7689 116.873 47.9152C122.736 48.8557 123.729 49.0751 124.784 48.9602C128.901 48.5213 123.655 41.9691 126.466 40.6002C128.442 39.6179 129.1 41.1854 138.578 44.9578C139.101 45.1668 139.623 45.3758 139.79 44.8847C139.957 44.3935 139.477 44.3622 139.215 44.2577C129.81 40.4016 130.772 40.2135 128.765 39.5552C128.324 39.3485 127.838 39.2551 127.351 39.2832C126.864 39.3113 126.392 39.4602 125.978 39.7163C125.563 39.9724 125.219 40.3277 124.976 40.7502C124.733 41.1727 124.599 41.649 124.585 42.1363Z" fill="#000001"/>
<path d="M128.64 29.3354C127.857 30.6207 126.038 33.4213 127.721 33.0033C128.348 32.857 129.55 32.6271 129.811 32.5226C131.41 31.9792 131.462 31.7598 131.681 31.9897C133.771 34.0797 135.266 36.3682 135.161 32.5435C135.098 30.7461 134.701 30.4535 135.213 30.255C135.893 29.9624 137.241 29.21 137.617 29.1159C138.902 28.7293 138.965 27.8933 138.411 27.6425C137.857 27.3917 136.321 27.0991 135.37 26.6915C133.855 26.0123 134.503 26.9423 133.531 23.0967C133.508 22.9823 133.45 22.8781 133.364 22.7988C133.278 22.7196 133.17 22.6695 133.054 22.6556C132.938 22.6416 132.82 22.6647 132.718 22.7214C132.617 22.7781 132.536 22.8656 132.486 22.9713C132.361 23.1385 131.922 23.7655 130.584 25.7301C130.271 26.2004 127.271 24.6224 126.78 25.2076C125.547 26.6393 129.048 28.6666 128.64 29.3354ZM129.894 26.6811C130.939 26.9841 130.751 26.8378 132.653 24.2776C133.259 23.452 132.873 27.1827 134.283 27.3081C134.764 27.3081 135.454 27.8933 136.572 28.1441C136.662 28.1767 136.746 28.2225 136.823 28.2799C136.77 28.3531 136.729 28.4471 136.656 28.4785C134.022 29.837 133.844 29.6698 134.001 30.5685C134.398 33.0451 134.304 32.6585 134.242 33.0869C131.451 30.558 132.559 30.882 132.152 30.8088C131.378 30.6939 129.936 31.5612 128.546 31.8538C128.066 31.8538 128.254 31.7493 129.455 29.7638C130.751 27.6216 124.293 25.0822 129.894 26.6811Z" fill="#000001"/>
<path d="M103.936 31.7285C103.889 32.1366 103.928 32.5499 104.051 32.9418C104.173 33.3339 104.377 33.696 104.647 34.0049C104.918 34.3139 105.249 34.5629 105.622 34.7359C105.995 34.909 106.399 35.0023 106.81 35.0098C108.336 35.1456 108.952 33.8394 109.527 33.9648C110.812 34.2156 111.836 32.7944 111.878 31.7807C111.878 31.2478 112.275 30.8925 112.484 30.3804C112.693 29.8684 112.422 29.5445 112.693 29.4608C113.093 29.1858 113.415 28.8126 113.629 28.3771C113.844 27.9416 113.942 27.4584 113.916 26.9738C113.916 26.8379 114.271 26.3572 113.916 25.9287C113.843 25.8347 114.198 25.2704 114.282 25.1868C114.365 25.1032 124.314 25.8974 126.059 17.1298C128.609 4.31815 108.033 -0.865045 104.197 11.445C102.107 18.0703 107.541 21.5815 107.217 22.2608C106.371 24.0059 105.828 23.3058 105.514 24.0686C104.678 26.0019 105.514 25.7615 105.065 26.0019C103.56 26.7752 104.396 27.7261 103.873 28.0919C103.466 28.3915 103.189 28.8368 103.102 29.3352C103.014 29.8335 103.122 30.3465 103.403 30.7671C103.811 31.2478 104.02 31.3523 103.936 31.7285ZM106.883 33.9334C105.671 33.6409 105.525 33.6199 104.793 32.136C104.699 31.948 104.929 31.9793 105.127 32.0629C108.012 33.2542 108.816 33.4423 106.883 33.9334ZM106.402 19.5124C101.376 11.5391 108.492 5.13325 114 5.4363C126.947 5.36315 129.737 22.3967 116.278 23.9328C114.522 24.1418 114.188 23.6402 113.644 24.3403C112.662 25.7302 113.299 26.3572 112.495 26.1482C110.851 25.7285 109.286 25.0513 107.855 24.1418C106.528 23.3371 108.9 23.0968 108.21 21.6024C107.52 20.1081 107.531 21.2471 106.402 19.5124ZM106.455 24.2776C111.993 28.4576 114.188 26.305 112.516 28.2486C112.202 28.6144 110.99 27.9978 110.53 27.8306C108.336 27.0051 104.605 25.8138 106.496 24.2776H106.455ZM105.18 26.9738C105.347 26.8484 105.263 26.493 105.504 26.5139C105.922 26.5139 105.368 26.9529 108.137 28.0606C110.906 29.1683 111.147 29.2936 111.69 29.3459C112.233 29.3981 111.627 30.5476 110.582 30.5267C108.889 29.9415 103.832 28.0814 105.221 26.9738H105.18ZM104.135 29.0638C104.594 28.3532 104.218 29.1683 106.601 30.1924C109.182 31.3105 110.112 31.7285 110.781 31.6449C110.959 31.6449 110.948 31.7703 110.875 31.8644C110.446 32.4391 109.955 33.2856 109.151 32.7735C107.113 31.3523 103.079 30.7671 104.197 29.0219L104.135 29.0638Z" fill="#000001"/>
<path d="M124.596 94.4284C123.781 93.9059 124.094 93.8432 124.272 93.0699C124.993 89.9349 124.962 90.1543 124.92 89.9349C124.915 89.8469 124.885 89.7616 124.835 89.6884C124.784 89.6153 124.714 89.5587 124.633 89.523C124.552 89.4873 124.464 89.4742 124.376 89.4864C124.288 89.4986 124.205 89.5343 124.136 89.59C123.091 90.4156 121.9 90.9067 120.834 91.68C120.343 92.0144 118.692 90.3424 118.316 90.4887C117.762 90.7186 117.354 90.9903 117.532 91.6696C118.274 94.3552 118.044 94.0731 117.657 94.3239C116.518 95.0554 115.567 95.3689 115.64 96.2989C115.64 97.0513 117.918 96.9991 118.775 97.0095C119.632 97.02 119.455 97.3857 119.747 97.8664C121.053 100.019 121.837 101.263 122.485 98.8174C123.049 96.7901 122.349 97.0095 125.819 96.8946C127.302 96.7796 126.184 95.442 124.596 94.4284ZM123.854 95.9436C122.631 96.1004 122.119 96.1317 121.983 96.8737C121.872 97.478 121.7 98.0693 121.471 98.6397C121.417 98.5997 121.369 98.5544 121.325 98.5039C119.235 95.4316 120.855 96.2258 117.02 95.9123C116.257 95.9123 118.357 95.2017 118.974 93.8223C119.204 93.3102 118.127 91.3979 118.734 91.7323C120.573 92.7041 119.977 92.3488 120.207 92.4847C120.897 92.9131 122.945 91.2307 123.729 91.0008C124.011 92.725 122.025 93.77 123.896 95.0867C125.213 95.9959 125.035 95.7973 123.854 95.9436Z" fill="#000001"/>
<path d="M112.944 108.567C109.976 107 107.583 108.17 103.926 106.101C102.876 105.365 101.598 105.025 100.321 105.14C99.4324 105.37 91.7203 102.005 90.0588 98.3471C89.707 97.3936 89.5232 96.3851 89.5154 95.3689C89.4422 94.5747 93.3505 97.9814 97.1334 96.1213C97.2318 96.0873 97.318 96.0255 97.3816 95.9436C97.4461 95.8618 97.4852 95.7634 97.4948 95.6606C97.5044 95.557 97.4853 95.4525 97.4374 95.3602C97.3903 95.2679 97.3172 95.1912 97.2275 95.139C95.8577 94.5642 94.7029 93.5732 93.9253 92.307C93.7999 92.098 93.6536 91.68 94.1343 92.004C98.3874 94.8986 103.968 91.8054 102.264 90.959C100.75 90.5749 99.4054 89.7006 98.4397 88.4719C98.2307 88.2106 98.4397 88.2524 98.5651 88.3256C101.7 89.7259 106.11 89.5273 108.597 87.1343C109.893 85.8803 105.734 85.3473 104.825 80.4567C103.915 75.5661 106.915 72.358 107.437 64.0084C107.709 59.6612 104.469 51.6043 102.421 48.5947C96.8513 40.4228 88.8361 36.4309 78.8355 33.5885C76.4686 33.0436 74.0006 33.1119 71.6668 33.787C71.2488 33.9542 71.3428 34.6439 71.8444 34.5708C75.454 33.7739 79.2274 34.2386 82.5348 35.8875C86.6103 37.8103 94.6672 39.6286 100.78 48.2289C114.198 67.0389 97.6455 76.4439 105.932 85.0338C107.677 86.8417 107.928 86.5491 107.103 87.0402C105.622 87.8684 103.94 88.2637 102.246 88.1828C100.551 88.1018 98.9143 87.5462 97.5201 86.5804C96.8722 86.1624 96.2034 86.5804 96.5482 87.3642C98.0008 90.8754 101.533 91.3352 100.624 91.6487C95.8167 93.2684 93.873 90.3215 93.1938 89.9453C91.7517 89.172 91.4904 92.307 95.4614 95.3271C96.287 95.9541 89.3482 95.4211 89.4109 93.1535C89.9856 74.0509 88.1464 82.4318 93.6954 81.6585C98.3038 81.0001 103.623 74.4689 102.348 69.8604C101.491 66.7986 98.6591 67.1539 97.9485 66.6418C91.062 61.699 87.4045 60.1733 85.4085 57.0383C83.0468 53.339 74.2375 52.0641 71.1338 56.4217C71.0189 56.5889 70.9248 56.6307 70.7681 56.4217C70.4816 56.0774 70.1263 55.7956 69.7266 55.5936C69.326 55.3916 68.8888 55.2738 68.4412 55.2473C67.9936 55.2209 67.546 55.2864 67.1245 55.4399C66.7039 55.5934 66.3181 55.8315 65.9924 56.1396C65.8566 56.2859 65.7939 56.2859 65.7416 56.0769C65.1982 53.8406 62.1573 52.7851 59.6597 52.6493C59.2731 52.6493 59.1999 52.7851 60.2031 50.1831C60.3912 49.7024 61.478 49.5979 63.0873 50.7474C64.5399 51.6461 63.5262 48.2812 61.2168 48.3334C60.1718 48.3334 64.2682 43.8504 64.9056 43.1084C65.24 42.7322 65.3341 43.3801 66.1596 43.4533C66.5045 43.4533 66.7239 42.9099 66.3059 42.5859C60.9451 38.4059 66.6299 29.816 71.6877 32.5853C72.7327 33.1809 73.2447 32.0732 72.2311 31.5403C68.6572 29.7951 64.613 32.1777 63.4844 36.086C63.3381 36.5667 63.3068 36.0129 60.8719 36.5772C59.7817 36.8347 58.7784 37.3764 57.966 38.1474C57.1526 38.9183 56.5578 39.8909 56.2426 40.9662C56.1015 41.4595 55.8263 41.9043 55.4484 42.2515C53.0449 44.8431 54.1944 48.1453 56.9323 48.9709C57.1308 49.0336 57.9146 49.1276 57.9773 48.7619C58.1445 48.1558 57.6533 48.1453 57.2667 48.0304C53.6092 46.9331 55.7514 42.0112 56.159 43.7563C56.5665 45.5015 58.9282 47.696 59.4403 46.7973C59.9523 45.8986 55.7201 44.8118 57.2876 40.893C58.5207 37.758 63.1918 36.713 63.1814 37.9357C63.1187 41.8022 64.8325 42.1157 64.4145 42.5546C62.3245 44.7386 61.2795 45.5119 59.9941 48.2289C59.9018 48.4633 59.7268 48.6564 59.503 48.7723C57.925 49.5038 57.3398 51.9073 57.9459 51.552C59.2417 50.6847 58.8237 50.7369 58.4998 52.3567C58.343 53.1195 57.298 52.4194 54.6646 53.8406C49.9726 56.4322 52.2507 62.5872 56.2426 65.3147C57.7578 66.3597 53.2539 67.8122 57.7265 78.5444C57.7474 78.5789 57.7596 78.6181 57.7622 78.6585C57.7648 78.6989 57.7578 78.7392 57.7413 78.7762C57.7247 78.8131 57.6995 78.8455 57.6681 78.8707C57.6368 78.8958 57.5993 78.9129 57.5593 78.9206C55.916 79.6604 54.1369 80.0518 52.3343 80.0701C51.7073 80.0074 51.7282 80.6971 51.9163 81.1987C53.4733 85.3787 57.7892 85.7653 56.9741 86.246C53.6823 88.2106 53.7555 87.8449 52.8777 88.0539C52.7157 88.0695 52.5668 88.1488 52.4632 88.2742C52.3595 88.3996 52.3099 88.5607 52.3238 88.7227C52.2507 89.5691 52.909 90.0498 53.8286 90.7082C57.7578 93.5088 61.6243 91.7532 61.8229 91.9413C61.5137 92.995 61.0147 93.9825 60.3494 94.8568C58.9073 96.6856 63.0142 96.9468 66.4313 94.7941C66.4932 94.7784 66.5576 94.7784 66.6194 94.7941C66.5027 95.5535 66.3347 96.3041 66.1178 97.0409C65.6162 98.7024 64.3518 98.0859 63.8711 99.8101C63.4426 101.409 55.3334 103.645 54.278 104.314C53.9331 104.523 54.1839 104.68 51.028 98.2322C46.5556 89.1302 46.8482 89.1407 45.6987 89.5273C43.0235 90.3842 43.9536 90.8336 42.2816 87.4373C41.4247 85.6922 21.8727 90.7918 15.8744 97.9291C14.61 99.4966 15.3728 99.8833 15.8013 99.4966C16.0416 99.2876 17.7136 95.9854 27.1186 91.9204C31.5801 89.9871 36.2898 88.6852 41.1112 88.0539C41.6546 87.9912 41.4351 87.8344 42.5115 90.217C42.7832 90.8231 16.6582 98.8801 16.0103 99.7056C15.3624 100.531 13.9203 100.27 14.3592 99.9355C14.4563 99.8693 14.5244 99.7692 14.5496 99.6542C14.5749 99.5393 14.5554 99.42 14.495 99.319C12.405 94.4806 10.0224 94.094 10.315 93.049C10.315 92.8504 9.39541 90.6873 9.56261 90.3738C9.72981 90.0603 14.6622 94.4493 14.495 97.3439C14.495 98.0754 15.6654 98.3889 15.4773 97.0513C14.9444 93.1326 9.72981 87.8031 8.35041 89.496C8.11006 89.7781 9.12371 91.8368 9.14461 92.4533C8.47581 92.2548 4.80786 89.3183 3.64791 90.7709C3.38666 91.0844 3.51206 91.1262 5.14226 94.1358C5.54981 94.8986 4.37941 94.0417 3.21946 93.352C-0.260392 91.262 1.12946 93.2789 2.97911 97.1976C23.5761 139.614 25.2167 142.133 25.0077 143.303C24.9016 143.928 24.9583 144.57 25.1725 145.167C25.3867 145.763 25.751 146.295 26.2304 146.71C26.3924 146.877 26.5092 147.082 26.5695 147.308C26.6298 147.533 26.6318 147.77 26.5752 147.995C26.4603 150.576 28.3099 150.158 28.289 151.6C28.3002 152.58 28.6722 153.521 29.334 154.244C30.9224 155.404 30.2432 153.136 28.8324 166.094C28.4353 169.721 29.5639 172.678 30.1805 174.925C31.4867 179.606 36.4505 182.177 39.899 182.24C40.2543 182.24 40.4006 182.114 39.899 183.671C38.3001 188.677 40.3274 189.711 37.9239 192.784C37.4989 193.401 37.2528 194.125 37.2133 194.874C37.2267 194.974 37.2741 195.066 37.3475 195.135C37.4208 195.204 37.5158 195.246 37.6163 195.253C37.7168 195.26 37.8168 195.233 37.8995 195.175C37.9822 195.118 38.0424 195.033 38.0702 194.936C38.5718 193.066 40.1602 192.251 40.2229 189.638C40.2229 189.179 40.2856 186.294 40.3901 185.855C41.3202 181.832 41.1216 182.25 41.6546 182.167C45.0508 181.623 45.7719 179.721 47.6842 177.13C49.0216 175.311 51.864 163.189 52.7523 154.652C52.7523 154.317 52.7523 153.972 53.0553 153.743C53.3584 153.513 54.8632 144.181 54.8318 143.293C54.8318 142.948 54.2257 142.812 54.1003 143.125C53.7555 143.951 53.233 149.071 52.5746 152.468C52.5015 152.886 52.3343 152.624 50.7668 151.517C48.6768 150.033 48.3737 150.388 45.7719 149.646C41.5919 148.424 42.6369 149.04 44.9672 147.556C48.1022 145.529 47.8932 143.637 47.5379 143.188C47.1826 142.739 46.054 143 47.5379 142.572C61.3631 138.569 66.6612 137.064 68.5527 136.302C69.8589 135.8 69.5977 135.654 69.2842 135.319C69.2842 135.319 67.2987 131.286 54.6542 105.547C54.4661 105.15 54.3511 105.296 56.8591 104.502C57.0263 104.502 57.0786 104.502 57.1099 104.68C57.7334 107.412 59.1947 109.882 61.2899 111.744C66.9016 116.457 68.9602 114.816 69.3887 115.537C72.9521 121.609 71.1338 107.376 70.4337 151.214C70.4337 167.881 71.9071 166.889 73.8926 171.769C74.0494 172.135 74.9376 175.949 75.5542 176.628C81.6674 183.87 86.558 183.745 91.9293 179.366C96.4333 175.698 103.989 163.837 104.574 164.287C105.159 164.736 106.12 164.778 107.04 165.405C108.284 166.251 110.227 167.077 111.659 166.659C112.84 166.314 112.526 167.129 118.66 149.103C118.984 148.141 118.378 156.94 116.33 164.955C113.509 175.97 109.015 182.261 110.06 186.462C110.478 188.092 109.757 188.677 110.06 191.352C111.105 199.085 110.593 198.594 111.429 198.667C112.265 198.74 111.335 192.658 111.262 192.303C110.624 189.053 111.45 188.123 111.021 186.326C109.914 181.738 116.006 174.36 118.713 158.247C119.904 151.193 118.995 148.444 121.409 141.621C124.418 133.177 126.362 127.231 124.951 118.328C123.906 111.817 121.889 113.291 112.944 108.567ZM15.0698 101.252C18.3302 101.252 13.2619 94.0417 31.1314 129.917C31.4449 130.554 30.2954 130.909 29.6266 131.035C29.2295 130.773 30.1073 132.226 20.5351 112.946C14.4428 100.751 14.4428 101.242 15.0698 101.242V101.252ZM4.74516 91.5442C6.13501 91.377 12.0602 95.4211 13.4918 99.4548C11.0571 98.2435 8.71982 96.8467 6.50076 95.2748C6.30221 94.4284 4.92281 92.1503 4.74516 91.5337V91.5442ZM24.527 139.238C24.1822 138.736 2.58201 94.4911 2.43571 94.1253C2.60291 94.0626 2.03861 93.7805 11.1928 99.2458C14.1293 101.001 12.4259 98.7756 17.3897 108.849C29.031 132.466 28.8115 131.38 28.3099 131.557C22.0504 133.699 25.1645 137.806 24.527 139.228V139.238ZM25.3944 140.743C25.4068 140.211 25.4558 139.679 25.5407 139.154C25.8019 137.911 24.433 134.974 25.896 134.044C27.7892 132.893 29.8001 131.947 31.8943 131.223C32.145 131.029 32.4188 130.868 32.7094 130.742C34.1306 130.429 32.9497 133.49 30.3477 134.922C28.2577 136.103 28.0487 136.218 27.7561 136.573C27.4635 136.929 27.7561 137.378 28.0278 137.284C29.7416 136.782 32.584 133.72 26.7529 140.419C25.3735 142.018 25.5825 142.122 25.3944 140.732V140.743ZM33.3991 134.473C33.5767 134.912 33.514 134.839 31.8838 135.162C31.8838 135.162 31.8838 135.162 31.8838 135.079C32.793 134.525 32.9288 133.898 33.1065 133.94C33.2841 133.982 33.2528 134.149 33.3991 134.504V134.473ZM42.0099 143.815C40.8424 144.283 39.6312 144.633 38.3942 144.86C37.4159 144.909 36.4725 145.239 35.6772 145.811C34.9457 146.501 34.4023 146.856 34.7785 147.243C34.9143 147.389 35.0397 147.504 35.2383 147.295C36.5027 145.978 37.809 146.041 40.4633 145.508C41.2575 145.351 41.0903 144.954 42.3547 144.829C43.6482 144.607 44.9285 144.313 46.1899 143.951C47.2349 143.951 46.4302 146.166 40.9649 148.277C38.3106 149.322 37.0775 149.604 36.1474 150.994C35.8966 151.37 35.6876 151.935 36.1474 152.144C36.9103 152.489 36.4505 150.89 39.1779 149.897C39.6482 149.73 39.7631 149.688 39.9303 151.778C40.2856 156.313 38.6136 158.299 38.4778 160.138C38.4778 160.389 38.7704 160.713 39.0839 160.326C39.3974 159.939 40.2438 157.463 40.3483 157.191C42.6891 150.19 37.2133 147.911 44.5283 150.158C47.8828 151.203 48.3006 151.026 49.5859 151.903C52.6373 153.993 52.1671 151.997 50.6936 161.904C49.9795 166.178 48.9781 170.399 47.6947 174.538C47.4021 175.395 47.841 172.082 47.6947 168.571C47.5484 163.806 42.6369 155.843 42.1144 156.031C41.0694 156.376 43.1594 157.599 45.7092 164.663C47.4543 169.616 46.5347 176.43 45.3121 178.248C43.7237 180.589 42.3443 181.581 38.3419 180.975C36.5466 180.704 34.8716 179.909 33.5288 178.686C32.1859 177.464 31.2353 175.871 30.797 174.11C30.2327 171.79 29.3131 169.115 29.752 166.303C31.842 151.255 30.588 158.226 33.2005 161.82H33.6708C33.5245 160.681 33.42 160.775 32.0197 156.177C31.5808 154.714 31.5703 154.505 31.1105 154.213C29.1355 152.98 29.5012 152.781 29.1146 150.691C28.8742 149.427 27.3172 149.761 27.5157 147.985C27.57 147.484 27.4958 146.977 27.3003 146.513C27.1046 146.049 26.794 145.641 26.3976 145.33C25.6765 144.651 25.8437 142.645 27.0977 141.338C29.334 139.019 29.5848 137.984 31.7584 136.375C32.1033 136.113 32.1869 136.207 35.4055 135.455C36.1056 135.288 35.6772 135.121 37.1506 134.859C41.0903 134.149 42.083 132.769 42.0412 133.647C41.951 134.354 41.6656 135.022 41.2171 135.575C40.7686 136.129 40.1746 136.547 39.5019 136.782C38.6548 137.276 37.7581 137.678 36.8267 137.984C30.5567 139.405 30.8911 143.606 31.9152 142.404C33.2528 140.837 33.0542 140.513 33.5558 141.432C33.932 142.122 33.7439 141.809 32.5108 142.916C31.4658 143.857 27.9755 146.678 29.6684 146.428C29.9088 146.428 30.0446 146.271 32.26 144.411C33.838 143.073 34.4754 141.871 39.575 141.819C42.5115 141.819 44.8 140.471 46.796 140.084C47.5588 139.959 47.3603 142.404 42.0099 143.846V143.815ZM34.7994 141.495C34.6635 141.37 34.7262 141.568 34.1306 140.356C33.9947 140.064 34.2246 139.98 35.6876 139.531C35.8757 139.468 36.0429 139.813 36.4714 140.764C36.5654 141.014 36.3878 141.077 34.7994 141.527V141.495ZM67.8421 135.476C67.0061 135.737 48.2483 141.297 48.2172 141.307C47.9977 141.37 47.8201 141.391 47.9246 141.182C48.3737 140.22 47.9246 138.81 46.7437 139.092C42.8354 139.917 43.5042 140.816 37.8612 140.826C37.4328 140.826 37.6209 140.952 36.8162 139.363C36.7326 139.196 36.8162 139.092 36.9625 139.05C38.0848 138.715 39.1594 138.237 40.1602 137.629C43.8595 135.821 43.8177 131.129 40.8917 132.623C39.5336 133.243 38.0947 133.669 36.6177 133.888C35.9609 134.093 35.3156 134.334 34.6844 134.609C34.3918 134.713 33.932 133.564 33.7962 133.219C33.6603 132.874 35.1547 129.467 33.0124 129.519C31.1837 130.011 33.5872 131.777 17.5987 100.521C17.1807 99.7056 16.7522 100.145 23.5761 97.8873C26.3453 96.9782 42.7936 91.5337 45.8868 90.4156C46.1794 90.3111 45.8868 89.8722 49.5023 97.2603C68.3228 136.155 68.6154 135.267 67.8421 135.507V135.476ZM91.0724 64.0711C91.0724 63.6531 90.8634 63.6531 95.9839 66.9762C96.6527 67.4047 95.0957 67.227 93.5073 69.0662C93.2042 69.4215 93.1938 69.4006 92.7549 69.1916C90.853 68.3452 90.8007 66.2761 91.0724 64.1025V64.0711ZM72.6282 56.4322C74.7182 54.7184 81.5107 54.7602 84.1232 57.7175C86.4013 60.3091 80.7583 69.7873 75.1884 65.8894C72.5132 64.0189 70.0261 58.5222 72.6282 56.4322ZM59.1268 61.1765C59.1268 60.654 58.5416 54.1541 59.388 54.1959C60.9773 54.1394 62.5483 54.5538 63.9024 55.3872C66.1492 56.8606 63.5994 67.0389 58.1236 65.0221C57.5384 64.7922 59.085 63.4232 59.1268 61.1765ZM56.2426 54.7079C56.786 54.5407 57.2876 54.4153 57.8937 54.269C58.0818 54.269 58.1758 54.269 58.1549 54.478C57.6115 59.191 59.1372 60.5286 57.3294 64.1443C57.1204 64.5832 57.0786 64.6041 56.7233 64.3219C52.3447 60.748 51.1221 56.3068 56.2426 54.7079ZM58.1758 66.2029C59.1259 66.413 60.116 66.3585 61.0365 66.0453C61.9579 65.7321 62.7756 65.1721 63.4008 64.4264C63.9965 63.8203 63.4008 66.1298 66.3268 66.6627C66.9329 66.7777 67.1628 66.0357 66.7971 65.8581C65.9088 65.4087 65.0728 65.1997 64.5921 63.7054C64.2159 62.5454 67.8316 63.4755 67.7271 60.7585C67.7271 60.0374 67.027 60.0165 66.8702 60.6644C66.5881 61.7826 66.8702 61.6154 65.1982 61.9289C65.0519 61.9289 65.0101 61.9289 65.0624 61.7512C65.982 58.8566 65.6894 58.031 66.6299 57.3309C67.0374 57.0928 67.5016 56.9684 67.9727 56.971C68.4447 56.9735 68.9071 57.1027 69.312 57.3452C69.717 57.5876 70.0488 57.9344 70.2743 58.3491C70.499 58.7639 70.6087 59.2315 70.5904 59.703C70.7263 63.1202 74.0389 68.1257 77.9054 67.9794C83.3812 67.76 84.9592 62.117 85.9519 61.5004C86.6103 61.0824 87.3 61.3437 90.0797 63.047C90.8948 63.5382 88.5226 68.4915 92.3891 70.1844C92.7967 70.362 91.9084 70.9054 92.9012 71.2294C93.0579 71.2294 93.6222 70.2993 94.5209 69.5469C98.9308 65.8163 104.145 68.8468 99.7459 75.8901C98.8681 77.2799 97.9903 78.4817 94.1552 80.0701C89.1705 82.1601 88.5749 69.4006 88.4808 92.6101C88.4808 99.1936 89.1914 101.169 98.4397 105.652C98.8054 105.829 95.5973 108.222 95.5764 108.233C90.0065 112.225 93.2774 110.323 87.1119 112.799C86.0669 113.197 81.751 114.984 81.6779 114.325C80.8419 107.334 79.1699 105.735 78.0204 101.639C76.9754 98.0232 75.805 97.1036 75.7005 95.8914C75.5542 94.1149 71.5205 90.6664 71.0293 90.0394C70.8517 89.8304 70.8726 89.7468 71.1338 89.6527C82.911 85.8176 81.124 82.902 79.9327 83.6022C77.5083 85.0129 66.6508 88.9003 61.593 83.1006C55.9813 76.8515 55.8559 65.5341 58.1549 66.2447L58.1758 66.2029ZM61.4676 95.0972C62.2034 93.7953 62.7259 92.3845 63.0142 90.9172C63.0412 90.8109 63.0333 90.6986 62.9933 90.5967C62.9524 90.4948 62.8809 90.4086 62.7886 90.3494C62.6963 90.2902 62.5875 90.2623 62.4777 90.2684C62.368 90.2745 62.2635 90.3154 62.1782 90.3842C58.552 92.8295 52.1566 88.9944 53.6719 88.8794C54.581 88.8063 60.6838 85.9952 57.7369 85.0129C54.2571 83.853 52.6791 81.1569 53.0971 81.0315C54.7299 80.9234 56.3314 80.5346 57.831 79.882C59.2104 79.2236 57.831 82.4945 64.2577 86.455C63.966 86.7807 63.804 87.2031 63.804 87.6411C63.804 88.0791 63.966 88.5015 64.2577 88.8272C66.0551 91.0217 67.3927 91.9622 67.2987 92.1712C67.1419 92.5056 67.2987 92.9654 66.8911 93.2162C65.3341 94.2716 63.265 95.4629 61.4676 95.0972ZM68.3437 114.085C63.6098 113.343 58.9909 108.661 58.04 104.732C57.8623 103.99 57.7369 104.063 58.5311 103.792C60.8615 102.966 62.0632 102.078 61.7706 102.6C61.1854 103.645 61.6034 104.993 61.5303 105.474C61.2586 107.282 62.5126 108.808 64.3204 109.769C64.5608 109.894 64.4772 109.873 66.076 109.978C67.121 109.727 67.2569 109.623 67.3823 109.978C67.6113 110.5 67.7898 111.042 67.9152 111.598C68.3332 113.907 68.8766 114.21 68.3332 114.127L68.3437 114.085ZM98.9308 169.585C97.9895 170.859 96.9706 172.074 95.8794 173.221C94.406 174.925 93.2251 176.827 90.8948 178.614C85.4399 182.794 81.3539 181.749 76.5992 176.179C75.8799 174.954 75.3678 173.62 75.0839 172.229C74.4047 169.48 73.1925 168.717 72.346 165.603C70.1306 157.463 72.5446 118.129 72.764 117.93C73.6627 117.105 72.2624 117.512 70.2456 114.879C68.6049 112.789 69.3678 110.553 66.0656 105.181C66.0003 105.036 65.9019 104.908 65.7782 104.806C65.6554 104.705 65.5109 104.633 65.355 104.596C64.7175 104.492 65.24 105.317 65.5326 105.965C65.9715 106.916 65.0728 106.31 64.9056 106.3C64.4772 106.247 64.1846 106.738 65.6476 107.595C65.8252 107.7 66.3059 107.71 66.4313 107.878C66.5541 108.111 66.6421 108.361 66.6926 108.619C66.6926 108.766 66.6926 108.808 66.5567 108.818C65.4072 108.954 64.9056 109.194 63.9547 108.39C63.4113 107.93 62.4394 106.885 62.4603 106.174C62.5126 104.084 62.1573 103.039 63.9547 101.994C64.6548 101.608 64.7802 100.949 64.822 100.176C64.8952 98.7547 66.3268 99.528 66.912 97.6783C67.748 95.0449 71.5727 97.3648 71.0189 95.8914C69.326 91.4501 64.0174 88.5764 64.7489 87.3015C65.4386 86.1833 67.9466 88.2629 68.6049 89.0153C70.6322 91.3038 74.3524 94.4179 74.6868 96.5915C74.8958 97.8873 75.805 98.3471 76.7141 101.399C78.3548 106.874 80.2149 109.205 80.4343 115.255C80.7792 124.66 90.4872 160.755 90.4977 160.786C90.7694 161.35 91.4173 161.12 91.3859 160.525C91.0097 153.513 87.1014 145.78 88.0628 145.727C89.6478 145.618 91.2344 145.928 92.6608 146.626C93.6222 147.347 99.5578 152.624 100.08 153.116C102.243 155.101 104.657 155.791 106.214 158.173C107.322 159.814 107.615 157.369 98.9204 169.627L98.9308 169.585ZM67.5808 95.2435C68.0615 92.7773 68.0093 92.8713 68.3019 93.1535C68.8261 93.7282 69.2528 94.3848 69.5663 95.0972C69.7858 95.5047 69.117 95.3584 69.1065 95.3166C67.6122 95.5883 67.4345 95.7137 67.5181 95.2853L67.5808 95.2435ZM112.432 163.816C112.389 163.903 112.329 163.982 112.255 164.046C112.197 163.989 112.145 163.925 112.098 163.858C109.255 159.678 107.824 158.633 107.155 157.442C106.309 155.948 103.863 154.401 102.39 153.502C101.418 152.907 99.5265 150.963 98.0321 149.782C94.6568 147.117 94.5732 145.435 89.7557 144.776C89.0242 144.672 87.9061 144.996 87.7284 144.85C87.5508 144.703 87.7284 144.453 88.5749 142.822C89.2846 141.351 90.1354 139.95 91.1142 138.642C95.4405 132.54 94.5627 132.853 96.0362 130.335C98.6278 125.862 99.307 126.405 103.456 121.975C109.14 115.893 109.423 115.757 109.799 114.795C109.966 114.346 109.569 114.137 109.36 114.357C96.3601 128.088 97.6037 125.329 94.9389 130.303C89.0347 141.338 92.4832 133.658 87.4463 142.739C86.9133 143.69 81.1763 117.471 81.7301 115.715C81.8869 115.213 82.4721 116.018 86.9551 114.116C93.7372 111.222 90.1633 113.573 95.8376 109.393C98.7114 107.303 100.018 104.972 102.933 106.718C106.695 108.975 108.054 108.045 111.586 109.09C113.456 109.644 113.268 110.26 121.116 113.426C123.415 114.357 123.739 116.384 124.011 118.38C125.359 128.903 124.418 130.178 112.37 163.858L112.432 163.816Z" fill="#000001"/>
<path d="M109.778 14.9769C109.966 14.9769 110.102 14.9769 110.039 15.3008C109.642 17.0042 111.952 18.4358 111.492 19.2614C110.866 20.4561 110.427 21.7386 110.185 23.0652C110.133 23.3787 110.415 23.2115 110.53 23.3055C110.969 23.6817 111.178 21.7171 112.307 19.5958C113.07 18.185 110.854 16.7743 110.907 15.5621C110.969 14.005 111.575 14.8933 112.997 15.3426C113.791 15.5934 114.397 15.3426 114.616 15.8651C114.758 16.1443 114.995 16.3633 115.285 16.4822C115.575 16.6012 115.897 16.6121 116.194 16.513C117.156 16.2622 116.905 17.0042 118.033 17.2445C119.162 17.4849 119.152 17.4326 119.152 17.8506C119.152 17.9969 119.152 18.1537 118.974 18.1955C118.437 18.3788 117.925 18.628 117.448 18.9374C116.853 19.2196 117.114 18.7389 116.121 19.3868C114.627 20.3586 114.878 19.7421 114.251 20.2332C113.206 21.0797 110.917 23.4936 111.648 24.0684C112.38 24.6431 112.464 23.1383 113.947 21.7798C115.431 20.4213 115.201 21.0797 115.703 20.7348C116.748 20.0869 116.894 19.9929 117.051 19.9824C117.95 19.9093 118.64 19.1569 119.319 19.0942C120.238 19.0106 119.998 18.2059 120.197 18.2686C120.395 18.3313 120.395 18.5299 120.468 18.7075C121.127 20.3482 123.175 16.4817 121.597 15.9696C120.019 15.4576 119.601 16.5653 119.35 16.5026C116.926 15.9592 118.431 16.2727 117.03 15.5516C116.382 15.2172 115.87 16.001 115.348 15.259C114.522 14.0677 115.118 15.259 111.241 13.7124C110.969 13.6079 110.823 13.2317 110.614 12.9809C110.405 12.7301 110.081 12.7301 109.694 12.6256C108.597 12.3644 107.949 14.632 109.778 14.9769ZM121.148 16.8474C121.471 16.9415 121.231 17.7043 120.939 17.5476C119.831 16.9833 120.761 16.722 121.148 16.8474ZM109.653 13.4407C109.778 13.4407 109.997 13.8065 110.112 13.9841C109.538 14.4544 109.266 13.587 109.642 13.4407H109.653Z" fill="#000001"/>
<path d="M117.072 127.555C113.603 129.331 108.973 132.56 98.262 133.219C97.8545 133.219 97.4469 133.407 97.4992 133.825C97.5514 134.243 106.434 134.713 117.354 128.412C118.796 127.565 118.023 127.074 117.072 127.555Z" fill="#000001"/>
<path d="M99.8923 130.408C105.483 128.663 112.673 123.093 112.213 122.487C111.304 121.327 109.005 125.987 99.5892 129.666C99.2548 129.791 99.4011 130.303 99.8923 130.408Z" fill="#000001"/>
<path d="M95.9526 59.2852C96.1302 59.4733 100.258 63.2144 100.707 62.0544C100.875 61.6155 100.603 61.4901 99.1607 60.4869C91.6472 55.3873 88.4599 45.0627 84.886 42.8473C84.6457 42.701 84.4471 43.2758 84.5412 43.4534C85.3624 44.3586 86.1069 45.3302 86.767 46.3585C91.1456 53.36 90.0588 52.9002 95.9526 59.2852Z" fill="#000001"/>
<path d="M96.4855 112.287C94.1134 113.698 94.0611 114.377 92.828 114.91C92.0129 115.266 85.513 117.805 86.0669 118.756C86.3699 119.247 86.3177 118.85 93.3819 115.704C94.3868 115.079 95.3439 114.381 96.2452 113.614C99.8191 111.033 100.321 111.075 100.143 110.479C99.8295 109.529 97.8858 111.462 96.4855 112.287Z" fill="#000001"/>
<path d="M93.7684 77.8963C95.9211 77.8963 96.6421 75.4301 95.9524 74.1029C95.8645 73.9582 95.8122 73.794 95.8009 73.6247C95.7905 73.4554 95.821 73.2859 95.8898 73.1311C96.3287 72.0861 98.5127 70.1109 98.7217 72.9115C98.7217 73.2459 99.2651 73.3504 99.495 72.9115C99.6404 72.6196 99.7005 72.293 99.6692 71.9687C99.6378 71.6444 99.5159 71.3352 99.3182 71.0764C99.1205 70.8176 98.8541 70.6193 98.5493 70.5041C98.2445 70.3889 97.9136 70.3613 97.5931 70.4244C95.9002 70.7902 94.0506 72.943 94.9493 74.6881C95.2523 75.2838 94.9492 76.5169 94.3222 76.6632C93.0787 76.9349 92.9951 76.3496 92.6921 76.9139C92.389 77.4782 93.0578 77.8963 93.7684 77.8963Z" fill="#000001"/>
<path d="M86.5476 30.3073C86.6103 29.5967 86.4013 27.6008 88.1673 27.1201C89.5885 26.723 90.3723 26.8588 91.0097 25.7511C91.5531 24.8106 91.0097 24.518 91.5218 23.5462C93.2356 20.4112 92.3578 20.8919 94.6568 19.8887C100.801 17.1612 95.7018 13.6814 95.1584 15.437C94.8762 16.2834 95.4196 16.7641 95.7854 15.949C95.9735 15.5206 97.9694 17.0672 95.6182 18.3525C93.4446 19.5334 92.3891 19.5229 91.8039 21.0173C91.2187 22.5116 90.2782 23.4626 90.3096 24.842C90.3096 25.8243 89.4004 25.7929 88.345 26.0019C87.5098 26.2306 86.7784 26.7397 86.2741 27.4438C85.7699 28.1478 85.5235 29.004 85.5757 29.8684C85.5966 31.7494 86.4117 31.9375 86.5476 30.3073Z" fill="#000001"/>
<path d="M73.3807 38.7403C72.7049 38.7246 72.0327 38.8525 71.41 39.1155C70.7865 39.3784 70.2257 39.7706 69.765 40.266C69.1485 40.9243 69.765 41.52 70.392 40.987C70.8596 40.5046 71.4396 40.1467 72.0806 39.9459C72.7206 39.7451 73.4016 39.7079 74.06 39.8375C81.8766 40.8825 82.42 50.5279 90.4142 60.0583C91.3652 61.1764 92.1071 60.7689 91.7414 60.1105C90.2662 58.2888 88.9016 56.38 87.6554 54.3944C81.0615 42.565 80.424 39.7853 73.3807 38.7403Z" fill="#000001"/>
<path d="M74.0077 48.4377C73.6419 48.8244 73.3702 49.6604 73.9136 49.4827C74.666 49.1797 75.3766 48.2914 77.2681 48.3123C79.891 48.3123 80.842 52.1579 81.0196 50.2038C80.8002 47.1001 76.9964 45.2296 74.0077 48.4377Z" fill="#000001"/>
<path d="M75.8155 60.7375C76.3798 60.7375 76.4111 60.3613 76.5574 59.7865C76.3902 58.6788 75.5124 58.7415 75.3034 59.379C75.0944 60.0164 75.1989 60.7061 75.8155 60.7375Z" fill="#000001"/>
<path d="M67.3512 40.1303C67.3512 40.8304 67.3512 42.1053 68.0722 41.9904C69.0232 41.8441 67.4557 40.0676 68.9082 37.8104C69.0693 37.4975 69.2992 37.2245 69.5788 37.0112C69.8592 36.7979 70.1831 36.6497 70.528 36.5773C70.649 36.528 70.7544 36.4481 70.8354 36.3454C70.9155 36.2429 70.9686 36.1211 70.9878 35.9921C70.9355 34.6127 67.3094 36.1279 67.3512 40.1303Z" fill="#000001"/>
<path d="M60.4227 1.42327C60.7362 1.50687 61.1856 1.05752 61.6872 0.973923C62.4396 0.848523 64.4355 0.785823 64.8221 1.54867C66.0657 3.94172 61.8543 6.93042 61.3423 10.2326C61.0183 12.3226 63.2129 12.866 66.5673 13.7961C69.462 14.5903 64.0697 18.2791 65.7208 20.505C65.9925 20.8603 66.7659 21.55 67.3929 22.2083C68.9708 23.8594 66.9226 26.0644 67.9571 26.2838C68.9917 26.5033 69.7545 23.0548 67.9571 21.3096C65.9612 19.3032 65.7522 20.0034 67.8735 16.2936C68.4274 15.3218 68.7304 13.6184 67.5182 13.0959C66.306 12.5734 66.4732 12.9601 63.5681 11.8315C59.1373 10.1281 67.5601 5.07032 65.5641 1.13067C65.1043 0.00207324 64.1325 0.127473 62.8053 0.00207337C60.1301 -0.0606266 60.036 1.31877 60.4227 1.42327Z" fill="#000001"/>
<path d="M66.515 74.0715C66.515 73.6953 66.2851 72.598 65.4073 72.5771C64.3623 72.5771 64.2056 74.1342 64.958 74.8971C65.4074 75.3673 66.2642 75.4718 66.515 74.0715Z" fill="#000001"/>
<path d="M62.7006 58.9716C62.617 57.9266 61.7914 57.9266 61.6556 58.3237C60.9972 59.5046 62.3662 60.6123 62.7006 58.9716Z" fill="#000001"/>
<path d="M44.7477 95.3479C20.9321 103.279 21.7577 102.663 22.4369 103.98C27.2753 114.043 27.1081 113.573 27.9754 113.667C30.358 112.977 49.795 106.529 49.9204 106.467C51.258 106.007 50.4847 105.275 46.9108 98.0231C45.6568 95.3897 45.6986 95.0344 44.7477 95.3479ZM49.2621 105.641L28.0277 112.653C27.7769 112.653 28.1217 113.249 23.3983 103.906C23.158 103.436 21.8935 104.074 36.8057 99.0786C39.3973 98.2112 41.8635 97.3439 44.6327 96.4347C45.3538 96.2048 44.779 95.4942 47.7677 101.66C49.6592 105.673 49.7428 105.484 49.2725 105.641H49.2621Z" fill="#000001"/>
<path d="M43.5355 104.878C43.3997 104.878 29.8669 109.058 28.9055 109.518C28.4353 109.717 28.0068 110.344 28.5816 110.49C28.7697 110.49 44.058 106.028 44.8627 105.098C44.4447 104.324 44.0894 104.857 43.5355 104.878Z" fill="#000001"/>
<path d="M30.9224 103.969C32.6467 103.666 32.584 103.112 33.5976 103.165C35.5309 102.903 36.2624 102.12 38.018 101.681C39.7736 101.242 40.2752 101.367 41.6441 100.636C41.9785 100.469 42.2084 99.8834 41.4978 99.7371C41.3724 99.7371 40.5678 99.9774 39.4078 100.27C35.2801 101.315 34.7053 102.088 33.6394 102.067C32.4063 102.067 32.4586 102.569 30.6194 102.977C26.4394 103.907 27.1186 104.304 26.0005 104.356C25.8646 104.356 25.6452 104.68 25.6034 104.805C25.5093 105.182 26.6484 105.401 27.1918 105.098C28.3544 104.493 29.6195 104.11 30.9224 103.969Z" fill="#000001"/>
<path d="M34.4545 51.8236C35.9802 49.7963 35.0815 50.0889 40.108 51.8236C40.2126 51.8721 40.3299 51.886 40.4429 51.8634C40.5559 51.8409 40.6589 51.783 40.7368 51.698C40.8147 51.6131 40.8637 51.5056 40.8765 51.391C40.8893 51.2765 40.8653 51.1609 40.8081 51.0608C40.258 49.867 39.6224 48.7145 38.9062 47.6123C38.4778 47.0689 40.6827 44.7176 40.7245 43.4323C40.7872 41.5408 36.9103 44.6863 36.0638 43.5786C35.3846 42.6903 34.35 41.708 33.6708 40.6317C33.3677 40.1405 32.7825 39.9629 32.6885 40.5481C31.8838 45.888 33.1796 44.5713 30.2014 45.7208C28.5398 46.3687 28.4876 46.3583 28.3935 46.8912C28.1009 48.5737 31.9883 48.814 31.9988 49.5769C32.0615 53.0149 31.9256 52.8059 31.9988 53.527C32.0135 53.6237 32.0541 53.7147 32.1162 53.7902C32.1783 53.8658 32.2597 53.9232 32.3517 53.9564C32.4438 53.9896 32.5431 53.9973 32.6391 53.9787C32.7352 53.9602 32.8244 53.916 32.8975 53.8509C33.4723 53.2199 33.9932 52.5417 34.4545 51.8236ZM32.1033 48.3229C28.5294 46.9853 28.5294 47.2779 32.4586 45.8567C33.3155 45.5432 32.9079 43.6726 33.5036 42.0633C37.2342 45.5536 34.0888 45.261 39.5437 44.007C38.739 46.1597 37.067 46.7763 38.0284 47.8944C38.5658 48.6467 39.0312 49.4479 39.4183 50.2875C39.6795 50.7264 38.3733 50.2875 36.5236 49.5978C35.4786 49.2111 35.719 48.4274 33.2528 51.8759C32.2914 53.2239 33.6812 48.9081 32.1033 48.3229Z" fill="#000001"/>
<path d="M35.8966 105.317C37.9866 104.711 38.1224 104.523 38.8644 104.513C39.0393 104.524 39.2126 104.473 39.3526 104.367C39.4926 104.262 39.59 104.109 39.6272 103.938C39.6272 102.736 35.4472 104.648 33.4722 104.983C31.6748 105.286 27.5888 106.477 26.9932 107.125C26.5752 107.585 26.8051 107.846 27.3694 107.878C29.4594 107.167 29.1772 107.073 29.9296 106.833C34.2977 105.641 31.2881 106.644 35.8966 105.317Z" fill="#000001"/>
<path d="M32.2076 72.107C31.5597 72.1906 29.407 72.661 29.0726 72.755C28.456 72.9118 26.5228 68.6376 26.0316 70.226C24.8299 74.1343 26.481 73.497 23.4191 73.7582C22.1651 73.8627 22.1442 74.1971 22.1756 74.8032C22.1756 75.2108 22.3219 75.2943 23.0743 75.7541C26.4705 77.8441 24.9866 76.3288 24.7045 80.1953C24.7045 80.7283 24.9762 80.9791 25.4046 80.8432C26.3765 80.5193 27.9126 77.7082 28.6232 78.074C29.6513 78.4296 30.6978 78.7296 31.7582 78.9727C32.3539 79.1399 32.6047 78.8264 32.5315 78.3666C32.4166 77.6351 31.6119 77.3216 30.8073 75.8377C30.6296 75.4928 30.6714 75.6496 32.6674 73.2565C33.0122 72.8176 33.169 71.9921 32.2076 72.107ZM29.9086 76.287C30.8804 78.0008 31.2775 77.8441 29.3861 77.4261C27.1916 76.9349 28.1843 76.7887 25.9062 79.0982C25.6345 79.3803 25.9585 78.2307 26.0421 77.1439C26.1361 75.8481 23.6281 75.4301 23.2624 74.7509C23.44 74.7509 23.1265 74.7509 24.7358 74.5941C26.7213 74.4269 25.7808 73.3088 26.6482 71.5323C27.3588 72.1384 28.0903 73.9567 28.7382 73.8208C34.0363 72.5877 28.7591 74.2597 29.9086 76.287Z" fill="#000001"/>
</svg>
