<svg width="203" height="241" viewBox="0 0 203 241" fill="none" xmlns="http://www.w3.org/2000/svg">
<mask id="path-1-inside-1_4223_120437" fill="white">
<path d="M0.0649934 25.8794C29.5213 5.22451 65.1919 -3.29855 99.2297 2.18522C133.268 7.66899 162.884 26.7104 181.565 55.1205C200.246 83.5307 206.46 118.982 198.84 153.677C191.22 188.371 170.391 219.466 140.935 240.121L70.5 133L0.0649934 25.8794Z"/>
</mask>
<path d="M0.0649934 25.8794C29.5213 5.22451 65.1919 -3.29855 99.2297 2.18522C133.268 7.66899 162.884 26.7104 181.565 55.1205C200.246 83.5307 206.46 118.982 198.84 153.677C191.22 188.371 170.391 219.466 140.935 240.121L70.5 133L0.0649934 25.8794Z" stroke="#A2A2A2" stroke-width="2" stroke-dasharray="2 2" mask="url(#path-1-inside-1_4223_120437)"/>
</svg>
