<svg width="70" height="80" viewBox="0 0 70 80" fill="none" xmlns="http://www.w3.org/2000/svg">
<g clip-path="url(#clip0_166_21751)">
<path d="M76.1134 27.9299L75.0815 29.0561L75.0815 29.0561L76.1134 27.9299ZM60.6832 19.3875L60.2776 20.8602L60.6832 19.3875ZM58.0409 28.6559L58.4465 27.1832L58.0409 28.6559ZM69.6177 35.01L68.594 36.1437L69.6177 35.01ZM70.8593 34.9442L71.9849 35.9769L71.9849 35.9769L70.8593 34.9442ZM76.144 29.1843L75.0185 28.1516L75.0185 28.1516L76.144 29.1843ZM25.2728 27.4233L24.2876 26.2559L25.2728 27.4233ZM13.9337 42.7815L12.5291 42.1814L13.9337 42.7815ZM22.499 46.4411L23.9037 47.0413L22.499 46.4411ZM31.1197 34.7647L30.1345 33.5974L31.1197 34.7647ZM10.673 61.5923L9.14846 61.6873L9.14846 61.6873L10.673 61.5923ZM20.02 60.7425L21.5446 60.6476L20.02 60.7425ZM29.3408 92.735L28.557 94.0461L29.3408 92.735ZM46.1801 97.9799L46.0797 99.504L46.1801 97.9799ZM47.1077 97.1349L48.6319 97.2345L48.6319 97.2345L47.1077 97.1349ZM47.6172 89.3347L49.1415 89.4343L49.1415 89.4343L47.6172 89.3347ZM46.8065 88.3921L46.918 86.8687L46.918 86.8687L46.8065 88.3921ZM34.2123 84.4191L34.9961 83.1081L34.2123 84.4191ZM42.464 20.4805C42.5454 20.462 42.6268 20.4438 42.7083 20.4259L42.052 17.4422C41.9639 17.4616 41.8758 17.4813 41.7878 17.5013L42.464 20.4805ZM43.1976 20.3217C43.3611 20.288 43.5246 20.2555 43.6883 20.2241L43.1124 17.2239C42.9353 17.2579 42.7583 17.2931 42.5815 17.3295L43.1976 20.3217ZM44.1802 20.1331C44.3445 20.1038 44.5088 20.0757 44.6733 20.0487L44.1783 17.0341C44.0003 17.0633 43.8225 17.0938 43.6447 17.1254L44.1802 20.1331ZM45.1675 19.971C45.3324 19.9462 45.4975 19.9225 45.6626 19.9L45.2492 16.8731C45.0705 16.8975 44.8918 16.9231 44.7132 16.95L45.1675 19.971ZM46.1587 19.8356C46.3242 19.8153 46.4898 19.7961 46.6555 19.778L46.3241 16.7411C46.1448 16.7606 45.9655 16.7814 45.7862 16.8034L46.1587 19.8356ZM47.153 19.7271C47.319 19.7113 47.4851 19.6966 47.6512 19.683L47.4023 16.6382C47.2224 16.6529 47.0426 16.6688 46.8629 16.686L47.153 19.7271ZM48.1498 19.6457C48.3162 19.6343 48.4826 19.6241 48.649 19.6151L48.4829 16.5646C48.3027 16.5744 48.1225 16.5855 47.9423 16.5977L48.1498 19.6457ZM49.1484 19.5913C49.315 19.5845 49.4816 19.5788 49.6482 19.5743L49.5653 16.5205C49.3848 16.5254 49.2044 16.5315 49.0239 16.5389L49.1484 19.5913ZM50.1481 19.5642C50.3148 19.5619 50.4814 19.5608 50.648 19.5608L50.6485 16.5059C50.468 16.5058 50.2874 16.507 50.1069 16.5095L50.1481 19.5642ZM51.148 19.5643C51.3146 19.5666 51.4813 19.5701 51.6478 19.5747L51.7319 16.5209C51.5514 16.5159 51.3708 16.5122 51.1902 16.5097L51.148 19.5643ZM52.1474 19.5918C52.3139 19.5987 52.4804 19.6067 52.6467 19.6159L52.8144 16.5655C52.6341 16.5556 52.4537 16.5469 52.2733 16.5395L52.1474 19.5918ZM53.1457 19.6467C53.3119 19.6582 53.478 19.6707 53.6441 19.6844L53.8955 16.6398C53.7155 16.625 53.5354 16.6113 53.3552 16.5989L53.1457 19.6467ZM54.1419 19.729C54.3078 19.745 54.4735 19.7621 54.6391 19.7804L54.9741 16.7438C54.7946 16.724 54.6149 16.7054 54.4351 16.6881L54.1419 19.729ZM55.1355 19.8386C55.3008 19.8591 55.466 19.8808 55.631 19.9036L56.0495 16.8775C55.8706 16.8527 55.6915 16.8292 55.5123 16.8069L55.1355 19.8386ZM56.1256 19.9755C56.2903 20.0006 56.4548 20.0268 56.6191 20.0542L57.1209 17.0407C56.9427 17.0111 56.7643 16.9826 56.5858 16.9554L56.1256 19.9755ZM57.1115 20.1397C57.2754 20.1693 57.4391 20.2001 57.6027 20.232L58.1875 17.2335C58.0102 17.1989 57.8326 17.1656 57.6549 17.1334L57.1115 20.1397ZM58.0925 20.331C58.2555 20.3652 58.4183 20.4004 58.5809 20.4368L59.2484 17.4557C59.072 17.4162 58.8955 17.3779 58.7187 17.3409L58.0925 20.331ZM59.0677 20.5494C59.2297 20.588 59.3914 20.6278 59.5529 20.6687L60.3027 17.7071C60.1275 17.6628 59.9521 17.6196 59.7764 17.5778L59.0677 20.5494ZM60.0365 20.7946C60.1169 20.8162 60.1973 20.838 60.2776 20.8602L61.0887 17.9148C61.0016 17.8908 60.9144 17.8671 60.8272 17.8438L60.0365 20.7946ZM60.2776 20.8602C60.3584 20.8824 60.439 20.9049 60.5196 20.9277L61.3512 17.9881C61.2638 17.9634 61.1763 17.9389 61.0887 17.9148L60.2776 20.8602ZM61.002 21.0678C61.1625 21.1156 61.3227 21.1646 61.4824 21.2146L62.3956 18.2993C62.2223 18.245 62.0486 18.192 61.8745 18.1401L61.002 21.0678ZM61.9607 21.3681C62.1198 21.4204 62.2785 21.4738 62.4368 21.5282L63.4309 18.6395C63.2592 18.5804 63.087 18.5225 62.9144 18.4658L61.9607 21.3681ZM62.9106 21.695C63.0682 21.7517 63.2253 21.8095 63.382 21.8683L64.4563 19.0085C64.2863 18.9446 64.1158 18.8819 63.9449 18.8204L62.9106 21.695ZM63.851 22.0482C64.0069 22.1093 64.1624 22.1715 64.3174 22.2347L65.471 19.4059C65.3029 19.3373 65.1342 19.2699 64.965 19.2036L63.851 22.0482ZM64.7812 22.4276C64.9353 22.493 65.089 22.5595 65.2422 22.627L66.4743 19.8315C66.3081 19.7582 66.1414 19.6861 65.9742 19.6152L64.7812 22.4276ZM65.7004 22.8328C65.8527 22.9024 66.0044 22.9732 66.1557 23.0449L67.4653 20.2849C67.3013 20.2071 67.1366 20.1303 66.9714 20.0548L65.7004 22.8328ZM66.608 23.2634C66.7582 23.3373 66.908 23.4122 67.0572 23.4882L68.4433 20.7658C68.2814 20.6834 68.119 20.6021 67.956 20.5219L66.608 23.2634ZM67.5032 23.7192C67.6513 23.7973 67.7989 23.8763 67.946 23.9565L69.4075 21.2738C69.248 21.1869 69.0879 21.1011 68.9272 21.0164L67.5032 23.7192ZM68.3854 24.1998C68.5313 24.282 68.6766 24.3651 68.8214 24.4493L70.3571 21.8084C70.2 21.7171 70.0424 21.6269 69.8841 21.5378L68.3854 24.1998ZM69.2538 24.7048C69.3974 24.791 69.5404 24.8782 69.6827 24.9664L71.2914 22.3692C71.1369 22.2736 70.9819 22.179 70.8262 22.0856L69.2538 24.7048ZM70.1079 25.2339C70.249 25.324 70.3895 25.4151 70.5294 25.5072L72.2097 22.9559C72.058 22.856 71.9056 22.7571 71.7526 22.6594L70.1079 25.2339ZM70.947 25.7865C71.0856 25.8805 71.2235 25.9755 71.3607 26.0715L73.1113 23.5678C72.9624 23.4637 72.8129 23.3607 72.6626 23.2587L70.947 25.7865ZM71.7705 26.3622C71.9063 26.46 72.0416 26.5588 72.1761 26.6586L73.9955 24.2045C73.8496 24.0963 73.703 23.9892 73.5556 23.8831L71.7705 26.3622ZM72.5776 26.9606C72.7107 27.0622 72.8431 27.1647 72.9749 27.2682L74.8617 24.8655C74.7188 24.7533 74.5752 24.6421 74.4309 24.532L72.5776 26.9606ZM73.3679 27.5812C73.4981 27.6864 73.6277 27.7926 73.7565 27.8997L75.7091 25.5502C75.5694 25.4341 75.429 25.319 75.2878 25.2049L73.3679 27.5812ZM74.1408 28.2235C74.268 28.3323 74.3946 28.442 74.5205 28.5526L76.5373 26.258C76.4008 26.1381 76.2636 26.0191 76.1257 25.9012L74.1408 28.2235ZM74.8956 28.887C74.9577 28.9431 75.0197 28.9995 75.0815 29.0561L77.1454 26.8038C77.0784 26.7424 77.0113 26.6813 76.9439 26.6204L74.8956 28.887ZM75.0815 29.0561C75.0082 28.989 74.9521 28.9083 74.9149 28.8232L77.7139 27.5991C77.5856 27.3057 77.3955 27.033 77.1454 26.8038L75.0815 29.0561ZM74.8999 28.3436C74.9268 28.2734 74.9669 28.2078 75.0185 28.1516L77.2695 30.2169C77.4831 29.9841 77.6448 29.7182 77.7527 29.4364L74.8999 28.3436ZM75.0185 28.1516L74.8533 28.3316L77.1044 30.3969L77.2695 30.2169L75.0185 28.1516ZM74.523 28.6916L74.1927 29.0516L76.4438 31.1169L76.7741 30.7569L74.523 28.6916ZM73.8624 29.4116L73.5321 29.7716L75.7832 31.8369L76.1135 31.4769L73.8624 29.4116ZM73.2019 30.1316L72.8716 30.4916L75.1226 32.5569L75.4529 32.1969L73.2019 30.1316ZM72.5413 30.8516L72.211 31.2116L74.4621 33.2769L74.7923 32.9169L72.5413 30.8516ZM71.8807 31.5716L71.5504 31.9316L73.8015 33.9969L74.1318 33.6369L71.8807 31.5716ZM71.2201 32.2916L70.8898 32.6516L73.1409 34.7169L73.4712 34.3569L71.2201 32.2916ZM70.5595 33.0116L70.2292 33.3716L72.4803 35.4369L72.8106 35.0769L70.5595 33.0116ZM69.8989 33.7316L69.7338 33.9116L71.9849 35.9769L72.15 35.7969L69.8989 33.7316ZM69.7338 33.9116C69.7857 33.855 69.8504 33.8066 69.9244 33.7712L71.2435 36.5267C71.5188 36.3949 71.7711 36.2099 71.9849 35.9769L69.7338 33.9116ZM70.4209 33.7455C70.5024 33.7742 70.5779 33.819 70.6415 33.8764L68.594 36.1437C68.8343 36.3607 69.1102 36.5225 69.4036 36.6261L70.4209 33.7455ZM70.6415 33.8764C70.5747 33.8161 70.5077 33.7561 70.4404 33.6964L68.4131 35.9818C68.4736 36.0354 68.5339 36.0894 68.594 36.1437L70.6415 33.8764ZM70.0335 33.3419C69.8968 33.2248 69.759 33.1091 69.6203 32.9946L67.6756 35.3507C67.8003 35.4536 67.9242 35.5577 68.0472 35.6629L70.0335 33.3419ZM69.201 32.6547C69.0601 32.5426 68.9183 32.4318 68.7756 32.3223L66.9162 34.7463C67.0445 34.8447 67.172 34.9443 67.2986 35.0451L69.201 32.6547ZM68.3444 31.9976C68.1996 31.8906 68.054 31.785 67.9074 31.6806L66.1358 34.1695C66.2675 34.2632 66.3985 34.3582 66.5286 34.4544L68.3444 31.9976ZM67.4648 31.3715C67.3163 31.2698 67.167 31.1694 67.0167 31.0703L65.3353 33.621C65.4703 33.7099 65.6046 33.8002 65.738 33.8916L67.4648 31.3715ZM66.5633 30.7772C66.4113 30.6809 66.2584 30.5859 66.1047 30.4923L64.5158 33.1015C64.6539 33.1856 64.7912 33.271 64.9279 33.3576L66.5633 30.7772ZM65.6411 30.2156C65.4857 30.1248 65.3295 30.0353 65.1725 29.9473L63.6782 32.6118C63.8192 32.6909 63.9595 32.7713 64.0992 32.8529L65.6411 30.2156ZM64.6992 29.6874C64.5407 29.6022 64.3814 29.5184 64.2213 29.436L62.8236 32.1525C62.9674 32.2265 63.1105 32.3017 63.2529 32.3783L64.6992 29.6874ZM63.739 29.1933C63.5775 29.1138 63.4153 29.0358 63.2524 28.9593L61.9531 31.7242C62.0994 31.7929 62.2452 31.863 62.3902 31.9344L63.739 29.1933ZM62.7616 28.734C62.5974 28.6604 62.4325 28.5883 62.2669 28.5176L61.0678 31.3274C61.2165 31.3909 61.3647 31.4557 61.5122 31.5218L62.7616 28.734ZM61.7684 28.3101C61.6016 28.2425 61.4343 28.1763 61.2662 28.1116L60.1688 30.9626C60.3197 31.0208 60.4701 31.0802 60.6199 31.141L61.7684 28.3101ZM60.7606 27.9222C60.5915 27.8606 60.4219 27.8004 60.2516 27.7418L59.2572 30.6304C59.4102 30.6831 59.5626 30.7371 59.7145 30.7925L60.7606 27.9222ZM59.7395 27.5707C59.5683 27.5152 59.3966 27.4612 59.2244 27.4087L58.3343 30.3312C58.4891 30.3783 58.6434 30.4268 58.7971 30.4767L59.7395 27.5707ZM58.7065 27.2561C58.62 27.2314 58.5333 27.2071 58.4465 27.1832L57.6354 30.1285C57.7134 30.15 57.7913 30.1718 57.869 30.194L58.7065 27.2561ZM58.4465 27.1832C58.3603 27.1595 58.274 27.1361 58.1876 27.1132L57.4028 30.0656C57.4804 30.0862 57.5579 30.1072 57.6354 30.1285L58.4465 27.1832ZM57.6681 26.98C57.4945 26.9371 57.3206 26.8958 57.1463 26.8561L56.4671 29.8346C56.6236 29.8703 56.7799 29.9074 56.9359 29.9459L57.6681 26.98ZM56.6225 26.7415C56.4475 26.7049 56.2722 26.6698 56.0967 26.6363L55.5237 29.637C55.6814 29.6671 55.839 29.6987 55.9963 29.7316L56.6225 26.7415ZM55.5691 26.5404C55.3929 26.51 55.2165 26.4811 55.0399 26.4539L54.5738 29.4731C54.7325 29.4976 54.8911 29.5235 55.0494 29.5508L55.5691 26.5404ZM54.5093 26.3768C54.3322 26.3526 54.1549 26.3301 53.9774 26.3091L53.6186 29.3429C53.7781 29.3618 53.9375 29.382 54.0967 29.4037L54.5093 26.3768ZM53.4445 26.2508C53.2667 26.2329 53.0887 26.2167 52.9106 26.202L52.6592 29.2466C52.8194 29.2598 52.9794 29.2744 53.1393 29.2905L53.4445 26.2508ZM52.376 26.1626C52.1977 26.151 52.0193 26.141 51.8408 26.1326L51.697 29.1842C51.8576 29.1918 52.018 29.2008 52.1784 29.2111L52.376 26.1626ZM51.3052 26.1121C51.1266 26.1068 50.948 26.1032 50.7693 26.101L50.733 29.1558C50.8938 29.1577 51.0545 29.161 51.2151 29.1658L51.3052 26.1121ZM50.2334 26.0994C50.0548 26.1004 49.8761 26.103 49.6975 26.1071L49.7685 29.1613C49.9293 29.1575 50.09 29.1552 50.2507 29.1543L50.2334 26.0994ZM49.1619 26.1243C48.9835 26.1315 48.8051 26.1404 48.6267 26.1508L48.8046 29.2006C48.9652 29.1912 49.1258 29.1833 49.2864 29.1767L49.1619 26.1243ZM48.0922 26.1867C47.9142 26.2002 47.7362 26.2152 47.5583 26.2319L47.8426 29.2736C48.0028 29.2586 48.163 29.245 48.3233 29.2329L48.0922 26.1867ZM47.0254 26.2864C46.848 26.3061 46.6707 26.3273 46.4935 26.3501L46.8835 29.3801C47.0431 29.3595 47.2028 29.3404 47.3626 29.3227L47.0254 26.2864ZM45.9628 26.4231C45.7863 26.449 45.6098 26.4764 45.4336 26.5053L45.9285 29.5199C46.0874 29.4938 46.2463 29.4691 46.4054 29.4459L45.9628 26.4231ZM44.9059 26.5966C44.7304 26.6286 44.555 26.6621 44.3799 26.6971L44.9788 29.6928C45.1367 29.6612 45.2948 29.631 45.4529 29.6022L44.9059 26.5966ZM43.8558 26.8066C43.7686 26.8256 43.6814 26.845 43.5944 26.8647L44.2706 29.8439C44.3491 29.8261 44.4277 29.8086 44.5063 29.7915L43.8558 26.8066ZM41.7881 17.4993C41.7035 17.5185 41.619 17.538 41.5345 17.5577L42.2299 20.5325C42.308 20.5143 42.3861 20.4963 42.4643 20.4785L41.7881 17.4993ZM41.0286 17.6794C40.8602 17.7211 40.6921 17.7638 40.5243 17.8076L41.296 20.7635C41.4511 20.723 41.6065 20.6835 41.7622 20.645L41.0286 17.6794ZM40.0218 17.9423C39.8545 17.9882 39.6876 18.0353 39.521 18.0834L40.3682 21.0185C40.5223 20.974 40.6766 20.9305 40.8313 20.888L40.0218 17.9423ZM39.0221 18.2308C38.8561 18.281 38.6904 18.3323 38.5251 18.3847L39.4471 21.2972C39.6001 21.2488 39.7533 21.2013 39.9068 21.1549L39.0221 18.2308ZM38.0302 18.5448C37.8656 18.5993 37.7013 18.6547 37.5374 18.7113L38.5334 21.5993C38.6851 21.547 38.837 21.4957 38.9893 21.4453L38.0302 18.5448ZM37.0468 18.884C36.8836 18.9426 36.7208 19.0022 36.5584 19.0629L37.6276 21.9247C37.7779 21.8685 37.9285 21.8133 38.0795 21.7591L37.0468 18.884ZM36.0724 19.248C35.9108 19.3108 35.7496 19.3745 35.5887 19.4393L36.7302 22.273C36.8791 22.213 37.0283 22.154 37.1778 22.096L36.0724 19.248ZM35.1076 19.6367C34.9477 19.7035 34.7882 19.7713 34.629 19.8401L35.8419 22.644C35.9892 22.5803 36.1369 22.5175 36.2849 22.4557L35.1076 19.6367ZM34.1531 20.0495C33.9949 20.1203 33.8372 20.1922 33.6799 20.265L34.9631 23.0374C35.1088 22.9699 35.2548 22.9034 35.4013 22.8379L34.1531 20.0495ZM33.2094 20.4863C33.0531 20.5611 32.8972 20.6369 32.7418 20.7136L34.0945 23.4528C34.2384 23.3817 34.3827 23.3116 34.5275 23.2423L33.2094 20.4863ZM32.2771 20.9467C32.1227 21.0254 31.9688 21.105 31.8154 21.1856L33.2364 23.89C33.3785 23.8153 33.5211 23.7415 33.6641 23.6687L32.2771 20.9467ZM31.3567 21.4303C31.2044 21.5128 31.0526 21.5963 30.9012 21.6807L32.3895 24.3487C32.5297 24.2704 32.6704 24.1931 32.8115 24.1167L31.3567 21.4303ZM30.4489 21.9368C30.2987 22.0231 30.149 22.1103 29.9998 22.1985L31.5543 24.8284C31.6925 24.7466 31.8313 24.6658 31.9704 24.5859L30.4489 21.9368ZM29.554 22.4657C29.4061 22.5557 29.2586 22.6466 29.1117 22.7385L30.7312 25.3288C30.8674 25.2437 31.0041 25.1594 31.1412 25.076L29.554 22.4657ZM28.6727 23.0167C28.527 23.1104 28.3819 23.2049 28.2373 23.3004L29.9207 25.8497C30.0548 25.7612 30.1894 25.6735 30.3244 25.5867L28.6727 23.0167ZM27.8054 23.5895C27.6622 23.6867 27.5194 23.7848 27.3772 23.8838L29.1234 26.3905C29.2553 26.2987 29.3876 26.2078 29.5204 26.1176L27.8054 23.5895ZM26.9528 24.1835C26.8119 24.2842 26.6717 24.3858 26.532 24.4883L28.3397 26.951C28.4692 26.856 28.5993 26.7617 28.7299 26.6684L26.9528 24.1835ZM26.1151 24.7983C25.9768 24.9025 25.8391 25.0075 25.702 25.1135L27.5699 27.5308C27.6971 27.4326 27.8248 27.3351 27.953 27.2386L26.1151 24.7983ZM25.2928 25.4337C25.1572 25.5412 25.0222 25.6496 24.8878 25.7588L26.8147 28.1294C26.9394 28.0281 27.0646 27.9275 27.1904 27.8278L25.2928 25.4337ZM24.4867 26.0889C24.4202 26.1444 24.3538 26.2 24.2876 26.2559L26.2579 28.5906C26.3193 28.5388 26.3809 28.4871 26.4426 28.4357L24.4867 26.0889ZM24.2876 26.2559C24.2206 26.3125 24.1538 26.3692 24.0871 26.4262L26.0719 28.7485C26.1338 28.6957 26.1958 28.6431 26.2579 28.5906L24.2876 26.2559ZM23.6895 26.7703C23.5576 26.8859 23.4265 27.0022 23.2961 27.1194L25.338 29.3918C25.4589 29.2831 25.5806 29.1751 25.703 29.0679L23.6895 26.7703ZM22.9071 27.4733C22.7782 27.5921 22.65 27.7117 22.5226 27.832L24.6201 30.0531C24.7384 29.9414 24.8573 29.8304 24.977 29.7202L22.9071 27.4733ZM22.1425 28.1954C22.0165 28.3173 21.8914 28.44 21.767 28.5635L23.9188 30.732C24.0343 30.6174 24.1505 30.5035 24.2674 30.3903L22.1425 28.1954ZM21.396 28.9361C21.2731 29.0611 21.151 29.1869 21.0297 29.3134L23.2345 31.4281C23.3471 31.3106 23.4604 31.1939 23.5745 31.0779L21.396 28.9361ZM20.6681 29.695C20.5484 29.823 20.4294 29.9517 20.3113 30.0812L22.5675 32.1409C22.6772 32.0207 22.7876 31.9012 22.8988 31.7824L20.6681 29.695ZM19.9592 30.4716C19.8426 30.6025 19.7269 30.7341 19.6119 30.8664L21.9182 32.8699C22.0249 32.7471 22.1324 32.6249 22.2406 32.5034L19.9592 30.4716ZM19.2696 31.2654C19.1563 31.399 19.0438 31.5334 18.9322 31.6685L21.287 33.6148C21.3906 33.4893 21.4951 33.3646 21.6003 33.2404L19.2696 31.2654ZM18.5998 32.0758C18.4898 32.2122 18.3807 32.3493 18.2724 32.487L20.6742 34.375C20.7748 34.247 20.8761 34.1197 20.9782 33.993L18.5998 32.0758ZM17.9501 32.9023C17.8435 33.0414 17.7378 33.1811 17.6329 33.3215L20.0802 35.15C20.1776 35.0196 20.2758 34.8898 20.3748 34.7606L17.9501 32.9023ZM17.3209 33.7445C17.2177 33.8861 17.1154 34.0284 17.014 34.1713L19.5054 35.9393C19.5996 35.8066 19.6946 35.6744 19.7904 35.5429L17.3209 33.7445ZM16.7124 34.6018C16.6128 34.7459 16.514 34.8906 16.4162 35.0359L18.95 36.7426C19.0409 36.6075 19.1327 36.4731 19.2252 36.3392L16.7124 34.6018ZM16.1252 35.4737C16.0291 35.6201 15.9339 35.7672 15.8396 35.9149L18.4144 37.5591C18.502 37.4219 18.5904 37.2853 18.6797 37.1492L16.1252 35.4737ZM15.5595 36.3596C15.467 36.5084 15.3754 36.6577 15.2847 36.8077L17.8989 38.3886C17.9831 38.2493 18.0682 38.1105 18.1541 37.9723L15.5595 36.3596ZM15.0155 37.2591C14.9267 37.41 14.8388 37.5616 14.7518 37.7137L17.4037 39.2304C17.4845 39.089 17.5662 38.9482 17.6487 38.808L15.0155 37.2591ZM14.4937 38.1715C14.4086 38.3246 14.3244 38.4782 14.2411 38.6324L16.9292 40.084C17.0066 39.9407 17.0848 39.798 17.1638 39.6557L14.4937 38.1715ZM13.9942 39.0963C13.9129 39.2514 13.8325 39.4071 13.753 39.5633L16.4756 40.9489C16.5495 40.8038 16.6242 40.6592 16.6998 40.5151L13.9942 39.0963ZM13.5175 40.0331C13.4399 40.1901 13.3633 40.3477 13.2877 40.5058L16.0433 41.8247C16.1136 41.6778 16.1847 41.5314 16.2568 41.3855L13.5175 40.0331ZM13.0637 40.9812C12.99 41.14 12.9173 41.2994 12.8455 41.4593L15.6324 42.7107C15.6991 42.5622 15.7666 42.4141 15.8351 42.2665L13.0637 40.9812ZM12.6331 41.94C12.5982 42.0203 12.5635 42.1008 12.5291 42.1814L15.3384 43.3817C15.3704 43.3069 15.4026 43.2321 15.435 43.1574L12.6331 41.94ZM12.5291 42.1814C12.4947 42.2619 12.4605 42.3426 12.4266 42.4234L15.2431 43.6066C15.2746 43.5316 15.3064 43.4566 15.3384 43.3817L12.5291 42.1814ZM12.226 42.9091C12.1601 43.0715 12.0952 43.2342 12.0313 43.3973L14.8758 44.5116C14.9351 44.3601 14.9954 44.2089 15.0567 44.058L12.226 42.9091ZM11.8426 43.8878C11.7806 44.0518 11.7197 44.216 11.6598 44.3806L14.5306 45.4253C14.5863 45.2724 14.6429 45.1197 14.7004 44.9674L11.8426 43.8878ZM11.4831 44.8756C11.4252 45.041 11.3683 45.2067 11.3124 45.3727L14.2078 46.3471C14.2597 46.1929 14.3126 46.0389 14.3664 45.8853L11.4831 44.8756ZM11.1478 45.8718C11.0939 46.0386 11.0411 46.2056 10.9893 46.3729L13.9076 47.2765C13.9557 47.1211 14.0048 46.9659 14.0549 46.8109L11.1478 45.8718ZM10.8369 46.8759C10.7871 47.0439 10.7384 47.2122 10.6907 47.3808L13.6301 48.2129C13.6744 48.0564 13.7197 47.9 13.766 47.7439L10.8369 46.8759ZM10.5506 47.8874C10.5049 48.0565 10.4602 48.226 10.4167 48.3956L13.3755 49.1558C13.416 48.9982 13.4575 48.8408 13.4999 48.6836L10.5506 47.8874ZM10.289 48.9055C10.2474 49.0757 10.207 49.2462 10.1675 49.4169L13.1441 50.1046C13.1807 49.9461 13.2183 49.7877 13.2569 49.6295L10.289 48.9055ZM10.0523 49.9297C10.015 50.1009 9.97864 50.2723 9.94338 50.4439L12.9358 51.0588C12.9686 50.8993 13.0023 50.7401 13.037 50.581L10.0523 49.9297ZM9.84074 50.9595C9.80757 51.1315 9.77546 51.3038 9.74441 51.4762L12.751 52.0177C12.7799 51.8575 12.8097 51.6975 12.8405 51.5377L9.84074 50.9595ZM9.65441 51.9941C9.62547 52.167 9.59758 52.3399 9.57076 52.5131L12.5897 52.9808C12.6146 52.8199 12.6405 52.6593 12.6674 52.4987L9.65441 51.9941ZM9.49347 53.0331C9.46877 53.2066 9.44513 53.3802 9.42256 53.554L12.4521 53.9475C12.473 53.7861 12.495 53.6248 12.5179 53.4637L9.49347 53.0331ZM9.35804 54.0757C9.3376 54.2498 9.31823 54.4239 9.29993 54.5982L12.3382 54.9172C12.3552 54.7554 12.3732 54.5936 12.3922 54.432L9.35804 54.0757ZM9.24825 55.1214C9.23209 55.2959 9.21701 55.4705 9.203 55.6452L12.2482 55.8894C12.2612 55.7272 12.2752 55.5651 12.2902 55.4031L9.24825 55.1214ZM9.16419 56.1695C9.15233 56.3444 9.14155 56.5193 9.13185 56.6943L12.1821 56.8635C12.1911 56.701 12.2012 56.5386 12.2122 56.3763L9.16419 56.1695ZM9.10597 57.2195C9.09843 57.3946 9.09196 57.5698 9.08658 57.745L12.1401 57.8388C12.1451 57.6762 12.1511 57.5136 12.1581 57.351L9.10597 57.2195ZM9.07368 58.2706C9.07046 58.4459 9.06832 58.6211 9.06727 58.7964L12.1222 58.8148C12.1232 58.6521 12.1251 58.4894 12.1281 58.3267L9.07368 58.2706ZM9.06737 59.3223C9.06848 59.4976 9.07069 59.6729 9.07398 59.8482L12.1284 59.7909C12.1254 59.6282 12.1233 59.4655 12.1223 59.3028L9.06737 59.3223ZM9.0871 60.3739C9.09256 60.5491 9.09911 60.7243 9.10675 60.8995L12.1588 60.7664C12.1517 60.6039 12.1457 60.4413 12.1406 60.2787L9.0871 60.3739ZM9.13293 61.4248C9.13783 61.5123 9.14301 61.5998 9.14846 61.6873L12.1975 61.4974C12.1925 61.4162 12.1877 61.335 12.1831 61.2538L9.13293 61.4248ZM9.14846 61.6873C9.15385 61.7738 9.1595 61.8602 9.16542 61.9466L12.2133 61.7379C12.2078 61.6578 12.2025 61.5776 12.1975 61.4974L9.14846 61.6873ZM9.20409 62.4646C9.21804 62.6372 9.23306 62.8097 9.24912 62.9821L12.2909 62.6984C12.276 62.5386 12.2621 62.3786 12.2491 62.2184L9.20409 62.4646ZM9.30054 63.499C9.31875 63.6713 9.33802 63.8434 9.35834 64.0154L12.3922 63.6568C12.3733 63.4974 12.3555 63.3377 12.3386 63.1779L9.30054 63.499ZM9.4225 64.5309C9.44496 64.7027 9.46848 64.8743 9.49304 65.0457L12.5171 64.6123C12.4943 64.4534 12.4725 64.2942 12.4517 64.1349L9.4225 64.5309ZM9.56994 65.5595C9.59664 65.7307 9.6244 65.9017 9.6532 66.0724L12.6656 65.5642C12.6389 65.4059 12.6132 65.2474 12.5884 65.0887L9.56994 65.5595ZM9.74282 66.5842C9.77377 66.7548 9.80577 66.925 9.83881 67.095L12.8377 66.5121C12.807 66.3545 12.7774 66.1967 12.7487 66.0387L9.74282 66.5842ZM9.94114 67.6045C9.97632 67.7742 10.0125 67.9436 10.0498 68.1127L13.0332 67.4554C12.9987 67.2986 12.9651 67.1416 12.9325 66.9844L9.94114 67.6045ZM10.1648 68.6196C10.2042 68.7883 10.2446 68.9568 10.2861 69.1249L13.2522 68.3933C13.2138 68.2375 13.1763 68.0814 13.1398 67.925L10.1648 68.6196ZM10.4137 69.6288C10.4574 69.7965 10.502 69.964 10.5477 70.131L13.4945 69.3254C13.4522 69.1706 13.4108 69.0155 13.3704 68.8601L10.4137 69.6288ZM10.6879 70.6316C10.7357 70.7982 10.7845 70.9645 10.8344 71.1304L13.7601 70.2511C13.7139 70.0975 13.6687 69.9435 13.6244 69.7891L10.6879 70.6316ZM10.9871 71.6273C11.0391 71.7927 11.0921 71.9577 11.1461 72.1223L14.0488 71.1697C13.9988 71.0173 13.9497 70.8645 13.9016 70.7113L10.9871 71.6273ZM11.3114 72.6152C11.3675 72.7793 11.4246 72.9429 11.4828 73.1061L14.3605 72.0807C14.3067 71.9295 14.2538 71.778 14.2018 71.6262L11.3114 72.6152ZM11.6604 73.5948C11.7207 73.7574 11.7819 73.9195 11.8442 74.0813L14.6951 72.9834C14.6375 72.8337 14.5807 72.6836 14.525 72.5331L11.6604 73.5948ZM12.0342 74.5653C12.0985 74.7263 12.1639 74.8869 12.2303 75.047L15.0524 73.8772C14.991 73.729 14.9305 73.5804 14.8709 73.4314L12.0342 74.5653ZM12.4325 75.5262C12.5009 75.6855 12.5703 75.8443 12.6407 76.0027L15.4322 74.7616C15.367 74.615 15.3028 74.468 15.2395 74.3206L12.4325 75.5262ZM12.8551 76.4767C12.9275 76.6342 13.001 76.7912 13.0754 76.9478L15.8344 75.636C15.7655 75.4911 15.6975 75.3458 15.6305 75.2001L12.8551 76.4767ZM13.3018 77.4162C13.3782 77.5718 13.4557 77.7269 13.5341 77.8816L16.2587 76.4997C16.1861 76.3566 16.1145 76.2131 16.0438 76.0692L13.3018 77.4162ZM13.7724 78.344C13.8528 78.4977 13.9342 78.6508 14.0166 78.8034L16.7049 77.3521C16.6287 77.211 16.5534 77.0694 16.4791 76.9273L13.7724 78.344ZM14.2667 79.2597C14.3511 79.4112 14.4364 79.5622 14.5227 79.7126L17.1728 78.1928C17.093 78.0537 17.0141 77.9141 16.9361 77.774L14.2667 79.2597ZM14.7844 80.1623C14.8285 80.237 14.8729 80.3115 14.9175 80.3859L17.5377 78.8152C17.4965 78.7465 17.4555 78.6776 17.4147 78.6085L14.7844 80.1623ZM43.5947 26.8628C43.5063 26.8828 43.4181 26.9033 43.33 26.9241L44.0322 29.8972C44.1117 29.8785 44.1913 29.86 44.2709 29.842L43.5947 26.8628ZM42.8024 27.0536C42.6269 27.0983 42.4518 27.1445 42.2772 27.1922L43.0827 30.1391C43.2402 30.096 43.3981 30.0543 43.5564 30.014L42.8024 27.0536ZM41.7545 27.34C41.5807 27.3907 41.4074 27.443 41.2345 27.4968L42.1419 30.4139C42.2979 30.3654 42.4543 30.3182 42.6111 30.2724L41.7545 27.34ZM40.7173 27.6626C40.5455 27.7193 40.3741 27.7776 40.2032 27.8373L41.211 30.7212C41.3653 30.6673 41.52 30.6147 41.6752 30.5635L40.7173 27.6626ZM39.6922 28.0208C39.5224 28.0835 39.3531 28.1476 39.1844 28.2132L40.2912 31.0606C40.4435 31.0014 40.5964 30.9435 40.7497 30.8869L39.6922 28.0208ZM38.6801 28.4142C38.5126 28.4826 38.3457 28.5525 38.1794 28.6238L39.3834 31.4316C39.5336 31.3671 39.6844 31.304 39.8357 31.2422L38.6801 28.4142ZM37.6824 28.842C37.5174 28.9162 37.353 28.9917 37.1892 29.0687L38.4887 31.8335C38.6367 31.7639 38.7853 31.6957 38.9343 31.6287L37.6824 28.842ZM36.7001 29.3037C36.5378 29.3834 36.3761 29.4645 36.215 29.547L37.6081 32.2659C37.7537 32.1913 37.8998 32.118 38.0466 32.0459L36.7001 29.3037ZM35.7342 29.7986C35.5748 29.8837 35.4159 29.9703 35.2578 30.0582L36.7426 32.7281C36.8856 32.6486 37.0292 32.5703 37.1734 32.4933L35.7342 29.7986ZM34.7859 30.3259C34.6295 30.4164 34.4737 30.5083 34.3187 30.6015L35.8931 33.2196C36.0333 33.1352 36.1742 33.0521 36.3158 32.9702L34.7859 30.3259ZM33.8562 30.885C33.703 30.9807 33.5504 31.0778 33.3987 31.1762L35.0606 33.7396C35.198 33.6505 35.336 33.5627 35.4747 33.476L33.8562 30.885ZM32.9461 31.4751C32.7962 31.5759 32.647 31.678 32.4986 31.7815L34.246 34.2874C34.3803 34.1938 34.5153 34.1013 34.651 34.0101L32.9461 31.4751ZM32.0564 32.0954C31.91 32.2012 31.7644 32.3083 31.6196 32.4166L33.45 34.8625C33.5812 34.7644 33.713 34.6674 33.8456 34.5716L32.0564 32.0954ZM31.1883 32.7451C31.0455 32.8557 30.9036 32.9676 30.7625 33.0807L32.6738 35.464C32.8016 35.3615 32.9301 35.2602 33.0594 35.16L31.1883 32.7451ZM30.3425 33.4234C30.2729 33.4811 30.2036 33.5391 30.1345 33.5974L32.1049 35.932C32.1675 35.8792 32.2303 35.8267 32.2932 35.7744L30.3425 33.4234ZM30.1345 33.5974C30.0646 33.6564 29.995 33.7157 29.9255 33.7753L31.9155 36.0932C31.9784 36.0392 32.0415 35.9855 32.1049 35.932L30.1345 33.5974ZM29.5122 34.1362C29.3754 34.2577 29.2396 34.3804 29.105 34.5041L31.1718 36.7537C31.2939 36.6416 31.4169 36.5304 31.5409 36.4203L29.5122 34.1362ZM28.704 34.8787C28.5714 35.0048 28.4399 35.1319 28.3094 35.26L30.4507 37.439C30.569 37.3228 30.6882 37.2075 30.8084 37.0933L28.704 34.8787ZM27.9213 35.6479C27.7931 35.7783 27.6659 35.9097 27.5398 36.0422L29.7529 38.1481C29.8672 38.028 29.9826 37.9088 30.0989 37.7906L27.9213 35.6479ZM27.165 36.4428C27.0411 36.5773 26.9185 36.7129 26.7969 36.8495L29.0792 38.8803C29.1894 38.7564 29.3007 38.6334 29.413 38.5114L27.165 36.4428ZM26.4357 37.2624C26.3164 37.401 26.1983 37.5406 26.0814 37.6812L28.4302 39.6347C28.5363 39.5071 28.6434 39.3805 28.7516 39.2548L26.4357 37.2624ZM25.7342 38.1058C25.6197 38.2483 25.5063 38.3917 25.3941 38.5361L27.8066 40.4103C27.9084 40.2793 28.0113 40.1491 28.1152 40.0199L25.7342 38.1058ZM25.0613 38.972C24.9515 39.1182 24.843 39.2653 24.7357 39.4133L27.2092 41.2063C27.3065 41.072 27.405 40.9385 27.5046 40.8058L25.0613 38.972ZM24.4175 39.86C24.3127 40.0098 24.2092 40.1604 24.1068 40.3119L26.6384 42.0218C26.7313 41.8843 26.8253 41.7476 26.9204 41.6117L24.4175 39.86ZM23.8036 40.7689C23.7039 40.922 23.6054 41.076 23.5081 41.2308L26.095 42.8559C26.1833 42.7153 26.2727 42.5756 26.3632 42.4366L23.8036 40.7689ZM23.2203 41.6975C23.1256 41.8538 23.0323 42.011 22.9402 42.1689L25.5795 43.7075C25.663 43.5641 25.7478 43.4214 25.8337 43.2795L23.2203 41.6975ZM22.668 42.6449C22.5786 42.8043 22.4905 42.9644 22.4037 43.1253L25.0924 44.5758C25.1712 44.4297 25.2512 44.2843 25.3323 44.1396L22.668 42.6449ZM22.1473 43.6101C22.0633 43.7723 21.9805 43.9352 21.899 44.099L24.6342 45.4597C24.7082 45.3111 24.7833 45.1631 24.8596 45.0158L22.1473 43.6101ZM21.6589 44.5918C21.5802 44.7567 21.5029 44.9223 21.4269 45.0886L24.2056 46.3583C24.2746 46.2073 24.3448 46.0569 24.4162 45.9072L21.6589 44.5918ZM21.2032 45.5892C21.1666 45.6729 21.1303 45.7568 21.0944 45.8409L23.9037 47.0413C23.9363 46.9649 23.9692 46.8888 24.0024 46.8127L21.2032 45.5892ZM21.0944 45.8409C21.0585 45.925 21.0229 46.0092 20.9877 46.0935L23.8068 47.2706C23.8387 47.1941 23.871 47.1176 23.9037 47.0413L21.0944 45.8409ZM20.7806 46.6012C20.7129 46.7711 20.6467 46.9415 20.5819 47.1123L23.4384 48.1956C23.4972 48.0405 23.5573 47.8858 23.6188 47.7316L20.7806 46.6012ZM20.3917 47.6266C20.3297 47.7986 20.2692 47.9711 20.2101 48.1439L23.1008 49.1322C23.1544 48.9753 23.2094 48.8187 23.2657 48.6625L20.3917 47.6266ZM20.037 48.6643C19.9807 48.8382 19.9259 49.0126 19.8725 49.1874L22.7943 50.0795C22.8427 49.9209 22.8925 49.7626 22.9436 49.6046L20.037 48.6643ZM19.7167 49.7132C19.6662 49.8889 19.6172 50.065 19.5696 50.2414L22.5193 51.0364C22.5625 50.8762 22.607 50.7164 22.6529 50.5568L19.7167 49.7132ZM19.4313 50.7721C19.3867 50.9494 19.3435 51.127 19.3018 51.305L22.2762 52.0018C22.3141 51.8403 22.3533 51.679 22.3938 51.5181L19.4313 50.7721ZM19.1811 51.8399C19.1424 52.0186 19.1051 52.1976 19.0694 52.3769L22.0653 52.9747C22.0977 52.812 22.1316 52.6495 22.1667 52.4874L19.1811 51.8399ZM18.9665 52.9156C18.9337 53.0955 18.9024 53.2756 18.8726 53.4559L21.8867 53.9539C21.9138 53.7903 21.9422 53.6268 21.9719 53.4636L18.9665 52.9156ZM18.7877 53.9978C18.7609 54.1787 18.7356 54.3598 18.7118 54.541L21.7408 54.9385C21.7624 54.774 21.7854 54.6097 21.8097 54.4456L18.7877 53.9978ZM18.645 55.0855C18.6242 55.2672 18.605 55.449 18.5872 55.631L21.6278 55.9273C21.6439 55.7622 21.6613 55.5973 21.6802 55.4325L18.645 55.0855ZM18.5386 56.1774C18.5239 56.3597 18.5107 56.5421 18.499 56.7246L21.5478 56.9192C21.5584 56.7537 21.5703 56.5883 21.5837 56.4229L18.5386 56.1774ZM18.4687 57.2724C18.4601 57.4551 18.453 57.6378 18.4475 57.8207L21.501 57.9131C21.5061 57.7474 21.5125 57.5816 21.5203 57.416L18.4687 57.2724ZM18.4355 58.3692C18.433 58.5521 18.432 58.735 18.4326 58.918L21.4876 58.9079C21.4871 58.7421 21.4879 58.5763 21.4901 58.4105L18.4355 58.3692ZM18.4391 59.4667C18.4427 59.6495 18.4479 59.8324 18.4547 60.0153L21.5076 59.9025C21.5015 59.7368 21.4967 59.571 21.4934 59.4053L18.4391 59.4667ZM18.4796 60.5635C18.4845 60.6549 18.4898 60.7462 18.4955 60.8375L21.5446 60.6476C21.5394 60.5648 21.5346 60.4821 21.5301 60.3993L18.4796 60.5635ZM18.4955 60.8375C18.5011 60.9277 18.5071 61.0179 18.5135 61.108L21.5608 60.8926C21.5551 60.811 21.5496 60.7293 21.5446 60.6476L18.4955 60.8375ZM18.5562 61.6484C18.572 61.8286 18.5892 62.0084 18.608 62.1881L21.6464 61.871C21.6295 61.7083 21.6138 61.5454 21.5996 61.3822L18.5562 61.6484ZM18.6687 62.7268C18.6905 62.9063 18.7138 63.0856 18.7386 63.2645L21.7647 62.8458C21.7423 62.6837 21.7212 62.5214 21.7015 62.3589L18.6687 62.7268ZM18.8174 63.801C18.8452 63.9797 18.8745 64.1581 18.9052 64.3361L21.9156 63.8159C21.8877 63.6548 21.8612 63.4933 21.8361 63.3315L18.8174 63.801ZM19.0021 64.8698C19.0359 65.0475 19.0712 65.2248 19.108 65.4017L22.099 64.7802C22.0658 64.6201 22.0338 64.4597 22.0033 64.2989L19.0021 64.8698ZM19.2228 65.9318C19.2626 66.1083 19.3038 66.2843 19.3466 66.4599L22.3149 65.7376C22.2763 65.5787 22.2389 65.4195 22.2029 65.2598L19.2228 65.9318ZM19.4793 66.986C19.5251 67.161 19.5723 67.3356 19.621 67.5097L22.5631 66.687C22.5191 66.5295 22.4764 66.3716 22.435 66.2133L19.4793 66.986ZM19.7716 68.031C19.8232 68.2044 19.8764 68.3773 19.931 68.5497L22.8434 67.6272C22.794 67.4713 22.746 67.315 22.6992 67.1583L19.7716 68.031ZM20.0993 69.0656C20.1569 69.2371 20.2159 69.4082 20.2764 69.5786L23.1555 68.5571C23.1008 68.403 23.0475 68.2485 22.9955 68.0935L20.0993 69.0656ZM20.4623 70.0886C20.5257 70.2581 20.5906 70.427 20.6569 70.5953L23.4992 69.4756C23.4393 69.3235 23.3807 69.1709 23.3234 69.0178L20.4623 70.0886ZM20.8602 71.0987C20.9294 71.2659 21.0001 71.4325 21.0722 71.5985L23.8743 70.3815C23.8092 70.2316 23.7454 70.0812 23.6829 69.9302L20.8602 71.0987ZM21.2928 72.0947C21.3677 72.2594 21.4441 72.4235 21.5219 72.5869L24.2803 71.2738C24.2101 71.1263 24.1411 70.9782 24.0734 70.8294L21.2928 72.0947ZM21.7596 73.0752C21.8402 73.2373 21.9223 73.3987 22.0057 73.5594L24.7169 72.1514C24.6416 72.0064 24.5675 71.8608 24.4948 71.7145L21.7596 73.0752ZM22.2602 74.0392C22.3465 74.1984 22.4341 74.3569 22.5231 74.5146L25.1836 73.013C25.1033 72.8708 25.0243 72.7278 24.9465 72.5842L22.2602 74.0392ZM22.7942 74.9853C22.8401 75.0634 22.8863 75.1413 22.9329 75.2189L25.5531 73.6482C25.5111 73.5782 25.4695 73.508 25.4281 73.4376L22.7942 74.9853ZM14.9165 80.3853C14.9629 80.4627 15.0096 80.54 15.0565 80.617L17.6661 79.0288C17.6228 78.9576 17.5796 78.8862 17.5367 78.8146L14.9165 80.3853ZM15.341 81.0775C15.4369 81.2305 15.5338 81.3827 15.6317 81.5342L18.1977 79.8765C18.1073 79.7365 18.0178 79.5958 17.9291 79.4544L15.341 81.0775ZM15.9285 81.9869C16.0285 82.1373 16.1294 82.2868 16.2314 82.4356L18.7519 80.7094C18.6577 80.5719 18.5644 80.4337 18.472 80.2948L15.9285 81.9869ZM16.5403 82.8803C16.6443 83.0279 16.7493 83.1747 16.8552 83.3208L19.3283 81.5272C19.2304 81.3922 19.1334 81.2566 19.0373 81.1203L16.5403 82.8803ZM17.1761 83.7569C17.2841 83.9017 17.393 84.0456 17.5029 84.1887L19.9264 82.3289C19.825 82.1967 19.7244 82.0637 19.6246 81.9301L17.1761 83.7569ZM17.8354 84.6161C17.9473 84.7579 18.0601 84.8988 18.1738 85.0389L20.546 83.114C20.4411 82.9846 20.3369 82.8545 20.2336 82.7236L17.8354 84.6161ZM18.5179 85.4571C18.6336 85.5958 18.7501 85.7336 18.8676 85.8706L21.1867 83.882C21.0782 83.7555 20.9706 83.6282 20.8638 83.5002L18.5179 85.4571ZM19.223 86.2794C19.3424 86.4148 19.4627 86.5495 19.5839 86.6833L21.8479 84.6322C21.7361 84.5087 21.625 84.3844 21.5147 84.2593L19.223 86.2794ZM19.9503 87.0822C20.0734 87.2144 20.1973 87.3457 20.3221 87.4761L22.5293 85.364C22.4141 85.2436 22.2997 85.1224 22.1861 85.0004L19.9503 87.0822ZM20.6993 87.8649C20.826 87.9937 20.9535 88.1216 21.0818 88.2485L23.2304 86.0768C23.112 85.9596 22.9943 85.8416 22.8774 85.7228L20.6993 87.8649ZM21.4695 88.6269C21.5996 88.7521 21.7306 88.8765 21.8624 88.9999L23.9507 86.7701C23.8291 86.6563 23.7082 86.5415 23.5882 86.426L21.4695 88.6269ZM22.2604 89.3675C22.3939 89.4892 22.5282 89.6099 22.6633 89.7297L24.6896 87.4434C24.5649 87.3329 24.441 87.2215 24.3178 87.1093L22.2604 89.3675ZM23.0713 90.0863C23.2081 90.2042 23.3457 90.3212 23.4841 90.4372L25.4468 88.0961C25.3191 87.9891 25.1921 87.8811 25.066 87.7724L23.0713 90.0863ZM23.9017 90.7824C24.0417 90.8966 24.1825 91.0097 24.3241 91.1219L26.2215 88.7276C26.0909 88.6242 25.9611 88.5198 25.832 88.4145L23.9017 90.7824ZM24.7511 91.4555C24.8942 91.5657 25.038 91.675 25.1827 91.7832L27.0133 89.3375C26.8799 89.2377 26.7473 89.137 26.6153 89.0353L24.7511 91.4555ZM25.6187 92.105C25.7648 92.2112 25.9116 92.3164 26.0592 92.4207L27.8216 89.9253C27.6855 89.8292 27.5501 89.7322 27.4154 89.6342L25.6187 92.105ZM26.504 92.7303C26.653 92.8324 26.8027 92.9335 26.9531 93.0337L28.6458 90.4905C28.5071 90.3982 28.3691 90.305 28.2318 90.2108L26.504 92.7303ZM27.4063 93.3308C27.558 93.4288 27.7104 93.5258 27.8636 93.6217L29.4853 91.0327C29.3441 90.9443 29.2036 90.8549 29.0637 90.7645L27.4063 93.3308ZM28.3248 93.9062C28.402 93.9531 28.4794 93.9997 28.557 94.0461L30.1246 91.424C30.0531 91.3812 29.9818 91.3382 29.9106 91.295L28.3248 93.9062ZM28.557 94.0461C28.635 94.0927 28.7131 94.139 28.7914 94.1851L30.3407 91.5521C30.2685 91.5097 30.1965 91.467 30.1246 91.424L28.557 94.0461ZM29.2629 94.4582C29.4208 94.5481 29.5792 94.6369 29.7382 94.7246L31.2135 92.0495C31.067 91.9687 30.9209 91.8868 30.7754 91.8039L29.2629 94.4582ZM30.2172 94.9844C30.3775 95.07 30.5383 95.1543 30.6997 95.2376L32.0999 92.5224C31.9511 92.4456 31.8029 92.3679 31.6551 92.289L30.2172 94.9844ZM31.1858 95.4839C31.3484 95.5649 31.5115 95.6448 31.6752 95.7235L32.9991 92.9703C32.8482 92.8977 32.6978 92.8241 32.5479 92.7495L31.1858 95.4839ZM32.1679 95.9562C32.3327 96.0326 32.498 96.1079 32.6638 96.182L33.9104 93.393C33.7576 93.3246 33.6052 93.2553 33.4533 93.1848L32.1679 95.9562ZM33.1629 96.4009C33.3298 96.4727 33.4971 96.5433 33.6649 96.6128L34.8332 93.79C34.6785 93.726 34.5242 93.6609 34.3704 93.5947L33.1629 96.4009ZM34.1699 96.8177C34.3387 96.8848 34.5079 96.9507 34.6776 97.0155L35.7667 94.1612C35.6102 94.1015 35.4542 94.0407 35.2986 93.9789L34.1699 96.8177ZM35.1881 97.2062C35.3587 97.2685 35.5297 97.3297 35.7011 97.3897L36.7102 94.5062C36.5521 94.4509 36.3945 94.3945 36.2372 94.337L35.1881 97.2062ZM36.2167 97.5661C36.389 97.6237 36.5616 97.6801 36.7347 97.7353L37.6629 94.8247C37.5034 94.7739 37.3442 94.7219 37.1854 94.6688L36.2167 97.5661ZM37.255 97.8972C37.4288 97.95 37.6029 98.0016 37.7774 98.0519L38.6242 95.1166C38.4633 95.0702 38.3027 95.0227 38.1425 94.974L37.255 97.8972ZM38.302 98.1993C38.4772 98.2472 38.6527 98.2939 38.8286 98.3393L39.5933 95.3816C39.4311 95.3397 39.2693 95.2967 39.1078 95.2525L38.302 98.1993ZM39.357 98.472C39.5335 98.5151 39.7102 98.5568 39.8873 98.5974L40.5694 95.6195C40.4061 95.5821 40.2432 95.5436 40.0805 95.504L39.357 98.472ZM40.4192 98.7153C40.5968 98.7534 40.7746 98.7903 40.9527 98.8259L41.5518 95.8302C41.3875 95.7974 41.2235 95.7634 41.0598 95.7283L40.4192 98.7153ZM41.4877 98.929C41.6662 98.9621 41.845 98.994 42.0241 99.0247L42.5397 96.0136C42.3746 95.9853 42.2097 95.9559 42.0451 95.9253L41.4877 98.929ZM42.5617 99.1129C42.741 99.1411 42.9206 99.168 43.1004 99.1937L43.5324 96.1694C43.3665 96.1457 43.2009 96.1209 43.0355 96.0949L42.5617 99.1129ZM43.6402 99.267C43.8203 99.2901 44.0005 99.3121 44.181 99.3328L44.529 96.2977C44.3625 96.2786 44.1963 96.2584 44.0302 96.237L43.6402 99.267ZM44.7226 99.3911C44.9032 99.4092 45.084 99.4262 45.265 99.4419L45.5289 96.3983C45.3619 96.3839 45.1952 96.3682 45.0286 96.3515L44.7226 99.3911ZM45.8079 99.4852C45.8985 99.4918 45.9891 99.4981 46.0797 99.504L46.2806 96.4557C46.1969 96.4502 46.1134 96.4444 46.0298 96.4383L45.8079 99.4852ZM46.0797 99.504C46.4182 99.5263 46.7467 99.4751 47.0474 99.3651L45.9972 96.4963C46.0843 96.4644 46.1814 96.4491 46.2806 96.4557L46.0797 99.504ZM48.4019 98.1231C48.5309 97.8504 48.6113 97.5498 48.6319 97.2345L45.5835 97.0353C45.5884 96.9592 45.6081 96.8849 45.6402 96.8169L48.4019 98.1231ZM48.6319 97.2345L48.6479 96.9907L45.5994 96.7916L45.5835 97.0353L48.6319 97.2345ZM48.6797 96.5032L48.7115 96.0157L45.6631 95.8166L45.6312 96.3041L48.6797 96.5032ZM48.7434 95.5282L48.7752 95.0407L45.7268 94.8415L45.6949 95.329L48.7434 95.5282ZM48.8071 94.5532L48.8389 94.0657L45.7905 93.8665L45.7586 94.354L48.8071 94.5532ZM48.8708 93.5781L48.9026 93.0906L45.8541 92.8915L45.8223 93.379L48.8708 93.5781ZM48.9345 92.6031L48.9663 92.1156L45.9178 91.9165L45.886 92.404L48.9345 92.6031ZM48.9982 91.6281L49.03 91.1406L45.9815 90.9415L45.9497 91.429L48.9982 91.6281ZM49.0618 90.6531L49.0937 90.1656L46.0452 89.9664L46.0134 90.4539L49.0618 90.6531ZM49.1255 89.6781L49.1415 89.4343L46.093 89.2352L46.0771 89.4789L49.1255 89.6781ZM49.1415 89.4343C49.1621 89.1187 49.1214 88.8085 49.0263 88.5185L46.1233 89.47C46.0977 89.3921 46.088 89.3118 46.093 89.2352L49.1415 89.4343ZM47.8263 87.1202C47.5486 86.9799 47.2409 86.8923 46.918 86.8687L46.6951 89.9155C46.6096 89.9093 46.5251 89.8856 46.4479 89.8466L47.8263 87.1202ZM46.918 86.8687C46.8373 86.8628 46.7566 86.8565 46.676 86.8499L46.426 89.8946C46.5156 89.902 46.6053 89.9089 46.6951 89.9155L46.918 86.8687ZM46.1926 86.8059C46.0316 86.7898 45.8707 86.7722 45.7102 86.7533L45.352 89.7872C45.5306 89.8083 45.7094 89.8278 45.8885 89.8457L46.1926 86.8059ZM45.2287 86.6921C45.0683 86.6702 44.9082 86.647 44.7485 86.6223L44.2823 89.6415C44.46 89.6689 44.6381 89.6948 44.8165 89.7191L45.2287 86.6921ZM44.2696 86.544C44.1101 86.5164 43.951 86.4875 43.7922 86.4571L43.2184 89.4577C43.3951 89.4915 43.5722 89.5237 43.7495 89.5544L44.2696 86.544ZM43.3164 86.3617C43.1581 86.3285 43.0001 86.2939 42.8425 86.2578L42.1617 89.236C42.3371 89.2761 42.5129 89.3146 42.6891 89.3516L43.3164 86.3617ZM42.3705 86.1455C42.2135 86.1066 42.0568 86.0664 41.9006 86.0247L41.1136 88.9766C41.2874 89.0229 41.4617 89.0677 41.6365 89.111L42.3705 86.1455ZM41.4329 85.8955C41.2774 85.851 41.1224 85.8052 40.9677 85.758L40.0753 88.6797C40.2474 88.7323 40.42 88.7833 40.5931 88.8328L41.4329 85.8955ZM40.505 85.6121C40.3512 85.5621 40.1979 85.5107 40.045 85.458L39.0484 88.3458C39.2185 88.4045 39.3892 88.4617 39.5604 88.5173L40.505 85.6121ZM39.5879 85.2956C39.436 85.2401 39.2846 85.1832 39.1338 85.125L38.034 87.9752C38.202 88.04 38.3705 88.1033 38.5395 88.165L39.5879 85.2956ZM38.6828 84.9463C38.533 84.8854 38.3838 84.8232 38.2351 84.7596L37.0337 87.5684C37.1992 87.6392 37.3653 87.7085 37.532 87.7763L38.6828 84.9463ZM37.7908 84.5648C37.6433 84.4986 37.4964 84.431 37.3501 84.3621L36.0485 87.1259C36.2114 87.2026 36.3749 87.2779 36.5391 87.3516L37.7908 84.5648ZM36.9131 84.1515C36.7681 84.08 36.6237 84.0072 36.4799 83.9331L35.08 86.6484C35.24 86.7309 35.4007 86.8119 35.5621 86.8915L36.9131 84.1515ZM36.0507 83.7069C35.9084 83.6302 35.7667 83.5523 35.6257 83.473L34.1292 86.1364C34.2861 86.2246 34.4438 86.3113 34.6022 86.3966L36.0507 83.7069ZM35.2049 83.2316C35.1351 83.1907 35.0655 83.1496 34.9961 83.1081L33.4285 85.7302C33.5057 85.7764 33.5832 85.8222 33.6608 85.8677L35.2049 83.2316ZM34.9961 83.1081C34.9271 83.0668 34.8583 83.0253 34.7898 82.9835L33.1989 85.5915C33.2752 85.6381 33.3517 85.6843 33.4285 85.7302L34.9961 83.1081ZM34.3806 82.7289C34.245 82.6428 34.1101 82.5555 33.9761 82.467L32.2934 85.0168C32.4425 85.1152 32.5926 85.2124 32.7436 85.3082L34.3806 82.7289ZM33.5762 82.198C33.4437 82.1071 33.312 82.0151 33.1812 81.9219L31.4089 84.4103C31.5545 84.5139 31.701 84.6164 31.8485 84.7175L33.5762 82.198ZM32.7911 81.6388C32.6619 81.5433 32.5336 81.4467 32.4061 81.3489L30.5466 83.7728C30.6884 83.8815 30.8312 83.9891 30.9749 84.0953L32.7911 81.6388ZM32.0263 81.0521C31.9005 80.9521 31.7757 80.8509 31.6517 80.7486L29.7076 83.1051C29.8454 83.2189 29.9843 83.3314 30.1241 83.4427L32.0263 81.0521ZM31.2826 80.4386C31.1605 80.3341 31.0393 80.2286 30.919 80.122L28.8927 82.4083C29.0265 82.5268 29.1613 82.6442 29.2971 82.7603L31.2826 80.4386ZM30.5611 79.7991C30.4427 79.6904 30.3253 79.5806 30.2088 79.4698L28.1031 81.6832C28.2326 81.8063 28.3631 81.9284 28.4947 82.0492L30.5611 79.7991ZM29.8624 79.1344C29.748 79.0216 29.6345 78.9078 29.5219 78.7929L27.3397 80.9308C27.4647 81.0584 27.5908 81.185 27.7181 81.3103L29.8624 79.1344ZM29.1875 78.4455C29.0771 78.3287 28.9676 78.2109 28.8592 78.0922L26.6032 80.1521C26.7237 80.284 26.8453 80.4149 26.968 80.5447L29.1875 78.4455ZM28.5371 77.7332C28.4308 77.6126 28.3256 77.491 28.2213 77.3685L25.8946 79.3482C26.0103 79.4843 26.1273 79.6193 26.2453 79.7532L28.5371 77.7332ZM27.912 76.9984C27.81 76.8742 27.709 76.749 27.6091 76.6229L25.2146 78.5201C25.3256 78.6601 25.4377 78.7991 25.551 78.9371L27.912 76.9984ZM27.3128 76.2422C27.2152 76.1144 27.1186 75.9858 27.0231 75.8563L24.564 77.6689C24.67 77.8127 24.7772 77.9555 24.8856 78.0973L27.3128 76.2422ZM26.7401 75.4653C26.647 75.3343 26.555 75.2024 26.464 75.0695L23.9435 76.7957C24.0444 76.9431 24.1466 77.0896 24.2499 77.235L26.7401 75.4653ZM26.1948 74.669C26.1062 74.5348 26.0188 74.3997 25.9325 74.2638L23.3537 75.9018C23.4495 76.0526 23.5465 76.2024 23.6447 76.3513L26.1948 74.669ZM25.6772 73.8541C25.6352 73.7855 25.5935 73.7166 25.5521 73.6476L22.9319 75.2183C22.9778 75.2949 23.024 75.3712 23.0706 75.4474L25.6772 73.8541Z" fill="#EDA076"/>
<path d="M61.0488 22.8411C66.5553 24.3847 71.6294 27.1729 75.8812 30.9862C76.2234 31.2931 76.2396 31.8205 75.9252 32.1557L70.9481 37.462C70.6337 37.7973 70.1079 37.8131 69.7636 37.5087C66.5618 34.6775 62.7583 32.6044 58.636 31.4489C54.2464 30.2185 49.6248 30.0648 45.1631 31.0008L43.3275 22.2518C49.1961 21.0205 55.275 21.2227 61.0488 22.8411Z" fill="#FFE082" stroke="#202F3D" stroke-width="0.5"/>
<path d="M27.3379 29.9118C31.9743 26.1093 37.4594 23.4809 43.328 22.2497L45.1636 30.9987C40.7019 31.9348 36.5318 33.933 33.0068 36.824C29.4819 39.7149 26.7061 43.4133 24.9149 47.6055L16.6943 44.093C19.0504 38.5789 22.7014 33.7144 27.3379 29.9118Z" fill="#F69563"/>
<path d="M27.3379 29.9118C31.9743 26.1093 37.4594 23.4809 43.328 22.2497L45.1636 30.9987C40.7019 31.9348 36.5318 33.933 33.0068 36.824C29.4819 39.7149 26.7061 43.4133 24.9149 47.6055L16.6943 44.093C19.0504 38.5789 22.7014 33.7144 27.3379 29.9118Z" fill="#FFDF82" fill-opacity="0.5"/>
<path d="M27.3379 29.9118C31.9743 26.1093 37.4594 23.4809 43.328 22.2497L45.1636 30.9987C40.7019 31.9348 36.5318 33.933 33.0068 36.824C29.4819 39.7149 26.7061 43.4133 24.9149 47.6055L16.6943 44.093C19.0504 38.5789 22.7014 33.7144 27.3379 29.9118Z" stroke="#202F3D" stroke-width="0.5"/>
<path d="M13.8038 61.5879C13.3467 55.609 14.3382 49.6081 16.6943 44.094L24.9148 47.6064C23.1236 51.7986 22.3698 56.3609 22.7173 60.9064C23.0648 65.452 24.5034 69.8467 26.9111 73.7178L19.32 78.4391C16.1531 73.3472 14.2609 67.5668 13.8038 61.5879Z" fill="#F6DB8B"/>
<path d="M13.8038 61.5879C13.3467 55.609 14.3382 49.6081 16.6943 44.094L24.9148 47.6064C23.1236 51.7986 22.3698 56.3609 22.7173 60.9064C23.0648 65.452 24.5034 69.8467 26.9111 73.7178L19.32 78.4391C16.1531 73.3472 14.2609 67.5668 13.8038 61.5879Z" fill="#F7403B" fill-opacity="0.5"/>
<path d="M13.8038 61.5879C13.3467 55.609 14.3382 49.6081 16.6943 44.094L24.9148 47.6064C23.1236 51.7986 22.3698 56.3609 22.7173 60.9064C23.0648 65.452 24.5034 69.8467 26.9111 73.7178L19.32 78.4391C16.1531 73.3472 14.2609 67.5668 13.8038 61.5879Z" stroke="#202F3D" stroke-width="0.5"/>
<path d="M31.9947 90.8372C26.8341 87.7836 22.486 83.5306 19.3191 78.4387L26.9102 73.7175C29.3179 77.5886 32.6236 80.8221 36.547 83.1436C40.2315 85.3237 44.3587 86.6392 48.6178 86.9959C49.0758 87.0343 49.4278 87.4252 49.4029 87.8841L49.0088 95.1486C48.9839 95.6076 48.5915 95.9604 48.1333 95.9252C42.4386 95.4887 36.9164 93.7494 31.9947 90.8372Z" fill="#E25450"/>
<path d="M31.9947 90.8372C26.8341 87.7836 22.486 83.5306 19.3191 78.4387L26.9102 73.7175C29.3179 77.5886 32.6236 80.8221 36.547 83.1436C40.2315 85.3237 44.3587 86.6392 48.6178 86.9959C49.0758 87.0343 49.4278 87.4252 49.4029 87.8841L49.0088 95.1486C48.9839 95.6076 48.5915 95.9604 48.1333 95.9252C42.4386 95.4887 36.9164 93.7494 31.9947 90.8372Z" fill="#FD935C" fill-opacity="0.5"/>
<path d="M31.9947 90.8372C26.8341 87.7836 22.486 83.5306 19.3191 78.4387L26.9102 73.7175C29.3179 77.5886 32.6236 80.8221 36.547 83.1436C40.2315 85.3237 44.3587 86.6392 48.6178 86.9959C49.0758 87.0343 49.4278 87.4252 49.4029 87.8841L49.0088 95.1486C48.9839 95.6076 48.5915 95.9604 48.1333 95.9252C42.4386 95.4887 36.9164 93.7494 31.9947 90.8372Z" stroke="#202F3D" stroke-width="0.5"/>
<path d="M50.7563 86.1519C46.8802 85.5935 42.8671 84.8687 39.4514 82.8908C35.4618 80.5806 32.066 77.4208 29.5521 73.6794C27.0383 69.938 25.4804 65.7253 25.0106 61.3985C24.5409 57.0718 25.1731 52.7587 26.8537 48.825C28.5343 44.8913 31.2137 41.4529 34.6646 38.8016C38.1156 36.1503 42.2363 34.3642 46.6773 33.5947C51.1184 32.8253 55.7487 33.0952 60.1757 34.3816C63.9757 35.4858 67.2812 37.8914 70.3696 40.316" stroke="#F8E2A0" stroke-width="0.5" stroke-linecap="round"/>
<path d="M30.2377 35.8939C30.2159 35.078 31.1147 34.5692 31.803 35.0079L39.7209 40.055C40.5794 40.6022 40.1894 41.9943 39.181 42.1345C36.3234 42.5319 34.3849 43.565 32.6154 45.7176C31.9599 46.515 30.5119 46.1315 30.4843 45.0997L30.2377 35.8939Z" fill="#202F3D"/>
</g>
<defs>
<clipPath id="clip0_166_21751">
<rect width="80" height="104" fill="white"/>
</clipPath>
</defs>
</svg>
