<svg width="375" height="812" viewBox="0 0 375 812" fill="none" xmlns="http://www.w3.org/2000/svg">
<g clip-path="url(#clip0_1_45690)">
<path d="M-42.5209 896.188C-93.359 872.062 -140.085 840.087 -180.985 801.437L187.5 411.5L-42.5209 896.188Z" fill="#FFA9D8"/>
<path d="M-283.432 668.511C-310.39 619.116 -329.408 565.787 -339.79 510.481L187.5 411.5L-283.432 668.511Z" fill="#FFA9D8"/>
<path d="M-344.673 343.497C-337.54 287.678 -321.67 233.329 -297.645 182.443L187.5 411.5L-344.673 343.497Z" fill="#FFA9D8"/>
<path d="M-203.276 43.9046C-164.719 2.91667 -119.954 -31.7501 -70.6228 -58.8242L187.5 411.5L-203.276 43.9046Z" fill="#FFA9D8"/>
<path d="M86.89 -115.482C142.164 -126.035 198.755 -127.826 254.586 -120.789L187.5 411.5L86.89 -115.482Z" fill="#FFA9D8"/>
<path d="M414.912 -74.4179C465.879 -50.565 512.776 -18.842 553.883 19.5874L187.5 411.5L414.912 -74.4179Z" fill="#FFA9D8"/>
<path d="M656.653 151.255C683.95 200.463 703.335 253.66 714.097 308.894L187.5 411.5L656.653 151.255Z" fill="#FFA9D8"/>
<path d="M720.593 471.869C714.261 527.784 699.171 582.355 675.878 633.58L187.5 411.5L720.593 471.869Z" fill="#FFA9D8"/>
<path d="M585.138 771.662C547.361 813.369 503.258 848.874 454.445 876.873L187.5 411.5L585.138 771.662Z" fill="#FFA9D8"/>
<path d="M300.218 936.025C240.455 948.868 178.937 951.403 118.321 943.521L187.5 411.5L300.218 936.025Z" fill="#FFA9D8"/>
<mask id="path-11-outside-1_1_45690" maskUnits="userSpaceOnUse" x="-293" y="405" width="486" height="407" fill="black">
<rect fill="white" x="-293" y="405" width="486" height="407"/>
<path d="M-181.08 801.347C-221.971 762.687 -256.524 717.835 -283.474 668.436L187.5 411.5L-181.08 801.347Z"/>
</mask>
<path d="M-181.08 801.347C-221.971 762.687 -256.524 717.835 -283.474 668.436L187.5 411.5L-181.08 801.347Z" fill="#F75F5E"/>
<path d="M-181.08 801.347C-221.971 762.687 -256.524 717.835 -283.474 668.436L187.5 411.5L-181.08 801.347Z" stroke="#F6DB8B" stroke-width="13.6688" mask="url(#path-11-outside-1_1_45690)"/>
<mask id="path-12-outside-2_1_45690" maskUnits="userSpaceOnUse" x="-356" y="335" width="545" height="184" fill="black">
<rect fill="white" x="-356" y="335" width="545" height="184"/>
<path d="M-339.758 510.652C-350.158 455.349 -351.792 398.753 -344.602 342.942L187.5 411.5L-339.758 510.652Z"/>
</mask>
<path d="M-339.758 510.652C-350.158 455.349 -351.792 398.753 -344.602 342.942L187.5 411.5L-339.758 510.652Z" fill="#F75F5E"/>
<path d="M-339.758 510.652C-350.158 455.349 -351.792 398.753 -344.602 342.942L187.5 411.5L-339.758 510.652Z" stroke="#F6DB8B" stroke-width="13.6688" mask="url(#path-12-outside-2_1_45690)"/>
<mask id="path-13-outside-3_1_45690" maskUnits="userSpaceOnUse" x="-307" y="34" width="500" height="384" fill="black">
<rect fill="white" x="-307" y="34" width="500" height="384"/>
<path d="M-297.738 182.641C-273.733 131.746 -241.871 84.9432 -203.319 43.9508L187.5 411.5L-297.738 182.641Z"/>
</mask>
<path d="M-297.738 182.641C-273.733 131.746 -241.871 84.9432 -203.319 43.9508L187.5 411.5L-297.738 182.641Z" fill="#F75F5E"/>
<path d="M-297.738 182.641C-273.733 131.746 -241.871 84.9432 -203.319 43.9508L187.5 411.5L-297.738 182.641Z" stroke="#F6DB8B" stroke-width="13.6688" mask="url(#path-13-outside-3_1_45690)"/>
<mask id="path-14-outside-4_1_45690" maskUnits="userSpaceOnUse" x="-81" y="-124" width="276" height="539" fill="black">
<rect fill="white" x="-81" y="-124" width="276" height="539"/>
<path d="M-70.7249 -58.7682C-21.3992 -85.853 31.8805 -105.009 87.1601 -115.533L187.5 411.5L-70.7249 -58.7682Z"/>
</mask>
<path d="M-70.7249 -58.7682C-21.3992 -85.853 31.8805 -105.009 87.1601 -115.533L187.5 411.5L-70.7249 -58.7682Z" fill="#F75F5E"/>
<path d="M-70.7249 -58.7682C-21.3992 -85.853 31.8805 -105.009 87.1601 -115.533L187.5 411.5L-70.7249 -58.7682Z" stroke="#F6DB8B" stroke-width="13.6688" mask="url(#path-14-outside-4_1_45690)"/>
<mask id="path-15-outside-5_1_45690" maskUnits="userSpaceOnUse" x="180" y="-129" width="245" height="544" fill="black">
<rect fill="white" x="180" y="-129" width="245" height="544"/>
<path d="M254.514 -120.798C310.346 -113.769 364.725 -98 415.655 -74.0692L187.5 411.5L254.514 -120.798Z"/>
</mask>
<path d="M254.514 -120.798C310.346 -113.769 364.725 -98 415.655 -74.0692L187.5 411.5L254.514 -120.798Z" fill="#F75F5E"/>
<path d="M254.514 -120.798C310.346 -113.769 364.725 -98 415.655 -74.0692L187.5 411.5L254.514 -120.798Z" stroke="#F6DB8B" stroke-width="13.6688" mask="url(#path-15-outside-5_1_45690)"/>
<mask id="path-16-outside-6_1_45690" maskUnits="userSpaceOnUse" x="182" y="8" width="484" height="410" fill="black">
<rect fill="white" x="182" y="8" width="484" height="410"/>
<path d="M552.41 18.2149C593.661 56.4896 628.633 101.016 656.045 150.161L187.5 411.5L552.41 18.2149Z"/>
</mask>
<path d="M552.41 18.2149C593.661 56.4896 628.633 101.016 656.045 150.161L187.5 411.5L552.41 18.2149Z" fill="#F75F5E"/>
<path d="M552.41 18.2149C593.661 56.4896 628.633 101.016 656.045 150.161L187.5 411.5L552.41 18.2149Z" stroke="#F6DB8B" stroke-width="13.6688" mask="url(#path-16-outside-6_1_45690)"/>
<mask id="path-17-outside-7_1_45690" maskUnits="userSpaceOnUse" x="186" y="296" width="545" height="184" fill="black">
<rect fill="white" x="186" y="296" width="545" height="184"/>
<path d="M713.254 304.657C724.46 359.802 726.921 416.367 720.546 472.278L187.5 411.5L713.254 304.657Z"/>
</mask>
<path d="M713.254 304.657C724.46 359.802 726.921 416.367 720.546 472.278L187.5 411.5L713.254 304.657Z" fill="#F75F5E"/>
<path d="M713.254 304.657C724.46 359.802 726.921 416.367 720.546 472.278L187.5 411.5L713.254 304.657Z" stroke="#F6DB8B" stroke-width="13.6688" mask="url(#path-17-outside-7_1_45690)"/>
<mask id="path-18-outside-8_1_45690" maskUnits="userSpaceOnUse" x="182" y="405" width="504" height="378" fill="black">
<rect fill="white" x="182" y="405" width="504" height="378"/>
<path d="M676.467 632.279C653.31 683.566 622.228 730.89 584.362 772.517L187.5 411.5L676.467 632.279Z"/>
</mask>
<path d="M676.467 632.279C653.31 683.566 622.228 730.89 584.362 772.517L187.5 411.5L676.467 632.279Z" fill="#F75F5E"/>
<path d="M676.467 632.279C653.31 683.566 622.228 730.89 584.362 772.517L187.5 411.5L676.467 632.279Z" stroke="#F6DB8B" stroke-width="13.6688" mask="url(#path-18-outside-8_1_45690)"/>
<mask id="path-19-outside-9_1_45690" maskUnits="userSpaceOnUse" x="180" y="408" width="285" height="537" fill="black">
<rect fill="white" x="180" y="408" width="285" height="537"/>
<path d="M455.259 876.406C406.496 904.49 353.618 924.729 298.565 936.378L187.5 411.5L455.259 876.406Z"/>
</mask>
<path d="M455.259 876.406C406.496 904.49 353.618 924.729 298.565 936.378L187.5 411.5L455.259 876.406Z" fill="#F75F5E"/>
<path d="M455.259 876.406C406.496 904.49 353.618 924.729 298.565 936.378L187.5 411.5L455.259 876.406Z" stroke="#F6DB8B" stroke-width="13.6688" mask="url(#path-19-outside-9_1_45690)"/>
<mask id="path-20-outside-10_1_45690" maskUnits="userSpaceOnUse" x="-54" y="408" width="249" height="544" fill="black">
<rect fill="white" x="-54" y="408" width="249" height="544"/>
<path d="M120.316 943.777C63.0243 936.545 7.2753 920.112 -44.7786 895.11L187.5 411.5L120.316 943.777Z"/>
</mask>
<path d="M120.316 943.777C63.0243 936.545 7.2753 920.112 -44.7786 895.11L187.5 411.5L120.316 943.777Z" fill="#F75F5E"/>
<path d="M120.316 943.777C63.0243 936.545 7.2753 920.112 -44.7786 895.11L187.5 411.5L120.316 943.777Z" stroke="#F6DB8B" stroke-width="13.6688" mask="url(#path-20-outside-10_1_45690)"/>
<circle cx="188.07" cy="411.5" r="27.3376" fill="#F6DB8B"/>
<path d="M45.0471 135.914C47.2315 139.496 52.2994 147.302 47.6102 146.137C45.8626 145.729 42.5132 145.088 41.7851 144.797C37.3289 143.282 37.1833 142.671 36.5716 143.312C30.7465 149.137 26.5816 155.515 26.8728 144.855C27.0476 139.846 28.1544 139.03 26.7272 138.477C24.8341 137.661 21.0769 135.564 20.0283 135.302C16.4459 134.224 16.2712 131.894 17.8148 131.195C19.3585 130.496 23.6399 129.681 26.2903 128.545C30.5135 126.652 28.7077 129.244 31.4164 118.526C31.4795 118.207 31.6422 117.916 31.8824 117.695C32.1203 117.475 32.4237 117.335 32.7465 117.296C33.0693 117.257 33.3969 117.322 33.6809 117.48C33.9649 117.638 34.1906 117.882 34.329 118.176C34.6785 118.642 35.9017 120.39 39.6298 125.865C40.5035 127.176 48.8625 122.778 50.2314 124.409C53.6683 128.399 43.9112 134.05 45.0471 135.914ZM41.5521 128.516C38.6395 129.36 39.1638 128.953 33.8629 121.817C32.1737 119.516 33.2513 129.914 29.3194 130.263C27.9796 130.263 26.0573 131.894 22.9409 132.593C22.6909 132.684 22.4555 132.812 22.2419 132.972C22.3875 133.176 22.504 133.438 22.7079 133.525C30.0475 137.312 30.5427 136.846 30.1058 139.35C28.999 146.253 29.2611 145.176 29.4359 146.37C37.2124 139.321 34.1251 140.224 35.261 140.02C37.4162 139.7 41.4356 142.117 45.3093 142.933C46.649 142.933 46.1248 142.642 42.7753 137.108C39.1638 131.137 57.1633 124.06 41.5521 128.516Z" fill="#202F3D"/>
<path d="M267.518 343.67C263.938 341.481 255.865 336.852 260.568 335.747C262.309 335.311 265.581 334.351 266.362 334.277C271.018 333.589 271.427 334.067 271.678 333.217C274.199 325.375 274.991 317.798 279.601 327.414C281.734 331.95 281.122 333.181 282.644 333.022C284.701 332.882 289.001 333.031 290.054 332.786C293.733 332.108 294.952 334.101 293.899 335.428C292.845 336.755 289.408 339.436 287.57 341.657C284.678 345.27 285.1 342.139 287.586 352.911C287.676 353.224 287.664 353.557 287.551 353.863C287.44 354.168 287.234 354.431 286.965 354.613C286.695 354.795 286.374 354.887 286.05 354.876C285.725 354.865 285.413 354.752 285.155 354.553C284.631 354.298 282.745 353.302 276.927 350.134C275.551 349.367 270.124 357.098 268.161 356.272C263.281 354.293 269.38 344.809 267.518 343.67ZM274.006 348.654C276.212 346.573 275.931 347.175 283.906 351.101C286.46 352.376 280.752 343.619 284.09 341.512C285.282 340.9 286.247 338.571 288.7 336.526C288.881 336.331 289.032 336.11 289.149 335.87C288.926 335.755 288.703 335.575 288.481 335.59C280.223 335.575 279.995 336.215 279.24 333.788C277.071 327.141 277.33 328.22 276.629 327.237C272.931 337.06 275.265 334.846 274.348 335.546C272.577 336.816 267.897 336.502 264.079 337.546C262.887 338.158 263.486 338.177 268.994 341.57C274.934 345.232 262.155 359.75 274.006 348.654Z" fill="#202F3D"/>
<path d="M-12.0253 618.333C-15.605 616.144 -23.6787 611.515 -18.9752 610.41C-17.2343 609.974 -13.9621 609.014 -13.1813 608.941C-8.52538 608.253 -8.11644 608.73 -7.86504 607.881C-5.34404 600.038 -4.55262 592.461 0.0576397 602.077C2.19051 606.613 1.57845 607.844 3.10079 607.685C5.15741 607.546 9.45763 607.695 10.5101 607.449C14.1892 606.771 15.409 608.764 14.3551 610.091C13.3012 611.418 9.86504 614.099 8.02616 616.32C5.1341 619.934 5.55642 616.803 8.04282 627.575C8.13236 627.887 8.12038 628.22 8.00752 628.526C7.89682 628.831 7.69071 629.094 7.42129 629.276C7.15187 629.458 6.83101 629.55 6.50622 629.54C6.18143 629.529 5.86919 629.415 5.61152 629.216C5.08774 628.961 3.20132 627.965 -2.61626 624.797C-3.99223 624.031 -9.41925 631.761 -11.382 630.936C-16.262 628.956 -10.1634 619.473 -12.0253 618.333ZM-5.53697 623.318C-3.33187 621.236 -3.61196 621.838 4.36307 625.764C6.91684 627.04 1.20856 618.282 4.54665 616.175C5.73848 615.563 6.70346 613.234 9.15645 611.189C9.33737 610.994 9.48851 610.773 9.60534 610.533C9.38266 610.418 9.15926 610.238 8.93798 610.253C0.679297 610.238 0.451704 610.879 -0.303822 608.451C-2.47237 601.805 -2.21327 602.883 -2.9142 601.901C-6.61235 611.723 -4.27839 609.51 -5.19573 610.21C-6.96666 611.479 -11.6464 611.165 -15.4649 612.209C-16.6567 612.821 -16.0573 612.84 -10.5499 616.233C-4.60979 619.895 -17.3888 634.413 -5.53697 623.318Z" fill="#202F3D"/>
<path d="M220.984 68.1563C219.324 70.8787 215.473 76.8104 219.036 75.9251C220.364 75.6152 222.909 75.1283 223.463 74.9069C226.849 73.756 226.96 73.2912 227.425 73.7781C231.851 78.2048 235.016 83.052 234.795 74.9512C234.662 71.1443 233.821 70.5246 234.906 70.104C236.344 69.4843 239.199 67.8907 239.996 67.6915C242.719 66.8726 242.851 65.1019 241.678 64.5707C240.505 64.0395 237.252 63.4198 235.238 62.5566C232.028 61.1179 233.401 63.0878 231.342 54.9428C231.294 54.7004 231.171 54.4796 230.988 54.3118C230.807 54.1439 230.577 54.0379 230.331 54.0084C230.086 53.9789 229.837 54.0277 229.621 54.1478C229.405 54.2679 229.234 54.4533 229.129 54.6772C228.863 55.0313 227.934 56.3593 225.101 60.5203C224.437 61.5163 218.084 58.1742 217.044 59.4137C214.432 62.4459 221.847 66.7398 220.984 68.1563ZM223.64 62.5345C225.853 63.1763 225.455 62.8665 229.483 57.4438C230.767 55.6953 229.948 63.5969 232.936 63.8625C233.954 63.8625 235.415 65.1019 237.783 65.6331C237.973 65.7021 238.152 65.7991 238.314 65.9209C238.203 66.0758 238.115 66.275 237.96 66.3414C232.382 69.2187 232.006 68.8646 232.338 70.768C233.179 76.0136 232.98 75.1947 232.847 76.1021C226.938 70.7459 229.284 71.432 228.421 71.2771C226.783 71.0336 223.728 72.8707 220.785 73.4904C219.766 73.4904 220.165 73.2691 222.71 69.0638C225.455 64.5265 211.776 59.1481 223.64 62.5345Z" fill="#202F3D"/>
<path d="M93.4401 227.83C91.7801 230.552 87.9289 236.484 91.4923 235.599C92.8203 235.289 95.3657 234.802 95.919 234.581C99.3054 233.43 99.416 232.965 99.8808 233.452C104.307 237.878 107.473 242.726 107.251 234.625C107.118 230.818 106.277 230.198 107.362 229.778C108.801 229.158 111.656 227.564 112.453 227.365C115.175 226.546 115.308 224.776 114.135 224.244C112.962 223.713 109.708 223.093 107.694 222.23C104.485 220.792 105.857 222.761 103.798 214.616C103.75 214.374 103.627 214.153 103.444 213.985C103.264 213.818 103.033 213.711 102.788 213.682C102.542 213.652 102.293 213.701 102.078 213.821C101.862 213.941 101.69 214.127 101.585 214.351C101.319 214.705 100.39 216.033 97.5569 220.194C96.8929 221.19 90.5406 217.848 89.5004 219.087C86.8886 222.12 94.3033 226.413 93.4401 227.83ZM96.096 222.208C98.3094 222.85 97.911 222.54 101.939 217.117C103.223 215.369 102.404 223.27 105.392 223.536C106.41 223.536 107.871 224.776 110.239 225.307C110.429 225.376 110.608 225.473 110.77 225.594C110.66 225.749 110.571 225.949 110.416 226.015C104.839 228.892 104.462 228.538 104.794 230.442C105.635 235.687 105.436 234.868 105.303 235.776C99.3939 230.419 101.74 231.106 100.877 230.951C99.239 230.707 96.1846 232.544 93.2409 233.164C92.2227 233.164 92.6211 232.943 95.1665 228.737C97.911 224.2 84.2326 218.822 96.096 222.208Z" fill="#202F3D"/>
<path d="M340.739 227.83C339.079 230.552 335.228 236.484 338.791 235.599C340.119 235.289 342.665 234.802 343.218 234.581C346.604 233.43 346.715 232.965 347.18 233.452C351.607 237.878 354.772 242.726 354.55 234.625C354.418 230.818 353.576 230.198 354.661 229.778C356.1 229.158 358.955 227.564 359.752 227.365C362.474 226.546 362.607 224.776 361.434 224.244C360.261 223.713 357.007 223.093 354.993 222.23C351.784 220.792 353.156 222.761 351.098 214.616C351.05 214.374 350.926 214.153 350.743 213.985C350.563 213.818 350.332 213.711 350.087 213.682C349.841 213.652 349.592 213.701 349.377 213.821C349.161 213.941 348.989 214.127 348.884 214.351C348.619 214.705 347.689 216.033 344.856 220.194C344.192 221.19 337.84 217.848 336.799 219.087C334.188 222.12 341.602 226.413 340.739 227.83ZM343.395 222.208C345.608 222.85 345.21 222.54 349.238 217.117C350.522 215.369 349.703 223.27 352.691 223.536C353.709 223.536 355.17 224.776 357.538 225.307C357.728 225.376 357.907 225.473 358.069 225.594C357.959 225.749 357.87 225.949 357.715 226.015C352.138 228.892 351.762 228.538 352.094 230.442C352.935 235.687 352.735 234.868 352.603 235.776C346.693 230.419 349.039 231.106 348.176 230.951C346.538 230.707 343.484 232.544 340.54 233.164C339.522 233.164 339.92 232.943 342.466 228.737C345.21 224.2 331.532 218.822 343.395 222.208Z" fill="#202F3D"/>
<path d="M-0.0275126 344.664C-1.6875 347.386 -5.53869 353.318 -1.97524 352.433C-0.647249 352.123 1.89807 351.636 2.4514 351.415C5.83778 350.264 5.94845 349.799 6.41324 350.286C10.8399 354.712 14.005 359.56 13.7836 351.459C13.6508 347.652 12.8097 347.032 13.8943 346.612C15.3329 345.992 18.1881 344.398 18.9849 344.199C21.7073 343.38 21.8401 341.609 20.667 341.078C19.494 340.547 16.2404 339.927 14.2263 339.064C11.0169 337.626 12.3892 339.595 10.3308 331.45C10.2829 331.208 10.1593 330.987 9.97668 330.819C9.79592 330.652 9.56539 330.545 9.32008 330.516C9.07477 330.486 8.82578 330.535 8.60998 330.655C8.39418 330.775 8.22263 330.961 8.11749 331.185C7.8519 331.539 6.92232 332.867 4.08926 337.028C3.42527 338.024 -2.92697 334.682 -3.96723 335.921C-6.57895 338.954 0.835683 343.247 -0.0275126 344.664ZM2.62846 339.042C4.84178 339.684 4.4434 339.374 8.47165 333.951C9.75538 332.203 8.93642 340.104 11.9244 340.37C12.9425 340.37 14.4033 341.609 16.7716 342.141C16.9616 342.21 17.1405 342.307 17.3028 342.428C17.1921 342.583 17.1036 342.783 16.9486 342.849C11.3711 345.726 10.9948 345.372 11.3268 347.276C12.1679 352.521 11.9687 351.702 11.8359 352.61C5.92632 347.253 8.27245 347.94 7.40925 347.785C5.77139 347.541 2.71698 349.378 -0.226736 349.998C-1.24486 349.998 -0.846454 349.777 1.69887 345.571C4.44339 341.034 -9.23495 335.656 2.62846 339.042Z" fill="#202F3D"/>
<path d="M368.345 395.292C370.005 398.014 373.856 403.946 370.293 403.061C368.965 402.751 366.419 402.264 365.866 402.043C362.48 400.892 362.369 400.427 361.904 400.914C357.477 405.341 354.312 410.188 354.534 402.087C354.667 398.28 355.508 397.66 354.423 397.24C352.984 396.62 350.129 395.026 349.332 394.827C346.61 394.008 346.477 392.238 347.65 391.706C348.823 391.175 352.077 390.556 354.091 389.692C357.3 388.254 355.928 390.224 357.987 382.079C358.035 381.836 358.158 381.615 358.341 381.448C358.521 381.28 358.752 381.174 358.997 381.144C359.243 381.115 359.492 381.163 359.707 381.284C359.923 381.404 360.095 381.589 360.2 381.813C360.465 382.167 361.395 383.495 364.228 387.656C364.892 388.652 371.244 385.31 372.285 386.549C374.896 389.582 367.482 393.876 368.345 395.292ZM365.689 389.67C363.476 390.312 363.874 390.002 359.846 384.58C358.562 382.831 359.381 390.733 356.393 390.998C355.375 390.998 353.914 392.238 351.546 392.769C351.356 392.838 351.177 392.935 351.015 393.057C351.125 393.212 351.214 393.411 351.369 393.477C356.946 396.354 357.323 396 356.991 397.904C356.15 403.149 356.349 402.33 356.481 403.238C362.391 397.882 360.045 398.568 360.908 398.413C362.546 398.169 365.6 400.006 368.544 400.626C369.562 400.626 369.164 400.405 366.619 396.2C363.874 391.662 377.552 386.284 365.689 389.67Z" fill="#202F3D"/>
<path d="M279.096 181.867C279.975 180.999 279.992 181 280.717 181.941C281.455 182.905 281.998 184.003 282.315 185.175C282.578 186.305 281.42 185.658 281.053 185.659C279.311 185.579 279.965 186.919 280.391 187.148C284.583 189.418 286.657 184.571 286.704 186.197C286.795 188.402 286.669 190.788 286.641 193.669C286.581 194.976 287.599 196.018 288.524 195.257C289.45 194.496 291.93 192.2 295.444 189.078C301.198 183.945 301.417 184.112 301.396 183.046C301.13 171.333 300.053 174.252 304.078 170.263C308.943 165.474 318.715 155.723 322.01 149.762C327.085 140.756 329.377 131.134 325.06 130.447C319.287 129.536 308.964 134.145 303.743 138.324C300.002 141.241 296.487 144.437 293.228 147.884C282.245 158.889 285.293 157.16 280.559 157.572C271.04 158.358 274.445 156.471 262.094 168.758C260.575 170.278 261.553 171.405 262.494 171.448C265.332 171.283 268.179 171.32 271.012 171.559C270.496 172.046 270.105 172.651 269.874 173.321C269.643 173.992 269.577 174.709 269.682 175.41C269.983 176.808 270.654 178.099 271.624 179.149C272.183 179.541 272.63 178.916 272.435 178.226C272.346 177.872 270.673 175.141 271.225 174.52C271.778 173.9 273.072 174.605 276.79 177.709C277.816 178.56 275.742 179.233 273.9 181.698C272.838 183.152 274.563 183.999 275.017 184.369C275.472 184.739 275.905 184.829 276.39 184.519L279.096 181.867ZM270.02 193.204C256.942 211.815 253.303 231.766 261.57 257.153C261.724 257.597 262.227 259.593 262.838 259.22C264.776 258.069 255.544 241.928 259.878 219.005C263.866 197.916 278.439 186.307 278.924 184.478C279.175 183.582 278.862 183.183 277.762 183.552C274.948 186.575 272.36 189.801 270.02 193.204ZM276.292 175.242C273.011 172.524 271.617 173.595 272.312 172.527C272.65 172.001 272.992 171.405 273.487 171.655C275.9 171.975 276.694 172.937 279.531 175.058C280.02 175.43 279.602 175.795 278.764 176.542C278.27 177.044 278.379 176.944 276.361 175.245L276.292 175.242ZM275.721 183.109C274.473 182.161 273.814 183.947 290.171 166.569C290.978 165.733 291.994 164.907 292.411 166.096C292.461 166.15 275.81 183.078 275.721 183.109ZM284.965 185.279C283.372 186.516 284.808 185.272 282.319 181.665C281.173 180.006 281.016 179.999 281.254 179.748C282.742 178.157 282.481 177.359 285.56 184.119C285.887 184.605 285.526 184.851 285.019 185.247L284.965 185.279ZM288.647 193.342C288.063 193.891 288.325 193.886 288.116 185.127C288.153 184.308 295.374 179.172 297.745 176.592C300.116 174.011 299.59 174.441 299.972 182.492C300.305 183.223 300.179 182.938 288.701 193.309L288.647 193.342ZM307.473 138.093C311.111 135.657 315.154 133.891 319.413 132.877C326.098 131.437 325.286 133.146 325.481 135.757C325.198 138.216 324.547 140.617 323.547 142.881C318.878 152.936 319.286 152.029 318.23 149.92C313.333 140.178 306.003 138.916 307.473 138.093ZM305.145 139.733C307.472 137.726 319.545 151.325 317.604 153.681C311.924 160.616 292.354 180.676 287.301 183.465C286.369 181.426 285.292 179.457 284.078 177.572C283.672 176.907 283.6 177.34 290.066 170.773C293.733 166.96 294.747 166.552 293.596 164.998C293.103 164.329 291.752 163.324 290.822 164.189C289.891 165.055 289.375 165.642 284.771 170.461C280.535 174.877 281.395 174.393 280.015 173.247C274.463 168.644 273.279 172.012 277.171 167.493C285.886 157.65 295.212 148.366 305.094 139.696L305.145 139.733ZM272.605 160.42C273.358 159.617 273.351 159.756 281.956 159.103C283.306 158.99 279.365 161.9 276.403 165.956C275.734 166.833 273.218 169.896 272.289 169.976C272.289 169.976 263.564 169.838 263.566 169.786C263.214 169.455 268.071 165.225 272.605 160.42Z" fill="black"/>
<path d="M303.441 159.773C311.878 159.723 311.85 147.375 303.755 147.196C294.8 147.868 295.88 159.741 303.441 159.773ZM303.015 148.873C303.699 148.784 304.394 148.847 305.051 149.058C305.708 149.269 306.31 149.623 306.814 150.095C307.318 150.566 307.711 151.143 307.965 151.784C308.22 152.425 308.33 153.115 308.286 153.803C308.243 154.492 308.048 155.162 307.715 155.766C307.382 156.371 306.919 156.894 306.36 157.298C305.801 157.702 305.159 157.978 304.481 158.105C303.803 158.232 303.105 158.207 302.438 158.033C301.389 157.758 300.467 157.128 299.832 156.249C299.196 155.37 298.886 154.298 298.954 153.215C299.022 152.133 299.464 151.108 300.205 150.316C300.946 149.524 301.939 149.014 303.015 148.873Z" fill="black"/>
<path d="M278.905 274.818C277.745 274.974 277.448 276.497 278.93 276.565C286.499 276.79 287.51 263.11 280.221 262.88C279.43 262.815 278.634 262.891 277.87 263.105C277.811 262.107 279.857 257.852 278.06 254.381C276.07 250.553 269.803 250.51 267.528 255.558C266.644 257.746 266.2 260.087 266.224 262.447C266.248 264.807 266.738 267.138 267.666 269.308C268.031 270.111 269.063 269.704 268.867 268.647C264.32 253.542 274.725 250.177 276.78 255.65C278.491 260.217 274.117 264.976 275.865 266.086C277.104 266.859 277.878 264.083 280.319 264.544C283.483 265.248 283.899 268.742 283.27 271.036C282.206 274.812 279.802 274.684 278.905 274.818Z" fill="black"/>
<path d="M261.475 260.746C252.466 244.301 251.291 216.218 264.378 193.975C267.37 189.245 270.688 184.729 274.305 180.459C275.999 178.947 274.416 178.037 273.481 179.007C262.844 190.482 254.14 207.407 253.425 222.987C252.379 245.817 257.586 257.197 260.287 260.744C261.608 262.411 262.329 262.305 261.475 260.746Z" fill="black"/>
<path d="M252.758 274.143C243.919 276.48 245.375 266.417 253.841 270.316C253.945 270.384 254.062 270.431 254.185 270.449C254.308 270.469 254.434 270.461 254.554 270.427C254.673 270.393 254.784 270.333 254.878 270.251C254.972 270.17 255.047 270.068 255.098 269.954C255.617 268.913 254.705 268.609 253.83 268.272C249.145 266.468 254.859 257.631 260.939 269.017C261.437 269.948 262.39 269.363 262.213 268.656C261.046 263.625 255.641 259.623 252.016 262.513C251.246 263.105 250.71 263.951 250.504 264.9C250.297 265.85 250.433 266.841 250.887 267.7C246.77 267.616 245.579 269.203 245.011 271.325C243.838 276.336 251.949 277.302 254.114 275.41C254.952 274.645 254.331 273.726 252.758 274.143Z" fill="black"/>
<path d="M146.188 138.268C143.494 134.391 138.275 133.154 134.22 134.196C127.231 135.991 123.723 144.734 126.694 150.061C129.971 155.935 136.631 156.797 140.657 154.911C145.876 152.466 149.484 146.917 147.349 141.31" stroke="black" stroke-width="1.5853" stroke-miterlimit="1.5" stroke-linecap="round" stroke-linejoin="round"/>
<path d="M135.011 141.223C134.746 141.761 134.529 142.333 134.339 142.903" stroke="black" stroke-width="1.5853" stroke-miterlimit="1.5" stroke-linecap="round" stroke-linejoin="round"/>
<path d="M140.134 142.615C139.929 143.301 139.753 144.028 139.476 144.691" stroke="black" stroke-width="1.5853" stroke-miterlimit="1.5" stroke-linecap="round" stroke-linejoin="round"/>
<path d="M130.848 145.205C130.823 145.894 131.032 146.567 131.356 147.168C132.945 150.114 137.412 150.711 139.865 148.492" stroke="black" stroke-width="1.5853" stroke-miterlimit="1.5" stroke-linecap="round" stroke-linejoin="round"/>
<path d="M149.688 289.057C145.276 287.377 140.27 289.3 137.51 292.448C132.753 297.875 134.791 307.072 140.25 309.793C146.27 312.793 152.254 309.747 154.514 305.917C157.443 300.954 157.29 294.337 152.363 290.913" stroke="black" stroke-width="1.5853" stroke-miterlimit="1.5" stroke-linecap="round" stroke-linejoin="round"/>
<path d="M142.129 297.803C142.214 298.398 142.358 298.992 142.523 299.57" stroke="black" stroke-width="1.5853" stroke-miterlimit="1.5" stroke-linecap="round" stroke-linejoin="round"/>
<path d="M147.144 296.062C147.361 296.744 147.627 297.444 147.772 298.148" stroke="black" stroke-width="1.5853" stroke-miterlimit="1.5" stroke-linecap="round" stroke-linejoin="round"/>
<path d="M140.939 303.44C141.308 304.023 141.86 304.461 142.467 304.774C145.441 306.309 149.466 304.281 150.238 301.065" stroke="black" stroke-width="1.5853" stroke-miterlimit="1.5" stroke-linecap="round" stroke-linejoin="round"/>
<path d="M360.963 563.619C356.551 561.938 351.545 563.862 348.785 567.01C344.028 572.436 346.066 581.634 351.525 584.355C357.545 587.355 363.529 584.308 365.789 580.479C368.718 575.516 368.565 568.899 363.638 565.474" stroke="black" stroke-width="1.5853" stroke-miterlimit="1.5" stroke-linecap="round" stroke-linejoin="round"/>
<path d="M353.404 572.365C353.489 572.959 353.633 573.554 353.798 574.131" stroke="black" stroke-width="1.5853" stroke-miterlimit="1.5" stroke-linecap="round" stroke-linejoin="round"/>
<path d="M358.419 570.623C358.637 571.305 358.902 572.005 359.047 572.709" stroke="black" stroke-width="1.5853" stroke-miterlimit="1.5" stroke-linecap="round" stroke-linejoin="round"/>
<path d="M352.214 578.001C352.583 578.584 353.135 579.023 353.742 579.336C356.716 580.871 360.741 578.843 361.513 575.626" stroke="black" stroke-width="1.5853" stroke-miterlimit="1.5" stroke-linecap="round" stroke-linejoin="round"/>
<path d="M353.175 261.796C348.763 260.116 343.756 262.039 340.996 265.187C336.24 270.613 338.277 279.811 343.737 282.532C349.756 285.532 355.741 282.485 358 278.656C360.929 273.693 360.776 267.076 355.85 263.651" stroke="black" stroke-width="1.5853" stroke-miterlimit="1.5" stroke-linecap="round" stroke-linejoin="round"/>
<path d="M345.615 270.542C345.7 271.136 345.844 271.731 346.009 272.308" stroke="black" stroke-width="1.5853" stroke-miterlimit="1.5" stroke-linecap="round" stroke-linejoin="round"/>
<path d="M350.63 268.8C350.848 269.482 351.113 270.182 351.258 270.886" stroke="black" stroke-width="1.5853" stroke-miterlimit="1.5" stroke-linecap="round" stroke-linejoin="round"/>
<path d="M344.425 276.179C344.794 276.762 345.346 277.2 345.953 277.513C348.927 279.048 352.952 277.02 353.724 273.804" stroke="black" stroke-width="1.5853" stroke-miterlimit="1.5" stroke-linecap="round" stroke-linejoin="round"/>
</g>
<defs>
<clipPath id="clip0_1_45690">
<rect width="375" height="812" fill="white"/>
</clipPath>
</defs>
</svg>
