<svg width="137" height="107" viewBox="0 0 137 107" fill="none" xmlns="http://www.w3.org/2000/svg">
<g clip-path="url(#clip0_1_45489)">
<path d="M67.9997 6C60.8431 6 54.4015 9.14639 49.9997 14.1328V9.6C50.0041 9.27911 49.9441 8.96059 49.8233 8.66329C49.7024 8.36599 49.5232 8.09595 49.2961 7.86913C49.0691 7.64231 48.7989 7.46332 48.5015 7.34276C48.204 7.22219 47.8855 7.16249 47.5646 7.16719C46.9285 7.17651 46.3221 7.43798 45.8787 7.89416C45.4352 8.35033 45.191 8.96388 45.1997 9.6V21.6H48.856C49.1305 21.6482 49.4112 21.6482 49.6857 21.6H57.1997C57.5178 21.6045 57.8335 21.5457 58.1286 21.4272C58.4238 21.3086 58.6924 21.1325 58.9189 20.9092C59.1453 20.6859 59.3252 20.4198 59.4479 20.1264C59.5707 19.833 59.6339 19.5181 59.6339 19.2C59.6339 18.8819 59.5707 18.5671 59.4479 18.2736C59.3252 17.9802 59.1453 17.7141 58.9189 17.4908C58.6924 17.2675 58.4238 17.0914 58.1286 16.9729C57.8335 16.8543 57.5178 16.7955 57.1997 16.8H54.0661C57.5611 13.1087 62.4973 10.8 67.9997 10.8C78.2706 10.8 86.5845 18.8096 87.1411 28.9313C87.1548 29.2485 87.2313 29.5599 87.3661 29.8474C87.501 30.135 87.6916 30.3928 87.9269 30.6062C88.1621 30.8195 88.4374 30.984 88.7366 31.0902C89.0359 31.1963 89.3533 31.2421 89.6704 31.2247C89.9875 31.2073 90.298 31.1272 90.5839 30.989C90.8698 30.8508 91.1255 30.6572 91.336 30.4194C91.5466 30.1817 91.7078 29.9046 91.8105 29.604C91.9132 29.3035 91.9552 28.9856 91.9341 28.6688C91.2404 16.0552 80.7785 6 67.9997 6ZM46.531 28.7672C46.1961 28.7573 45.8628 28.8176 45.5525 28.9443C45.2423 29.0709 44.9621 29.2612 44.7298 29.5027C44.4976 29.7442 44.3185 30.0317 44.204 30.3466C44.0896 30.6616 44.0423 30.997 44.0654 31.3313C44.7591 43.9448 55.221 54 67.9997 54C75.1556 54 81.5981 50.8537 85.9997 45.8672V50.4C85.9952 50.718 86.054 51.0338 86.1726 51.3289C86.2912 51.624 86.4672 51.8926 86.6906 52.1191C86.9139 52.3456 87.18 52.5255 87.4734 52.6482C87.7668 52.771 88.0817 52.8342 88.3997 52.8342C88.7178 52.8342 89.0327 52.771 89.3261 52.6482C89.6195 52.5255 89.8856 52.3456 90.1089 52.1191C90.3322 51.8926 90.5083 51.624 90.6269 51.3289C90.7455 51.0338 90.8042 50.718 90.7997 50.4V38.4H87.0943C86.8504 38.3622 86.6022 38.3622 86.3583 38.4H78.7997C78.4817 38.3955 78.166 38.4543 77.8708 38.5729C77.5757 38.6914 77.3071 38.8675 77.0806 39.0908C76.8541 39.3141 76.6743 39.5802 76.5515 39.8736C76.4288 40.1671 76.3656 40.4819 76.3656 40.8C76.3656 41.1181 76.4288 41.433 76.5515 41.7264C76.6743 42.0198 76.8541 42.2859 77.0806 42.5092C77.3071 42.7325 77.5757 42.9086 77.8708 43.0271C78.166 43.1457 78.4817 43.2045 78.7997 43.2H81.931C78.4364 46.8908 73.5015 49.2 67.9997 49.2C57.7289 49.2 49.415 41.1904 48.8583 31.0688C48.8336 30.4618 48.5797 29.8868 48.1478 29.4597C47.7159 29.0326 47.1381 28.7851 46.531 28.7672Z" fill="#202F3D"/>
</g>
<path d="M15.876 79.344V83.18H10.668V99H5.88V83.18H0.672V79.344H15.876ZM22.567 85.98C23.127 85.1213 23.827 84.4493 24.667 83.964C25.507 83.46 26.4403 83.208 27.467 83.208V88.276H26.151C24.9563 88.276 24.0603 88.5373 23.463 89.06C22.8656 89.564 22.567 90.46 22.567 91.748V99H17.779V83.376H22.567V85.98ZM45.2155 83.376L35.4155 106.42H30.2635L33.8475 98.468L27.4915 83.376H32.8395L36.4515 93.148L40.0355 83.376H45.2155ZM56.6685 85.98C57.2285 85.1213 57.9285 84.4493 58.7685 83.964C59.6085 83.46 60.5419 83.208 61.5685 83.208V88.276H60.2525C59.0579 88.276 58.1619 88.5373 57.5645 89.06C56.9672 89.564 56.6685 90.46 56.6685 91.748V99H51.8805V83.376H56.6685V85.98ZM70.4691 99.224C68.9384 99.224 67.5571 98.8973 66.3251 98.244C65.1118 97.5907 64.1504 96.6573 63.4411 95.444C62.7504 94.2307 62.4051 92.812 62.4051 91.188C62.4051 89.5827 62.7598 88.1733 63.4691 86.96C64.1784 85.728 65.1491 84.7853 66.3811 84.132C67.6131 83.4787 68.9944 83.152 70.5251 83.152C72.0558 83.152 73.4371 83.4787 74.6691 84.132C75.9011 84.7853 76.8718 85.728 77.5811 86.96C78.2904 88.1733 78.6451 89.5827 78.6451 91.188C78.6451 92.7933 78.2811 94.212 77.5531 95.444C76.8438 96.6573 75.8638 97.5907 74.6131 98.244C73.3811 98.8973 71.9998 99.224 70.4691 99.224ZM70.4691 95.08C71.3838 95.08 72.1584 94.744 72.7931 94.072C73.4464 93.4 73.7731 92.4387 73.7731 91.188C73.7731 89.9373 73.4558 88.976 72.8211 88.304C72.2051 87.632 71.4398 87.296 70.5251 87.296C69.5918 87.296 68.8171 87.632 68.2011 88.304C67.5851 88.9573 67.2771 89.9187 67.2771 91.188C67.2771 92.4387 67.5758 93.4 68.1731 94.072C68.7891 94.744 69.5544 95.08 70.4691 95.08ZM89.3932 94.94V99H86.9572C85.2212 99 83.8679 98.58 82.8972 97.74C81.9266 96.8813 81.4412 95.4907 81.4412 93.568V87.352H79.5372V83.376H81.4412V79.568H86.2292V83.376H89.3652V87.352H86.2292V93.624C86.2292 94.0907 86.3412 94.4267 86.5652 94.632C86.7892 94.8373 87.1626 94.94 87.6852 94.94H89.3932ZM90.6082 91.16C90.6082 89.5547 90.9069 88.1453 91.5042 86.932C92.1202 85.7187 92.9509 84.7853 93.9962 84.132C95.0416 83.4787 96.2082 83.152 97.4962 83.152C98.5976 83.152 99.5589 83.376 100.38 83.824C101.22 84.272 101.864 84.86 102.312 85.588V83.376H107.1V99H102.312V96.788C101.846 97.516 101.192 98.104 100.352 98.552C99.5309 99 98.5696 99.224 97.4682 99.224C96.1989 99.224 95.0416 98.8973 93.9962 98.244C92.9509 97.572 92.1202 96.6293 91.5042 95.416C90.9069 94.184 90.6082 92.7653 90.6082 91.16ZM102.312 91.188C102.312 89.9933 101.976 89.0507 101.304 88.36C100.651 87.6693 99.8482 87.324 98.8962 87.324C97.9442 87.324 97.1322 87.6693 96.4602 88.36C95.8069 89.032 95.4802 89.9653 95.4802 91.16C95.4802 92.3547 95.8069 93.3067 96.4602 94.016C97.1322 94.7067 97.9442 95.052 98.8962 95.052C99.8482 95.052 100.651 94.7067 101.304 94.016C101.976 93.3253 102.312 92.3827 102.312 91.188ZM118.772 94.94V99H116.336C114.6 99 113.247 98.58 112.276 97.74C111.305 96.8813 110.82 95.4907 110.82 93.568V87.352H108.916V83.376H110.82V79.568H115.608V83.376H118.744V87.352H115.608V93.624C115.608 94.0907 115.72 94.4267 115.944 94.632C116.168 94.8373 116.541 94.94 117.064 94.94H118.772ZM135.667 90.936C135.667 91.384 135.639 91.8507 135.583 92.336H124.747C124.822 93.3067 125.13 94.0533 125.671 94.576C126.231 95.08 126.912 95.332 127.715 95.332C128.91 95.332 129.74 94.828 130.207 93.82H135.303C135.042 94.8467 134.566 95.7707 133.875 96.592C133.203 97.4133 132.354 98.0573 131.327 98.524C130.3 98.9907 129.152 99.224 127.883 99.224C126.352 99.224 124.99 98.8973 123.795 98.244C122.6 97.5907 121.667 96.6573 120.995 95.444C120.323 94.2307 119.987 92.812 119.987 91.188C119.987 89.564 120.314 88.1453 120.967 86.932C121.639 85.7187 122.572 84.7853 123.767 84.132C124.962 83.4787 126.334 83.152 127.883 83.152C129.395 83.152 130.739 83.4693 131.915 84.104C133.091 84.7387 134.006 85.644 134.659 86.82C135.331 87.996 135.667 89.368 135.667 90.936ZM130.767 89.676C130.767 88.8547 130.487 88.2013 129.927 87.716C129.367 87.2307 128.667 86.988 127.827 86.988C127.024 86.988 126.343 87.2213 125.783 87.688C125.242 88.1547 124.906 88.8173 124.775 89.676H130.767Z" fill="#202F3D"/>
<defs>
<clipPath id="clip0_1_45489">
<rect width="60" height="60" fill="white" transform="translate(38.5)"/>
</clipPath>
</defs>
</svg>
