<svg width="275" height="256" viewBox="0 0 275 256" fill="none" xmlns="http://www.w3.org/2000/svg">
<path d="M92.3889 190.956L97.0202 204.75L103.076 201.643L96.7922 188.604C96.7922 188.604 92.6882 190.728 92.3889 190.956Z" fill="#BDE9A7"/>
<path d="M122.371 151.825C130.145 149.63 137.668 146.626 144.814 142.862L180.183 148.419C180.183 148.419 186.652 152.167 187.436 152.281C189.65 152.1 191.867 152.598 193.792 153.706C196.399 155.516 201.615 155.516 202.969 155.744C204.923 156.375 206.791 157.252 208.526 158.351C209.88 159.149 215.893 161.073 216.919 161.757C217.945 162.441 220.311 163.182 220.881 166.032C221.678 169.534 222.155 173.103 222.306 176.691C222.192 179.299 221.522 186.324 220.496 189.046C219.47 191.768 215.053 205.932 214.796 207.571C214.54 209.21 214.012 220.268 213.371 222.548C212.73 224.828 209.638 236.798 209.096 238.978C208.555 241.158 204.451 252.017 203.767 253.94C203.083 255.864 202.057 259.384 202.342 260.852C202.754 262.442 202.869 264.094 202.684 265.725C202.456 267.549 203.938 276.498 203.482 277.125C203.026 277.752 187.151 278.479 181.608 276.783C176.065 275.087 153.949 277.467 144.985 277.011C136.022 276.555 112.339 276.327 108.947 275.586C105.556 274.845 101.352 274.688 103.39 272.423C105.428 270.157 105.656 266.979 105.77 263.873C106.068 261.064 106.636 258.293 107.465 255.593L100.34 206.787L110.8 185.412L122.371 151.825Z" fill="#BED4FC"/>
<path d="M144.415 160.389C145.085 163.553 145.741 163.923 145 163.809C138.544 162.797 132.246 156.413 130.949 151.055C130.707 150.044 130.536 150.143 131.619 149.773C134.797 148.647 136.435 147.436 136.036 148.148C135.238 149.573 135.808 151.412 135.709 152.067C135.338 154.532 137.048 156.613 139.513 157.924C139.841 158.095 139.727 158.066 141.907 158.209C143.332 157.867 143.518 157.724 143.689 158.209C144.008 158.908 144.252 159.639 144.415 160.389Z" fill="#FFC6A6"/>
<path d="M195.203 51.904C199.107 53.5427 200.204 53.7992 197.568 54.4547C195.915 54.0557 195.716 54.0272 194.718 52.0037C194.618 51.7472 194.932 51.79 195.203 51.904Z" fill="#E6FCFF"/>
<path d="M203.012 51.2767C203.254 51.2767 203.24 51.4477 203.14 51.576C202.556 52.3597 201.886 53.514 200.789 52.8157C197.939 50.9775 192.381 50.1367 193.906 47.757C194.533 46.788 194.02 47.8995 197.269 49.296C200.789 50.8065 202.057 51.3907 203.012 51.2767Z" fill="#E6FCFF"/>
<path d="M204.18 48.199C205.05 48.2845 203.981 49.8378 202.599 49.8093C200.304 49.0113 193.393 46.4748 195.303 44.9643C195.531 44.7933 195.417 44.3088 195.744 44.3373C196.314 44.3373 195.559 44.9358 199.335 46.4463C203.112 47.9568 203.439 48.085 204.18 48.199Z" fill="#E6FCFF"/>
<path d="M197.041 41.2877C204.593 46.9877 207.586 44.0522 205.306 46.7027C204.878 47.2015 203.225 46.3607 202.598 46.1327C199.549 45.007 194.462 43.3825 197.041 41.2877Z" fill="#E6FCFF"/>
<path d="M217.019 31.1559C217.461 31.2841 217.133 32.3244 216.734 32.1106C215.224 31.3411 216.492 30.9849 217.019 31.1559Z" fill="#F8E2A0"/>
<path d="M201.957 27.2512C201.173 27.8925 200.817 26.6527 201.33 26.5102C201.501 26.4675 201.8 27.009 201.957 27.2512Z" fill="#F8E2A0"/>
<path d="M207.33 15.595C224.985 15.4952 228.79 38.7227 210.436 40.8175C208.042 41.1025 207.586 40.4185 206.845 41.3732C205.506 43.2685 206.375 44.1235 205.278 43.8385C203.038 43.2662 200.903 42.3427 198.951 41.1025C197.141 40.0052 200.376 39.6775 199.435 37.6397C198.495 35.602 198.452 37.1552 196.97 34.7897C190.116 23.86 199.834 15.1817 207.33 15.595ZM216.136 33.7495C217.034 35.9725 219.827 30.7142 217.675 30.016C215.523 29.3177 214.953 30.8282 214.611 30.7427C211.305 30.0017 213.357 30.4292 211.448 29.446C210.564 28.99 209.866 30.0587 209.154 29.047C208.028 27.4225 208.84 29.047 203.553 26.938C203.183 26.7955 202.983 26.2825 202.698 25.9405C202.413 25.5985 201.972 25.5985 201.444 25.456C199.905 25.0427 199.022 28.192 201.444 28.6052C201.701 28.6052 201.886 28.6052 201.801 29.047C201.259 31.3697 204.408 33.322 203.781 34.4477C202.93 36.0769 202.329 37.8257 202 39.6347C201.929 40.0622 202.314 39.8342 202.47 39.9625C203.069 40.4755 203.354 37.7965 204.893 34.9037C205.933 32.98 202.912 31.0562 202.983 29.4032C203.069 27.28 203.895 28.4912 205.833 29.104C206.916 29.446 207.743 29.104 208.042 29.8165C208.236 30.1972 208.56 30.4958 208.954 30.6579C209.35 30.8202 209.789 30.835 210.194 30.7C211.505 30.358 211.163 31.3697 212.702 31.6975C214.241 32.0252 214.227 31.954 214.227 32.524C214.227 32.7235 214.227 32.9372 213.984 32.9942C213.252 33.2442 212.553 33.5841 211.904 34.006C211.092 34.3907 211.448 33.7352 210.094 34.6187C208.056 35.944 208.398 35.1032 207.543 35.773C206.118 36.9272 202.998 40.219 203.995 41.0027C204.993 41.7865 205.107 39.7345 207.13 37.882C209.154 36.0295 208.84 36.9272 209.524 36.457C210.949 35.5735 211.149 35.4452 211.362 35.431C212.588 35.3312 213.528 34.3052 214.455 34.2197C215.709 34.1057 215.381 33.0085 215.652 33.094C215.922 33.1795 216.036 33.5072 216.136 33.7495Z" fill="#F8E2A0"/>
<path d="M193.948 118.922C192.851 115.174 195.559 105.726 196.371 103.632C197.473 99.8552 197.792 95.8937 197.311 91.9894C196.741 87.5292 193.606 79.9767 191.953 76.3144C190.3 72.6522 183.118 65.8692 180.838 64.1022C178.558 62.3352 167.629 57.7467 163.738 56.0367C159.848 54.3267 152.851 53.9419 152.851 53.9419C151.808 52.6354 150.351 51.7222 148.719 51.3521C147.088 50.9818 145.38 51.1765 143.874 51.9042C139.599 53.7994 138.886 58.3594 138.516 58.4592C129.681 58.3594 128.441 65.4844 128.441 65.4844C125.164 68.8047 126.076 70.8994 127.444 73.0797C128.812 75.2599 133.243 75.3169 133.243 75.3169C133.243 75.3169 160.19 69.4602 168.412 82.2852C176.635 95.1102 173.4 116.029 173.4 116.029L173.628 136.806C174.933 138.045 176.565 138.886 178.332 139.233C180.097 139.578 181.926 139.413 183.603 138.758C178.487 134.853 179.47 132.63 179.47 132.63C187.222 137.418 190.642 132.63 190.642 132.63C189.325 132.373 188.09 131.797 187.048 130.952C186.004 130.107 185.183 129.02 184.657 127.785C186.941 128.478 189.299 128.893 191.683 129.025C198.052 129.638 199.477 126.175 199.477 126.175C199.477 126.175 195.031 122.67 193.948 118.922Z" fill="#EDA076"/>
<path d="M139.371 129.31C138.973 128.866 138.752 128.29 138.752 127.692C138.752 127.095 138.973 126.519 139.371 126.075C130.607 120.674 132.488 116.214 130.607 117.112C128.591 118.002 126.437 118.542 124.238 118.708C123.668 118.879 125.819 122.555 130.565 124.137C134.583 125.477 126.29 129.31 125.021 129.41C122.955 129.566 131.676 134.796 136.621 131.462C136.737 131.368 136.881 131.312 137.029 131.304C137.179 131.295 137.327 131.333 137.453 131.414C137.579 131.495 137.677 131.612 137.732 131.751C137.788 131.89 137.798 132.043 137.761 132.188C137.361 134.18 136.643 136.094 135.638 137.86C138.103 138.302 140.924 136.677 142.976 135.281C143.518 134.924 143.318 134.297 143.532 133.856C143.618 133.656 141.822 132.331 139.371 129.31Z" fill="#EDA076"/>
<path d="M116.928 146.866C119.535 152.281 119.649 152.01 119.008 152.238L90.0378 161.8C89.6958 161.8 90.1661 162.612 83.7251 149.872C83.3973 149.231 81.6731 150.1 102.008 143.289C105.542 142.106 108.905 140.923 112.681 139.684C113.65 139.37 112.838 138.401 116.928 146.866ZM113.037 151.497C112.425 150.442 111.94 151.169 111.185 151.198C111 151.198 92.5458 156.898 91.2348 157.525C90.5936 157.795 90.0093 158.65 90.7931 158.85C91.0923 158.921 111.94 152.765 113.037 151.497ZM108.563 145.483C109.019 145.255 109.332 144.457 108.363 144.258C108.192 144.258 107.095 144.586 105.513 144.985C99.8846 146.41 99.1008 147.464 97.6473 147.436C95.9658 147.436 96.0371 148.12 93.5291 148.675C87.8291 149.944 88.7553 150.485 87.2306 150.556C87.0453 150.556 86.7461 150.998 86.6891 151.169C86.5608 151.682 88.1141 151.981 88.8551 151.568C90.4397 150.717 92.1702 150.17 93.9566 149.958C96.3078 149.545 96.2223 148.789 97.6046 148.861C100.241 148.504 101.238 147.436 103.632 146.837C106.026 146.239 106.739 146.41 108.563 145.483ZM104.815 150.685C105.054 150.7 105.29 150.63 105.481 150.486C105.672 150.341 105.805 150.135 105.855 149.901C105.855 148.262 100.155 150.87 97.4621 151.326C95.0111 151.739 89.4393 153.364 88.6271 154.247C88.0571 154.874 88.3706 155.23 89.1401 155.273C91.9901 154.304 91.6053 154.176 92.6313 153.848C98.5593 152.181 94.4838 153.549 100.768 151.739C103.618 150.97 103.803 150.685 104.815 150.685Z" fill="#FFF5DB"/>
<path d="M94.3127 185.327C94.7402 186.196 93.1727 186.68 92.2607 186.851C91.7192 186.495 92.9162 188.476 79.8632 162.185C71.5127 145.569 71.5127 146.239 72.3677 146.239C76.8137 146.253 69.931 136.435 94.3127 185.327Z" fill="#BDE9A7"/>
<path d="M75.5316 156.598C91.4061 188.803 91.1069 187.321 90.4229 187.564C81.8729 190.499 86.1479 196.114 85.2644 198.037C84.7941 197.368 55.3394 137.019 55.1399 136.52C55.3679 136.435 54.5984 136.05 67.0814 143.503C71.0856 145.897 68.7629 142.847 75.5316 156.598Z" fill="#BDE9A7"/>
<path d="M119.393 140.81C114.534 130.735 114.862 131.334 114.463 131.476C110.188 133.001 87.8155 140.425 84.0393 141.665C74.734 144.743 75.3183 144.144 75.8883 145.256C97.6908 187.878 94.4133 185.469 96.907 184.8C99.8283 184.728 97.876 189.588 97.9758 189.844C98.0755 190.101 98.788 191.882 99.187 191.739C100.048 191.365 100.928 191.036 101.823 190.756C103.837 190.458 105.799 189.877 107.652 189.032C111.642 186.994 111.699 193.392 106.654 195.858C105.289 196.688 103.824 197.338 102.294 197.796C102.037 197.796 101.98 197.995 102.094 198.223C103.12 200.389 102.864 200.218 103.519 200.218C111.214 200.218 110.302 198.978 115.632 197.853C117.199 197.511 117.854 199.434 117.242 200.703C117.099 200.988 117.342 200.959 117.64 200.874C117.64 200.874 143.29 193.278 144.402 192.922C145.513 192.566 144.986 193.848 119.393 140.81ZM119.963 153.364C119.735 153.45 93.2305 162.242 90.0385 163.182C88.8558 163.054 89.0838 163.695 82.486 149.973C81.6025 148.149 80.434 149.004 112.91 138.202C114.192 137.775 114.135 138.202 115.917 141.85C120.732 151.74 121.787 152.737 119.963 153.364Z" fill="#BDE9A7"/>
<path d="M196.799 223.987C198.224 226.11 198.551 222.776 186.71 239.491C185.426 241.228 184.036 242.885 182.549 244.45C180.539 246.773 178.929 249.366 175.751 251.803C168.313 257.503 162.741 256.078 156.257 248.483C155.275 246.814 154.577 244.994 154.191 243.096C153.265 239.349 151.612 238.308 150.458 234.062C147.437 222.961 150.728 169.324 151.028 169.053C152.253 167.928 150.344 168.483 147.593 164.892C145.356 162.042 146.396 158.993 141.893 151.668C141.803 151.47 141.669 151.295 141.501 151.157C141.333 151.019 141.136 150.92 140.924 150.87C140.055 150.728 140.768 151.854 141.167 152.737C141.765 154.034 140.54 153.207 140.312 153.193C139.727 153.122 139.328 153.792 141.323 154.96C141.566 155.103 142.221 155.117 142.392 155.345C142.559 155.663 142.679 156.004 142.748 156.357C142.748 156.556 142.748 156.613 142.563 156.627C140.996 156.813 140.312 157.14 139.015 156.043C138.274 155.416 136.949 153.991 136.977 153.022C137.048 150.172 136.564 148.747 139.015 147.322C139.97 146.795 140.141 145.897 140.198 144.843C140.297 142.905 142.25 143.959 143.048 141.437C144.188 137.846 149.403 141.009 148.648 139C146.339 132.944 139.1 129.025 140.098 127.287C141.038 125.762 144.473 128.598 145.356 129.624C148.121 132.744 153.194 136.991 153.65 139.955C153.935 141.736 155.174 142.349 156.414 146.51C158.651 153.977 161.188 157.155 161.487 165.405C161.957 178.23 175.196 227.45 175.21 227.493C175.58 228.262 176.464 227.934 176.421 227.136C175.908 217.575 170.579 207.03 171.89 206.958C174.051 206.809 176.213 207.231 178.16 208.184C179.471 209.167 187.565 216.363 188.277 217.033C191.384 219.798 194.675 220.738 196.799 223.987Z" fill="#FFC6A6"/>
<path d="M180.667 103.104C186.681 98.0167 193.792 102.149 187.792 111.754C186.595 113.649 185.398 115.288 180.169 117.454C173.371 120.304 172.559 102.904 172.431 134.554C172.431 143.531 173.4 146.224 186.011 152.338C186.51 152.58 182.135 155.843 182.107 155.857C174.511 161.301 178.972 158.707 170.564 162.085C169.139 162.626 163.254 165.063 163.154 164.165C162.014 154.632 159.734 152.452 158.167 146.866C156.742 141.935 155.146 140.681 155.003 139.028C154.804 136.606 149.303 131.903 148.633 131.048C148.391 130.763 148.42 130.649 148.776 130.521C164.836 125.291 162.399 121.315 160.774 122.27C157.468 124.194 142.663 129.495 135.766 121.586C128.199 112.894 128.028 97.4609 131.163 98.4299C132.458 98.7165 133.809 98.6421 135.065 98.215C136.32 97.7878 137.435 97.0243 138.288 96.0074C139.114 95.1809 138.288 98.3302 142.278 99.0569C143.104 99.2137 143.418 98.2019 142.919 97.9597C141.708 97.3469 140.568 97.0619 139.912 95.0242C139.399 93.4424 144.33 94.7107 144.187 91.0057C144.187 90.0224 143.233 89.9939 143.019 90.8774C142.634 92.4022 143.019 92.1742 140.739 92.6017C140.539 92.6017 140.482 92.6017 140.554 92.3594C141.808 88.4122 141.409 87.2864 142.691 86.3317C143.247 86.007 143.88 85.8374 144.522 85.8409C145.166 85.8443 145.796 86.0205 146.349 86.3511C146.901 86.6817 147.353 87.1546 147.661 87.7202C147.967 88.2858 148.117 88.9235 148.092 89.5664C148.277 94.2262 152.794 101.052 158.067 100.852C165.534 100.553 167.686 92.8582 169.039 92.0174C169.937 91.4474 170.878 91.8037 174.668 94.1264C175.78 94.7962 172.545 101.551 177.817 103.859C178.373 104.101 177.162 104.842 178.516 105.284C178.672 105.455 179.442 104.13 180.667 103.104ZM187.493 107.578C187.69 107.18 187.772 106.735 187.729 106.293C187.687 105.85 187.522 105.429 187.252 105.076C186.981 104.723 186.618 104.453 186.202 104.296C185.787 104.138 185.335 104.101 184.9 104.187C182.591 104.686 180.069 107.621 181.294 110.001C181.708 110.813 181.294 112.495 180.439 112.694C178.744 113.065 178.63 112.267 178.216 113.036C177.803 113.806 178.715 114.461 179.641 114.461C182.577 114.461 183.56 111.098 182.62 109.288C182.5 109.091 182.428 108.867 182.413 108.636C182.399 108.406 182.44 108.174 182.534 107.963C183.133 106.538 186.111 103.845 186.396 107.664C186.467 108.063 187.194 108.205 187.493 107.578ZM142.52 109.189C142.52 108.676 142.207 107.179 141.01 107.151C139.585 107.151 139.371 109.274 140.397 110.314C141.01 110.956 142.178 111.098 142.52 109.189Z" fill="#FFC6A6"/>
<path d="M119.493 215.394C123.654 218.244 123.012 215.522 121.003 229.031C120.029 234.859 118.664 240.615 116.913 246.259C116.514 247.428 117.113 242.911 116.913 238.123C116.714 231.625 110.016 220.766 109.304 221.023C107.879 221.493 110.729 223.16 114.206 232.793C116.585 239.548 115.331 248.839 113.664 251.318C111.498 254.51 109.617 255.864 104.159 255.037C101.711 254.668 99.4273 253.582 97.5961 251.916C95.7649 250.249 94.4686 248.077 93.8709 245.675C93.1014 242.512 91.8474 238.864 92.4459 235.03C95.2959 214.51 93.5859 224.015 97.1484 228.917H97.7897C97.5902 227.364 97.4477 227.492 95.5382 221.222C94.9397 219.227 94.9254 218.942 94.2984 218.543C91.6052 216.862 92.1039 216.591 91.5767 213.741C91.2489 212.017 89.1257 212.473 89.3964 210.05C89.4704 209.367 89.3694 208.676 89.1025 208.043C88.8358 207.409 88.4122 206.855 87.8717 206.431C86.8884 205.504 87.1164 202.768 88.8264 200.987C91.8759 197.824 92.2179 196.413 95.1819 194.218C95.6522 193.862 95.7662 193.99 100.155 192.964C101.11 192.736 100.526 192.508 102.535 192.152C107.907 191.183 109.261 189.302 109.204 190.499C109.081 191.463 108.692 192.373 108.08 193.128C107.469 193.884 106.659 194.454 105.741 194.774C104.586 195.446 103.363 195.996 102.093 196.413C93.5432 198.351 93.9992 204.079 95.3957 202.441C97.2197 200.303 96.9489 199.861 97.6329 201.115C98.1459 202.056 97.8894 201.628 96.2079 203.139C94.7829 204.421 90.0234 208.269 92.3319 207.927C92.6597 207.927 92.8449 207.713 95.8659 205.177C98.0177 203.353 98.8869 201.714 105.841 201.643C109.845 201.643 112.966 199.804 115.688 199.277C116.728 199.063 116.457 202.398 109.161 204.364C107.569 205.002 105.917 205.479 104.231 205.789C102.897 205.856 101.61 206.306 100.526 207.086C99.5282 208.027 98.7872 208.511 99.3002 209.038C99.4854 209.238 99.6564 209.395 99.9272 209.11C101.651 207.314 103.433 207.4 107.052 206.673C108.135 206.459 107.907 205.918 109.631 205.747C111.395 205.444 113.141 205.044 114.861 204.55C116.286 204.55 115.189 207.571 107.736 210.449C104.131 211.874 102.435 212.259 101.167 214.154C100.825 214.667 100.54 215.437 101.167 215.722C102.207 216.192 101.58 214.012 105.299 212.658C105.941 212.43 106.097 212.373 106.325 215.223C106.81 221.407 104.53 224.115 104.345 226.623C104.345 226.965 104.744 227.407 105.171 226.879C105.818 225.484 106.394 224.058 106.895 222.604C110.087 213.057 102.62 209.95 112.595 213.014C117.113 214.411 117.74 214.197 119.493 215.394Z" fill="#FFC6A6"/>
<path d="M96.4217 186.453C98.3597 186.011 96.7494 190.2 93.2012 192.153C90.3512 193.763 90.0662 193.92 89.6672 194.404C89.2682 194.889 89.6672 195.501 90.0377 195.373C92.3747 194.689 96.2507 190.514 88.2991 199.648C86.4181 201.814 86.7032 201.971 86.4467 200.061C86.4636 199.336 86.5304 198.613 86.6462 197.895C87.0024 196.2 85.1356 192.195 87.1306 190.927C89.7124 189.357 92.4545 188.068 95.3102 187.08C95.6536 186.825 96.0268 186.615 96.4217 186.453Z" fill="#FFC6A6"/>
<path d="M131.819 80.8601C131.819 80.6606 132.959 75.1601 134.355 73.1508C135.752 71.1416 140.54 66.0258 140.54 66.0258C140.54 66.0258 144.102 67.8783 144.43 64.6008C144.43 64.6008 145.77 65.8691 147.28 63.5178C148.791 61.1666 152.738 61.4088 154.163 62.0358C155.588 62.6628 159.507 63.3753 161.673 67.0091C163.839 70.6428 171.263 83.3111 172.588 85.1351C173.913 86.9591 178.117 92.2601 174.996 93.1578L169.296 89.9088C169.296 89.9088 167.316 84.1091 162.342 83.2826C157.369 82.4561 151.455 81.9573 149.033 86.1326C149.033 86.1326 144.259 83.2826 140.939 86.3178C140.939 86.3178 140.184 81.8576 136.037 81.1593C131.89 80.4611 131.819 80.8601 131.819 80.8601Z" fill="#FFC6A6"/>
<path d="M241.629 106.98C234.974 112.281 234.262 122.441 230.913 120.005C227.08 117.154 224.629 114.176 224.515 109.901C224.515 108.718 223.873 107.564 222.733 107.992C221.807 108.396 220.855 108.738 219.883 109.018C216.62 109.873 216.748 106.909 215.238 108.291C214.63 108.711 214.061 109.189 213.542 109.716C213.072 110.143 213.3 109.901 212.217 109.089C211.134 108.277 209.566 109.388 209.78 110.015C209.885 110.168 210.037 110.28 210.212 110.335C210.388 110.389 210.578 110.382 210.749 110.314C211.59 109.944 211.718 110.742 212.573 111.426C213.998 112.58 215.124 108.818 216.349 109.687C218.387 111.112 219.313 110.628 222.42 109.573C224.344 108.932 220.653 113.193 228.362 119.734C232.637 123.396 233.364 122.242 236.713 115.544C237.938 113.093 240.346 109.103 242.527 107.764C243.424 107.208 244.479 106.923 246.673 108.476C251.818 112.124 249.523 113.05 248.854 114.632C248.74 114.917 249.352 115.43 249.623 115.06C251.319 112.737 250.849 113.464 251.205 112.338C250.592 108.804 244.821 104.443 241.629 106.98Z" fill="#000001"/>
<path d="M239.492 88.8116C239.378 88.0991 239.15 87.3865 239.007 86.6882C238.991 86.5195 238.923 86.3597 238.814 86.23C238.704 86.1003 238.558 86.0067 238.394 85.9616C237.839 85.7906 237.767 86.104 235.858 88.3697C234.162 90.379 235.174 90.037 231.013 89.011C230.784 89.0518 230.566 89.1433 230.376 89.2789C230.186 89.4145 230.029 89.5907 229.916 89.7947C229.631 90.208 229.659 90.3647 230.927 92.4167C232.01 94.1695 232.352 93.742 231.839 94.4972C229.146 98.53 227.935 99.8552 232.894 98.0455C235.744 97.0195 235.63 96.8627 236.043 97.276C237.967 99.1997 240.617 102.449 240.774 99.727C240.842 98.6593 240.677 97.5896 240.29 96.592C240.09 95.566 244.009 95.0387 244.237 93.571C244.256 93.5074 244.262 93.4405 244.255 93.3744C244.246 93.3084 244.226 93.2447 244.192 93.1872C244.159 93.1297 244.115 93.0797 244.06 93.0404C244.007 93.001 243.946 92.9731 243.881 92.9582C238.451 91.0345 240.133 92.9156 239.492 88.8116ZM239.563 95.1813C238.138 96.2358 239.477 97.1192 239.363 98.6012C238.252 98.131 236.998 95.7512 235.345 95.7512C232.367 96.7487 232.181 97.1762 231.654 97.1762C231.825 96.1075 234.333 93.9416 232.908 92.7873C232.352 92.3598 230.97 90.322 231.668 90.4787C234.433 91.12 234.419 91.2482 234.946 90.8777C237.725 88.9682 237.796 86.0327 238.309 90.0512C238.751 93.6707 237.853 92.1887 241.857 93.6422C242.513 93.913 240.461 94.5258 239.563 95.1813Z" fill="#000001"/>
<path d="M221.708 65.6404C221.822 71.3404 225.398 74.1904 219.413 73.4209C210.236 72.2239 208.398 70.0152 209.267 76.6842C209.381 77.5819 209.424 77.2969 204.992 79.0924C202.769 80.0044 203.781 81.1302 204.992 80.6599C209.039 79.0069 210.821 78.7647 210.692 76.9977C210.407 73.8769 210.008 73.3212 211.191 73.5207C219.185 74.8032 220.539 75.1024 221.978 74.9457C227.593 74.3472 220.439 65.4124 224.273 63.5457C226.966 62.2062 227.864 64.3437 240.788 69.4879C241.501 69.7729 242.213 70.0579 242.441 69.3882C242.669 68.7184 242.014 68.6757 241.658 68.5332C228.833 63.2749 230.144 63.0184 227.408 62.1207C226.806 61.8389 226.143 61.7115 225.479 61.7498C224.815 61.7882 224.172 61.9911 223.606 62.3404C223.041 62.6896 222.571 63.1741 222.24 63.7503C221.908 64.3264 221.725 64.9759 221.708 65.6404Z" fill="#000001"/>
<path d="M227.237 48.1847C226.168 49.9374 223.689 53.7564 225.983 53.1864C226.838 52.9869 228.477 52.6734 228.833 52.5309C231.013 51.7899 231.085 51.4907 231.384 51.8042C234.234 54.6542 236.272 57.7749 236.129 52.5594C236.044 50.1084 235.502 49.7094 236.2 49.4387C237.127 49.0397 238.965 48.0137 239.478 47.8854C241.231 47.3582 241.316 46.2182 240.561 45.8762C239.806 45.5342 237.711 45.1352 236.414 44.5794C234.348 43.6532 235.231 44.9214 233.906 39.6774C233.875 39.5214 233.796 39.3792 233.678 39.2712C233.562 39.1631 233.413 39.0948 233.255 39.0758C233.097 39.0568 232.937 39.0883 232.798 39.1656C232.659 39.2429 232.549 39.3623 232.481 39.5064C232.31 39.7344 231.712 40.5894 229.888 43.2684C229.46 43.9097 225.37 41.7579 224.701 42.5559C223.019 44.5082 227.793 47.2727 227.237 48.1847ZM228.947 44.5652C230.372 44.9784 230.116 44.7789 232.709 41.2877C233.536 40.1619 233.008 45.2492 234.932 45.4202C235.588 45.4202 236.528 46.2182 238.053 46.5602C238.175 46.6046 238.29 46.667 238.395 46.7454C238.324 46.8452 238.267 46.9734 238.167 47.0162C234.576 48.8687 234.334 48.6407 234.547 49.8662C235.089 53.2434 234.961 52.7162 234.875 53.3004C231.07 49.8519 232.581 50.2937 232.025 50.1939C230.971 50.0372 229.004 51.2199 227.109 51.6189C226.453 51.6189 226.71 51.4764 228.349 48.7689C230.116 45.8477 221.309 42.3849 228.947 44.5652Z" fill="#000001"/>
<path d="M193.549 51.4482C193.485 52.0047 193.539 52.5682 193.706 53.1027C193.872 53.6373 194.15 54.1311 194.518 54.5524C194.888 54.9738 195.34 55.3133 195.848 55.5492C196.357 55.7852 196.908 55.9125 197.468 55.9227C199.549 56.1079 200.389 54.3267 201.173 54.4977C202.926 54.8397 204.322 52.9017 204.379 51.5194C204.379 50.7927 204.921 50.3082 205.206 49.6099C205.491 48.9117 205.12 48.4699 205.491 48.3559C206.036 47.9809 206.475 47.472 206.768 46.8781C207.06 46.2842 207.194 45.6253 207.158 44.9644C207.158 44.7792 207.643 44.1237 207.158 43.5394C207.058 43.4112 207.543 42.6417 207.657 42.5277C207.771 42.4137 221.337 43.4967 223.717 31.5409C227.194 14.0704 199.135 7.00245 193.906 23.7889C191.056 32.8234 198.466 37.6114 198.024 38.5377C196.87 40.9174 196.129 39.9627 195.701 41.0029C194.561 43.6392 195.701 43.3114 195.088 43.6392C193.036 44.6937 194.176 45.9904 193.464 46.4892C192.908 46.8977 192.531 47.505 192.412 48.1846C192.292 48.8641 192.439 49.5636 192.823 50.1372C193.378 50.7927 193.663 50.9352 193.549 51.4482ZM197.568 54.4549C195.915 54.0559 195.715 54.0274 194.718 52.0039C194.59 51.7474 194.903 51.7902 195.174 51.9042C199.107 53.5287 200.204 53.7852 197.568 54.4549ZM196.912 34.7899C190.058 23.9172 199.762 15.1819 207.272 15.5952C224.928 15.4954 228.733 38.7229 210.379 40.8177C207.985 41.1027 207.529 40.4187 206.788 41.3734C205.448 43.2687 206.317 44.1237 205.22 43.8387C202.979 43.2664 200.844 42.3429 198.893 41.1027C197.083 40.0054 200.318 39.6777 199.378 37.6399C198.437 35.6022 198.451 37.1554 196.912 34.7899ZM196.984 41.2879C204.536 46.9879 207.529 44.0524 205.249 46.7029C204.821 47.2017 203.168 46.3609 202.541 46.1329C199.549 45.0072 194.461 43.3827 197.041 41.2879H196.984ZM195.245 44.9644C195.473 44.7934 195.359 44.3089 195.687 44.3374C196.257 44.3374 195.502 44.9359 199.278 46.4464C203.054 47.9569 203.382 48.1279 204.123 48.1992C204.864 48.2704 204.037 49.8379 202.612 49.8094C200.304 49.0114 193.407 46.4749 195.302 44.9644H195.245ZM193.82 47.8144C194.447 46.8454 193.934 47.9569 197.183 49.3534C200.703 50.8782 201.971 51.4482 202.883 51.3342C203.125 51.3342 203.111 51.5052 203.011 51.6334C202.427 52.4172 201.757 53.5714 200.66 52.8732C197.881 50.9352 192.381 50.1372 193.906 47.7574L193.82 47.8144Z" fill="#000001"/>
<path d="M221.722 136.948C220.611 136.235 221.038 136.15 221.28 135.095C222.264 130.82 222.221 131.12 222.164 130.82C222.157 130.7 222.116 130.584 222.047 130.484C221.979 130.384 221.884 130.307 221.773 130.259C221.663 130.21 221.542 130.192 221.422 130.209C221.302 130.225 221.189 130.274 221.095 130.35C219.67 131.476 218.046 132.146 216.592 133.2C215.922 133.656 213.671 131.376 213.158 131.576C212.403 131.889 211.847 132.26 212.089 133.186C213.101 136.848 212.787 136.463 212.26 136.805C210.707 137.803 209.41 138.23 209.51 139.499C209.51 140.525 212.616 140.453 213.785 140.468C214.953 140.482 214.711 140.981 215.11 141.636C216.891 144.572 217.96 146.267 218.844 142.933C219.613 140.168 218.658 140.468 223.389 140.311C225.413 140.154 223.888 138.33 221.722 136.948ZM220.71 139.014C219.043 139.228 218.345 139.271 218.16 140.282C218.008 141.106 217.774 141.913 217.461 142.691C217.388 142.636 217.321 142.574 217.262 142.505C214.412 138.316 216.621 139.399 211.391 138.971C210.351 138.971 213.215 138.002 214.056 136.121C214.369 135.423 212.901 132.815 213.728 133.271C216.236 134.597 215.424 134.112 215.737 134.297C216.678 134.882 219.471 132.587 220.539 132.274C220.924 134.625 218.217 136.05 220.767 137.846C222.563 139.085 222.321 138.815 220.71 139.014Z" fill="#000001"/>
<path d="M205.833 156.228C201.786 154.091 198.523 155.687 193.535 152.865C192.103 151.862 190.361 151.397 188.619 151.554C187.408 151.868 176.891 147.279 174.626 142.292C174.146 140.991 173.895 139.616 173.885 138.23C173.785 137.147 179.114 141.793 184.273 139.256C184.407 139.21 184.525 139.126 184.611 139.014C184.699 138.902 184.753 138.768 184.766 138.628C184.779 138.487 184.753 138.344 184.687 138.218C184.623 138.093 184.523 137.988 184.401 137.917C182.533 137.133 180.959 135.782 179.898 134.055C179.727 133.77 179.528 133.2 180.183 133.642C185.983 137.589 193.592 133.371 191.27 132.217C189.205 131.693 187.371 130.501 186.054 128.825C185.769 128.469 186.054 128.526 186.225 128.626C190.5 130.535 196.514 130.265 199.905 127.001C201.672 125.291 196.001 124.565 194.761 117.896C193.521 111.227 197.611 106.852 198.323 95.466C198.694 89.538 194.276 78.5513 191.483 74.4473C183.888 63.3038 172.958 57.8603 159.321 53.9843C156.093 53.2413 152.728 53.3344 149.546 54.255C148.976 54.483 149.104 55.4235 149.788 55.3238C154.71 54.2371 159.855 54.8709 164.366 57.1193C169.923 59.7413 180.91 62.2208 189.246 73.9485C207.543 99.5985 184.971 112.424 196.271 124.137C198.651 126.602 198.993 126.203 197.867 126.873C195.849 128.002 193.554 128.541 191.245 128.431C188.934 128.321 186.701 127.563 184.8 126.246C183.917 125.676 183.005 126.246 183.475 127.315C185.456 132.103 190.272 132.73 189.032 133.157C182.477 135.366 179.827 131.348 178.901 130.835C176.934 129.78 176.578 134.055 181.993 138.173C183.119 139.028 173.657 138.302 173.742 135.209C174.526 109.16 172.018 120.589 179.585 119.534C185.869 118.637 193.122 109.73 191.384 103.446C190.215 99.2708 186.353 99.7553 185.384 99.057C175.994 92.3168 171.006 90.2363 168.284 85.9613C165.064 80.9168 153.051 79.1783 148.819 85.1205C148.662 85.3485 148.534 85.4055 148.32 85.1205C147.929 84.651 147.445 84.2667 146.9 83.9913C146.354 83.7158 145.757 83.5552 145.147 83.5191C144.537 83.4831 143.926 83.5724 143.352 83.7816C142.778 83.991 142.252 84.3156 141.808 84.7358C141.623 84.9353 141.537 84.9353 141.466 84.6503C140.725 81.6008 136.578 80.1615 133.172 79.9763C132.645 79.9763 132.545 80.1615 133.913 76.6133C134.17 75.9578 135.652 75.8153 137.846 77.3828C139.827 78.6083 138.445 74.0198 135.296 74.091C133.871 74.091 139.457 67.9778 140.326 66.966C140.782 66.453 140.91 67.3365 142.036 67.4363C142.506 67.4363 142.805 66.6953 142.235 66.2535C134.925 60.5535 142.677 48.84 149.574 52.6163C150.999 53.4285 151.697 51.918 150.315 51.1913C145.442 48.8115 139.927 52.0605 138.388 57.39C138.188 58.0455 138.146 57.2903 134.825 58.0598C133.339 58.4109 131.971 59.1497 130.863 60.201C129.754 61.2523 128.942 62.5786 128.513 64.0448C128.32 64.7175 127.945 65.3241 127.43 65.7975C124.152 69.3315 125.72 73.8345 129.453 74.9603C129.724 75.0458 130.793 75.174 130.878 74.6753C131.106 73.8488 130.436 73.8345 129.909 73.6778C124.922 72.1815 127.843 65.4698 128.399 67.8495C128.954 70.2293 132.175 73.2218 132.873 71.9963C133.571 70.7708 127.8 69.2888 129.938 63.945C131.619 59.67 137.989 58.245 137.975 59.9123C137.889 65.1848 140.226 65.6123 139.656 66.2108C136.806 69.189 135.381 70.2435 133.628 73.9485C133.502 74.2682 133.264 74.5315 132.959 74.6895C130.807 75.687 130.009 78.9645 130.835 78.48C132.602 77.2973 132.032 77.3685 131.591 79.5773C131.377 80.6175 129.952 79.6628 126.361 81.6008C119.963 85.1348 123.069 93.528 128.513 97.2473C130.579 98.6723 124.437 100.653 130.536 115.288C130.565 115.335 130.581 115.388 130.585 115.443C130.588 115.498 130.579 115.553 130.556 115.604C130.534 115.654 130.499 115.698 130.457 115.733C130.414 115.767 130.363 115.79 130.308 115.801C128.067 116.81 125.641 117.343 123.183 117.368C122.328 117.283 122.357 118.223 122.613 118.907C124.736 124.607 130.622 125.135 129.51 125.79C125.021 128.469 125.121 127.97 123.924 128.255C123.703 128.277 123.5 128.385 123.359 128.556C123.218 128.727 123.15 128.946 123.169 129.167C123.069 130.322 123.967 130.977 125.221 131.875C130.579 135.694 135.851 133.3 136.122 133.556C135.701 134.993 135.02 136.34 134.113 137.532C132.146 140.026 137.747 140.382 142.406 137.447C142.491 137.425 142.579 137.425 142.663 137.447C142.504 138.482 142.275 139.506 141.979 140.51C141.295 142.776 139.571 141.935 138.915 144.287C138.331 146.467 127.273 149.516 125.834 150.428C125.363 150.713 125.705 150.927 121.402 142.135C115.303 129.723 115.702 129.737 114.135 130.265C110.487 131.433 111.755 132.046 109.475 127.415C108.306 125.035 81.6446 131.989 73.4651 141.722C71.7408 143.859 72.7811 144.386 73.3653 143.859C73.6931 143.574 75.9731 139.071 88.7981 133.528C94.882 130.892 101.304 129.116 107.879 128.255C108.62 128.17 108.321 127.956 109.788 131.205C110.159 132.032 74.5338 143.018 73.6503 144.144C72.7668 145.27 70.8003 144.914 71.3988 144.458C71.5312 144.367 71.6241 144.231 71.6585 144.074C71.693 143.917 71.6664 143.755 71.5841 143.617C68.7341 137.019 65.4851 136.492 65.8841 135.067C65.8841 134.796 64.6301 131.846 64.8581 131.419C65.0861 130.991 71.8121 136.976 71.5841 140.924C71.5841 141.921 73.1801 142.349 72.9236 140.525C72.1968 135.181 65.0861 127.913 63.2051 130.222C62.8773 130.607 64.2596 133.414 64.2881 134.255C63.3761 133.984 58.3743 129.98 56.7926 131.96C56.4363 132.388 56.6073 132.445 58.8303 136.549C59.3861 137.589 57.7901 136.421 56.2083 135.48C51.4631 132.63 53.3583 135.38 55.8806 140.724C83.9673 198.565 86.2046 201.999 85.9196 203.595C85.7748 204.448 85.8522 205.323 86.1443 206.136C86.4364 206.95 86.9332 207.675 87.5868 208.241C87.8078 208.469 87.9671 208.749 88.0492 209.056C88.1315 209.363 88.1343 209.686 88.0571 209.993C87.9003 213.513 90.4226 212.943 90.3941 214.91C90.4093 216.245 90.9166 217.529 91.8191 218.515C93.9851 220.097 93.0588 217.004 91.1351 234.674C90.5936 239.619 92.1326 243.652 92.9733 246.716C94.7546 253.1 101.523 256.605 106.226 256.691C106.71 256.691 106.91 256.52 106.226 258.643C104.046 265.469 106.81 266.879 103.533 271.069C102.953 271.911 102.617 272.898 102.564 273.919C102.582 274.055 102.646 274.181 102.747 274.275C102.847 274.369 102.976 274.426 103.113 274.437C103.25 274.446 103.387 274.409 103.499 274.33C103.612 274.251 103.694 274.136 103.732 274.004C104.416 271.454 106.582 270.342 106.668 266.78C106.668 266.153 106.753 262.22 106.896 261.621C108.164 256.135 107.893 256.705 108.62 256.591C113.251 255.85 114.234 253.256 116.842 249.722C118.666 247.243 122.542 230.713 123.753 219.071C123.753 218.615 123.753 218.144 124.166 217.831C124.58 217.517 126.632 204.792 126.589 203.581C126.589 203.111 125.762 202.925 125.591 203.353C125.121 204.479 124.409 211.461 123.511 216.092C123.411 216.662 123.183 216.306 121.046 214.796C118.196 212.772 117.782 213.257 114.234 212.245C108.534 210.578 109.959 211.418 113.137 209.395C117.412 206.63 117.127 204.051 116.643 203.438C116.158 202.826 114.619 203.182 116.643 202.598C135.495 197.14 142.72 195.088 145.299 194.048C147.08 193.364 146.724 193.164 146.297 192.708C146.297 192.708 143.589 187.208 126.347 152.11C126.09 151.568 125.933 151.768 129.353 150.685C129.581 150.685 129.653 150.685 129.695 150.927C130.546 154.653 132.538 158.021 135.395 160.56C143.048 166.987 145.855 164.75 146.439 165.733C151.298 174.012 148.819 154.604 147.864 214.382C147.864 237.111 149.873 235.757 152.581 242.412C152.795 242.911 154.006 248.112 154.847 249.038C163.183 258.914 169.852 258.743 177.176 252.772C183.318 247.77 193.621 231.596 194.419 232.209C195.217 232.822 196.528 232.879 197.782 233.734C199.478 234.888 202.128 236.014 204.08 235.444C205.691 234.974 205.263 236.085 213.628 211.504C214.07 210.193 213.243 222.191 210.45 233.121C206.603 248.141 200.475 256.719 201.9 262.448C202.47 264.671 201.487 265.469 201.9 269.117C203.325 279.662 202.627 278.992 203.767 279.092C204.907 279.191 203.639 270.898 203.539 270.413C202.67 265.982 203.795 264.713 203.211 262.262C201.701 256.007 210.008 245.946 213.699 223.973C215.324 214.354 214.084 210.606 217.376 201.301C221.48 189.787 224.13 181.679 222.206 169.538C220.781 160.66 218.031 162.669 205.833 156.228ZM72.3678 146.253C76.8138 146.253 69.9026 136.421 94.2701 185.341C94.6976 186.21 93.1301 186.695 92.2181 186.866C91.6766 186.509 92.8736 188.49 79.8206 162.199C71.5128 145.569 71.5128 146.239 72.3678 146.239V146.253ZM58.2888 133.015C60.1841 132.787 68.2638 138.302 70.2161 143.802C66.8961 142.15 63.7088 140.245 60.6828 138.102C60.4121 136.948 58.5311 133.841 58.2888 133.001V133.015ZM85.2641 198.052C84.7938 197.368 55.3391 137.033 55.1396 136.535C55.3676 136.449 54.5981 136.064 67.0811 143.517C71.0853 145.911 68.7626 142.876 75.5313 156.613C91.4058 188.818 91.1066 187.336 90.4226 187.578C81.8868 190.499 86.1333 196.1 85.2641 198.038V198.052ZM86.4468 200.104C86.4638 199.378 86.5305 198.654 86.6463 197.938C87.0026 196.242 85.1358 192.238 87.1308 190.97C89.7126 189.4 92.4546 188.11 95.3103 187.122C95.6522 186.858 96.0256 186.638 96.4218 186.467C98.3598 186.039 96.7496 190.214 93.2013 192.167C90.3513 193.777 90.0663 193.934 89.6673 194.418C89.2683 194.903 89.6673 195.515 90.0378 195.387C92.3748 194.703 96.2508 190.528 88.2993 199.662C86.4183 201.842 86.7033 201.985 86.4468 200.09V200.104ZM97.3623 191.554C97.6046 192.152 97.5191 192.053 95.2961 192.494C95.2961 192.494 95.2961 192.494 95.2961 192.38C96.5358 191.625 96.7211 190.77 96.9633 190.827C97.2056 190.884 97.1628 191.112 97.3623 191.597V191.554ZM109.104 204.293C107.512 204.931 105.861 205.408 104.174 205.718C102.84 205.785 101.553 206.235 100.469 207.015C99.4713 207.956 98.7303 208.44 99.2433 208.967C99.4286 209.167 99.5996 209.324 99.8703 209.039C101.595 207.243 103.376 207.329 106.995 206.602C108.078 206.388 107.85 205.847 109.575 205.676C111.338 205.373 113.084 204.973 114.804 204.479C116.229 204.479 115.132 207.5 107.679 210.378C104.06 211.803 102.378 212.188 101.11 214.083C100.768 214.596 100.483 215.366 101.11 215.651C102.15 216.121 101.523 213.941 105.243 212.587C105.884 212.359 106.041 212.302 106.269 215.152C106.753 221.336 104.473 224.044 104.288 226.552C104.288 226.894 104.687 227.336 105.114 226.808C105.542 226.281 106.696 222.904 106.839 222.533C110.031 212.986 102.564 209.879 112.539 212.943C117.113 214.368 117.683 214.126 119.435 215.323C123.596 218.173 122.955 215.451 120.946 228.96C119.972 234.788 118.606 240.544 116.856 246.188C116.457 247.357 117.056 242.84 116.856 238.052C116.657 231.554 109.959 220.695 109.247 220.952C107.822 221.422 110.672 223.089 114.149 232.722C116.529 239.477 115.275 248.768 113.607 251.247C111.441 254.439 109.56 255.793 104.103 254.966C101.654 254.597 99.3704 253.512 97.5393 251.844C95.708 250.178 94.4117 248.006 93.8141 245.604C93.0446 242.441 91.7906 238.793 92.3891 234.959C95.2391 214.439 93.5291 223.944 97.0916 228.846H97.7328C97.5333 227.293 97.3908 227.421 95.4813 221.151C94.8828 219.156 94.8686 218.871 94.2416 218.472C91.5483 216.791 92.0471 216.52 91.5198 213.67C91.1921 211.946 89.0688 212.402 89.3396 209.979C89.4137 209.296 89.3125 208.605 89.0458 207.972C88.779 207.339 88.3554 206.783 87.8148 206.36C86.8316 205.433 87.0596 202.697 88.7696 200.916C91.8191 197.753 92.1611 196.342 95.1251 194.147C95.5953 193.791 95.7093 193.919 100.098 192.893C101.053 192.665 100.469 192.437 102.478 192.081C107.85 191.112 109.204 189.231 109.147 190.428C109.024 191.392 108.635 192.303 108.023 193.057C107.412 193.812 106.602 194.382 105.684 194.703C104.529 195.376 103.306 195.925 102.036 196.342C93.4863 198.28 93.9423 204.008 95.3388 202.37C97.1628 200.232 96.8921 199.79 97.5761 201.044C98.0891 201.985 97.8326 201.557 96.1511 203.068C94.7261 204.35 89.9666 208.198 92.2751 207.856C92.6028 207.856 92.7881 207.642 95.8091 205.106C97.9608 203.282 98.8301 201.643 105.784 201.572C109.788 201.572 112.909 199.733 115.631 199.206C116.671 199.035 116.4 202.37 109.104 204.336V204.293ZM99.2718 201.13C99.0866 200.959 99.1721 201.23 98.3598 199.577C98.1746 199.178 98.4881 199.064 100.483 198.451C100.74 198.365 100.968 198.836 101.552 200.132C101.68 200.474 101.438 200.56 99.2718 201.173V201.13ZM144.33 192.922C143.19 193.278 117.611 200.859 117.569 200.873C117.27 200.959 117.027 200.987 117.17 200.702C117.782 199.391 117.17 197.468 115.56 197.852C110.23 198.978 111.142 200.204 103.447 200.218C102.863 200.218 103.119 200.389 102.022 198.223C101.908 197.995 102.022 197.852 102.222 197.795C103.752 197.338 105.217 196.687 106.582 195.857C111.627 193.392 111.57 186.994 107.58 189.032C105.728 189.877 103.765 190.458 101.751 190.756C100.856 191.036 99.9758 191.365 99.1151 191.739C98.7161 191.882 98.0891 190.314 97.9038 189.844C97.7186 189.374 99.7563 184.728 96.8351 184.799C94.3413 185.469 97.6188 187.877 75.8163 145.256C75.2463 144.144 74.6621 144.743 83.9673 141.665C87.7436 140.425 110.173 133.001 114.391 131.476C114.79 131.333 114.391 130.735 119.321 140.81C144.986 193.848 145.385 192.637 144.33 192.965V192.922ZM176.008 95.5515C176.008 94.9815 175.723 94.9815 182.705 99.513C183.617 100.097 181.494 99.855 179.328 102.363C178.915 102.848 178.901 102.819 178.302 102.534C175.709 101.38 175.637 98.5583 176.008 95.5943V95.5515ZM150.857 85.1348C153.707 82.7978 162.969 82.8548 166.532 86.8875C169.638 90.4215 161.943 103.346 154.348 98.031C150.7 95.4803 147.308 87.9848 150.857 85.1348ZM132.446 91.6043C132.446 90.8918 131.648 82.0283 132.802 82.0853C134.969 82.0082 137.111 82.5733 138.958 83.7098C142.022 85.719 138.545 99.5985 131.078 96.8483C130.28 96.5348 132.389 94.668 132.446 91.6043ZM128.513 82.7835C129.254 82.5555 129.938 82.3845 130.764 82.185C131.021 82.185 131.149 82.185 131.12 82.47C130.379 88.8968 132.46 90.7208 129.995 95.6513C129.71 96.2498 129.653 96.2783 129.168 95.8935C123.197 91.02 121.53 84.9638 128.513 82.7835ZM131.149 98.4585C132.444 98.7451 133.795 98.6707 135.05 98.2436C136.306 97.8165 137.421 97.0529 138.274 96.036C139.086 95.2095 138.274 98.3588 142.264 99.0855C143.09 99.2423 143.404 98.2305 142.905 97.9883C141.694 97.3755 140.554 97.0905 139.898 95.0528C139.385 93.471 144.316 94.7393 144.173 91.0343C144.173 90.051 143.219 90.0225 143.005 90.906C142.62 92.4308 143.005 92.2028 140.725 92.6303C140.525 92.6303 140.468 92.6303 140.54 92.388C141.794 88.4408 141.395 87.315 142.677 86.3603C143.233 86.0356 143.866 85.866 144.508 85.8695C145.152 85.8729 145.782 86.0492 146.335 86.3798C146.887 86.7104 147.339 87.1832 147.647 87.7488C147.953 88.3144 148.103 88.9521 148.078 89.595C148.263 94.2548 152.78 101.081 158.053 100.881C165.52 100.582 167.672 92.8868 169.025 92.046C169.923 91.476 170.864 91.8323 174.654 94.155C175.766 94.8248 172.531 101.579 177.803 103.888C178.359 104.13 177.148 104.871 178.502 105.313C178.715 105.313 179.485 104.045 180.71 103.019C186.724 97.9313 193.835 102.064 187.835 111.668C186.638 113.564 185.441 115.202 180.212 117.368C173.414 120.218 172.602 102.819 172.474 134.468C172.474 143.446 173.443 146.139 186.054 152.252C186.553 152.495 182.178 155.758 182.15 155.772C174.554 161.216 179.015 158.622 170.607 161.999C169.182 162.541 163.297 164.978 163.197 164.08C162.057 154.547 159.777 152.366 158.21 146.78C156.785 141.85 155.189 140.596 155.046 138.943C154.847 136.52 149.346 131.818 148.676 130.963C148.434 130.678 148.463 130.564 148.819 130.436C164.879 125.206 162.442 121.23 160.817 122.185C157.511 124.109 142.706 129.41 135.809 121.501C128.156 112.979 127.985 97.5465 131.12 98.5155L131.149 98.4585ZM135.638 137.86C136.641 136.084 137.354 134.161 137.747 132.16C137.783 132.015 137.773 131.862 137.718 131.723C137.662 131.584 137.565 131.466 137.439 131.386C137.313 131.305 137.165 131.267 137.015 131.275C136.865 131.283 136.723 131.339 136.607 131.433C131.662 134.768 122.941 129.538 125.007 129.381C126.247 129.281 134.569 125.448 130.55 124.109C125.805 122.527 123.653 118.85 124.223 118.679C126.45 118.532 128.634 118.002 130.679 117.112C132.56 116.214 130.679 120.674 139.442 126.075C139.045 126.519 138.824 127.095 138.824 127.692C138.824 128.29 139.045 128.866 139.442 129.31C141.893 132.302 143.717 133.585 143.589 133.87C143.375 134.326 143.589 134.953 143.033 135.295C140.91 136.734 138.089 138.359 135.638 137.86ZM145.014 163.752C138.559 162.74 132.26 156.356 130.964 150.998C130.721 149.987 130.55 150.086 131.633 149.716C134.811 148.59 136.45 147.379 136.051 148.091C135.253 149.516 135.823 151.355 135.723 152.01C135.353 154.475 137.063 156.556 139.528 157.867C139.856 158.038 139.742 158.009 141.922 158.152C143.347 157.81 143.532 157.667 143.703 158.152C144.015 158.863 144.259 159.603 144.43 160.361C145 163.51 145.741 163.923 145 163.809L145.014 163.752ZM186.724 239.434C185.44 241.171 184.051 242.828 182.563 244.393C180.554 246.716 178.943 249.309 175.766 251.746C168.327 257.446 162.755 256.021 156.272 248.426C155.291 246.756 154.592 244.937 154.205 243.039C153.279 239.291 151.626 238.251 150.472 234.005C147.451 222.904 150.743 169.267 151.042 168.996C152.267 167.87 150.358 168.426 147.608 164.835C145.37 161.985 146.411 158.936 141.908 151.611C141.819 151.413 141.684 151.238 141.516 151.099C141.348 150.961 141.151 150.863 140.939 150.813C140.069 150.671 140.782 151.796 141.181 152.68C141.779 153.977 140.554 153.15 140.326 153.136C139.742 153.065 139.343 153.734 141.338 154.903C141.58 155.045 142.235 155.06 142.406 155.288C142.574 155.606 142.694 155.947 142.763 156.299C142.763 156.499 142.763 156.556 142.577 156.57C141.01 156.755 140.326 157.083 139.029 155.986C138.288 155.359 136.963 153.934 136.991 152.965C137.063 150.115 136.578 148.69 139.029 147.265C139.984 146.738 140.155 145.84 140.212 144.785C140.312 142.847 142.264 143.902 143.062 141.38C144.202 137.789 149.417 140.952 148.662 138.943C146.354 132.887 139.115 128.968 140.112 127.229C141.053 125.705 144.473 128.54 145.37 129.566C148.135 132.687 153.208 136.934 153.664 139.898C153.949 141.665 155.189 142.292 156.428 146.453C158.666 153.92 161.202 157.097 161.501 165.348C161.972 178.173 175.21 227.393 175.224 227.435C175.595 228.205 176.478 227.891 176.435 227.079C175.922 217.517 170.593 206.972 171.904 206.901C174.065 206.751 176.229 207.174 178.174 208.127C179.485 209.11 187.579 216.306 188.291 216.976C191.241 219.683 194.533 220.624 196.656 223.873C198.167 226.11 198.566 222.776 186.71 239.491L186.724 239.434ZM143.974 138.059C144.629 134.696 144.558 134.825 144.957 135.209C145.672 135.993 146.254 136.888 146.681 137.86C146.981 138.416 146.069 138.216 146.054 138.159C144.017 138.53 143.774 138.701 143.888 138.116L143.974 138.059ZM205.135 231.568C205.075 231.687 204.994 231.793 204.893 231.881C204.814 231.803 204.743 231.716 204.679 231.625C200.803 225.925 198.851 224.5 197.939 222.875C196.784 220.838 193.45 218.729 191.441 217.503C190.115 216.691 187.536 214.04 185.498 212.43C180.896 208.796 180.782 206.502 174.212 205.604C173.215 205.462 171.69 205.904 171.448 205.704C171.206 205.505 171.448 205.163 172.602 202.94C173.57 200.933 174.73 199.023 176.065 197.24C181.964 188.918 180.767 189.345 182.777 185.911C186.311 179.812 187.237 180.553 192.894 174.511C200.646 166.217 201.031 166.032 201.544 164.721C201.772 164.108 201.23 163.823 200.945 164.123C183.218 182.847 184.914 179.085 181.28 185.868C173.229 200.916 177.932 190.442 171.063 202.826C170.336 204.122 162.513 168.369 163.268 165.975C163.482 165.291 164.28 166.388 170.393 163.795C179.642 159.848 174.768 163.054 182.506 157.354C186.425 154.504 188.206 151.326 192.182 153.706C197.312 156.784 199.164 155.516 203.981 156.941C206.531 157.696 206.275 158.537 216.977 162.854C220.112 164.123 220.553 166.887 220.924 169.609C222.762 183.959 221.48 185.697 205.049 231.625L205.135 231.568Z" fill="#000001"/>
<path d="M201.516 28.605C201.772 28.605 201.957 28.605 201.872 29.0467C201.33 31.3695 204.48 33.3217 203.853 34.4475C203 36.0766 202.4 37.8255 202.071 39.6345C202 40.062 202.385 39.834 202.542 39.9622C203.14 40.4752 203.425 37.7962 204.964 34.9035C206.004 32.9797 202.983 31.056 203.055 29.403C203.14 27.2797 203.967 28.491 205.905 29.1037C206.988 29.4457 207.814 29.1037 208.113 29.8162C208.307 30.197 208.63 30.4956 209.025 30.6577C209.421 30.8199 209.86 30.8348 210.265 30.6997C211.576 30.3577 211.234 31.3695 212.773 31.6972C214.312 32.025 214.298 31.9537 214.298 32.5237C214.298 32.7232 214.298 32.937 214.056 32.994C213.323 33.244 212.625 33.5838 211.975 34.0057C211.163 34.3905 211.519 33.735 210.165 34.6185C208.128 35.9437 208.47 35.103 207.615 35.7727C206.19 36.927 203.069 40.2187 204.066 41.0025C205.064 41.7862 205.178 39.7342 207.201 37.8817C209.225 36.0292 208.911 36.927 209.595 36.4567C211.02 35.5732 211.22 35.445 211.434 35.4307C212.659 35.331 213.6 34.305 214.526 34.2195C215.78 34.1055 215.452 33.0082 215.723 33.0937C215.994 33.1792 215.994 33.45 216.093 33.6922C216.991 35.9295 219.784 30.657 217.632 29.9587C215.481 29.2605 214.911 30.771 214.569 30.6855C211.263 29.9445 213.315 30.372 211.405 29.3887C210.522 28.9327 209.823 30.0015 209.111 28.9897C207.985 27.3652 208.797 28.9897 203.511 26.8807C203.14 26.7382 202.941 26.2252 202.656 25.8832C202.371 25.5412 201.929 25.5412 201.402 25.3987C199.905 25.0425 199.022 28.1347 201.516 28.605ZM217.02 31.1557C217.461 31.284 217.134 32.3242 216.735 32.1105C215.224 31.341 216.492 30.9847 217.02 31.1557ZM201.345 26.5102C201.516 26.5102 201.815 27.009 201.972 27.2512C201.188 27.8925 200.817 26.7097 201.33 26.5102H201.345Z" fill="#000001"/>
<path d="M211.462 182.12C206.731 184.543 200.418 188.946 185.812 189.844C185.256 189.844 184.701 190.1 184.772 190.67C184.843 191.24 196.956 191.881 211.847 183.289C213.813 182.134 212.759 181.465 211.462 182.12Z" fill="#000001"/>
<path d="M188.035 186.011C195.659 183.631 205.463 176.036 204.836 175.209C203.596 173.627 200.461 179.983 187.622 184.999C187.166 185.17 187.365 185.868 188.035 186.011Z" fill="#000001"/>
<path d="M182.663 89.0254C182.905 89.2819 188.534 94.3834 189.147 92.8017C189.375 92.2032 189.004 92.0322 187.038 90.6642C176.792 83.7102 172.446 69.6312 167.572 66.6102C167.244 66.4107 166.974 67.1944 167.102 67.4367C168.222 68.671 169.237 69.996 170.137 71.3982C176.108 80.9457 174.626 80.3187 182.663 89.0254Z" fill="#000001"/>
<path d="M183.39 161.301C180.155 163.225 180.084 164.151 178.402 164.878C177.291 165.362 168.427 168.825 169.182 170.122C169.596 170.791 169.524 170.25 179.157 165.961C180.528 165.108 181.833 164.156 183.062 163.111C187.935 159.591 188.619 159.648 188.377 158.836C187.95 157.539 185.299 160.175 183.39 161.301Z" fill="#000001"/>
<path d="M179.684 114.404C182.62 114.404 183.603 111.041 182.663 109.231C182.543 109.034 182.471 108.81 182.456 108.579C182.442 108.348 182.483 108.117 182.577 107.906C183.176 106.481 186.154 103.788 186.439 107.607C186.439 108.063 187.18 108.205 187.493 107.607C187.692 107.209 187.774 106.763 187.731 106.321C187.688 105.879 187.522 105.457 187.252 105.104C186.983 104.751 186.619 104.481 186.204 104.324C185.788 104.167 185.337 104.129 184.9 104.215C182.591 104.714 180.069 107.65 181.295 110.029C181.708 110.842 181.295 112.523 180.44 112.723C178.744 113.093 178.63 112.295 178.217 113.065C177.803 113.834 178.715 114.404 179.684 114.404Z" fill="#000001"/>
<path d="M169.838 49.5101C169.923 48.5411 169.638 45.8193 172.046 45.1638C173.984 44.6223 175.053 44.8076 175.922 43.2971C176.663 42.0146 175.922 41.6156 176.621 40.2903C178.958 36.0153 177.761 36.6708 180.896 35.3028C189.275 31.5836 182.321 26.8383 181.58 29.2323C181.195 30.3866 181.936 31.0421 182.435 29.9306C182.691 29.3463 185.413 31.4553 182.207 33.2081C179.243 34.8183 177.803 34.8041 177.005 36.8418C176.207 38.8796 174.925 40.1763 174.968 42.0573C174.968 43.3968 173.728 43.3541 172.289 43.6391C171.15 43.9509 170.152 44.6451 169.465 45.6052C168.777 46.5653 168.441 47.7327 168.512 48.9116C168.541 51.4766 169.652 51.7331 169.838 49.5101Z" fill="#000001"/>
<path d="M151.883 61.0097C150.961 60.9883 150.045 61.1626 149.196 61.5213C148.345 61.8799 147.581 62.4146 146.952 63.0902C146.112 63.9879 146.952 64.8002 147.807 64.0734C148.445 63.4156 149.236 62.9275 150.11 62.6537C150.983 62.3798 151.911 62.3291 152.809 62.5059C163.468 63.9309 164.209 77.0837 175.11 90.0797C176.407 91.6044 177.419 91.0487 176.92 90.1509C174.909 87.6667 173.048 85.0638 171.348 82.3562C162.357 66.2252 161.487 62.4347 151.883 61.0097Z" fill="#000001"/>
<path d="M152.738 74.2334C152.239 74.7606 151.869 75.9006 152.61 75.6584C153.636 75.2451 154.605 74.0339 157.184 74.0624C160.761 74.0624 162.057 79.3064 162.3 76.6416C162 72.4094 156.813 69.8586 152.738 74.2334Z" fill="#000001"/>
<path d="M155.203 91.0059C155.973 91.0059 156.015 90.4929 156.215 89.7091C155.987 88.1986 154.79 88.2841 154.505 89.1534C154.22 90.0226 154.362 90.9631 155.203 91.0059Z" fill="#000001"/>
<path d="M143.661 62.9051C143.661 63.8599 143.661 65.5984 144.644 65.4416C145.941 65.2421 143.803 62.8196 145.784 59.7416C146.004 59.315 146.317 58.9427 146.699 58.6519C147.081 58.3611 147.523 58.1589 147.993 58.0601C148.158 57.9929 148.302 57.884 148.412 57.744C148.521 57.6041 148.594 57.4381 148.62 57.2621C148.549 55.3811 143.604 57.4474 143.661 62.9051Z" fill="#000001"/>
<path d="M134.213 10.1227C134.64 10.2367 135.253 9.62396 135.937 9.50996C136.963 9.33896 139.685 9.25346 140.212 10.2937C141.908 13.557 136.165 17.6325 135.467 22.1355C135.025 24.9855 138.018 25.7265 142.592 26.9947C146.539 28.0777 139.186 33.108 141.438 36.1432C141.808 36.6277 142.863 37.5682 143.718 38.466C145.869 40.7175 143.076 43.7242 144.487 44.0235C145.898 44.3227 146.938 39.6202 144.487 37.2405C141.765 34.5045 141.48 35.4592 144.373 30.4005C145.128 29.0752 145.542 26.7525 143.889 26.04C142.236 25.3275 142.464 25.8547 138.502 24.3157C132.46 21.993 143.946 15.096 141.224 9.72371C140.597 8.18471 139.272 8.35571 137.462 8.18471C133.814 8.09921 133.686 9.98021 134.213 10.1227Z" fill="#000001"/>
<path d="M142.521 109.189C142.521 108.676 142.207 107.179 141.01 107.151C139.585 107.151 139.371 109.274 140.397 110.314C141.01 110.956 142.179 111.098 142.521 109.189Z" fill="#000001"/>
<path d="M137.319 88.5978C137.205 87.1728 136.079 87.1728 135.894 87.7143C134.996 89.3245 136.863 90.835 137.319 88.5978Z" fill="#000001"/>
<path d="M112.838 138.202C80.3622 149.018 81.488 148.177 82.4142 149.972C89.012 163.695 88.784 163.054 89.9667 163.182C93.2157 162.242 119.721 153.449 119.892 153.364C121.716 152.737 120.661 151.739 115.788 141.85C114.078 138.259 114.135 137.774 112.838 138.202ZM118.994 152.238L90.038 161.8C89.696 161.8 90.1662 162.612 83.7252 149.873C83.3975 149.231 81.6732 150.101 102.008 143.289C105.542 142.106 108.905 140.924 112.681 139.684C113.664 139.37 112.881 138.401 116.956 146.809C119.535 152.281 119.649 152.024 119.008 152.238H118.994Z" fill="#000001"/>
<path d="M111.185 151.198C111 151.198 92.546 156.898 91.235 157.525C90.5938 157.795 90.0095 158.65 90.7933 158.85C91.0498 158.85 111.898 152.765 112.995 151.497C112.425 150.442 111.94 151.169 111.185 151.198Z" fill="#000001"/>
<path d="M93.9853 149.958C96.3366 149.545 96.2511 148.79 97.6333 148.861C100.27 148.505 101.267 147.436 103.661 146.837C106.055 146.239 106.739 146.41 108.606 145.412C109.062 145.184 109.375 144.386 108.406 144.187C108.235 144.187 107.138 144.515 105.556 144.914C99.9276 146.339 99.1438 147.393 97.6903 147.365C96.0088 147.365 96.0801 148.049 93.5721 148.604C87.8721 149.873 88.7983 150.414 87.2736 150.485C87.0883 150.485 86.7891 150.927 86.7321 151.098C86.6038 151.611 88.1571 151.91 88.8981 151.497C90.4834 150.672 92.2086 150.151 93.9853 149.958Z" fill="#000001"/>
<path d="M98.8018 78.8506C100.882 76.0861 99.6568 76.4851 106.511 78.8506C106.654 78.9167 106.814 78.9357 106.968 78.9049C107.122 78.8742 107.262 78.7952 107.369 78.6793C107.475 78.5635 107.542 78.417 107.559 78.2607C107.576 78.1045 107.544 77.9468 107.466 77.8104C106.716 76.1824 105.849 74.6109 104.872 73.1079C104.288 72.3669 107.295 69.1606 107.352 67.4079C107.437 64.8286 102.151 69.1179 100.996 67.6074C100.07 66.3961 98.6593 65.0566 97.7331 63.5889C97.3198 62.9191 96.5218 62.6769 96.3936 63.4749C95.2963 70.7566 97.0633 68.9611 93.0021 70.5286C90.7363 71.4121 90.6651 71.3979 90.5368 72.1246C90.1378 74.4189 95.4388 74.7466 95.4531 75.7869C95.5386 80.4751 95.3533 80.1901 95.4531 81.1734C95.4731 81.3052 95.5285 81.4293 95.6131 81.5324C95.6979 81.6354 95.8088 81.7137 95.9344 81.7589C96.0599 81.8042 96.1953 81.8148 96.3262 81.7893C96.4572 81.7641 96.5789 81.7038 96.6786 81.6151C97.4624 80.7547 98.1727 79.8299 98.8018 78.8506ZM95.5956 74.0769C90.7221 72.2529 90.7221 72.6519 96.0801 70.7139C97.2486 70.2864 96.6928 67.7356 97.5051 65.5411C102.592 70.3006 98.3031 69.9016 105.742 68.1916C104.644 71.1271 102.364 71.9679 103.675 73.4926C104.408 74.5184 105.043 75.611 105.571 76.7559C105.927 77.3544 104.146 76.7559 101.623 75.8154C100.198 75.2881 100.526 74.2194 97.1631 78.9219C95.8521 80.7601 97.7473 74.8749 95.5956 74.0769Z" fill="#000001"/>
<path d="M100.768 151.796C103.618 150.97 103.803 150.713 104.815 150.699C105.054 150.715 105.29 150.645 105.481 150.501C105.672 150.357 105.805 150.149 105.855 149.915C105.855 148.277 100.155 150.884 97.4621 151.34C95.0111 151.754 89.4394 153.378 88.6271 154.262C88.0571 154.889 88.3706 155.245 89.1401 155.288C91.9901 154.319 91.6054 154.19 92.6314 153.863C98.5879 152.238 94.4839 153.606 100.768 151.796Z" fill="#000001"/>
<path d="M95.7376 106.51C94.8541 106.624 91.9186 107.265 91.4626 107.393C90.6219 107.607 87.9856 101.779 87.3159 103.945C85.6771 109.274 87.9286 108.405 83.7534 108.761C82.0434 108.904 82.0149 109.36 82.0576 110.186C82.0576 110.742 82.2571 110.856 83.2831 111.483C87.9144 114.333 85.8909 112.267 85.5061 117.539C85.5061 118.266 85.8766 118.608 86.4609 118.423C87.7861 117.981 89.8809 114.148 90.8499 114.647C92.2519 115.132 93.6789 115.541 95.1249 115.872C95.9371 116.1 96.2791 115.673 96.1794 115.046C96.0226 114.048 94.9254 113.621 93.8281 111.597C93.5859 111.127 93.6429 111.341 96.3646 108.077C96.8349 107.479 97.0486 106.353 95.7376 106.51ZM92.6026 112.21C93.9279 114.547 94.4694 114.333 91.8901 113.763C88.8976 113.093 90.2514 112.894 87.1449 116.043C86.7744 116.428 87.2161 114.86 87.3301 113.378C87.4584 111.611 84.0384 111.041 83.5396 110.115C83.7819 110.115 83.3544 110.115 85.5489 109.901C88.2564 109.673 86.9739 108.149 88.1566 105.726C89.1256 106.553 90.1231 109.032 91.0066 108.847C98.2314 107.165 91.0351 109.445 92.6026 112.21Z" fill="#000001"/>
</svg>
