<svg width="103" height="80" viewBox="0 0 103 80" fill="none" xmlns="http://www.w3.org/2000/svg">
<g clip-path="url(#clip0_158_17564)">
<mask id="mask0_158_17564" style="mask-type:alpha" maskUnits="userSpaceOnUse" x="0" y="0" width="103" height="80">
<rect width="103" height="80" fill="url(#paint0_linear_158_17564)"/>
</mask>
<g mask="url(#mask0_158_17564)">
<line x1="22.9922" y1="-40.4316" x2="-54.1393" y2="326.55" stroke="#EDA076"/>
<line x1="38.6504" y1="-37.1407" x2="-38.4811" y2="329.841" stroke="#EDA076"/>
<line x1="54.3077" y1="-33.8497" x2="-22.8238" y2="333.132" stroke="#EDA076"/>
<line x1="69.9659" y1="-30.5588" x2="-7.16563" y2="336.423" stroke="#EDA076"/>
<line x1="85.6241" y1="-27.2678" x2="8.49257" y2="339.714" stroke="#EDA076"/>
<line x1="101.281" y1="-23.9769" x2="24.1498" y2="343.005" stroke="#EDA076"/>
<line x1="116.94" y1="-20.686" x2="39.808" y2="346.296" stroke="#EDA076"/>
<line x1="132.598" y1="-17.395" x2="55.4662" y2="349.587" stroke="#EDA076"/>
<line x1="148.255" y1="-14.1041" x2="71.1234" y2="352.878" stroke="#EDA076"/>
<line x1="163.913" y1="-10.8131" x2="86.7816" y2="356.169" stroke="#EDA076"/>
<line x1="179.571" y1="-7.52216" x2="102.44" y2="359.46" stroke="#EDA076"/>
<line x1="-104.385" y1="79.4346" x2="262.596" y2="156.566" stroke="#EDA076"/>
<line x1="-101.094" y1="63.7768" x2="265.887" y2="140.908" stroke="#EDA076"/>
<line x1="-97.8034" y1="48.1188" x2="269.178" y2="125.25" stroke="#EDA076"/>
<line x1="-94.5124" y1="32.461" x2="272.47" y2="109.593" stroke="#EDA076"/>
<line x1="-91.2214" y1="16.803" x2="275.761" y2="93.9346" stroke="#EDA076"/>
<line x1="-87.9304" y1="1.14521" x2="279.052" y2="78.2767" stroke="#EDA076"/>
<line x1="-84.6393" y1="-14.5127" x2="282.343" y2="62.6188" stroke="#EDA076"/>
<line x1="-81.3483" y1="-30.1706" x2="285.634" y2="46.9609" stroke="#EDA076"/>
<line x1="-78.0573" y1="-45.8285" x2="288.925" y2="31.303" stroke="#EDA076"/>
<line x1="-74.7663" y1="-61.4864" x2="292.216" y2="15.6451" stroke="#EDA076"/>
<path d="M32.6546 18.4542C26.6005 5.79008 27.3641 -7.7969 34.7098 -19.3964L56.9254 -10.6888C52.2648 -3.22399 51.8293 5.45741 55.6756 13.5033C59.593 21.6979 67.6348 28.5774 78.0166 32.6467C88.3984 36.7159 100.301 37.6537 111.115 35.2333C121.733 32.8569 130.466 27.4276 135.429 20.0812L157.644 28.7888C149.994 40.2691 136.376 48.8174 119.663 52.5579C102.744 56.3446 84.058 54.887 67.7257 48.4854C51.3934 42.0838 38.7834 31.2747 32.6546 18.4542Z" fill="#FFA9D8" stroke="#E25450"/>
</g>
<path d="M77.4606 65.2404C77.4562 65.7155 77.0896 66.1073 76.6174 66.1447L39.7167 69.0748C39.2414 69.1126 38.8168 68.7793 38.7404 68.3089L77.4606 65.2404ZM77.4606 65.2404C77.4619 65.0993 77.5257 58.1777 77.5164 50.5746C77.5084 43.9575 77.4454 36.766 77.2326 33.1101C77.3542 33.142 77.4839 33.1604 77.6195 33.1496C78.043 33.116 78.4705 32.9144 78.8322 32.6858C79.2128 32.4453 79.6029 32.1222 79.9631 31.7496C80.3492 31.3501 80.6685 30.9265 80.8891 30.5067C81.1029 30.0998 81.259 29.6298 81.2218 29.161L81.2215 29.1583C81.2189 29.1248 81.2109 29.0227 81.1674 28.8991C81.1258 28.7807 81.0653 28.6786 80.9994 28.5895C80.8766 28.4237 80.6919 28.2465 80.4331 28.0344C79.9056 27.6023 78.904 26.8933 76.979 25.6728C74.7457 24.257 71.7349 22.4502 68.5013 20.585C66.2226 19.2707 63.0856 17.5051 60.3893 16.0765C59.0425 15.3629 57.7964 14.7284 56.8186 14.2755C56.3311 14.0497 55.8977 13.8632 55.5457 13.7341C55.3702 13.6697 55.2023 13.6149 55.0504 13.5769C54.9169 13.5435 54.7247 13.5041 54.5295 13.5196C54.3525 13.5336 54.1868 13.5915 54.0702 13.6379C53.9394 13.69 53.798 13.758 53.6521 13.8347C53.3597 13.9884 53.0049 14.2005 52.6062 14.4544C51.8064 14.9638 50.7835 15.6709 49.6425 16.4903C47.3581 18.1308 44.5659 20.2457 42.0677 22.1882M77.4606 65.2404L29.948 32.5112C30.2077 32.1166 30.7934 31.5299 31.5146 30.8647C32.2639 30.1734 33.2386 29.3273 34.3507 28.3931C36.5761 26.5237 39.3736 24.283 42.0677 22.1882M42.0677 22.1882L42.2231 22.3882L68.2697 20.7441C64.7069 18.6907 61.554 16.9534 59.2004 15.7345C58.0249 15.1258 57.04 14.6418 56.2991 14.3115C55.93 14.147 55.6093 14.0152 55.3495 13.9247C55.2201 13.8797 55.0938 13.8407 54.9769 13.8134C54.8762 13.7899 54.7177 13.7589 54.5496 13.7722C54.3811 13.7856 54.2278 13.842 54.1326 13.8806C54.0207 13.9259 53.8997 13.9846 53.7753 14.0502C53.5257 14.182 53.2177 14.3654 52.8636 14.5897C52.1529 15.0399 51.2126 15.6828 50.0982 16.4776C48.0021 17.9724 45.2635 20.0237 42.2231 22.3882L42.0677 22.1882ZM33.9337 35.4372C33.302 35.4892 32.5885 35.3955 31.9725 35.2189C31.5221 35.0899 31.0683 34.9016 30.685 34.6458C30.3102 34.3957 29.9334 34.0337 29.7634 33.5333L29.7634 33.5332C29.6075 33.074 29.8325 32.6868 29.948 32.5113L33.9337 35.4372ZM33.9337 35.4372C34.6354 43.0227 38.6992 68.0557 38.7403 68.3086L33.9337 35.4372ZM35.3788 33.5206L35.3496 33.0505L34.9507 33.2989C34.7122 33.2477 34.4594 33.2931 34.2507 33.4321L34.2501 33.4325C34.1347 33.5095 34.0661 33.5515 34.0292 33.5728C33.9155 33.6034 33.7184 33.6264 33.4458 33.6143C33.154 33.6013 32.8265 33.5504 32.5143 33.4655C32.2179 33.3849 31.9613 33.2808 31.7713 33.169C31.808 33.13 31.8488 33.0873 31.894 33.0408C32.3487 32.5738 33.2015 31.7751 34.7808 30.4284C36.8103 28.6978 39.5882 26.4477 42.6029 24.0931C45.8674 21.5433 48.8075 19.3364 51.0145 17.7624C52.1191 16.9746 53.0327 16.3507 53.7081 15.9228C54.0469 15.7082 54.3151 15.5497 54.5118 15.4459C54.5792 15.4104 54.6331 15.384 54.6747 15.365C54.7148 15.3764 54.7663 15.3927 54.8307 15.4151C55.0303 15.4846 55.3054 15.5964 55.6567 15.7529C56.3566 16.0649 57.3104 16.5329 58.4746 17.1359C60.8004 18.3403 63.9313 20.0652 67.4817 22.1114C70.6787 23.9539 73.6623 25.7424 75.8829 27.1467C77.6122 28.2403 78.5515 28.894 79.056 29.2788C79.1767 29.3708 79.2692 29.4449 79.3394 29.5037C79.3182 29.5555 79.2903 29.6144 79.2544 29.6802C79.1276 29.9128 78.9234 30.1899 78.6462 30.4766L78.6462 30.4767C78.384 30.7479 78.1122 30.9713 77.8753 31.1247C77.7571 31.2013 77.6568 31.2545 77.5785 31.2878C77.578 31.288 77.5775 31.2882 77.5771 31.2884C77.4168 31.2168 77.1292 31.0755 76.6322 30.8037L76.631 30.803C76.4192 30.6877 76.174 30.662 75.9479 30.7247L75.4101 30.4356L75.4717 31.0426C75.3247 31.2304 75.2543 31.4717 75.2835 31.7157L75.2835 31.716C75.5733 34.1371 75.6671 41.9506 75.6833 49.483C75.6972 55.9722 75.6539 62.1844 75.6363 64.3853L40.4136 67.1821C40.06 64.9886 39.0657 58.781 38.0768 52.2573C36.9301 44.6932 35.8028 36.7803 35.6731 34.1492C35.6611 33.9062 35.5534 33.6814 35.3788 33.5206ZM79.5349 29.6845C79.5345 29.6844 79.5306 29.6801 79.5243 29.672C79.5322 29.6805 79.5353 29.6846 79.5349 29.6845ZM77.7093 31.3428C77.7087 31.3426 77.7077 31.3423 77.7064 31.3418C77.7133 31.3438 77.7146 31.3445 77.7093 31.3428ZM54.7576 15.3312C54.7576 15.3313 54.7561 15.3318 54.7531 15.3326C54.7562 15.3316 54.7577 15.3312 54.7576 15.3312ZM54.5934 15.345C54.5903 15.3446 54.5886 15.3443 54.5885 15.3443C54.5885 15.3442 54.5901 15.3444 54.5934 15.345ZM34.0657 33.5618L34.0654 33.5619L34.0657 33.5618Z" fill="#202F3D" stroke="white" stroke-width="1.5781"/>
<path d="M76.828 32.5558C76.9267 32.6028 77.0107 32.6402 77.0826 32.6698C77.2707 32.7472 77.4317 32.7957 77.5895 32.7832C77.9254 32.7566 78.2926 32.5914 78.635 32.3751C78.9874 32.1524 79.355 31.8489 79.6979 31.4941C80.0655 31.1139 80.3619 30.7181 80.5629 30.3356C80.7603 29.9601 80.8841 29.5621 80.8545 29.19L80.8544 29.1881C80.8524 29.1628 80.8474 29.0991 80.8198 29.0209C80.7933 28.9455 80.7531 28.8757 80.703 28.808C80.6077 28.6792 80.4512 28.5249 80.1992 28.3185C79.6902 27.9015 78.7047 27.2025 76.7813 25.983C74.5537 24.5708 71.5476 22.7668 68.3167 20.9032C66.0402 19.59 62.9073 17.8269 60.2163 16.401C58.8715 15.6885 57.6321 15.0576 56.6632 14.6088C56.1795 14.3848 55.7565 14.203 55.4182 14.0789C55.2493 14.0169 55.0948 13.9668 54.9603 13.9332C54.8356 13.902 54.6911 13.8751 54.5577 13.8857C54.4367 13.8953 54.3122 13.9365 54.2052 13.9791C54.0907 14.0248 53.9616 14.0865 53.822 14.1598C53.5426 14.3066 53.1976 14.5126 52.8026 14.7642C52.0113 15.2681 50.9948 15.9707 49.8559 16.7886C47.5766 18.4253 44.7885 20.5372 42.2922 22.4782C39.6005 24.5711 36.8068 26.8088 34.5861 28.6743C33.476 29.6068 32.5061 30.4488 31.7627 31.1346C31.0343 31.8065 30.4844 32.3629 30.2539 32.7131M76.828 32.5558L30.4626 32.8504L30.254 32.7131C30.254 32.7131 30.2539 32.7131 30.2539 32.7131M76.828 32.5558C77.0693 35.9608 77.1395 43.5741 77.148 50.5749C77.1573 58.1761 77.0935 65.0962 77.0922 65.2369C77.0896 65.5213 76.8701 65.7559 76.5873 65.7784L39.6867 68.7084C39.402 68.731 39.1478 68.5314 39.1021 68.2498C39.102 68.2497 39.102 68.2497 39.102 68.2497L39.5182 68.1821L76.828 32.5558ZM30.2539 32.7131C30.1476 32.8747 30.0134 33.1297 30.1103 33.4149L30.1103 33.415C30.2443 33.8094 30.549 34.1139 30.8879 34.34C31.2314 34.5693 31.6478 34.7439 32.0727 34.8656C32.7967 35.0731 33.6299 35.15 34.2648 35.0205L30.2539 32.7131ZM31.241 33.2143C31.3146 33.1219 31.4353 32.9842 31.6298 32.7844C32.0962 32.3053 32.9589 31.4981 34.5414 30.1487C36.5762 28.4136 39.3585 26.16 42.3757 23.8034C45.643 21.2515 48.5875 19.0411 50.8002 17.4631C51.9071 16.6737 52.8269 16.0454 53.5105 15.6123C53.8529 15.3954 54.1303 15.2312 54.3394 15.1209C54.4441 15.0656 54.5258 15.027 54.5862 15.0025C54.615 14.9909 54.634 14.9845 54.6446 14.9812C54.6551 14.9827 54.6733 14.9859 54.7008 14.9923C54.761 15.0063 54.8435 15.0307 54.9505 15.068C55.1641 15.1424 55.4499 15.2588 55.8053 15.4172C56.5147 15.7335 57.4758 16.2052 58.6426 16.8095C60.9749 18.0173 64.1109 19.745 67.6642 21.7929C70.8639 23.6371 73.8522 25.4282 76.0783 26.836C77.8108 27.9317 78.7607 28.5921 79.2779 28.9865C79.5371 29.1842 79.6797 29.3091 79.7555 29.3838C79.7382 29.4952 79.6863 29.6538 79.5761 29.8559C79.4303 30.1233 79.2045 30.4266 78.9094 30.7319L78.9094 30.7319C78.6305 31.0205 78.3374 31.2624 78.0741 31.4329C77.8442 31.5819 77.6691 31.6554 77.5617 31.6804C77.5349 31.6703 77.4959 31.6546 77.4412 31.6304C77.2703 31.5549 76.9703 31.4077 76.4549 31.1259L76.4543 31.1256C76.288 31.035 76.0872 31.0368 75.9232 31.129L75.8446 31.0867L75.8536 31.1755C75.7034 31.2931 75.6245 31.4811 75.6473 31.6721L75.6473 31.6722C75.9404 34.1205 76.0336 41.9628 76.0497 49.4821C76.0644 56.3429 76.0152 62.8939 76 64.7248L40.1038 67.5751C39.8093 65.7512 38.758 59.2084 37.7126 52.3123C36.5675 44.7587 35.4361 36.8219 35.3051 34.1671C35.2957 33.9769 35.1884 33.8053 35.0217 33.7136L35.0201 33.6877L34.9981 33.7014C34.8232 33.616 34.6159 33.6295 34.4534 33.7378L34.453 33.738C34.3312 33.8193 34.2548 33.8663 34.2088 33.8927C34.1885 33.9043 34.1762 33.9108 34.1704 33.9137C34.004 33.9674 33.7475 33.9954 33.4285 33.9812C33.1084 33.967 32.7542 33.9116 32.4169 33.8199C32.0778 33.7277 31.7717 33.6031 31.54 33.459C31.4012 33.3727 31.3047 33.2892 31.241 33.2143ZM77.6079 31.696C77.608 31.696 77.6068 31.6958 77.6042 31.695C77.6066 31.6956 77.6079 31.6959 77.6079 31.696Z" fill="#202F3D" stroke="#202F3D" stroke-width="0.843266"/>
<g clip-path="url(#clip1_158_17564)">
<path d="M55.5733 18.4951C53.905 18.6275 36.6357 31.8228 36.0166 32.9482C35.3974 34.0736 40.7259 66.8511 40.7259 66.8511L76.5762 64.0045C76.5762 64.0045 76.8803 31.9462 76.078 30.595C75.2757 29.2439 57.2417 18.3626 55.5733 18.4951Z" fill="#E23223"/>
<path d="M76.5835 64.1142L40.7332 66.9609C40.6751 66.9655 40.6233 66.9248 40.614 66.8674C40.6007 66.7854 39.2674 58.5771 38.0269 50.3367C35.5119 33.6292 35.8168 33.0749 35.9171 32.8927C36.2611 32.2672 41.0251 28.4924 45.3329 25.2583C47.4517 23.6675 54.4514 18.4703 55.563 18.382C56.477 18.3094 61.6602 21.1802 66.2062 23.8911C70.6954 26.5681 75.7292 29.7895 76.1726 30.5363C76.2974 30.7465 76.4779 31.5809 76.6045 36.3807C76.6791 39.2087 76.7241 43.0522 76.7382 47.8045C76.7622 55.895 76.6873 63.9237 76.6865 64.0039C76.6859 64.0618 76.6413 64.1097 76.5836 64.1143L76.5835 64.1142ZM40.8181 66.7299L76.4638 63.8995C76.4724 62.9385 76.5371 55.3989 76.5146 47.8049C76.4725 33.591 76.1617 30.956 75.9803 30.6505C75.6288 30.0586 71.3776 27.2352 66.0916 24.0831C60.5037 20.7508 56.2797 18.5493 55.5807 18.6048C54.8922 18.6595 50.9223 21.3413 45.4671 25.437C40.5885 29.0997 36.3923 32.4927 36.1129 33.0004C36.04 33.133 36.0064 34.0503 36.6005 38.7045C36.9653 41.5623 37.5196 45.4647 38.248 50.3032C39.4134 58.0455 40.6609 65.7597 40.8181 66.7299Z" fill="#1B1B1B"/>
<path d="M76.3805 33.2783C76.3034 31.7847 76.2044 30.8081 76.078 30.595C75.2757 29.2439 57.2417 18.3626 55.5733 18.4951C53.905 18.6275 36.6357 31.8228 36.0165 32.9482C35.9286 33.1082 35.9607 33.9074 36.0806 35.1606C39.1375 33.041 56.0297 21.349 56.7758 21.2898C57.5042 21.2319 72.9237 31.0669 76.3805 33.2784L76.3805 33.2783Z" fill="#AD2014"/>
<path d="M76.3885 33.3884C76.3646 33.3903 76.3403 33.3845 76.3194 33.3712C74.5245 32.2229 69.8816 29.2605 65.5458 26.5582C58.3597 22.0797 56.9703 21.4041 56.7817 21.3999C56.1708 21.4851 45.2817 28.9148 36.1435 35.2512C36.1108 35.2738 36.0686 35.2774 36.0327 35.2607C35.9967 35.244 35.9723 35.2095 35.9685 35.17C35.7974 33.3812 35.8515 33.0135 35.9178 32.8931C36.2618 32.2676 41.0258 28.4928 45.3336 25.2586C47.4524 23.6679 54.4521 18.4706 55.5637 18.3823C56.4777 18.3098 61.6609 21.1805 66.2069 23.8914C70.6962 26.5684 75.7299 29.7899 76.1734 30.5367C76.2565 30.6768 76.38 31.1128 76.4913 33.2712C76.4935 33.3131 76.4721 33.3526 76.4359 33.3737C76.4211 33.3822 76.4049 33.3872 76.3885 33.3885L76.3885 33.3884ZM56.7662 21.177C56.9035 21.1661 57.2684 21.1371 65.6133 26.3369C69.823 28.9599 74.333 31.8356 76.2565 33.0655C76.1538 31.201 76.0407 30.7512 75.9811 30.6508C75.6297 30.0589 71.3784 27.2356 66.0924 24.0834C60.5045 20.7513 56.2805 18.5497 55.5815 18.6052C54.893 18.6599 50.9232 21.3417 45.4679 25.4374C40.5893 29.1001 36.3931 32.493 36.1137 33.0008C36.0821 33.0582 36.0271 33.3649 36.1733 34.9585C37.7923 33.8362 42.6658 30.4636 47.2311 27.3588C56.2618 21.217 56.6283 21.1879 56.7662 21.177L56.7662 21.177Z" fill="#AD2014"/>
<path d="M55.7634 19.3172C56.8777 19.3843 76.6564 32.0194 77.5489 31.9485C78.4414 31.8777 80.3155 30.0811 80.2321 29.0309C80.1487 27.9807 56.8644 14.5241 55.257 14.6517C53.6495 14.7793 31.6342 31.9402 31.9677 32.9221C32.3013 33.9039 34.594 34.4161 35.5903 34.0788C36.5866 33.7415 54.649 19.25 55.7634 19.3172Z" fill="#3054E5"/>
<path d="M77.5589 32.0605C77.3942 32.0736 76.8262 31.8517 73.862 30.1066C71.8601 28.9281 69.2179 27.322 66.6627 25.7687C61.7992 22.8121 56.2866 19.4611 55.7578 19.4293C55.6091 19.4203 54.8235 19.8018 51.2319 22.4573C48.7968 24.2578 45.7214 26.6182 43.0081 28.7008C38.693 32.0128 36.0281 34.0495 35.6273 34.1852C34.5837 34.5385 32.2214 34.0134 31.8631 32.9585C31.8361 32.879 31.8646 32.7818 31.9556 32.6435C32.7203 31.4816 38.3338 26.863 43.558 22.8011C46.37 20.6146 49.0571 18.5972 51.1242 17.1204C53.4774 15.4392 54.8653 14.5713 55.2493 14.5408C56.2204 14.4637 63.9556 18.7553 68.3731 21.3033C71.5088 23.1119 74.424 24.8613 76.5817 26.2292C80.3106 28.5933 80.3345 28.8941 80.3447 29.0225C80.3847 29.5267 80.0084 30.2417 79.338 30.9352C78.7121 31.5826 78.0137 32.0244 77.5589 32.0605L77.5589 32.0605ZM55.7384 19.2066C55.7505 19.2056 55.7614 19.2055 55.7713 19.2061C56.3148 19.2388 60.4825 21.7501 66.7789 25.5776C69.3216 27.1233 71.9509 28.7217 73.9476 29.8976C76.6753 31.5041 77.4079 31.8393 77.5422 31.8376C77.9386 31.8061 78.5962 31.381 79.1773 30.7799C79.7944 30.1415 80.1563 29.4749 80.1218 29.0403C80.1005 28.9572 79.7654 28.5082 76.3707 26.3604C74.2042 24.9897 71.2951 23.2456 68.1791 21.4496C61.2561 17.459 55.9464 14.7097 55.267 14.7637C54.5876 14.8176 49.4683 18.4668 43.1018 23.4401C40.1633 25.7355 37.4545 27.93 35.4744 29.6193C32.3801 32.2591 32.0884 32.791 32.0773 32.8938C32.3525 33.6765 34.0483 34.1421 35.1023 34.0585C35.2733 34.0449 35.4272 34.0169 35.5557 33.9734C35.9416 33.8427 39.308 31.259 42.872 28.5235C45.5861 26.4403 48.6623 24.0792 51.0991 22.2775C54.6506 19.6516 55.4773 19.2273 55.7384 19.2066L55.7384 19.2066Z" fill="#3054E5"/>
<path d="M65.1071 19.5733C60.2393 16.8412 55.9175 14.5992 55.257 14.6517C53.6496 14.7793 31.6342 31.9402 31.9677 32.9221C32.0934 33.2921 32.4974 33.5953 33.0053 33.8116C36.3784 31.1429 54.0761 17.071 55.7376 16.391C56.5775 16.0473 61.613 18.3551 65.1071 19.5733Z" fill="#668BFF"/>
<path d="M33.0154 33.9236C32.9977 33.925 32.9796 33.9222 32.9627 33.915C32.5495 33.739 32.0233 33.4302 31.8631 32.9585C31.8361 32.879 31.8646 32.7818 31.9556 32.6435C32.7203 31.4816 38.3338 26.863 43.558 22.8011C46.37 20.6146 49.0571 18.5972 51.1242 17.1204C53.4774 15.4392 54.8653 14.5713 55.2493 14.5408C56.135 14.4705 62.4773 17.9689 65.163 19.4763C65.2135 19.5047 65.234 19.5669 65.2102 19.6197C65.1864 19.6726 65.126 19.6984 65.0715 19.6794C63.9316 19.282 62.6253 18.7677 61.3619 18.2704C58.8763 17.292 56.3056 16.2804 55.7812 16.495C54.2549 17.1197 39.0289 29.1834 34.0255 33.1477C33.6412 33.4522 33.3208 33.706 33.0759 33.8998C33.0582 33.9138 33.0371 33.9218 33.0154 33.9236ZM32.0773 32.8939C32.1802 33.1863 32.5029 33.4648 32.9897 33.6828C33.2272 33.4949 33.5293 33.2555 33.8866 32.9724C38.8962 29.0033 54.1409 16.9247 55.6965 16.2881C56.2634 16.0561 58.2461 16.8036 61.4437 18.0624C62.2406 18.376 63.0544 18.6964 63.8322 18.9897C59.0269 16.3237 55.7875 14.7223 55.267 14.7637C54.5844 14.8179 49.4682 18.4668 43.1017 23.4401C40.1633 25.7355 37.4545 27.93 35.4743 29.6193C32.3801 32.2591 32.0883 32.791 32.0773 32.8938L32.0773 32.8939Z" fill="#668BFF"/>
<path d="M41.5685 49.1053C41.939 48.4926 55.6089 46.274 56.2859 46.7757C56.9628 47.2774 58.0306 60.1898 57.6013 60.6679C57.1721 61.1459 43.893 62.8845 43.5958 62.3514C43.2987 61.8183 41.198 49.7181 41.5685 49.1053Z" fill="#3054E5"/>
<path d="M46.1119 62.4724C45.0808 62.5543 44.2477 62.5891 43.8359 62.543C43.6374 62.5207 43.5394 62.4809 43.4973 62.4055C43.3254 62.097 42.7007 58.7241 42.2205 55.7759C42.0231 54.5637 41.7509 52.8157 41.5753 51.3717C41.3226 49.2942 41.4273 49.1211 41.472 49.0472C41.523 48.9627 41.6587 48.7384 44.8501 48.1094C46.9617 47.6932 49.6863 47.2472 51.9607 46.9455C53.1452 46.7884 54.1565 46.6778 54.8853 46.6261C56.0061 46.5463 56.2577 46.616 56.3516 46.6856C56.4241 46.7393 56.5941 46.8653 56.8665 48.5495C57.0211 49.5048 57.1829 50.8031 57.3346 52.3039C57.5252 54.1908 57.6795 56.1911 57.7577 57.7916C57.8907 60.5116 57.7403 60.6791 57.6837 60.7422C57.6331 60.7985 57.5148 60.9302 55.5667 61.2701C54.4273 61.4689 52.9096 61.6947 51.2932 61.9058C49.6188 62.1245 47.6462 62.3505 46.1119 62.4724L46.1119 62.4724ZM43.6871 62.2855C43.9463 62.4304 46.3981 62.2992 50.6321 61.7653C54.6161 61.2628 57.2988 60.7672 57.5163 60.5932C57.6593 60.3443 57.5949 57.6395 57.2405 53.6763C56.8602 49.4242 56.4385 47.0313 56.2184 46.8652C55.9904 46.7013 53.3428 46.9114 48.8854 47.6236C44.6058 48.3075 41.856 48.9431 41.6626 49.1642C41.5599 49.3655 41.7032 51.2114 42.4446 55.7605C43.0029 59.1861 43.5546 61.9959 43.6871 62.2856L43.6871 62.2855Z" fill="#3054E5"/>
<path d="M42.7587 49.5309C43.321 48.9368 47.9653 48.1677 48.2666 48.5441C48.5678 48.9205 50.2651 59.9113 50.0149 60.1823C49.7647 60.4533 44.6926 61.5384 44.4265 61.3083C44.1604 61.0781 42.1964 50.1251 42.7587 49.5309L42.7587 49.5309Z" fill="#F7DF95"/>
<path d="M44.8558 61.4427C44.4463 61.4752 44.3904 61.4267 44.3532 61.3946C44.312 61.3589 44.2429 61.2991 43.9699 59.9933C43.8016 59.1889 43.6027 58.1294 43.4098 57.0102C42.9398 54.2836 42.6216 51.9012 42.5585 50.6373C42.5145 49.7535 42.5939 49.5441 42.6774 49.4558L42.7586 49.5327L42.6774 49.4558C43.1862 48.9183 46.6494 48.2868 47.8634 48.3373C48.1348 48.3486 48.286 48.3913 48.3538 48.476C48.5987 48.782 49.3708 53.8148 49.458 54.3876C49.6851 55.879 49.8778 57.2653 50.0006 58.2909C50.2204 60.1263 50.1491 60.2035 50.097 60.2599C49.8818 60.493 47.5181 60.9887 47.2493 61.0444C46.5438 61.1907 45.8844 61.3099 45.3925 61.38C45.1666 61.4121 44.9918 61.4318 44.8559 61.4426L44.8558 61.4427ZM44.5025 61.2227C44.6818 61.2688 45.661 61.147 47.2431 60.8174C48.7195 60.5098 49.7613 60.2193 49.9222 60.1155C49.9741 59.8491 49.7545 57.8101 49.2247 54.3409C48.713 50.9902 48.2926 48.8057 48.1792 48.616C48.0681 48.5233 47.1744 48.5154 45.591 48.7922C44.1958 49.0361 43.0644 49.3722 42.8398 49.6095C42.8133 49.6375 42.6895 49.8621 42.8521 51.5419C42.9491 52.5435 43.1304 53.8921 43.3766 55.4419C43.8384 58.3487 44.3611 60.9329 44.5025 61.2226L44.5025 61.2227Z" fill="#F7DF95"/>
<path d="M49.7232 48.4278C49.5878 48.7763 51.1459 59.661 51.4715 60.066C51.7971 60.471 56.2253 60.1348 56.5108 59.917C56.7963 59.6992 55.8794 47.911 55.528 47.5396C55.1766 47.1681 49.8586 48.0792 49.7232 48.4278L49.7232 48.4278Z" fill="#F7DF95"/>
<path d="M54.7725 60.2864C54.5006 60.308 54.2364 60.3251 54.0109 60.3366C53.5583 60.3598 52.9027 60.382 52.3498 60.3558C51.6222 60.3214 51.4511 60.2202 51.3834 60.136C51.1567 59.8541 50.5592 55.9202 50.3128 54.2419C50.2796 54.0154 49.4998 48.6913 49.6179 48.3872C49.6445 48.3187 49.7153 48.1365 51.5263 47.7815C52.3714 47.6158 53.3154 47.4726 54.0514 47.3984C55.4172 47.2608 55.551 47.4023 55.6081 47.4627C55.6542 47.5114 55.7501 47.6127 55.954 49.3603C56.0697 50.3518 56.1998 51.7069 56.3204 53.1758C56.5321 55.7561 56.7295 58.9097 56.6627 59.7364C56.6495 59.8994 56.628 59.9673 56.5776 60.0058C56.4256 60.1218 55.5663 60.2234 54.7725 60.2865L54.7725 60.2864ZM49.8266 48.4741C49.7943 48.7651 50.1094 51.3202 50.5386 54.2409C51.0083 57.4372 51.4278 59.8043 51.5586 59.9973C51.6227 60.0759 52.2127 60.2036 53.9798 60.1144C55.2854 60.0484 56.2515 59.9123 56.4255 59.8364C56.5131 59.5109 56.3925 56.9147 56.1397 53.7176C55.8436 49.9726 55.5663 47.8191 55.4438 47.6148C55.3113 47.514 54.2769 47.5492 52.6117 47.8158C51.0608 48.0642 49.9737 48.3472 49.8266 48.4741L49.8266 48.4741Z" fill="#F7DF95"/>
<path d="M43.7442 49.0945L42.7242 51.3723C42.7641 51.8141 42.8205 52.3137 42.8885 52.8481L44.6695 48.859C44.3366 48.9326 44.0213 49.0122 43.7442 49.0944L43.7442 49.0945Z" fill="white"/>
<path d="M42.8986 52.9591C42.8903 52.9598 42.8819 52.9595 42.8734 52.9583C42.8238 52.9509 42.7851 52.9115 42.7788 52.8618C42.7081 52.3068 42.6526 51.8089 42.614 51.3819C42.6123 51.3628 42.6155 51.3436 42.6234 51.3261L43.6434 49.0483C43.6567 49.0185 43.6823 48.9961 43.7136 48.9868C43.9866 48.9058 44.3005 48.8259 44.6465 48.7494C44.688 48.7403 44.7306 48.7551 44.7573 48.7878C44.784 48.8205 44.79 48.8655 44.7728 48.9041L42.9918 52.8932C42.9748 52.9311 42.9387 52.9559 42.8986 52.9591L42.8986 52.9591ZM42.8394 51.3908C42.868 51.7031 42.9055 52.0531 42.9514 52.4354L44.4774 49.0172C44.2416 49.0726 44.0235 49.1294 43.8264 49.1867L42.8394 51.3908L42.8394 51.3908Z" fill="white"/>
<path d="M45.7434 48.6523L43.0986 54.3624C43.1392 54.6372 43.1816 54.9151 43.2252 55.1936L47.2853 48.4618C46.8447 48.4913 46.3009 48.5594 45.7434 48.6523L45.7434 48.6523Z" fill="white"/>
<path d="M43.2342 55.3038C43.2241 55.3046 43.214 55.304 43.2038 55.302C43.1576 55.293 43.1221 55.256 43.1149 55.2096C43.0707 54.9267 43.0281 54.6468 42.9882 54.3775C42.985 54.356 42.9882 54.334 42.9973 54.3142L45.6421 48.604C45.6576 48.5705 45.6887 48.5468 45.7252 48.5407C46.2938 48.4459 46.845 48.378 47.278 48.3489C47.3196 48.3461 47.3592 48.3667 47.3809 48.4023C47.4026 48.4379 47.4027 48.4826 47.3812 48.5182L43.321 55.2501C43.3021 55.2815 43.2694 55.301 43.2341 55.3038L43.2342 55.3038ZM43.2143 54.3778C43.2382 54.539 43.2631 54.7039 43.2887 54.8708L47.0775 48.5888C46.7069 48.6215 46.2704 48.6779 45.8202 48.7516L43.2143 54.3778Z" fill="white"/>
<path d="M73.3368 64.2614L62.2687 65.1403C62.2687 65.1403 60.1841 44.6618 60.6155 44.32C61.0469 43.9783 72.9766 43.7673 73.3637 44.1728C73.7508 44.5783 73.3368 64.2614 73.3368 64.2614Z" fill="#3054E5"/>
<path d="M73.3455 64.3728L62.2774 65.2516C62.2168 65.2565 62.1635 65.212 62.1574 65.1515C62.1521 65.1003 61.6308 59.9723 61.1689 54.8683C60.2289 44.4835 60.4351 44.3201 60.5459 44.2324C60.9012 43.9509 66.3808 43.8634 67.0044 43.8544C68.6322 43.8308 70.1478 43.8345 71.272 43.8649C73.2759 43.9191 73.3855 44.0339 73.4444 44.0956C73.5262 44.1813 73.7177 44.382 73.607 54.3704C73.5525 59.2856 73.4494 64.2145 73.4483 64.2637C73.4471 64.3212 73.4027 64.3683 73.3454 64.3728L73.3455 64.3728ZM62.3688 65.0201L73.227 64.1579C73.3883 56.4443 73.5328 44.9045 73.2786 44.2494C73.0272 44.1212 70.8063 44.0222 66.9813 44.0783C63.3711 44.1314 60.9834 44.283 60.6969 44.4023C60.6209 44.6443 60.6239 46.3907 61.4078 55.0275C61.828 59.6576 62.2918 64.2605 62.3688 65.0201Z" fill="#3054E5"/>
<path d="M62.9351 56.1177C63.2635 56.0916 63.5086 55.8043 63.4825 55.4759C63.4564 55.1475 63.1691 54.9024 62.8407 54.9285C62.5123 54.9546 62.2672 55.2419 62.2933 55.5703C62.3194 55.8987 62.6067 56.1438 62.9351 56.1177Z" fill="#F7DF95"/>
<path d="M62.9442 56.2298C62.5549 56.2607 62.213 55.9692 62.182 55.5798C62.1511 55.1905 62.4427 54.8486 62.8321 54.8177C63.2215 54.7868 63.5633 55.0784 63.5942 55.4677C63.6251 55.857 63.3336 56.1989 62.9442 56.2298ZM62.8498 55.0406C62.5833 55.0617 62.3838 55.2956 62.4049 55.5621C62.4261 55.8285 62.66 56.028 62.9265 56.0069C63.193 55.9857 63.3925 55.7518 63.3713 55.4853C63.3502 55.2189 63.1162 55.0194 62.8498 55.0406Z" fill="#F7DF95"/>
<path d="M62.0907 46.1253C62.3981 45.8556 71.8186 45.641 72.0961 46.0145C72.3735 46.388 72.5093 53.3212 72.1449 53.6971C71.7806 54.073 63.2363 54.1008 62.9033 53.741C62.5704 53.3812 61.7833 46.3949 62.0907 46.1253Z" fill="#668BFF"/>
<path d="M71.0951 53.9917C70.8325 54.0126 70.507 54.0325 70.1028 54.0504C69.0044 54.0989 67.619 54.118 66.3018 54.1028C65.3797 54.0921 64.5791 54.0653 63.9865 54.0252C62.9474 53.9549 62.8646 53.8654 62.8201 53.8173C62.5993 53.5788 62.3227 51.4317 62.214 50.5197C62.0364 49.0295 61.8747 47.1902 61.9138 46.4404C61.9278 46.1714 61.9647 46.0864 62.0157 46.0416C62.0597 46.0031 62.1413 45.9314 63.4088 45.8501C64.1451 45.8029 65.1419 45.7622 66.2155 45.7357C68.0423 45.6904 70.5563 45.6781 71.6297 45.7922C72.0696 45.839 72.1451 45.8949 72.1846 45.9481C72.4238 46.2701 72.4699 49.7076 72.4717 49.8538C72.484 50.8216 72.4729 51.7246 72.4405 52.3963C72.3819 53.6123 72.2753 53.7224 72.224 53.7752C72.1805 53.8201 72.0908 53.9126 71.095 53.9917L71.0951 53.9917ZM62.9824 53.663C63.1628 53.7788 64.8083 53.895 67.5247 53.8836C70.2472 53.8721 71.891 53.7388 72.0642 53.6186C72.1778 53.4648 72.2771 52.1265 72.2482 49.8527C72.2215 47.75 72.1042 46.277 72.0088 46.0882C71.8122 45.9796 70.1995 45.8884 67.0808 45.9413C64.319 45.9882 62.4068 46.1158 62.1676 46.21C62.0879 46.4096 62.1323 47.7671 62.3742 49.9539C62.6098 52.0848 62.8674 53.5065 62.9824 53.663Z" fill="#668BFF"/>
<path d="M63.21 56.8853C63.5174 56.6157 71.6417 55.9351 71.9192 56.3086C72.1966 56.6821 72.289 62.629 71.9246 63.0049C71.5603 63.3808 64.002 64.0135 63.669 63.6537C63.336 63.2939 62.9026 57.155 63.21 56.8853Z" fill="#668BFF"/>
<path d="M67.6823 63.725C66.4354 63.824 65.2751 63.879 64.5361 63.8705C63.8124 63.8622 63.6537 63.7974 63.59 63.7286C63.3895 63.5118 63.2278 61.9262 63.1492 61.0003C63.0273 59.5638 62.9706 58.1152 63.0081 57.3957C63.0323 56.9313 63.0886 56.8448 63.1394 56.8003C63.3673 56.6003 66.1098 56.3609 66.945 56.2924C68.6793 56.1497 70.8217 56.0285 71.6348 56.1149C71.8903 56.1421 71.9703 56.185 72.012 56.2409C72.2508 56.5625 72.2765 59.5279 72.2774 59.654C72.2847 60.5935 72.273 62.8083 72.008 63.0817C71.8065 63.2896 70.2109 63.487 68.9078 63.6159C68.4979 63.6564 68.0854 63.693 67.6823 63.7251L67.6823 63.725ZM63.752 63.574C63.924 63.6803 65.4001 63.6869 67.8158 63.4897C70.1524 63.299 71.701 63.0529 71.8484 62.9251C71.9614 62.7968 72.0691 61.6319 72.0538 59.656C72.0398 57.8368 71.9309 56.5528 71.8364 56.3808C71.6558 56.2809 70.2475 56.2663 67.5482 56.4692C65.2293 56.6437 63.4922 56.8656 63.2897 56.9677C63.2015 57.1375 63.1815 58.3431 63.3178 60.2827C63.45 62.164 63.6415 63.4273 63.752 63.574Z" fill="#668BFF"/>
<path d="M56.9911 35.6028C60.7692 35.3028 63.6488 32.7527 63.4228 29.907C63.1969 27.0613 59.951 24.9976 56.1729 25.2976C52.3948 25.5976 49.5152 28.1477 49.7412 30.9934C49.9671 33.8391 53.2131 35.9028 56.9911 35.6028Z" fill="#3054E5"/>
<path d="M57.0002 35.7131C53.1667 36.0175 49.8604 33.9037 49.6299 31.0011C49.3994 28.0985 52.3307 25.4894 56.1642 25.185C59.9977 24.8806 63.304 26.9944 63.5345 29.897C63.765 32.7996 60.8337 35.4087 57.0002 35.7131ZM56.1819 25.4079C52.4713 25.7025 49.6321 28.2037 49.8528 30.9834C50.0735 33.7631 53.2719 35.7848 56.9825 35.4902C60.6931 35.1955 63.5323 32.6944 63.3116 29.9147C63.0909 27.135 59.8925 25.1133 56.1819 25.4079Z" fill="#3054E5"/>
<path d="M56.9089 34.5602C59.9225 34.321 62.2193 32.2869 62.0391 30.0171C61.8588 27.7473 59.2698 26.1013 56.2563 26.3405C53.2427 26.5798 50.9459 28.6138 51.1261 30.8837C51.3064 33.1535 53.8954 34.7995 56.9089 34.5602Z" fill="#F7DF95"/>
<path d="M56.917 34.6703C53.8468 34.9141 51.1987 33.2187 51.0139 30.8911C50.8291 28.5634 53.1764 26.4715 56.2466 26.2277C59.3168 25.9839 61.9648 27.6792 62.1497 30.0069C62.3345 32.3345 59.9871 34.4265 56.917 34.6703ZM56.2643 26.4506C53.3171 26.6846 51.0617 28.6686 51.2368 30.8734C51.4118 33.0781 53.9521 34.6814 56.8993 34.4474C59.8465 34.2134 62.1018 32.2293 61.9268 30.0246C61.7517 27.8199 59.2115 26.2165 56.2643 26.4506Z" fill="#F7DF95"/>
<path d="M53.2632 27.2822L51.1398 31.0249C51.1715 31.2787 51.2335 31.5242 51.323 31.7595L54.4291 26.7277C54.0102 26.8775 53.6192 27.0644 53.2633 27.2822L53.2632 27.2822Z" fill="white"/>
<path d="M51.3301 31.8706C51.3236 31.8711 51.3172 31.8711 51.3106 31.8704C51.2682 31.8664 51.2318 31.8387 51.2167 31.7989C51.1232 31.5529 51.0594 31.2971 51.027 31.0385C51.0241 31.0146 51.0288 30.9904 51.0407 30.9694L53.1642 27.2268C53.1736 27.2103 53.187 27.1965 53.2031 27.1866C53.5683 26.963 53.9676 26.7731 54.3897 26.6221C54.4345 26.6061 54.4844 26.6201 54.5143 26.657C54.5442 26.694 54.5475 26.7457 54.5225 26.7861L51.4164 31.8179C51.3974 31.8485 51.3652 31.8678 51.3301 31.8706ZM51.2537 31.0472C51.2746 31.1991 51.3072 31.35 51.351 31.4981L54.1577 26.9514C53.8721 27.0702 53.5997 27.2078 53.3444 27.3623L51.2537 31.0472L51.2537 31.0472Z" fill="white"/>
<path d="M56.2564 26.3388C56.1121 26.3502 55.9695 26.3659 55.8286 26.3854L51.7958 32.6072C52.0758 32.9803 52.4333 33.3127 52.8517 33.5933L56.3756 26.3304C56.336 26.333 56.2962 26.3356 56.2564 26.3387L56.2564 26.3388Z" fill="white"/>
<path d="M52.8578 33.706C52.8329 33.708 52.8078 33.7015 52.7867 33.6874C52.3541 33.3971 51.9897 33.0567 51.7036 32.6755C51.6755 32.638 51.6737 32.587 51.6992 32.5476L55.7321 26.3258C55.7497 26.2985 55.7784 26.2803 55.8105 26.2758C55.995 26.2503 56.1818 26.2317 56.3658 26.22C56.4055 26.2175 56.4436 26.2363 56.4658 26.2693C56.4879 26.3023 56.4909 26.3446 56.4735 26.3804L52.9496 33.6433C52.9355 33.6724 52.9095 33.694 52.8782 33.7024C52.8715 33.7043 52.8647 33.7054 52.8579 33.7059L52.8578 33.706ZM51.9298 32.603C52.169 32.9082 52.4629 33.1852 52.8053 33.4285L56.1875 26.4578C56.0891 26.4666 55.9901 26.4776 55.8918 26.4905L51.9298 32.603Z" fill="white"/>
</g>
<mask id="path-60-inside-1_158_17564" fill="white">
<path d="M10.8192 24.7671C10.9035 24.5984 10.9597 24.2723 11.3477 24.5085C12.9277 25.47 12.6072 25.3182 13.0346 24.8627C13.6756 24.1936 13.8387 23.9349 14.1592 24.0137C14.2997 24.053 14.266 24.3398 14.2323 24.4916C13.8443 26.2909 13.7206 25.813 14.4515 26.0829C14.6202 26.1504 14.7664 26.2291 15.4524 26.5158C15.517 26.5455 15.5718 26.593 15.6101 26.6528C15.6485 26.7126 15.6689 26.7822 15.6689 26.8532C15.6689 26.9243 15.6485 26.9939 15.6101 27.0537C15.5718 27.1135 15.517 27.161 15.4524 27.1906C13.3607 27.9722 13.833 27.826 13.6925 28.7088C13.5294 29.7209 13.5013 29.9739 13.2876 29.9964C13.2005 30.0082 13.1119 29.9908 13.0357 29.9471C12.9595 29.9034 12.8998 29.8357 12.8659 29.7546C11.9887 27.6236 12.5623 28.1858 11.7413 28.332C10.33 28.5851 10.2569 28.7256 10.0544 28.4782C9.85202 28.2308 10.2625 27.8653 10.4649 27.6348C11.7919 26.1054 11.3983 27.1175 10.8192 24.7671ZM11.2353 27.8428C11.5357 27.8204 11.8275 27.7321 12.0899 27.5842C12.7984 27.3537 12.7984 28.7706 13.0796 29.0124C13.1476 28.7152 13.1853 28.4119 13.192 28.1071C13.192 27.4886 13.5294 27.4436 14.5528 26.8813C14.7777 26.752 14.266 26.7014 13.6868 26.409C13.1077 26.1166 13.5688 25.5543 13.58 25.1607C13.58 24.9246 13.1864 25.4925 12.939 25.8017C12.5566 26.2797 12.5116 25.5206 11.4377 25.2001C11.6176 26.1279 12.2418 26.3696 11.6401 27.0107C10.7629 27.9497 10.9991 27.8653 11.2353 27.8428Z"/>
</mask>
<path d="M10.8192 24.7671C10.9035 24.5984 10.9597 24.2723 11.3477 24.5085C12.9277 25.47 12.6072 25.3182 13.0346 24.8627C13.6756 24.1936 13.8387 23.9349 14.1592 24.0137C14.2997 24.053 14.266 24.3398 14.2323 24.4916C13.8443 26.2909 13.7206 25.813 14.4515 26.0829C14.6202 26.1504 14.7664 26.2291 15.4524 26.5158C15.517 26.5455 15.5718 26.593 15.6101 26.6528C15.6485 26.7126 15.6689 26.7822 15.6689 26.8532C15.6689 26.9243 15.6485 26.9939 15.6101 27.0537C15.5718 27.1135 15.517 27.161 15.4524 27.1906C13.3607 27.9722 13.833 27.826 13.6925 28.7088C13.5294 29.7209 13.5013 29.9739 13.2876 29.9964C13.2005 30.0082 13.1119 29.9908 13.0357 29.9471C12.9595 29.9034 12.8998 29.8357 12.8659 29.7546C11.9887 27.6236 12.5623 28.1858 11.7413 28.332C10.33 28.5851 10.2569 28.7256 10.0544 28.4782C9.85202 28.2308 10.2625 27.8653 10.4649 27.6348C11.7919 26.1054 11.3983 27.1175 10.8192 24.7671ZM11.2353 27.8428C11.5357 27.8204 11.8275 27.7321 12.0899 27.5842C12.7984 27.3537 12.7984 28.7706 13.0796 29.0124C13.1476 28.7152 13.1853 28.4119 13.192 28.1071C13.192 27.4886 13.5294 27.4436 14.5528 26.8813C14.7777 26.752 14.266 26.7014 13.6868 26.409C13.1077 26.1166 13.5688 25.5543 13.58 25.1607C13.58 24.9246 13.1864 25.4925 12.939 25.8017C12.5566 26.2797 12.5116 25.5206 11.4377 25.2001C11.6176 26.1279 12.2418 26.3696 11.6401 27.0107C10.7629 27.9497 10.9991 27.8653 11.2353 27.8428Z" fill="#000001"/>
<path d="M10.8192 24.7671L6.26951 25.8882L5.85695 24.2139L6.62811 22.6716L10.8192 24.7671ZM11.3477 24.5085L8.91183 28.5113L8.91138 28.511L11.3477 24.5085ZM13.0346 24.8627L9.61747 21.6565L9.63412 21.6388L9.65094 21.6212L13.0346 24.8627ZM14.1592 24.0137L15.2768 19.4632L15.35 19.4811L15.4226 19.5015L14.1592 24.0137ZM14.2323 24.4916L9.65179 23.5039L9.6549 23.4895L9.6581 23.4751L14.2323 24.4916ZM14.4515 26.0829L16.0746 21.6872L16.1335 21.709L16.1918 21.7323L14.4515 26.0829ZM15.4524 26.5158L17.2597 22.1927L17.3327 22.2232L17.4046 22.2562L15.4524 26.5158ZM15.4524 27.1906L17.4021 31.4514L17.2496 31.5212L17.0925 31.5799L15.4524 27.1906ZM13.6925 28.7088L18.3199 29.4456L18.3185 29.4541L13.6925 28.7088ZM13.2876 29.9964L12.6606 25.3528L12.7287 25.3436L12.7971 25.3364L13.2876 29.9964ZM12.8659 29.7546L8.54215 31.5606L8.53747 31.5494L8.53286 31.5381L12.8659 29.7546ZM11.7413 28.332L10.9144 23.7198L10.9198 23.7189L11.7413 28.332ZM10.4649 27.6348L14.0042 30.7056L13.9951 30.7161L13.986 30.7265L10.4649 27.6348ZM11.2353 27.8428L10.791 23.1782L10.8386 23.1737L10.8862 23.1701L11.2353 27.8428ZM12.0899 27.5842L9.78913 23.5022L10.196 23.2729L10.64 23.1284L12.0899 27.5842ZM13.0796 29.0124L17.647 30.0588L15.9126 37.629L10.0243 32.5651L13.0796 29.0124ZM13.192 28.1071L17.8778 28.1071L17.8778 28.1586L17.8766 28.2101L13.192 28.1071ZM14.5528 26.8813L16.8885 30.9434L16.849 30.9661L16.8092 30.988L14.5528 26.8813ZM13.58 25.1607L18.2657 25.1607L18.2657 25.2277L18.2638 25.2946L13.58 25.1607ZM12.939 25.8017L16.5979 28.7289L12.939 25.8017ZM11.4377 25.2001L6.83765 26.0922L5.3648 18.4978L12.7776 20.71L11.4377 25.2001ZM11.6401 27.0107L8.21592 23.812L8.22355 23.8039L11.6401 27.0107ZM6.62811 22.6716C6.56258 22.8027 6.51958 22.9082 6.53222 22.8782C6.53658 22.8678 6.5317 22.8794 6.53947 22.8609C6.54338 22.8517 6.54956 22.837 6.55682 22.82C6.57108 22.7866 6.59412 22.7333 6.62313 22.67C6.70313 22.4955 7.01015 21.8188 7.65626 21.1727C8.44576 20.3832 9.64217 19.7398 11.1133 19.7398C12.3702 19.7398 13.3063 20.2151 13.784 20.5059L8.91138 28.511C9.1951 28.6837 9.97872 29.1113 11.1133 29.1113C12.4622 29.1113 13.5665 28.5157 14.2829 27.7993C14.8559 27.2263 15.1088 26.648 15.1424 26.5747C15.1691 26.5164 15.1946 26.4549 15.1681 26.5176C15.16 26.5368 15.0968 26.6894 15.0102 26.8627L6.62811 22.6716ZM13.7836 20.5057C14.238 20.7822 14.4194 20.8946 14.5464 20.9674C14.6023 20.9994 14.5368 20.9589 14.4075 20.8999C14.3094 20.8552 13.8998 20.6692 13.3101 20.5818C12.601 20.4768 11.6667 20.5202 10.7135 20.9745C9.882 21.3708 9.40282 21.9147 9.26952 22.0687C9.17754 22.175 9.03441 22.3636 9.1879 22.1637C9.2703 22.0564 9.41667 21.8706 9.61747 21.6565L16.4517 28.0689C16.5457 27.9687 16.6086 27.8873 16.6205 27.8717C16.7036 27.7635 16.503 28.0312 16.3563 28.2007C16.1683 28.4181 15.637 29.0093 14.7458 29.4341C13.7329 29.9169 12.7312 29.9698 11.9367 29.8521C11.2616 29.7521 10.7486 29.5313 10.5187 29.4265C10.2577 29.3074 10.0321 29.1815 9.88912 29.0997C9.61849 28.9447 9.24739 28.7155 8.91183 28.5113L13.7836 20.5057ZM9.65094 21.6212C9.80122 21.4644 9.86151 21.397 10.0266 21.222C10.1324 21.1098 10.3739 20.8527 10.6612 20.6056C10.9475 20.3593 11.5534 19.877 12.4466 19.5771C13.4684 19.2339 14.4537 19.261 15.2768 19.4632L13.0415 28.5642C13.7044 28.727 14.549 28.7569 15.4301 28.461C16.1825 28.2083 16.6476 27.8178 16.7729 27.7099C16.8992 27.6012 16.9598 27.5294 16.8447 27.6514C16.7889 27.7106 16.5884 27.9265 16.4182 28.1042L9.65094 21.6212ZM15.4226 19.5015C17.1332 19.9804 18.0708 21.215 18.4881 22.118C18.8591 22.9207 18.9235 23.6369 18.9406 23.9696C18.9766 24.6685 18.8647 25.2456 18.8064 25.5081L9.6581 23.4751C9.6335 23.5858 9.55539 23.9436 9.58153 24.4513C9.59373 24.6884 9.64231 25.3161 9.98111 26.0492C10.3662 26.8826 11.2554 28.0666 12.8957 28.5259L15.4226 19.5015ZM18.8127 25.4793C18.6943 26.0282 18.5933 26.4144 18.5376 26.6305C18.5028 26.7654 18.5131 26.731 18.5273 26.6625C18.5364 26.6182 18.561 26.4952 18.5801 26.3267C18.5983 26.1668 18.6248 25.8555 18.5909 25.4599C18.5556 25.0494 18.4482 24.4642 18.1343 23.829C17.8048 23.1621 17.3413 22.6296 16.8337 22.2352C16.3652 21.8711 15.9291 21.6788 15.6814 21.5835C15.4361 21.4891 15.2423 21.4404 15.1897 21.4273C14.9159 21.3589 15.5725 21.5018 16.0746 21.6872L12.8285 30.4786C12.9651 30.529 13.363 30.6304 12.919 30.5195C12.8787 30.5095 11.9627 30.3183 11.0836 29.6352C9.82979 28.661 9.34472 27.3214 9.25373 26.2616C9.18831 25.4997 9.32609 24.8803 9.34954 24.7668C9.39037 24.5691 9.44253 24.3698 9.4625 24.2923C9.5163 24.0835 9.57617 23.8547 9.65179 23.5039L18.8127 25.4793ZM16.1918 21.7323C16.3105 21.7798 16.4103 21.8234 16.4821 21.8552C16.5248 21.8742 16.6375 21.9247 16.6669 21.9379C16.7778 21.9873 16.952 22.064 17.2597 22.1927L13.6452 30.839C13.2669 30.6809 13.0249 30.5748 12.8491 30.4964C12.7351 30.4456 12.7367 30.4459 12.6832 30.4222C12.6586 30.4113 12.6769 30.4197 12.7113 30.4335L16.1918 21.7323ZM17.4046 22.2562C18.2859 22.66 19.0312 23.3081 19.5535 24.1218L11.6668 29.1838C12.1123 29.8779 12.7482 30.4309 13.5002 30.7755L17.4046 22.2562ZM19.5535 24.1218C20.0761 24.936 20.3547 25.8839 20.3547 26.8532L10.9832 26.8532C10.9832 27.6805 11.2209 28.4892 11.6668 29.1838L19.5535 24.1218ZM20.3547 26.8532C20.3547 27.8223 20.0762 28.7703 19.5535 29.5847L11.6668 24.5226C11.2208 25.2175 10.9832 26.0263 10.9832 26.8532L20.3547 26.8532ZM19.5535 29.5847C19.0314 30.3982 18.2855 31.0472 17.4021 31.4514L13.5027 22.9297C12.7485 23.2748 12.1122 23.8288 11.6668 24.5226L19.5535 29.5847ZM17.0925 31.5799C16.5313 31.7896 16.3005 31.8793 16.1889 31.928C16.1418 31.9486 16.2328 31.9121 16.3838 31.8236C16.5312 31.7372 16.884 31.5163 17.2574 31.1184C17.6824 30.6655 18.0103 30.1171 18.2086 29.5171C18.3789 29.0017 18.4035 28.5884 18.408 28.5205C18.4277 28.2238 18.3988 28.9498 18.3199 29.4456L9.06502 27.9719C9.05636 28.0263 9.02112 28.4396 9.05723 27.8976C9.09234 27.3706 9.24204 25.9646 10.4241 24.7051C11.2307 23.8456 12.1958 23.4456 12.4406 23.3388C12.8332 23.1675 13.3277 22.9824 13.8123 22.8013L17.0925 31.5799ZM18.3185 29.4541C18.2708 29.7506 18.1685 30.4629 18.02 30.9914C17.9452 31.2576 17.7047 32.0953 17.0323 32.9102C16.1365 33.9959 14.9225 34.5359 13.7781 34.6564L12.7971 25.3364C12.3675 25.3816 11.8103 25.5046 11.2209 25.807C10.6202 26.1151 10.1511 26.525 9.8038 26.9459C9.20188 27.6754 9.01869 28.3824 8.99801 28.456C8.95572 28.6065 8.94795 28.6809 8.97385 28.5319C8.99623 28.403 9.02069 28.247 9.06637 27.9635L18.3185 29.4541ZM13.9146 34.64C12.8044 34.7899 11.6761 34.569 10.7047 34.0119L15.3667 25.8823C14.5478 25.4127 13.5966 25.2264 12.6606 25.3528L13.9146 34.64ZM10.7047 34.0119C9.73369 33.4551 8.97355 32.5934 8.54215 31.5606L17.1896 27.9487C16.826 27.0781 16.1852 26.3517 15.3667 25.8823L10.7047 34.0119ZM8.53286 31.5381C8.26916 30.8975 8.10519 30.4357 7.99493 30.1084C7.96933 30.0324 7.94736 29.9658 7.93268 29.9213C7.91505 29.868 7.91165 29.858 7.91171 29.8582C7.91271 29.8611 7.91845 29.8777 7.92776 29.903C7.9368 29.9275 7.95368 29.9724 7.97749 30.0301C8.01154 30.1127 8.12643 30.3883 8.3368 30.7167C8.54058 31.0348 9.01739 31.6963 9.89329 32.2079C10.8927 32.7915 11.938 32.9099 12.7843 32.8084C13.4839 32.7246 13.9873 32.4973 14.1174 32.4386C14.268 32.3706 14.3975 32.2996 14.3353 32.3326C14.0819 32.467 13.4655 32.7844 12.5628 32.9452L10.9198 23.7189C10.7116 23.756 10.4975 23.8161 10.2862 23.8986C10.0805 23.9788 9.92564 24.0634 9.94472 24.0533C9.9471 24.052 9.98514 24.0318 10.0266 24.0105C10.0691 23.9886 10.1538 23.9458 10.2611 23.8973C10.4196 23.8258 10.9475 23.5901 11.6689 23.5036C12.5371 23.3995 13.6018 23.5211 14.6194 24.1154C15.5134 24.6375 16.0072 25.317 16.2282 25.662C16.4558 26.0173 16.5881 26.3287 16.6413 26.4575C16.7033 26.6078 16.7487 26.7378 16.7704 26.8007C16.7929 26.8658 16.8737 27.1096 16.8762 27.1171C16.9308 27.2791 17.024 27.5462 17.1989 27.9711L8.53286 31.5381ZM12.5682 32.9442C12.2867 32.9947 12.0743 33.039 11.8972 33.0772C11.8013 33.0978 11.4625 33.1745 11.1981 33.2175C11.0026 33.2494 9.9961 33.4338 8.82644 33.0737C7.43749 32.6462 6.66854 31.7395 6.42789 31.4454L13.681 25.511C13.5416 25.3406 12.8577 24.5092 11.5835 24.117C11.0186 23.9431 10.5363 23.9175 10.2324 23.9222C9.94738 23.9267 9.74109 23.9599 9.691 23.968C9.64655 23.9753 9.60335 23.9848 9.92439 23.9157C10.1643 23.864 10.4902 23.7959 10.9144 23.7198L12.5682 32.9442ZM6.42789 31.4454C5.38268 30.1679 5.1737 28.654 5.39421 27.4382C5.57695 26.4307 6.02695 25.7189 6.23143 25.4178C6.46783 25.0697 6.70549 24.8034 6.81115 24.6866C6.86887 24.6227 6.92702 24.5604 6.9464 24.5395C6.97924 24.5041 6.96667 24.5172 6.94387 24.5431L13.986 30.7265C13.9126 30.8101 13.8429 30.885 13.8153 30.9146C13.7743 30.9588 13.7688 30.9648 13.7627 30.9715C13.7408 30.9958 13.8505 30.8796 13.9843 30.6826C14.0862 30.5326 14.4588 29.9729 14.6152 29.1107C14.8094 28.0403 14.625 26.6648 13.681 25.511L6.42789 31.4454ZM6.92568 24.564C7.13976 24.3172 7.31924 24.1218 7.45988 23.9711C7.5217 23.9049 7.592 23.8304 7.62339 23.7969C7.66688 23.7506 7.67576 23.7406 7.67245 23.7443C7.67028 23.7468 7.61943 23.8031 7.54963 23.893C7.47988 23.9829 7.35255 24.1555 7.21856 24.3963C7.07851 24.6479 6.92613 24.9826 6.81736 25.3936C6.70634 25.8131 6.66402 26.2242 6.67217 26.6082C6.67995 26.9754 6.73292 27.2699 6.77618 27.4593C6.81802 27.6424 6.86171 27.7729 6.87546 27.8133C6.88943 27.8544 6.89708 27.8731 6.88012 27.8284C6.87415 27.8127 6.83436 27.7088 6.80895 27.6412C6.66233 27.2514 6.46813 26.6942 6.26951 25.8882L15.3688 23.646C15.4598 24.0152 15.532 24.2129 15.5806 24.3422C15.604 24.4044 15.6085 24.4155 15.6417 24.5029C15.6639 24.5614 15.7055 24.6714 15.7475 24.7948C15.8118 24.9838 16.0245 25.6066 16.0415 26.4094C16.0867 28.5388 14.7684 29.8683 14.6506 29.9997C14.2015 30.5007 14.4066 30.2418 14.0042 30.7056L6.92568 24.564ZM10.8862 23.1701C10.501 23.1989 10.1264 23.3121 9.78913 23.5022L14.3907 31.6662C13.5286 32.1521 12.5704 32.4419 11.5843 32.5156L10.8862 23.1701ZM10.64 23.1284C11.4207 22.8744 12.4044 22.7585 13.4649 23.0247C14.5163 23.2885 15.2959 23.8406 15.82 24.3656C16.7213 25.2683 17.0749 26.3065 17.1707 26.5818C17.245 26.7956 17.3012 26.9883 17.3319 27.095C17.3402 27.1236 17.3481 27.1512 17.3543 27.1729C17.3609 27.1962 17.3658 27.2132 17.3704 27.2291C17.3798 27.2618 17.3824 27.2702 17.3816 27.2673C17.3808 27.2648 17.3706 27.2318 17.352 27.1803C17.3341 27.1309 17.2981 27.0351 17.2415 26.9122C17.1762 26.7703 16.8657 26.0883 16.1348 25.4598L10.0243 32.5651C9.22318 31.8761 8.85116 31.0969 8.72923 30.8321C8.57152 30.4896 8.47421 30.1838 8.43035 30.0423C8.38671 29.9015 8.33651 29.7233 8.32747 29.692C8.30587 29.6171 8.30684 29.6246 8.31934 29.6605C8.33051 29.6927 8.38106 29.8368 8.48315 30.0331C8.57937 30.2181 8.79394 30.5921 9.18781 30.9866C9.60787 31.4074 10.2691 31.8847 11.1838 32.1143C12.1076 32.3461 12.9363 32.2364 13.5398 32.04L10.64 23.1284ZM8.51216 27.966C8.50927 27.9786 8.50769 27.9914 8.50741 28.0041L17.8766 28.2101C17.8629 28.8325 17.786 29.4519 17.647 30.0588L8.51216 27.966ZM8.50628 28.1071C8.50628 27.5477 8.57848 26.6675 9.03029 25.7189C9.50004 24.7326 10.1741 24.1011 10.6812 23.7216C11.114 23.3977 11.5517 23.1689 11.7156 23.0821C11.9784 22.9429 12.0781 22.8946 12.2963 22.7747L16.8092 30.988C16.5157 31.1492 16.1895 31.3174 16.1012 31.3641C15.9141 31.4632 16.0755 31.3898 16.2961 31.2247C16.5909 31.0041 17.1166 30.5349 17.4912 29.7486C17.8477 28.9999 17.8778 28.3572 17.8778 28.1071L8.50628 28.1071ZM12.2171 22.8192C12.1043 22.8841 10.9644 23.4948 10.3257 24.9246C9.92976 25.8108 9.79099 26.8752 10.0603 27.9519C10.3065 28.9361 10.8115 29.605 11.1511 29.9728C11.7506 30.6221 12.383 30.9177 12.4544 30.953C12.5541 31.0022 12.6328 31.036 12.6748 31.0536C12.7189 31.072 12.7497 31.0838 12.7584 31.0871C12.885 31.1351 12.157 30.8857 11.5751 30.5919L15.7986 22.2261C15.7959 22.2247 15.6133 22.1468 16.0842 22.3256C16.1652 22.3563 16.3707 22.435 16.6062 22.5513C16.736 22.6155 17.4116 22.9386 18.0365 23.6154C18.3888 23.997 18.902 24.6795 19.1517 25.6777C19.4245 26.7682 19.2844 27.8467 18.8821 28.7472C18.2305 30.2057 17.0575 30.8463 16.8885 30.9434L12.2171 22.8192ZM11.5751 30.5919C10.6168 30.1081 9.58171 29.2234 9.04479 27.8123C8.56154 26.5422 8.71429 25.43 8.81347 24.9231C8.86767 24.6461 8.93331 24.4195 8.97221 24.2913C8.99261 24.224 9.0114 24.1654 9.02287 24.1298C9.03847 24.0813 9.03916 24.0795 9.04443 24.0629C9.0926 23.9111 8.91452 24.3849 8.89617 25.0269L18.2638 25.2946C18.2399 26.1334 17.9999 26.825 17.9766 26.8986C17.8787 27.207 17.9659 26.951 18.0106 26.7225C18.0655 26.442 18.2108 25.5497 17.8037 24.4796C17.3428 23.2685 16.4673 22.5637 15.7986 22.2261L11.5751 30.5919ZM8.89426 25.1607C8.89426 25.4141 8.91333 25.9635 9.13493 26.6214C9.36631 27.3083 9.93597 28.4274 11.2263 29.1696C12.5278 29.9181 13.7991 29.8452 14.5389 29.6842C15.2376 29.532 15.7319 29.2539 15.9545 29.1181C16.4056 28.843 16.6893 28.5575 16.7417 28.5055C16.8394 28.4086 16.9006 28.3371 16.9123 28.3234C16.9343 28.2977 16.9274 28.3042 16.8552 28.3979C16.8157 28.4492 16.6953 28.6072 16.5979 28.7289L9.28004 22.8746C9.30635 22.8417 9.32798 22.8127 9.43184 22.6779C9.50301 22.5855 9.64096 22.4068 9.79225 22.23C9.86864 22.1407 9.99059 22.0022 10.1431 21.851C10.2503 21.7446 10.5829 21.4174 11.0747 21.1174C11.3177 20.9692 11.8304 20.6828 12.5452 20.5272C13.301 20.3626 14.5862 20.291 15.8989 21.046C17.2005 21.7947 17.7788 22.9255 18.0161 23.6298C18.2436 24.3052 18.2657 24.8779 18.2657 25.1607L8.89426 25.1607ZM16.5979 28.7289C16.301 29.1001 14.786 30.9244 12.1365 30.6069C11.0649 30.4784 10.3129 30.0265 9.9809 29.8053C9.65011 29.5849 9.39608 29.3566 9.35215 29.318C9.16236 29.151 9.55684 29.5287 10.0977 29.6901L12.7776 20.71C14.3925 21.1919 15.3464 22.1095 15.5432 22.2827C15.5959 22.3291 15.4278 22.1734 15.1773 22.0065C14.9257 21.8389 14.2486 21.4215 13.2518 21.302C12.1089 21.165 11.1018 21.4787 10.3681 21.9263C9.74963 22.3037 9.39512 22.7307 9.28004 22.8746L16.5979 28.7289ZM16.0377 24.308C15.9901 24.0624 15.9145 23.8867 15.893 23.8397C15.8898 23.8327 15.8903 23.8341 15.8987 23.8513C15.9122 23.879 15.916 23.8864 15.9444 23.9441C15.9787 24.014 16.0808 24.22 16.1785 24.4624C16.3854 24.9762 16.7472 26.062 16.4969 27.4308C16.2531 28.7636 15.5557 29.6857 15.0567 30.2174L8.22355 23.8039C8.02532 24.0151 7.4755 24.6666 7.27831 25.7448C7.07455 26.8589 7.3819 27.7062 7.4855 27.9634C7.53149 28.0776 7.5697 28.1508 7.53451 28.0792C7.51922 28.0481 7.44005 27.8898 7.3666 27.7288C7.19634 27.3555 6.97524 26.8017 6.83765 26.0922L16.0377 24.308ZM15.0643 30.2093C14.8737 30.4133 14.8295 30.4712 14.8543 30.4397C14.8658 30.4251 14.9517 30.3167 15.0588 30.1419C15.1256 30.0331 15.4273 29.5446 15.5911 28.8184C15.7692 28.0287 15.9148 26.1763 14.4243 24.6085C13.2134 23.3348 11.7594 23.2103 11.4793 23.186C11.0458 23.1486 10.7092 23.187 10.7012 23.1878C10.6703 23.1907 10.6449 23.1937 10.6693 23.1909C10.6796 23.1898 10.7317 23.1839 10.791 23.1782L11.6795 32.5075C11.7093 32.5046 11.7318 32.502 11.7132 32.5041C11.7086 32.5046 11.6547 32.5108 11.5966 32.5164C11.5338 32.5224 11.1469 32.5638 10.6717 32.5227C10.35 32.4948 8.86309 32.3602 7.63229 31.0655C6.12191 29.4768 6.26061 27.5927 6.44928 26.7563C6.62363 25.9833 6.95327 25.433 7.06968 25.2432C7.22652 24.9874 7.38385 24.7786 7.49282 24.6403C7.71267 24.3613 7.96791 24.0775 8.21593 23.812L15.0643 30.2093Z" fill="#202F3D" mask="url(#path-60-inside-1_158_17564)"/>
<path fill-rule="evenodd" clip-rule="evenodd" d="M89.9677 63C91.7195 60.8224 93.394 58.7501 95.0587 56.5062C95.8527 55.4359 96.6507 54.1653 97.3916 53.056C95.7561 52.9131 94.864 53.0735 93.2338 52.9136C93.2331 52.9136 93.8903 49.473 94.2771 47C91.8809 49.4586 89.9405 53.6394 89 56.003C90.1502 56.0691 91.3261 56.1185 92.4783 56.0876C91.6705 58.3999 90.8034 60.699 89.9677 63Z" stroke="black" stroke-width="0.8" stroke-miterlimit="1.5" stroke-linecap="round" stroke-linejoin="round"/>
<path d="M27.2905 66.8675C27.2066 71.0615 24.5749 73.1585 28.9786 72.5923C35.7309 71.7116 37.0834 70.0864 36.4438 74.9934C36.36 75.6539 36.3285 75.4442 39.5893 76.7653C41.225 77.4363 40.4805 78.2646 39.5893 77.9186C36.6116 76.7024 35.301 76.5241 35.3953 75.224C35.605 72.9278 35.8986 72.5189 35.0284 72.6657C29.1463 73.6093 28.1503 73.8295 27.0913 73.7142C22.9603 73.2738 28.2237 66.6998 25.4032 65.3263C23.4216 64.3407 22.761 65.9134 13.2512 69.6985C12.727 69.9082 12.2027 70.1179 12.035 69.6251C11.8672 69.1323 12.3495 69.1008 12.6117 68.996C22.0481 65.1271 21.0835 64.9383 23.0966 64.2778C23.5396 64.0704 24.0271 63.9767 24.5155 64.0049C25.0039 64.0331 25.4775 64.1825 25.8934 64.4394C26.3093 64.6964 26.6553 65.0529 26.8991 65.4768C27.1429 65.9007 27.2774 66.3786 27.2905 66.8675Z" fill="#202F3D"/>
<path d="M20.1181 42.2753C18.9027 40.6603 19.6186 40.8934 15.6144 42.2753C15.5311 42.3139 15.4376 42.325 15.3476 42.307C15.2575 42.2891 15.1755 42.2429 15.1135 42.1752C15.0514 42.1076 15.0124 42.022 15.0022 41.9307C14.992 41.8395 15.0111 41.7473 15.0566 41.6676C15.4949 40.7166 16.0012 39.7985 16.5717 38.9204C16.9131 38.4876 15.1565 36.6145 15.1232 35.5905C15.0733 34.0838 18.1618 36.5895 18.8361 35.7071C19.3772 34.9995 20.2013 34.217 20.7424 33.3595C20.9839 32.9682 21.4501 32.8267 21.525 33.2929C22.166 37.5469 21.1337 36.4979 23.5063 37.4137C24.8299 37.9298 24.8715 37.9215 24.9465 38.346C25.1796 39.6863 22.0827 39.8778 22.0744 40.4855C22.0245 43.2243 22.1327 43.0579 22.0744 43.6323C22.0627 43.7093 22.0304 43.7818 21.9809 43.842C21.9314 43.9022 21.8666 43.9479 21.7932 43.9743C21.7199 44.0008 21.6408 44.0069 21.5643 43.9921C21.4878 43.9773 21.4167 43.9422 21.3585 43.8903C20.9006 43.3877 20.4856 42.8474 20.1181 42.2753ZM21.9912 39.4865C24.8382 38.421 24.8382 38.6541 21.7081 37.5219C21.0255 37.2721 21.3502 35.782 20.8756 34.5C17.9037 37.2805 20.4095 37.0474 16.0639 36.0484C16.7049 37.7633 18.0369 38.2545 17.271 39.1452C16.8429 39.7445 16.4722 40.3828 16.1638 41.0516C15.9557 41.4012 16.9963 41.0516 18.4698 40.5021C19.3023 40.1941 19.1108 39.5698 21.0754 42.3169C21.8413 43.3908 20.7341 39.9527 21.9912 39.4865Z" fill="#202F3D"/>
</g>
<defs>
<linearGradient id="paint0_linear_158_17564" x1="51.5" y1="40" x2="-5.05804" y2="40" gradientUnits="userSpaceOnUse">
<stop stop-color="#D9D9D9"/>
<stop offset="1" stop-color="#D9D9D9" stop-opacity="0"/>
</linearGradient>
<clipPath id="clip0_158_17564">
<rect width="103" height="80" fill="white"/>
</clipPath>
<clipPath id="clip1_158_17564">
<rect width="48.6466" height="51.108" fill="white" transform="translate(30.5508 16.5016) rotate(-4.54)"/>
</clipPath>
</defs>
</svg>
