<svg width="69" height="80" viewBox="0 0 69 80" fill="none" xmlns="http://www.w3.org/2000/svg">
<g clip-path="url(#clip0_2256_71326)">
<mask id="mask0_2256_71326" style="mask-type:alpha" maskUnits="userSpaceOnUse" x="0" y="-3" width="98" height="86">
<rect x="0.5" y="-3" width="97" height="86" fill="url(#paint0_linear_2256_71326)"/>
</mask>
<g mask="url(#mask0_2256_71326)">
<line x1="20.4932" y1="-40.4323" x2="-56.6383" y2="326.55" stroke="#EDA076"/>
<line x1="36.1511" y1="-37.1433" x2="-40.9804" y2="329.839" stroke="#EDA076"/>
<line x1="51.809" y1="-33.8503" x2="-25.3225" y2="333.132" stroke="#EDA076"/>
<line x1="67.4669" y1="-30.5612" x2="-9.66459" y2="336.421" stroke="#EDA076"/>
<line x1="83.1248" y1="-27.2683" x2="5.9933" y2="339.714" stroke="#EDA076"/>
<line x1="98.7827" y1="-23.9792" x2="21.6512" y2="343.003" stroke="#EDA076"/>
<line x1="114.441" y1="-20.6862" x2="37.3091" y2="346.296" stroke="#EDA076"/>
<line x1="130.099" y1="-17.3972" x2="52.967" y2="349.585" stroke="#EDA076"/>
<line x1="145.756" y1="-14.1042" x2="68.6249" y2="352.878" stroke="#EDA076"/>
<line x1="-106.885" y1="79.4365" x2="260.097" y2="156.568" stroke="#EDA076"/>
<line x1="-103.594" y1="63.7763" x2="263.388" y2="140.908" stroke="#EDA076"/>
<line x1="-100.303" y1="48.1201" x2="266.679" y2="125.252" stroke="#EDA076"/>
<line x1="-97.0121" y1="32.4638" x2="269.97" y2="109.595" stroke="#EDA076"/>
<line x1="-93.7211" y1="16.8037" x2="273.261" y2="93.9352" stroke="#EDA076"/>
<line x1="-90.4302" y1="1.14741" x2="276.552" y2="78.2789" stroke="#EDA076"/>
<line x1="-87.1392" y1="-14.5127" x2="279.843" y2="62.6188" stroke="#EDA076"/>
<line x1="-83.8483" y1="-30.169" x2="283.134" y2="46.9625" stroke="#EDA076"/>
<line x1="-80.5574" y1="-45.8292" x2="286.424" y2="31.3023" stroke="#EDA076"/>
<line x1="-77.2664" y1="-61.4854" x2="289.715" y2="15.6461" stroke="#EDA076"/>
<path d="M30.1544 18.4531C24.1003 5.78898 24.8639 -7.798 32.2096 -19.3975L54.4251 -10.6899C49.7646 -3.22509 49.3291 5.45631 53.1754 13.5022C57.0928 21.6968 65.1345 28.5763 75.5164 32.6456C85.8982 36.7148 97.8005 37.6526 108.615 35.2322C119.233 32.8558 127.966 27.4265 132.928 20.0801L155.144 28.7877C147.494 40.268 133.875 48.8163 117.163 52.5568C100.244 56.3435 81.5577 54.8859 65.2254 48.4843C48.8931 42.0827 36.2832 31.2736 30.1544 18.4531Z" fill="#FFA9D8" stroke="#E25450"/>
</g>
<mask id="path-22-outside-1_2256_71326" maskUnits="userSpaceOnUse" x="21.0914" y="29.4353" width="35.5877" height="36.5054" fill="black">
<rect fill="white" x="21.0914" y="29.4353" width="35.5877" height="36.5054"/>
<path d="M50.7948 61.839L29.308 63.5451C29.2697 63.5482 29.2355 63.5219 29.2294 63.4847C29.2032 63.3249 26.6345 47.658 26.4213 44.2097C26.3374 44.2611 26.3012 44.2768 26.2789 44.2843C25.6509 44.4937 24.2305 44.1852 24.0156 43.5626C23.9988 43.5137 24.0162 43.4548 24.0722 43.3715C24.5319 42.6873 27.9009 39.9668 31.0358 37.5742C33.9433 35.355 37.5258 32.7487 38.0533 32.7068C38.637 32.6605 43.2701 35.1765 45.9158 36.6704C47.7933 37.7306 49.5388 38.7563 50.8307 39.5584C53.066 40.9462 53.0803 41.1253 53.0863 41.2018C53.11 41.5 52.8831 41.9225 52.4794 42.3321C52.1026 42.7143 51.682 42.9754 51.4078 42.9972C51.3474 43.002 51.2175 42.967 50.7027 42.6962C51.0361 45.965 50.8647 61.6074 50.8629 61.7674C50.8625 61.8049 50.8329 61.836 50.7948 61.839ZM29.3643 63.3955L50.716 61.7001C50.7281 60.5628 50.882 45.4067 50.5409 42.5755C50.5377 42.5486 50.55 42.5221 50.573 42.5069C50.5958 42.4917 50.6254 42.4903 50.6497 42.5032C51.2546 42.8269 51.375 42.8527 51.3975 42.8529C51.6331 42.8341 52.0257 42.5845 52.3735 42.2317C52.7415 41.8583 52.9581 41.4693 52.9394 41.2157C52.9218 41.1614 52.7037 40.8897 50.6839 39.6388C49.3854 38.8346 47.6441 37.8128 45.7809 36.7616C41.6432 34.427 38.4701 32.8189 38.0648 32.8511C37.6594 32.8833 34.5947 35.0284 30.782 37.9515C29.0215 39.3012 27.3967 40.5928 26.2069 41.5883C24.3575 43.1358 24.1681 43.4576 24.1575 43.5216C24.3495 44.0521 25.6831 44.3303 26.2318 44.1472C26.2491 44.1415 26.3 44.1174 26.4471 44.021C26.4693 44.0065 26.4976 44.0048 26.5213 44.0164C26.545 44.0281 26.5605 44.0514 26.5617 44.0775C26.7109 47.14 29.1792 62.2645 29.3643 63.3955L29.3643 63.3955Z"/>
</mask>
<path d="M50.7948 61.839L29.308 63.5451C29.2697 63.5482 29.2355 63.5219 29.2294 63.4847C29.2032 63.3249 26.6345 47.658 26.4213 44.2097C26.3374 44.2611 26.3012 44.2768 26.2789 44.2843C25.6509 44.4937 24.2305 44.1852 24.0156 43.5626C23.9988 43.5137 24.0162 43.4548 24.0722 43.3715C24.5319 42.6873 27.9009 39.9668 31.0358 37.5742C33.9433 35.355 37.5258 32.7487 38.0533 32.7068C38.637 32.6605 43.2701 35.1765 45.9158 36.6704C47.7933 37.7306 49.5388 38.7563 50.8307 39.5584C53.066 40.9462 53.0803 41.1253 53.0863 41.2018C53.11 41.5 52.8831 41.9225 52.4794 42.3321C52.1026 42.7143 51.682 42.9754 51.4078 42.9972C51.3474 43.002 51.2175 42.967 50.7027 42.6962C51.0361 45.965 50.8647 61.6074 50.8629 61.7674C50.8625 61.8049 50.8329 61.836 50.7948 61.839ZM29.3643 63.3955L50.716 61.7001C50.7281 60.5628 50.882 45.4067 50.5409 42.5755C50.5377 42.5486 50.55 42.5221 50.573 42.5069C50.5958 42.4917 50.6254 42.4903 50.6497 42.5032C51.2546 42.8269 51.375 42.8527 51.3975 42.8529C51.6331 42.8341 52.0257 42.5845 52.3735 42.2317C52.7415 41.8583 52.9581 41.4693 52.9394 41.2157C52.9218 41.1614 52.7037 40.8897 50.6839 39.6388C49.3854 38.8346 47.6441 37.8128 45.7809 36.7616C41.6432 34.427 38.4701 32.8189 38.0648 32.8511C37.6594 32.8833 34.5947 35.0284 30.782 37.9515C29.0215 39.3012 27.3967 40.5928 26.2069 41.5883C24.3575 43.1358 24.1681 43.4576 24.1575 43.5216C24.3495 44.0521 25.6831 44.3303 26.2318 44.1472C26.2491 44.1415 26.3 44.1174 26.4471 44.021C26.4693 44.0065 26.4976 44.0048 26.5213 44.0164C26.545 44.0281 26.5605 44.0514 26.5617 44.0775C26.7109 47.14 29.1792 62.2645 29.3643 63.3955L29.3643 63.3955Z" fill="#202F3D"/>
<path d="M29.2294 63.4847L30.7868 63.2295L30.7867 63.229L29.2294 63.4847ZM26.4213 44.2097L27.9964 44.1124L27.8346 41.4954L25.5978 42.8635L26.4213 44.2097ZM26.2789 44.2843L26.7781 45.7813L26.7784 45.7812L26.2789 44.2843ZM24.0156 43.5626L22.5238 44.077L22.5238 44.0773L24.0156 43.5626ZM24.0722 43.3715L25.382 44.2517L25.3821 44.2516L24.0722 43.3715ZM31.0358 37.5742L31.9932 38.8286L31.9932 38.8286L31.0358 37.5742ZM45.9158 36.6704L46.6917 35.2963L46.6917 35.2963L45.9158 36.6704ZM50.8307 39.5584L51.6631 38.2176L51.6631 38.2176L50.8307 39.5584ZM52.4794 42.3321L51.3555 41.2243L51.3555 41.2243L52.4794 42.3321ZM50.7027 42.6962L51.4375 41.2996L48.8344 39.9301L49.1328 42.8563L50.7027 42.6962ZM50.8629 61.7674L49.2849 61.7499L49.2849 61.7506L50.8629 61.7674ZM50.716 61.7001L50.841 63.2732L52.2787 63.1591L52.2941 61.7168L50.716 61.7001ZM50.5409 42.5755L48.9741 42.7638L48.9741 42.7643L50.5409 42.5755ZM50.573 42.5069L51.4464 43.8212L51.4466 43.8211L50.573 42.5069ZM50.6497 42.5032L51.3944 41.1119L51.3921 41.1106L50.6497 42.5032ZM51.3975 42.8529L51.3843 44.4309L51.4535 44.4315L51.5226 44.426L51.3975 42.8529ZM52.3735 42.2317L51.2496 41.1238L51.2495 41.1239L52.3735 42.2317ZM52.9394 41.2157L54.5132 41.0995L54.4992 40.9095L54.4404 40.7283L52.9394 41.2157ZM50.6839 39.6388L51.5148 38.2972L51.5148 38.2972L50.6839 39.6388ZM45.7809 36.7616L46.5564 35.3871L46.5564 35.3871L45.7809 36.7616ZM30.782 37.9515L31.7422 39.2039L30.782 37.9515ZM26.2069 41.5883L25.1942 40.378L25.1941 40.3781L26.2069 41.5883ZM24.1575 43.5216L22.6007 43.2631L22.5331 43.6705L22.6737 44.0588L24.1575 43.5216ZM26.2318 44.1472L25.733 42.65L25.7324 42.6502L26.2318 44.1472ZM26.4471 44.021L25.5833 42.7003L25.5822 42.701L26.4471 44.021ZM26.5213 44.0164L27.218 42.6005L27.2172 42.6001L26.5213 44.0164ZM26.5617 44.0775L24.9855 44.1542L24.9855 44.1543L26.5617 44.0775ZM29.3643 63.3955L29.4892 64.9686L31.1987 64.8329L30.9217 63.1406L29.3643 63.3955ZM50.6699 60.2658L29.1831 61.972L29.4329 65.1183L50.9197 63.4121L50.6699 60.2658ZM29.1831 61.972C29.9373 61.9121 30.656 62.4316 30.7868 63.2295L27.6721 63.74C27.8151 64.6121 28.6021 65.1843 29.4329 65.1183L29.1831 61.972ZM30.7867 63.229C30.7497 63.004 28.2031 47.4566 27.9964 44.1124L24.8462 44.3071C25.0658 47.8595 27.6566 63.6458 27.6722 63.7405L30.7867 63.229ZM25.5978 42.8635C25.5779 42.8757 25.5868 42.8694 25.6148 42.8552C25.6489 42.8379 25.7057 42.8119 25.7795 42.7873L26.7784 45.7812C26.9703 45.7172 27.1264 45.6283 27.2447 45.556L25.5978 42.8635ZM25.7798 42.7872C25.8353 42.7686 25.8615 42.7677 25.846 42.7694C25.8337 42.7707 25.8032 42.7726 25.7551 42.7706C25.6555 42.7665 25.5333 42.7481 25.4173 42.7156C25.3615 42.7 25.3156 42.6835 25.281 42.6687C25.2455 42.6535 25.2317 42.6443 25.235 42.6465C25.2368 42.6477 25.2736 42.6714 25.3237 42.7274C25.375 42.7845 25.4529 42.8899 25.5074 43.0479L22.5238 44.0773C22.7367 44.6941 23.183 45.0758 23.5081 45.2884C23.8524 45.5134 24.2293 45.6607 24.5673 45.7552C25.1777 45.9259 26.0432 46.0264 26.7781 45.7813L25.7798 42.7872ZM25.5075 43.0481C25.6284 43.3986 25.5925 43.7159 25.5298 43.9278C25.4751 44.1128 25.3977 44.2284 25.382 44.2517L22.7623 42.4913C22.6694 42.6296 22.2443 43.2665 22.5238 44.077L25.5075 43.0481ZM25.3821 44.2516C25.3697 44.2701 25.5113 44.1007 25.9722 43.6836C26.3761 43.3181 26.9175 42.8564 27.5546 42.3311C28.8264 41.2827 30.4359 40.0172 31.9932 38.8286L30.0783 36.3197C28.5008 37.5237 26.8584 38.8147 25.547 39.8958C24.8926 40.4353 24.3095 40.9315 23.8545 41.3434C23.4565 41.7035 23.0046 42.1308 22.7623 42.4914L25.3821 44.2516ZM31.9932 38.8286C33.4385 37.7256 35.0437 36.5322 36.3464 35.6138C37.0002 35.1528 37.561 34.773 37.98 34.5109C38.1919 34.3784 38.345 34.2901 38.4438 34.2391C38.4939 34.2132 38.5084 34.2082 38.4957 34.2132C38.4884 34.216 38.4614 34.2265 38.4188 34.2383C38.3812 34.2488 38.2955 34.2707 38.1782 34.28L37.9284 31.1337C37.6592 31.1551 37.4401 31.2369 37.3434 31.2749C37.2188 31.3237 37.0994 31.3811 36.9953 31.4349C36.7859 31.5431 36.5499 31.6827 36.3063 31.8351C35.8144 32.1427 35.1989 32.561 34.5277 33.0343C33.1804 33.9842 31.5406 35.2036 30.0783 36.3197L31.9932 38.8286ZM38.1782 34.28C38.0475 34.2904 37.9505 34.2794 37.912 34.2743C37.867 34.2683 37.8393 34.2616 37.8349 34.2605C37.8279 34.2588 37.8521 34.2646 37.9178 34.2881C38.0471 34.3345 38.2421 34.415 38.5048 34.534C39.0247 34.7695 39.7125 35.1115 40.4848 35.512C42.0242 36.3102 43.8262 37.3028 45.1398 38.0446L46.6917 35.2963C45.3596 34.5441 43.5223 33.5317 41.9377 32.7101C41.1482 32.3006 40.4028 31.9289 39.8072 31.6591C39.5121 31.5254 39.2287 31.4052 38.9826 31.317C38.8606 31.2733 38.7228 31.2283 38.5825 31.1941C38.478 31.1686 38.2247 31.1102 37.9284 31.1337L38.1782 34.28ZM45.1398 38.0446C47.0054 39.0981 48.7308 40.1122 49.9983 40.8991L51.6631 38.2176C50.3468 37.4004 48.5812 36.3632 46.6917 35.2963L45.1398 38.0446ZM49.9982 40.8991C51.1092 41.5888 51.6022 41.9384 51.8064 42.1024C51.9188 42.1926 51.8683 42.1677 51.7855 42.0579C51.7349 41.9907 51.6549 41.8695 51.5933 41.6973C51.562 41.6098 51.5414 41.5254 51.5283 41.4476C51.5164 41.3771 51.5125 41.3188 51.5132 41.3267L54.6595 41.0769C54.6565 41.0393 54.6441 40.8553 54.5654 40.635C54.4932 40.433 54.3936 40.2744 54.3058 40.158C54.1488 39.9498 53.9539 39.779 53.7825 39.6413C53.4193 39.3497 52.7875 38.9158 51.6631 38.2176L49.9982 40.8991ZM51.5132 41.3267C51.5013 41.1777 51.5245 41.0723 51.5369 41.0271C51.55 40.9798 51.5609 40.9634 51.5528 40.9786C51.5455 40.9921 51.5274 41.0226 51.493 41.0678C51.459 41.1122 51.4136 41.1653 51.3555 41.2243L53.6033 43.4399C53.8856 43.1535 54.1429 42.8266 54.3334 42.4718C54.5096 42.1438 54.705 41.6497 54.6595 41.0769L51.5132 41.3267ZM51.3555 41.2243C51.242 41.3394 51.139 41.418 51.0729 41.459C51.0407 41.479 51.0335 41.4799 51.0525 41.4723C51.063 41.4681 51.0862 41.4595 51.1214 41.4504C51.1559 41.4414 51.2108 41.4298 51.2829 41.424L51.5327 44.5703C52.0386 44.5302 52.4672 44.3083 52.7373 44.1406C53.0444 43.9501 53.34 43.7071 53.6033 43.4399L51.3555 41.2243ZM51.2829 41.424C51.475 41.4088 51.6261 41.4351 51.7098 41.455C51.7506 41.4647 51.7802 41.4741 51.7954 41.4792C51.811 41.4844 51.8181 41.4874 51.8146 41.486C51.806 41.4825 51.7738 41.4689 51.7077 41.437C51.643 41.4058 51.5553 41.3616 51.4375 41.2996L49.968 44.0928C50.2373 44.2345 50.4557 44.3413 50.6367 44.4141C50.7746 44.4696 51.1137 44.6036 51.5327 44.5703L51.2829 41.424ZM49.1328 42.8563C49.2891 44.3894 49.3318 49.0136 49.3304 53.3971C49.329 57.7279 49.2857 61.672 49.2849 61.7499L52.4409 61.7849C52.4418 61.7029 52.4852 57.7457 52.4866 53.3981C52.488 49.1032 52.4497 44.2719 52.2727 42.5361L49.1328 42.8563ZM49.2849 61.7506C49.2934 60.9448 49.9208 60.3253 50.6699 60.2658L50.9197 63.4121C51.745 63.3466 52.4315 62.6651 52.4409 61.7842L49.2849 61.7506ZM29.4892 64.9686L50.841 63.2732L50.5911 60.1269L29.2394 61.8223L29.4892 64.9686ZM52.2941 61.7168C52.3001 61.1462 52.3417 57.066 52.339 52.772C52.3364 48.5442 52.2926 43.9217 52.1077 42.3867L48.9741 42.7643C49.1303 44.0605 49.1801 48.4317 49.1828 52.774C49.1855 57.0502 49.1441 61.1166 49.138 61.6833L52.2941 61.7168ZM52.1077 42.3873C52.1769 42.9629 51.9105 43.5128 51.4464 43.8212L49.6995 41.1926C49.1896 41.5315 48.8985 42.1343 48.9741 42.7638L52.1077 42.3873ZM51.4466 43.8211C50.9852 44.1279 50.3941 44.1553 49.9074 43.8958L51.3921 41.1106C50.8568 40.8253 50.2065 40.8556 49.6993 41.1927L51.4466 43.8211ZM49.905 43.8946C50.2242 44.0654 50.4493 44.1759 50.6158 44.2479C50.6984 44.2836 50.7892 44.3197 50.8841 44.3495C50.9505 44.3703 51.1412 44.4289 51.3843 44.4309L51.4107 41.2748C51.48 41.2754 51.5389 41.2805 51.5841 41.2861C51.6299 41.2917 51.6689 41.2986 51.6995 41.3049C51.7591 41.317 51.8039 41.3302 51.8284 41.3378C51.8755 41.3526 51.8941 41.362 51.8682 41.3508C51.8458 41.3412 51.7991 41.32 51.7195 41.2805C51.6406 41.2414 51.5346 41.1869 51.3944 41.1119L49.905 43.8946ZM51.5226 44.426C52.0323 44.3854 52.4562 44.1481 52.6906 43.999C52.9746 43.8183 53.2511 43.5893 53.4974 43.3394L51.2495 41.1239C51.201 41.1731 51.1523 41.2173 51.1067 41.2547C51.0605 41.2925 51.0226 41.3193 50.9962 41.3361C50.9676 41.3543 50.9656 41.3525 50.9911 41.3418C51.0049 41.336 51.0335 41.3248 51.0756 41.3133C51.1166 41.3021 51.1839 41.2868 51.2724 41.2797L51.5226 44.426ZM53.4973 43.3395C53.7586 43.0744 53.999 42.7718 54.1801 42.4466C54.3384 42.1626 54.5558 41.6767 54.5132 41.0995L51.3656 41.3318C51.3587 41.2384 51.3641 41.1609 51.3719 41.104C51.3796 41.0469 51.3907 41.0033 51.3993 40.9748C51.4156 40.9205 51.4295 40.8989 51.4228 40.9108C51.4174 40.9205 51.4016 40.9466 51.3708 40.9865C51.3406 41.0256 51.3003 41.0724 51.2496 41.1238L53.4973 43.3395ZM54.4404 40.7283C54.3037 40.3074 54.0186 40.0439 53.9602 39.9875C53.8377 39.8691 53.6866 39.746 53.5071 39.6118C53.1433 39.34 52.5386 38.9313 51.5148 38.2972L49.853 40.9805C50.849 41.5973 51.3632 41.9498 51.6178 42.1401C51.7475 42.237 51.7805 42.2701 51.767 42.2571C51.76 42.2504 51.7202 42.2118 51.6696 42.146C51.6299 42.0944 51.5154 41.9401 51.4385 41.7031L54.4404 40.7283ZM51.5148 38.2972C50.1924 37.4782 48.4315 36.4451 46.5564 35.3871L45.0055 38.136C46.8567 39.1805 48.5783 40.191 49.853 40.9805L51.5148 38.2972ZM46.5564 35.3871C44.4751 34.2128 42.6255 33.215 41.2366 32.5111C40.5448 32.1606 39.9499 31.874 39.4902 31.6736C39.2628 31.5745 39.0442 31.4858 38.8511 31.4201C38.7553 31.3875 38.642 31.3524 38.5227 31.3253C38.4349 31.3053 38.2096 31.2565 37.9398 31.278L38.1897 34.4243C38.0633 34.4343 37.9669 34.425 37.9221 34.4197C37.8718 34.4136 37.8368 34.4061 37.8228 34.4029C37.7965 34.3969 37.797 34.3953 37.8349 34.4082C37.909 34.4334 38.0371 34.4832 38.2289 34.5669C38.6075 34.7319 39.1404 34.9872 39.8098 35.3264C41.1432 36.0022 42.949 36.9757 45.0055 38.136L46.5564 35.3871ZM37.9398 31.278C37.6694 31.2994 37.453 31.3841 37.3738 31.4156C37.2618 31.4603 37.1556 31.5119 37.0652 31.5587C36.8827 31.6534 36.6754 31.7755 36.4583 31.9107C36.0192 32.1838 35.4524 32.5649 34.796 33.0245C33.4784 33.9471 31.7399 35.2286 29.8219 36.6991L31.7422 39.2039C33.6368 37.7513 35.337 36.4987 36.6063 35.6099C37.2433 35.1639 37.7569 34.8199 38.1257 34.5905C38.3124 34.4743 38.4408 34.4007 38.5184 34.3605C38.5581 34.3399 38.563 34.3393 38.5423 34.3475C38.5313 34.3519 38.4998 34.3641 38.453 34.3775C38.4123 34.3892 38.318 34.4141 38.1897 34.4243L37.9398 31.278ZM29.8219 36.6991C28.0504 38.0572 26.4067 39.3635 25.1942 40.378L27.2196 42.7986C28.3866 41.8221 29.9926 40.5452 31.7422 39.2039L29.8219 36.6991ZM25.1941 40.3781C24.256 41.1631 23.7033 41.6665 23.3728 41.9994C23.2095 42.1638 23.0733 42.3137 22.9657 42.4552C22.9069 42.5327 22.6722 42.8329 22.6007 43.2631L25.7143 43.7801C25.675 44.0166 25.5902 44.1807 25.5576 44.2404C25.5178 44.3132 25.4845 44.3572 25.4785 44.365C25.4673 44.3798 25.496 44.3406 25.6126 44.2231C25.8418 43.9922 26.3084 43.5611 27.2196 42.7986L25.1941 40.3781ZM22.6737 44.0588C22.8985 44.68 23.37 45.0373 23.6646 45.2167C23.991 45.4155 24.3444 45.5446 24.6563 45.6273C24.9753 45.7119 25.3128 45.7644 25.6369 45.778C25.9366 45.7906 26.338 45.7754 26.7312 45.6442L25.7324 42.6502C25.8043 42.6262 25.8446 42.6235 25.837 42.6243C25.8336 42.6246 25.8112 42.6263 25.7695 42.6246C25.6833 42.6209 25.5725 42.605 25.4654 42.5766C25.4141 42.563 25.3722 42.5487 25.3412 42.5363C25.3091 42.5234 25.299 42.5166 25.3064 42.5211C25.3115 42.5242 25.3559 42.5513 25.4155 42.6132C25.4754 42.6753 25.5733 42.7965 25.6414 42.9844L22.6737 44.0588ZM26.7306 45.6444C26.973 45.5637 27.1896 45.4212 27.3121 45.341L25.5822 42.701C25.5251 42.7385 25.5073 42.7482 25.5152 42.7437C25.5197 42.7412 25.5386 42.7306 25.5682 42.7164C25.5835 42.709 25.6045 42.6993 25.6303 42.6885C25.6556 42.6779 25.6905 42.6642 25.733 42.65L26.7306 45.6444ZM27.3109 45.3417C26.8664 45.6324 26.3018 45.6669 25.8254 45.4328L27.2172 42.6001C26.6934 42.3427 26.0722 42.3806 25.5833 42.7003L27.3109 45.3417ZM25.8246 45.4324C25.3415 45.1947 25.0126 44.7101 24.9855 44.1542L28.138 44.0007C28.1083 43.3927 27.7486 42.8615 27.218 42.6005L25.8246 45.4324ZM24.9855 44.1543C25.0651 45.7888 25.7379 50.4405 26.3896 54.6995C27.0497 59.0129 27.7141 63.083 27.8069 63.6504L30.9217 63.1406C30.8295 62.577 30.1671 58.5194 29.5095 54.2221C28.8436 49.8705 28.2075 45.4286 28.1379 44.0007L24.9855 44.1543ZM29.2394 61.8223L29.2394 61.8223L29.4892 64.9686L29.4892 64.9686L29.2394 61.8223Z" fill="white" mask="url(#path-22-outside-1_2256_71326)"/>
<path d="M26.9825 44.0569C27.0558 45.5606 27.7053 50.0793 28.366 54.397C28.9401 58.1484 29.5177 61.7167 29.7176 62.9444L50.298 61.3103C50.3101 60.0781 50.3413 56.5059 50.339 52.7733C50.3363 48.4729 50.2887 44.0097 50.122 42.6259L50.122 42.6258C50.1053 42.4873 50.1482 42.3528 50.2332 42.2509L50.2032 41.9572L50.4659 42.0954C50.5912 42.0563 50.7289 42.0678 50.8478 42.1312L50.8484 42.1315C51.1463 42.291 51.316 42.3721 51.409 42.4123C51.4121 42.4137 51.4152 42.415 51.4181 42.4163C51.424 42.414 51.4304 42.4115 51.4374 42.4086C51.4858 42.3883 51.5464 42.3566 51.6168 42.3118C51.7577 42.2221 51.9184 42.0924 52.0729 41.9357L52.0729 41.9357C52.2363 41.7699 52.3573 41.6092 52.4328 41.4736C52.4579 41.4286 52.4766 41.3888 52.49 41.3547C52.4471 41.3189 52.3886 41.2726 52.3098 41.2137C52.0151 40.9935 51.4678 40.6204 50.4616 39.9973C49.1694 39.197 47.4334 38.1782 45.5735 37.1288C43.5079 35.9633 41.686 34.9809 40.3323 34.2949C39.6547 33.9515 39.099 33.6847 38.6908 33.5067C38.4859 33.4175 38.3247 33.3534 38.2069 33.3133C38.1602 33.2974 38.1243 33.2867 38.0979 33.2798C38.0707 33.2915 38.0337 33.309 37.9856 33.3339C37.8696 33.3941 37.7123 33.4854 37.5144 33.6086C37.1199 33.854 36.5868 34.2116 35.9427 34.6626C34.6557 35.5638 32.9415 36.827 31.0382 38.2861C29.2807 39.6335 27.6609 40.9212 26.4771 41.9117C25.5561 42.6824 25.0579 43.1401 24.7916 43.4083C24.7559 43.4443 24.7249 43.4763 24.698 43.5048C24.7001 43.5061 24.7023 43.5074 24.7045 43.5088C24.8208 43.5796 24.9821 43.645 25.1687 43.6944C25.3534 43.7434 25.5472 43.7727 25.7206 43.78C25.8858 43.787 26.0078 43.7729 26.0799 43.7528C26.081 43.7522 26.0821 43.7516 26.0833 43.7509C26.1055 43.7383 26.1466 43.7137 26.2158 43.6683L26.2161 43.6681C26.3328 43.5918 26.4748 43.5689 26.6071 43.6016L26.7986 43.4845L26.8124 43.7078C26.9123 43.7942 26.9758 43.9191 26.9825 44.0569ZM26.9825 44.0569L26.8344 44.0642L26.8344 44.0642L26.9825 44.0569ZM23.7219 43.1363C23.8709 42.9146 24.2091 42.5819 24.6301 42.2008C25.0664 41.806 25.6342 41.3224 26.2823 40.7881C27.5792 39.719 29.2095 38.4374 30.7797 37.239M23.7219 43.1363L50.9056 39.2804C49.6155 38.4814 47.8937 37.4705 46.0512 36.4301C46.0301 36.4182 46.009 36.4063 45.9878 36.3943C43.9156 35.2252 42.0821 34.2363 40.7135 33.5427C40.0299 33.1963 39.4577 32.9212 39.0277 32.7337C38.8134 32.6403 38.628 32.5658 38.4784 32.515C38.4039 32.4896 38.3319 32.4679 38.266 32.4529C38.2084 32.4398 38.1217 32.4236 38.0311 32.4308C37.9402 32.438 37.8562 32.4681 37.8016 32.4899C37.7383 32.5152 37.6692 32.5481 37.5974 32.5853C37.4533 32.6601 37.2749 32.7644 37.0689 32.8926C36.6556 33.1497 36.1083 33.5172 35.459 33.9718C34.2373 34.8273 32.6407 36.0013 30.8679 37.3546L30.7797 37.239M23.7219 43.1363C23.6561 43.2343 23.5297 43.4477 23.6167 43.7L23.6168 43.7001C23.713 43.979 23.9268 44.1806 24.1406 44.3204C24.3595 44.4635 24.6194 44.569 24.8785 44.6415C25.2467 44.7445 25.6723 44.796 26.0414 44.7595L23.7219 43.1363ZM30.7797 37.239L30.8679 37.3546L29.3974 63.8158L29.3974 63.8158L29.8541 63.7795L50.7491 62.1204L50.8164 62.115L51.1333 62.0899L51.1367 61.7705L51.2842 61.7721M30.7797 37.239C32.2357 36.1277 33.8628 34.9178 35.1938 33.9794C35.8586 33.5107 36.4541 33.1065 36.9193 32.8155C37.1512 32.6704 37.3569 32.5496 37.5258 32.4624C37.61 32.4189 37.691 32.3806 37.7653 32.3515C37.8321 32.3253 37.9235 32.2942 38.0196 32.2865C38.1255 32.2781 38.2315 32.299 38.3083 32.3177C38.3946 32.3387 38.4908 32.3693 38.5922 32.4057C38.7955 32.4785 39.0465 32.5842 39.3297 32.7125C39.8976 32.9697 40.6218 33.3306 41.4051 33.7367C42.9731 34.5498 44.7975 35.5549 46.1228 36.3033C48.0035 37.3653 49.7544 38.394 51.0527 39.2001C52.1722 39.8952 52.7532 40.2982 53.0582 40.5431C53.2079 40.6633 53.3129 40.7624 53.382 40.8541C53.4191 40.9033 53.4529 40.9594 53.4761 41.0243C53.5003 41.0922 53.5047 41.1483 53.5062 41.167L53.5063 41.1685C53.5272 41.4307 53.4377 41.6948 53.3143 41.9247C53.187 42.1617 53.0027 42.4015 52.7794 42.6281C52.571 42.8395 52.3459 43.0223 52.1272 43.1581C51.9183 43.2877 51.6765 43.3988 51.4409 43.4175C51.3487 43.4248 51.2605 43.4075 51.1776 43.3812C51.3003 45.4528 51.331 49.5909 51.3298 53.3978C51.3284 57.7392 51.2851 61.6916 51.2842 61.7721M51.2842 61.7721C51.2842 61.7721 51.2842 61.772 51.2842 61.7719L51.1367 61.7704L29.2291 63.4847L28.813 63.5529C28.8557 63.8132 29.091 63.9853 29.3411 63.9654L50.8279 62.2593C51.0763 62.2396 51.2813 62.0348 51.2842 61.7721ZM51.4809 42.441C51.4852 42.4421 51.4858 42.4425 51.4821 42.4413L51.4809 42.441ZM52.5927 41.4491C52.5925 41.449 52.5905 41.4469 52.5873 41.4427C52.5913 41.4471 52.5929 41.4491 52.5927 41.4491ZM38.0588 33.2713C38.0587 33.2713 38.0592 33.2713 38.0602 33.2715L38.0588 33.2713ZM26.0983 43.7472L26.0981 43.7472L26.0983 43.7472Z" fill="#202F3D" stroke="#202F3D" stroke-width="0.843266"/>
<g clip-path="url(#clip1_2256_71326)">
<path d="M38.6208 35.1019C37.6493 35.179 27.583 42.7293 27.2215 43.3724C26.86 44.0156 29.933 62.7275 29.933 62.7275L50.8083 61.0699C50.8083 61.0699 51.014 42.7637 50.5481 41.9929C50.0822 41.2221 39.5922 35.0248 38.6208 35.1019Z" fill="#E23223"/>
<path d="M50.8125 61.1294L29.9373 62.787C29.9035 62.7897 29.8733 62.7665 29.868 62.7338C29.8603 62.687 29.0914 58.001 28.3765 53.2967C26.9271 43.7586 27.1052 43.4418 27.1637 43.3377C27.3646 42.9802 30.1417 40.8205 32.6526 38.9698C33.8876 38.0596 37.9676 35.0856 38.6149 35.0342C39.1471 34.9919 42.1623 36.6266 44.8066 38.1705C47.418 39.6951 50.3458 41.5301 50.6034 41.9561C50.6758 42.076 50.7802 42.5523 50.8496 45.293C50.8905 46.9078 50.9132 49.1025 50.9172 51.8161C50.9239 56.436 50.8731 61.0206 50.8726 61.0664C50.8722 61.0994 50.8462 61.1268 50.8126 61.1295L50.8125 61.1294ZM29.9869 62.655L50.743 61.0069C50.7489 60.4582 50.7933 56.1528 50.787 51.8166C50.7752 43.7001 50.5966 42.1958 50.4913 42.0215C50.2872 41.6838 47.8146 40.0754 44.7398 38.2802C41.4893 36.3824 39.032 35.1291 38.625 35.1614C38.2241 35.1932 35.9104 36.7282 32.7306 39.0718C29.8869 41.1676 27.4407 43.1088 27.2776 43.399C27.2351 43.4748 27.2147 43.9986 27.5564 46.6557C27.7663 48.2873 28.0855 50.5151 28.5052 53.2774C29.1769 57.6973 29.8962 62.1012 29.9869 62.655Z" fill="#1B1B1B"/>
<path d="M50.7218 43.5248C50.6783 42.672 50.6216 42.1144 50.5481 41.9929C50.0822 41.2221 39.5922 35.0248 38.6208 35.1019C37.6493 35.179 27.583 42.7293 27.2215 43.3725C27.1702 43.4639 27.1882 43.9202 27.2568 44.6357C29.0385 43.4226 38.8839 36.7311 39.3184 36.6966C39.7425 36.663 48.7112 42.2652 50.7218 43.5248L50.7218 43.5248Z" fill="#AD2014"/>
<path d="M50.7266 43.5844C50.7127 43.5855 50.6986 43.5822 50.6864 43.5746C49.6424 42.9205 46.9419 41.2331 44.4199 39.6939C40.24 37.143 39.4317 36.7585 39.3219 36.7563C38.9662 36.8055 32.6197 41.0577 27.2936 44.6841C27.2745 44.697 27.2499 44.6991 27.2291 44.6896C27.2081 44.6801 27.1939 44.6604 27.1918 44.6379C27.0938 43.6166 27.1256 43.4066 27.1643 43.3377C27.3652 42.9803 30.1422 40.8205 32.6532 38.9699C33.8882 38.0596 37.9682 35.0856 38.6155 35.0342C39.1477 34.992 42.1629 36.6266 44.8072 38.1705C47.4186 39.6951 50.3464 41.5301 50.6039 41.9562C50.6522 42.0361 50.7237 42.285 50.7866 43.5174C50.7878 43.5413 50.7753 43.5639 50.7542 43.5759C50.7456 43.5808 50.7362 43.5837 50.7267 43.5844L50.7266 43.5844ZM39.3131 36.629C39.393 36.6226 39.6055 36.6057 44.4594 39.5674C46.908 41.0615 49.5313 42.6995 50.6501 43.4001C50.592 42.3355 50.5265 42.0788 50.4919 42.0215C50.2878 41.6839 47.8152 40.0755 44.7404 38.2803C41.49 36.3825 39.0326 35.1292 38.6256 35.1615C38.2247 35.1933 35.911 36.7282 32.7312 39.0719C29.8875 41.1677 27.4414 43.1089 27.2783 43.3991C27.2598 43.4319 27.2275 43.6071 27.3112 44.5169C28.2548 43.8746 31.0953 41.9444 33.756 40.1674C39.0194 36.6523 39.2328 36.6353 39.3131 36.629L39.3131 36.629Z" fill="#AD2014"/>
<path d="M38.7306 35.5698C39.3793 35.6071 50.8835 42.8043 51.4032 42.7631C51.9229 42.7218 53.0157 41.6943 52.968 41.0946C52.9204 40.495 39.3759 32.8318 38.4399 32.9062C37.5039 32.9805 24.6709 42.7994 24.8642 43.3598C25.0575 43.9201 26.3919 44.2105 26.9723 44.017C27.5526 43.8235 38.0818 35.5325 38.7306 35.5698Z" fill="#3054E5"/>
<path d="M51.4089 42.8266C51.313 42.8342 50.9825 42.708 49.2582 41.7142C48.0938 41.043 46.5569 40.1282 45.0706 39.2436C42.2416 37.5597 39.0351 35.6511 38.7272 35.6334C38.6406 35.6284 38.1829 35.8469 36.0894 37.3665C34.67 38.3968 32.8774 39.7474 31.2958 40.939C28.7805 42.8341 27.2271 43.9995 26.9937 44.0773C26.3857 44.28 25.0108 43.9823 24.8032 43.3803C24.7875 43.3349 24.8042 43.2793 24.8573 43.2003C25.3035 42.5361 28.576 39.8938 31.6212 37.5697C33.2604 36.3186 34.8267 35.1642 36.0315 34.3191C37.4031 33.357 38.2119 32.8602 38.4355 32.8424C39.001 32.7975 43.5007 35.2412 46.0704 36.6922C47.8944 37.7221 49.5901 38.7185 50.8451 39.4977C53.0141 40.8442 53.0277 41.016 53.0336 41.0893C53.0564 41.3772 52.8367 41.7858 52.4457 42.1824C52.0807 42.5527 51.6737 42.8055 51.4089 42.8266L51.4089 42.8266ZM38.7161 35.5062C38.7232 35.5057 38.7295 35.5056 38.7353 35.5059C39.0517 35.5241 41.4759 36.9544 45.1384 39.1343C46.6174 40.0147 48.1468 40.925 49.3083 41.5947C50.895 42.5096 51.3212 42.7004 51.3994 42.6993C51.6302 42.681 52.0134 42.4376 52.3523 42.0938C52.7122 41.7288 52.9235 41.3478 52.9038 41.0997C52.8914 41.0523 52.6967 40.7961 50.7222 39.5727C49.4621 38.792 47.7699 37.7987 45.9573 36.7759C41.9302 34.5034 38.8412 32.9382 38.4456 32.9697C38.05 33.0011 35.0662 35.0894 31.355 37.935C29.6422 39.2483 28.0631 40.5038 26.9087 41.4702C25.1048 42.9804 24.9345 43.2844 24.9279 43.3431C25.0875 43.7898 26.0744 44.0541 26.6881 44.0055C26.7877 43.9975 26.8773 43.9814 26.9522 43.9565C27.177 43.8815 29.1392 42.4031 31.2167 40.8379C32.7988 39.6459 34.5919 38.295 36.0122 37.264C38.0824 35.7613 38.5641 35.5183 38.7161 35.5062L38.7161 35.5062Z" fill="#3054E5"/>
<path d="M44.1705 35.7077C41.3388 34.1519 38.8246 32.8756 38.4399 32.9062C37.504 32.9805 24.6709 42.7994 24.8642 43.3598C24.937 43.5709 25.172 43.7437 25.4675 43.8668C27.4337 42.3399 37.7502 34.2887 38.7182 33.8989C39.2076 33.7019 42.1372 35.0152 44.1705 35.7077Z" fill="#668BFF"/>
<path d="M25.4732 43.9303C25.4629 43.9311 25.4524 43.9295 25.4425 43.9254C25.2021 43.8253 24.896 43.6495 24.8032 43.3803C24.7875 43.3349 24.8042 43.2793 24.8573 43.2003C25.3035 42.5361 28.576 39.8938 31.6212 37.5697C33.2604 36.3186 34.8267 35.1642 36.0315 34.3191C37.4031 33.357 38.2119 32.8602 38.4355 32.8424C38.9512 32.8015 42.6407 34.7935 44.203 35.6518C44.2324 35.668 44.2443 35.7035 44.2304 35.7337C44.2165 35.7639 44.1813 35.7787 44.1496 35.7679C43.4863 35.5419 42.7262 35.2495 41.991 34.9666C40.5447 34.4101 39.049 33.8348 38.7434 33.9578C37.8542 34.3159 28.9786 41.2182 26.062 43.4863C25.838 43.6605 25.6512 43.8058 25.5084 43.9166C25.4981 43.9247 25.4858 43.9293 25.4732 43.9303ZM24.9279 43.3431C24.9876 43.51 25.1752 43.6688 25.4585 43.7928C25.5969 43.6853 25.773 43.5483 25.9813 43.3864C28.9015 41.1154 37.788 34.2047 38.6943 33.8398C39.0246 33.7068 40.1783 34.1319 42.0389 34.8478C42.5025 35.0262 42.9761 35.2084 43.4287 35.3751C40.6333 33.8571 38.7487 32.9456 38.4456 32.9697C38.0482 33.0012 35.0662 35.0894 31.355 37.935C29.6421 39.2483 28.0631 40.5038 26.9087 41.4702C25.1048 42.9804 24.9345 43.2844 24.9279 43.3431L24.9279 43.3431Z" fill="#668BFF"/>
<path d="M30.4395 52.5907C30.6558 52.2405 38.6167 50.9614 39.0103 51.2472C39.404 51.5331 40.0141 58.9054 39.7638 59.1788C39.5135 59.4522 31.7806 60.4568 31.608 60.1526C31.4355 59.8485 30.2233 52.9409 30.4395 52.5907Z" fill="#3054E5"/>
<path d="M33.073 60.2195C32.4727 60.2672 31.9876 60.2878 31.7478 60.2619C31.6323 60.2494 31.5752 60.2267 31.5508 60.1837C31.451 60.0077 31.0903 58.0822 30.8134 56.3992C30.6996 55.7072 30.5426 54.7093 30.4417 53.8849C30.2964 52.6988 30.3575 52.5998 30.3836 52.5576C30.4134 52.5093 30.4926 52.3811 32.3512 52.0191C33.581 51.7796 35.1678 51.5225 36.4922 51.3481C37.182 51.2574 37.7709 51.1933 38.1953 51.1631C38.8479 51.1166 38.9943 51.1561 39.0489 51.1958C39.0911 51.2264 39.1899 51.2982 39.347 52.2596C39.4362 52.805 39.5292 53.5462 39.6162 54.4031C39.7255 55.4804 39.8135 56.6224 39.8576 57.5363C39.9326 59.0893 39.8449 59.1851 39.8119 59.2212C39.7824 59.2534 39.7134 59.3287 38.5789 59.5246C37.9153 59.6391 37.0315 59.7694 36.0902 59.8914C35.1151 60.0177 33.9665 60.1486 33.073 60.2195L33.073 60.2195ZM31.6614 60.115C31.8122 60.1975 33.2398 60.1204 35.7054 59.8117C38.0254 59.5212 39.5878 59.2358 39.7146 59.1363C39.7981 58.994 39.763 57.4496 39.5602 55.1868C39.3426 52.7591 39.0992 51.3931 38.9712 51.2984C38.8386 51.2051 37.2969 51.3274 34.7011 51.7381C32.2088 52.1324 30.6073 52.4978 30.4945 52.6243C30.4345 52.7393 30.5163 53.7932 30.9439 56.3902C31.2659 58.3458 31.5845 59.9498 31.6614 60.115L31.6614 60.115Z" fill="#3054E5"/>
<path d="M31.132 52.8329C31.46 52.4932 34.1647 52.0499 34.3397 52.2645C34.5148 52.4792 35.4931 58.7537 35.3472 58.9086C35.2013 59.0636 32.2473 59.6878 32.0925 59.5566C31.9378 59.4254 30.8042 53.1727 31.1321 52.833L31.132 52.8329Z" fill="#F7DF95"/>
<path d="M32.3427 59.6354C32.1042 59.6544 32.0717 59.6268 32.0501 59.6084C32.0261 59.5881 31.9859 59.554 31.8281 58.8086C31.7309 58.3494 31.616 57.7446 31.5047 57.1057C31.2335 55.5492 31.0504 54.1891 31.0148 53.4674C30.9899 52.9628 31.0364 52.8431 31.0851 52.7926L31.1323 52.8365L31.0851 52.7926C31.3818 52.4852 33.3987 52.1216 34.1054 52.1493C34.2634 52.1555 34.3515 52.1798 34.3908 52.2281C34.5332 52.4026 34.9782 55.2757 35.0284 55.6028C35.1593 56.4542 35.2703 57.2455 35.3409 57.8311C35.4672 58.879 35.4256 58.9231 35.3952 58.9554C35.2697 59.0887 33.8931 59.3738 33.7365 59.4059C33.3257 59.4901 32.9416 59.5587 32.6551 59.5992C32.5236 59.6177 32.4218 59.6291 32.3427 59.6354L32.3427 59.6354ZM32.1371 59.5101C32.2415 59.5363 32.8117 59.4659 33.7331 59.2763C34.593 59.0993 35.1998 58.9325 35.2936 58.873C35.324 58.7209 35.198 57.5568 34.8926 55.5763C34.5977 53.6634 34.3549 52.4164 34.289 52.3082C34.2245 52.2553 33.7041 52.2516 32.782 52.4111C31.9695 52.5516 31.3105 52.7446 31.1795 52.8803C31.164 52.8963 31.0918 53.0246 31.1849 53.9837C31.2405 54.5556 31.3449 55.3255 31.4868 56.2102C31.7531 57.8696 32.0551 59.3448 32.1371 59.5101L32.1371 59.5101Z" fill="#F7DF95"/>
<path d="M35.1881 52.1973C35.1089 52.3965 36.0063 58.6105 36.1956 58.8414C36.3848 59.0724 38.9632 58.8765 39.1297 58.7519C39.2961 58.6272 38.7728 51.8968 38.5685 51.685C38.3642 51.4732 35.2672 51.9982 35.1881 52.1974L35.1881 52.1973Z" fill="#F7DF95"/>
<path d="M38.1173 58.9644C37.959 58.977 37.8051 58.987 37.6738 58.9938C37.4103 59.0074 37.0286 59.0207 36.7067 59.0062C36.2831 58.9872 36.1836 58.9296 36.1442 58.8816C36.0125 58.7208 35.6682 56.475 35.5262 55.5169C35.5071 55.3876 35.0578 52.3481 35.1269 52.1744C35.1424 52.1352 35.1838 52.0311 36.2385 51.8267C36.7307 51.7314 37.2804 51.6488 37.709 51.6057C38.5043 51.5259 38.5821 51.6066 38.6153 51.641C38.6421 51.6688 38.6978 51.7266 38.815 52.7243C38.8814 53.2904 38.956 54.064 39.0249 54.9027C39.1458 56.3759 39.258 58.1765 39.2183 58.6487C39.2105 58.7417 39.1979 58.7806 39.1685 58.8026C39.0799 58.8689 38.5796 58.9278 38.1173 58.9645L38.1173 58.9644ZM35.2483 52.2238C35.2292 52.3899 35.4104 53.8487 35.6577 55.5161C35.9283 57.3408 36.1704 58.6921 36.2464 58.8022C36.2836 58.847 36.627 58.9194 37.6559 58.8669C38.4161 58.8281 38.9787 58.7495 39.0801 58.706C39.1314 58.52 39.0635 57.0377 38.9192 55.2123C38.7502 53.074 38.5906 51.8446 38.5195 51.7281C38.4424 51.6706 37.8401 51.6917 36.8704 51.8454C35.9672 51.9886 35.3341 52.1512 35.2483 52.2238L35.2483 52.2238Z" fill="#F7DF95"/>
<path d="M31.7063 52.5836L31.1104 53.8852C31.1332 54.1375 31.1656 54.4227 31.2047 54.7278L32.2452 52.4483C32.0513 52.4907 31.8677 52.5364 31.7063 52.5836L31.7063 52.5836Z" fill="white"/>
<path d="M31.2106 54.7913C31.2057 54.7917 31.2008 54.7915 31.1959 54.7909C31.167 54.7867 31.1445 54.7643 31.1409 54.7359C31.1002 54.419 31.0684 54.1348 31.0463 53.8909C31.0453 53.8801 31.0472 53.8691 31.0517 53.8591L31.6477 52.5575C31.6554 52.5405 31.6704 52.5276 31.6886 52.5223C31.8476 52.4758 32.0305 52.4299 32.232 52.3859C32.2561 52.3807 32.2809 52.3891 32.2964 52.4078C32.3119 52.4264 32.3154 52.4521 32.3053 52.4741L31.2648 54.7536C31.2549 54.7753 31.2339 54.7895 31.2105 54.7913L31.2106 54.7913ZM31.1775 53.8958C31.1938 54.0742 31.2154 54.274 31.2417 54.4922L32.1333 52.539C31.9959 52.5708 31.8689 52.6035 31.7541 52.6364L31.1775 53.8958L31.1775 53.8958Z" fill="white"/>
<path d="M32.871 52.3303L31.326 55.5933C31.3494 55.7501 31.3739 55.9088 31.399 56.0678L33.7689 52.2201C33.5123 52.2373 33.1957 52.2768 32.871 52.3303L32.871 52.3303Z" fill="white"/>
<path d="M31.4041 56.1313C31.3983 56.1317 31.3924 56.1314 31.3864 56.1303C31.3596 56.1252 31.3389 56.1041 31.3348 56.0776C31.3093 55.9161 31.2847 55.7563 31.2617 55.6026C31.2599 55.5903 31.2618 55.5777 31.2671 55.5664L32.8121 52.3034C32.8211 52.2843 32.8393 52.2707 32.8605 52.2672C33.1916 52.2126 33.5126 52.1733 33.7648 52.1563C33.789 52.1547 33.812 52.1664 33.8246 52.1867C33.8372 52.207 33.8372 52.2325 33.8247 52.2529L31.4547 56.1005C31.4437 56.1185 31.4247 56.1296 31.4041 56.1313L31.4041 56.1313ZM31.3934 55.6026C31.4071 55.6946 31.4215 55.7887 31.4362 55.884L33.6478 52.2935C33.432 52.3125 33.1778 52.3451 32.9156 52.3876L31.3934 55.6026Z" fill="white"/>
<path d="M48.9221 61.2162L42.4773 61.728C42.4773 61.728 41.2819 50.0362 41.5334 49.8406C41.7849 49.6451 48.7308 49.514 48.9557 49.7452C49.1807 49.9764 48.9221 61.2162 48.9221 61.2162Z" fill="#3054E5"/>
<path d="M48.9273 61.2834L42.4825 61.7951C42.4472 61.7979 42.4162 61.7726 42.4127 61.7381C42.4097 61.7088 42.1107 58.7811 41.8463 55.867C41.3084 49.9379 41.4286 49.8444 41.4932 49.7942C41.7003 49.6332 44.8907 49.5783 45.2538 49.5726C46.2015 49.5577 47.0839 49.5584 47.7384 49.5748C48.9051 49.604 48.9688 49.6694 49.003 49.7046C49.0506 49.7534 49.1619 49.8679 49.0885 55.5716C49.0524 58.3783 48.9879 61.1929 48.9873 61.221C48.9865 61.2538 48.9606 61.2807 48.9273 61.2834L48.9273 61.2834ZM42.5359 61.6628L48.8585 61.1608C48.9593 56.756 49.0538 50.1664 48.9064 49.7926C48.7601 49.7195 47.4671 49.665 45.2401 49.7005C43.1381 49.734 41.7478 49.8227 41.5809 49.8911C41.5365 50.0294 41.5366 51.0266 41.9853 55.9577C42.2258 58.6012 42.4918 61.2291 42.5359 61.6628Z" fill="#3054E5"/>
<path d="M42.8735 56.5773C43.0647 56.5621 43.2076 56.3978 43.1928 56.2103C43.1779 56.0228 43.0108 55.8831 42.8196 55.8983C42.6283 55.9135 42.4854 56.0778 42.5003 56.2653C42.5152 56.4528 42.6823 56.5925 42.8735 56.5773Z" fill="#F7DF95"/>
<path d="M42.8783 56.6408C42.6516 56.6588 42.4528 56.4926 42.4351 56.2703C42.4175 56.048 42.5876 55.8525 42.8143 55.8345C43.041 55.8165 43.2398 55.9827 43.2575 56.205C43.2751 56.4273 43.105 56.6228 42.8783 56.6408ZM42.8244 55.9618C42.6692 55.9741 42.5528 56.1079 42.5649 56.26C42.577 56.4121 42.713 56.5258 42.8682 56.5135C43.0234 56.5012 43.1397 56.3674 43.1277 56.2153C43.1156 56.0632 42.9796 55.9494 42.8244 55.9618Z" fill="#F7DF95"/>
<path d="M42.391 50.8716C42.5702 50.7174 48.0552 50.5864 48.2164 50.7994C48.3776 51.0124 48.4505 54.9713 48.238 55.1863C48.0255 55.4013 43.0509 55.4248 42.8573 55.2197C42.6638 55.0145 42.2118 51.0259 42.391 50.8716Z" fill="#668BFF"/>
<path d="M47.6264 55.3552C47.4736 55.3674 47.284 55.379 47.0487 55.3896C46.4091 55.4183 45.6025 55.4304 44.8356 55.4229C44.2988 55.4177 43.8326 55.4031 43.4877 55.3807C42.8828 55.3415 42.8346 55.2905 42.8087 55.263C42.6804 55.127 42.5213 53.9012 42.4588 53.3806C42.3568 52.5298 42.2643 51.4796 42.2877 51.0514C42.2961 50.8978 42.3176 50.8493 42.3474 50.8236C42.373 50.8016 42.4206 50.7606 43.1586 50.713C43.5874 50.6854 44.1677 50.6613 44.7929 50.6452C45.8565 50.6177 47.3202 50.6084 47.9451 50.6726C48.2011 50.6989 48.245 50.7308 48.268 50.7612C48.4069 50.9448 48.4307 52.9076 48.4317 52.9911C48.4379 53.5438 48.4307 54.0594 48.4112 54.443C48.376 55.1374 48.3138 55.2003 48.2839 55.2306C48.2585 55.2562 48.2063 55.3091 47.6264 55.3552L47.6264 55.3552ZM42.9034 55.1748C43.0083 55.2407 43.9663 55.3056 45.5478 55.2966C47.1329 55.2877 48.0901 55.2101 48.191 55.1413C48.2573 55.0533 48.3163 54.2891 48.3015 52.9907C48.2879 51.79 48.2209 50.949 48.1655 50.8413C48.0511 50.7795 47.1123 50.7288 45.2965 50.7618C43.6885 50.7911 42.575 50.8657 42.4357 50.9196C42.3891 51.0337 42.4137 51.8088 42.5526 53.0573C42.6879 54.2739 42.8366 55.0855 42.9034 55.1748Z" fill="#668BFF"/>
<path d="M43.033 57.0133C43.2123 56.8591 47.943 56.4632 48.1042 56.6762C48.2654 56.8892 48.3139 60.285 48.1014 60.4999C47.8889 60.7149 43.4878 61.083 43.2942 60.8778C43.1007 60.6726 42.8538 57.1676 43.033 57.0133Z" fill="#668BFF"/>
<path d="M45.6307 60.9154C44.9046 60.9731 44.229 61.0055 43.7987 61.0013C43.3774 60.9972 43.2851 60.9603 43.2481 60.9211C43.1315 60.7975 43.0388 59.8922 42.9939 59.3636C42.9242 58.5434 42.8925 57.7163 42.9149 57.3054C42.9294 57.0402 42.9623 56.9908 42.9919 56.9653C43.1248 56.8509 44.7217 56.7118 45.208 56.6719C46.2179 56.5888 47.4654 56.5177 47.9387 56.5663C48.0874 56.5816 48.134 56.606 48.1582 56.638C48.2969 56.8213 48.3092 58.5146 48.3097 58.5866C48.3131 59.1231 48.3043 60.3878 48.1497 60.5442C48.0323 60.6631 47.1031 60.7772 46.3443 60.852C46.1056 60.8755 45.8654 60.8968 45.6307 60.9154L45.6307 60.9154ZM43.3425 60.8327C43.4426 60.8932 44.3019 60.8957 45.7086 60.7809C47.0692 60.6699 47.9711 60.528 48.057 60.4549C48.1229 60.3816 48.1866 59.7163 48.1795 58.588C48.1729 57.5492 48.1107 56.8161 48.0558 56.718C47.9508 56.6611 47.1308 56.654 45.5591 56.7723C44.2088 56.874 43.1973 57.0023 43.0793 57.0608C43.0278 57.1578 43.015 57.8462 43.0927 58.9537C43.168 60.0278 43.2783 60.749 43.3425 60.8327Z" fill="#668BFF"/>
<path d="M39.4309 44.8682C41.6308 44.6935 43.3096 43.2348 43.1806 41.6101C43.0516 39.9853 41.1636 38.8098 38.9637 38.9845C36.7638 39.1592 35.0849 40.6179 35.2139 42.2427C35.343 43.8674 37.2309 45.0429 39.4309 44.8682Z" fill="#3054E5"/>
<path d="M39.4364 44.9317C37.2042 45.109 35.2811 43.9049 35.1495 42.2477C35.0179 40.5904 36.7269 39.098 38.9591 38.9207C41.1913 38.7435 43.1144 39.9476 43.246 41.6048C43.3776 43.262 41.6686 44.7545 39.4364 44.9317ZM38.9692 39.048C36.8085 39.2196 35.1532 40.6503 35.2793 42.2374C35.4053 43.8244 37.2656 44.976 39.4263 44.8045C41.5869 44.6329 43.2422 43.2022 43.1162 41.6151C42.9902 40.028 41.1298 38.8764 38.9692 39.048Z" fill="#3054E5"/>
<path d="M39.3841 44.2728C41.1388 44.1335 42.4779 42.9699 42.375 41.674C42.2721 40.378 40.7661 39.4404 39.0114 39.5797C37.2567 39.7191 35.9176 40.8826 36.0205 42.1786C36.1234 43.4745 37.6293 44.4121 39.3841 44.2728Z" fill="#F7DF95"/>
<path d="M39.3886 44.3363C37.6009 44.4782 36.0606 43.5126 35.9551 42.1836C35.8496 40.8546 37.2181 39.658 39.0059 39.516C40.7936 39.374 42.3338 40.3397 42.4393 41.6687C42.5449 42.9977 41.1763 44.1943 39.3886 44.3363ZM39.016 39.6433C37.2998 39.7795 35.9849 40.9145 36.0849 42.1733C36.1848 43.4321 37.6624 44.3453 39.3785 44.209C41.0947 44.0728 42.4095 42.9378 42.3096 41.679C42.2096 40.4202 40.7321 39.507 39.016 39.6433Z" fill="#F7DF95"/>
<path d="M37.268 40.1196L36.0283 42.2587C36.0466 42.4036 36.0825 42.5437 36.1343 42.678L37.9473 39.8019C37.7033 39.8879 37.4754 39.9949 37.268 40.1196L37.268 40.1196Z" fill="white"/>
<path d="M36.1386 42.7415C36.1349 42.7418 36.1311 42.7418 36.1273 42.7414C36.1026 42.7391 36.0815 42.7233 36.0727 42.7006C36.0184 42.5603 35.9815 42.4142 35.9629 42.2666C35.9612 42.2529 35.964 42.2391 35.971 42.2272L37.2107 40.0881C37.2161 40.0787 37.2239 40.0708 37.2333 40.0651C37.4462 39.9372 37.6788 39.8283 37.9247 39.7417C37.9508 39.7326 37.9798 39.7405 37.9972 39.7616C38.0145 39.7826 38.0164 39.8122 38.0018 39.8353L36.1889 42.7113C36.1779 42.7288 36.1591 42.7399 36.1386 42.7415ZM36.0949 42.2714C36.1069 42.3581 36.1257 42.4442 36.1511 42.5288L37.7893 39.93C37.6229 39.9981 37.4642 40.0769 37.3154 40.1654L36.0949 42.2714L36.0949 42.2714Z" fill="white"/>
<path d="M39.0113 39.5769C38.9273 39.5836 38.8443 39.5926 38.7622 39.6039L36.4087 43.1603C36.5714 43.3731 36.7792 43.5626 37.0225 43.7224L39.0807 39.572C39.0577 39.5735 39.0345 39.575 39.0113 39.5769L39.0113 39.5769Z" fill="white"/>
<path d="M37.0265 43.7897C37.0119 43.7909 36.9974 43.7872 36.9851 43.7792C36.7335 43.6138 36.5216 43.4198 36.3554 43.2024C36.339 43.181 36.338 43.1518 36.3529 43.1293L38.7065 39.5729C38.7168 39.5574 38.7335 39.5469 38.7522 39.5443C38.8597 39.5296 38.9684 39.5188 39.0756 39.512C39.0987 39.5105 39.1208 39.5212 39.1337 39.54C39.1466 39.5589 39.1483 39.583 39.1382 39.6034L37.08 43.7539C37.0717 43.7705 37.0565 43.7829 37.0383 43.7877C37.0344 43.7888 37.0305 43.7894 37.0265 43.7897L37.0265 43.7897ZM36.4871 43.1608C36.6261 43.3348 36.797 43.4927 36.9961 43.6314L38.9715 39.6479C38.9142 39.653 38.8566 39.6594 38.7994 39.6668L36.4871 43.1608Z" fill="white"/>
</g>
</g>
<defs>
<linearGradient id="paint0_linear_2256_71326" x1="49" y1="40" x2="-4.2634" y2="40" gradientUnits="userSpaceOnUse">
<stop stop-color="#D9D9D9"/>
<stop offset="1" stop-color="#D9D9D9" stop-opacity="0"/>
</linearGradient>
<clipPath id="clip0_2256_71326">
<rect width="97" height="86" fill="white" transform="translate(0.5 -3)"/>
</clipPath>
<clipPath id="clip1_2256_71326">
<rect width="28.3264" height="29.1801" fill="white" transform="translate(24.0541 33.9844) rotate(-4.54)"/>
</clipPath>
</defs>
</svg>
