<svg width="12" height="14" viewBox="0 0 12 14" fill="none" xmlns="http://www.w3.org/2000/svg">
<path fill-rule="evenodd" clip-rule="evenodd" d="M0.0566406 7.00008C0.0566406 11.9138 1.54272 13.5522 6.00027 13.5522C10.4585 13.5522 11.9439 11.9138 11.9439 7.00008C11.9439 2.08637 10.4585 0.447998 6.00027 0.447998C1.54272 0.447998 0.0566406 2.08637 0.0566406 7.00008ZM2.9015 4.29236C2.9015 3.99896 3.13935 3.76111 3.43275 3.76111H5.38421C5.67761 3.76111 5.91546 3.99896 5.91546 4.29236C5.91546 4.58576 5.67761 4.82361 5.38421 4.82361H3.43275C3.13935 4.82361 2.9015 4.58576 2.9015 4.29236ZM2.90125 6.95522C2.90125 6.66182 3.13909 6.42397 3.4325 6.42397H8.54666C8.84006 6.42397 9.07791 6.66182 9.07791 6.95522C9.07791 7.24862 8.84006 7.48647 8.54666 7.48647H3.4325C3.13909 7.48647 2.90125 7.24862 2.90125 6.95522ZM2.90125 9.61841C2.90125 9.32501 3.13909 9.08716 3.4325 9.08716H8.54666C8.84006 9.08716 9.07791 9.32501 9.07791 9.61841C9.07791 9.91181 8.84006 10.1497 8.54666 10.1497H3.4325C3.13909 10.1497 2.90125 9.91181 2.90125 9.61841Z" fill="#C3C7CB"/>
</svg>
