<svg width="11" height="11" viewBox="0 0 11 11" fill="none" xmlns="http://www.w3.org/2000/svg">
<path d="M10.3826 9.74921C10.7231 9.74921 11 10.0297 11 10.3746C11 10.7201 10.7231 11 10.3826 11H6.89314C6.55269 11 6.27578 10.7201 6.27578 10.3746C6.27578 10.0297 6.55269 9.74921 6.89314 9.74921H10.3826ZM7.96269 0.427206L8.86408 1.14326C9.23372 1.43231 9.48014 1.81332 9.56445 2.21405C9.66172 2.65485 9.55796 3.08776 9.26614 3.46221L3.89669 10.4059C3.65026 10.7213 3.28711 10.8986 2.89802 10.9052L0.758019 10.9315C0.641292 10.9315 0.544019 10.8527 0.51808 10.741L0.0317157 8.63223C-0.0525874 8.24465 0.0317157 7.84392 0.27814 7.53517L4.08475 2.60821C4.1496 2.52937 4.26632 2.51689 4.34414 2.57536L5.9459 3.8498C6.04966 3.9352 6.19233 3.98119 6.34148 3.96148C6.65923 3.92206 6.87323 3.63301 6.84081 3.32426C6.82136 3.16659 6.74354 3.03521 6.63978 2.93667C6.60736 2.91039 5.08342 1.68851 5.08342 1.68851C4.98614 1.60968 4.96669 1.46515 5.04451 1.36727L5.6476 0.584868C6.2053 -0.131183 7.17802 -0.196876 7.96269 0.427206Z" fill="white"/>
</svg>
