<svg width="16" height="16" viewBox="0 0 16 16" fill="none" xmlns="http://www.w3.org/2000/svg">
<path fill-rule="evenodd" clip-rule="evenodd" d="M1.3335 7.99955C1.3335 4.32022 4.32016 1.33289 8.00016 1.33289C11.6868 1.33289 14.6668 4.32022 14.6668 7.99955C14.6668 11.6802 11.6868 14.6662 8.00016 14.6662C4.32016 14.6662 1.3335 11.6802 1.3335 7.99955ZM7.4135 5.47289C7.4135 5.15355 7.68016 4.88622 8.00016 4.88622C8.32016 4.88622 8.58016 5.15355 8.58016 5.47289V8.41955C8.58016 8.74022 8.32016 8.99955 8.00016 8.99955C7.68016 8.99955 7.4135 8.74022 7.4135 8.41955V5.47289ZM8.00683 11.1202C7.68016 11.1202 7.42016 10.8536 7.42016 10.5336C7.42016 10.2136 7.68016 9.95355 8.00016 9.95355C8.32683 9.95355 8.58683 10.2136 8.58683 10.5336C8.58683 10.8536 8.32683 11.1202 8.00683 11.1202Z" fill="#E23223"/>
</svg>
