<svg width="32" height="32" viewBox="0 0 32 32" fill="none" xmlns="http://www.w3.org/2000/svg">
<rect x="0.333333" y="0.333333" width="31.3333" height="31.3333" rx="11.6667" fill="white"/>
<path fill-rule="evenodd" clip-rule="evenodd" d="M9.21154 21.3943V21.9127L9.57813 21.5461L13.1006 18.0237C13.2191 17.9051 13.3735 17.8462 13.5288 17.8462C13.6842 17.8462 13.8385 17.9051 13.9571 18.0237C14.1937 18.2602 14.1937 18.6436 13.9571 18.8802L10.4346 22.4026L10.0681 22.7692H10.5865H12.7083C13.0427 22.7692 13.3141 23.0407 13.3141 23.375C13.3141 23.7093 13.0427 23.9808 12.7083 23.9808H8.60577C8.27145 23.9808 8 23.7093 8 23.375V19.2724C8 18.9381 8.27145 18.6667 8.60577 18.6667C8.94009 18.6667 9.21154 18.9381 9.21154 19.2724V21.3943ZM21.3943 22.7692H21.9127L21.5461 22.4026L18.0237 18.8802C17.9051 18.7616 17.8462 18.6073 17.8462 18.4519C17.8462 18.2966 17.9051 18.1422 18.0237 18.0237C18.2602 17.7871 18.6436 17.7871 18.8802 18.0237L22.4026 21.5461L22.7692 21.9127V21.3943V19.2724C22.7692 18.9381 23.0407 18.6667 23.375 18.6667C23.7093 18.6667 23.9808 18.9381 23.9808 19.2724V23.375C23.9808 23.7093 23.7093 23.9808 23.375 23.9808H19.2724C18.9381 23.9808 18.6667 23.7093 18.6667 23.375C18.6667 23.0407 18.9381 22.7692 19.2724 22.7692H21.3943ZM22.7692 10.5865V10.0681L22.4026 10.4346L18.8802 13.9571C18.7616 14.0757 18.6073 14.1346 18.4519 14.1346C18.2966 14.1346 18.1422 14.0757 18.0237 13.9571C17.7871 13.7206 17.7871 13.3371 18.0237 13.1006L21.5461 9.57813L21.9127 9.21154H21.3943H19.2724C18.9381 9.21154 18.6667 8.94009 18.6667 8.60577C18.6667 8.27145 18.9381 8 19.2724 8H23.375C23.7093 8 23.9808 8.27145 23.9808 8.60577V12.7083C23.9808 13.0427 23.7093 13.3141 23.375 13.3141C23.0407 13.3141 22.7692 13.0427 22.7692 12.7083V10.5865ZM10.5865 9.21154H10.0681L10.4346 9.57813L13.9571 13.1006C14.0757 13.2191 14.1346 13.3735 14.1346 13.5288C14.1346 13.6842 14.0757 13.8385 13.9571 13.9571C13.7206 14.1937 13.3371 14.1937 13.1006 13.9571L9.57813 10.4346L9.21154 10.0681V10.5865V12.7083C9.21154 13.0427 8.94009 13.3141 8.60577 13.3141C8.27145 13.3141 8 13.0427 8 12.7083V8.60577C8 8.27145 8.27145 8 8.60577 8H12.7083C13.0427 8 13.3141 8.27145 13.3141 8.60577C13.3141 8.94009 13.0427 9.21154 12.7083 9.21154H10.5865Z" fill="#202F3D"/>
<rect x="0.333333" y="0.333333" width="31.3333" height="31.3333" rx="11.6667" stroke="#F2F2F3" stroke-width="0.666667"/>
</svg>
