<svg width="16" height="16" viewBox="0 0 16 16" fill="none" xmlns="http://www.w3.org/2000/svg">
<g opacity="0.87">
<path d="M6.49992 6.00008C6.49992 5.17165 7.17149 4.50008 7.99992 4.50008C8.82835 4.50008 9.49992 5.17165 9.49992 6.00008C9.49992 6.82851 8.82835 7.50008 7.99992 7.50008C7.17149 7.50008 6.49992 6.82851 6.49992 6.00008Z" fill="white"/>
<path fill-rule="evenodd" clip-rule="evenodd" d="M7.89194 1.66675C5.75703 1.66675 3.97901 3.30424 3.80363 5.43193C3.70935 6.57575 4.06266 7.71151 4.78916 8.59999L7.18569 11.5309C7.60652 12.0455 8.39332 12.0456 8.81415 11.5309L11.2107 8.59999C11.9372 7.71151 12.2905 6.57575 12.1962 5.43193C12.0208 3.30424 10.2428 1.66675 8.10791 1.66675H7.89194ZM7.99992 3.50008C6.61921 3.50008 5.49992 4.61937 5.49992 6.00008C5.49992 7.38079 6.61921 8.50008 7.99992 8.50008C9.38063 8.50008 10.4999 7.38079 10.4999 6.00008C10.4999 4.61937 9.38063 3.50008 7.99992 3.50008Z" fill="white"/>
<path d="M4.89019 10.2195C5.13718 10.343 5.23729 10.6434 5.1138 10.8904L4.14227 12.8334H11.8576L10.886 10.8904C10.7625 10.6434 10.8627 10.343 11.1096 10.2195C11.3566 10.096 11.657 10.1961 11.7805 10.4431L13.1138 13.1098C13.1913 13.2648 13.183 13.4489 13.0919 13.5963C13.0008 13.7437 12.8399 13.8334 12.6666 13.8334H3.33325C3.15996 13.8334 2.99903 13.7437 2.90793 13.5963C2.81682 13.4489 2.80854 13.2648 2.88604 13.1098L4.21937 10.4431C4.34287 10.1961 4.6432 10.096 4.89019 10.2195Z" fill="white"/>
</g>
</svg>
