<svg width="20" height="22" viewBox="0 0 20 22" fill="none" xmlns="http://www.w3.org/2000/svg">
<path fill-rule="evenodd" clip-rule="evenodd" d="M2.39266 6.43359C3.32692 3.08811 6.50451 0.910034 10.0024 0.910034C13.5004 0.910034 16.6779 3.08811 17.6122 6.43359C17.8368 7.23792 18.046 8.04668 18.2032 8.77073C18.5699 10.4606 18.8757 12.7162 19.0649 14.2778C19.2429 15.7476 18.2169 17.0943 16.7105 17.3302C14.9048 17.6129 12.1183 17.9883 10.0024 17.9883C7.8866 17.9883 5.10005 17.6129 3.29435 17.3302C1.78792 17.0943 0.761939 15.7476 0.939967 14.2778C1.12914 12.7162 1.43492 10.4606 1.80169 8.77073C1.95885 8.04668 2.16804 7.23792 2.39266 6.43359ZM10.0024 2.4626C7.1666 2.4626 4.6587 4.22264 3.92725 6.8419C3.70699 7.63061 3.50626 8.40823 3.35774 9.09252C3.00719 10.7076 2.70824 12.9024 2.51955 14.4601C2.44054 15.1124 2.8913 15.6947 3.54627 15.7972C5.34809 16.0793 8.02482 16.4357 10.0024 16.4357C11.98 16.4357 14.6568 16.0793 16.4586 15.7972C17.1136 15.6947 17.5643 15.1124 17.4853 14.4601C17.2966 12.9024 16.9977 10.7076 16.6471 9.09252C16.4986 8.40823 16.2979 7.63061 16.0776 6.8419C15.3462 4.22264 12.8383 2.4626 10.0024 2.4626Z" fill="#202F3D"/>
<path fill-rule="evenodd" clip-rule="evenodd" d="M7.88165 16.4357C8.32088 16.4357 8.67694 16.7832 8.67694 17.212V18.247C8.67694 18.9616 9.27038 19.5408 10.0024 19.5408C10.7345 19.5408 11.3279 18.9616 11.3279 18.247V17.212C11.3279 16.7832 11.684 16.4357 12.1232 16.4357C12.5624 16.4357 12.9185 16.7832 12.9185 17.212V18.247C12.9185 19.819 11.6129 21.0934 10.0024 21.0934C8.39193 21.0934 7.08636 19.819 7.08636 18.247V17.212C7.08636 16.7832 7.44243 16.4357 7.88165 16.4357Z" fill="#202F3D"/>
</svg>
