<svg width="40" height="40" viewBox="0 0 40 40" fill="none" xmlns="http://www.w3.org/2000/svg">
<path d="M33.6878 37.3749L31.8483 36.8825L31.3547 35.8133L28.1666 35.8971L24.8511 35.0097L24.1042 33.8519L21.0019 33.9794L17.7628 33.1124C15.5128 32.5124 14.7503 29.6874 16.4003 28.0374L28.0503 16.3749C29.7003 14.7249 32.5253 15.4749 33.1253 17.7374L34.0911 21.3457L33.9559 24.2763L35.0569 24.9539L36.0443 28.6428L35.8788 31.4525L36.9581 32.0571L37.3878 33.6624C38.0003 35.9124 35.9378 37.9749 33.6878 37.3749Z" fill="#F9C23C"/>
<path d="M30.249 31.3158C32.0994 29.5878 33.6755 27.5075 35.0672 24.9938L34.0955 21.3635C32.4974 24.8608 30.6997 27.475 28.5432 29.4888C26.4649 31.4296 24.003 32.8598 20.9552 33.9671L24.8668 35.014C26.8691 34.0176 28.65 32.809 30.249 31.3158Z" fill="#3F5FFF"/>
<path d="M34.6411 34.8578C35.5257 34.0305 36.2862 33.104 36.96 32.0653L36.0289 28.5868C35.1506 30.4494 34.1668 31.8792 32.934 33.0321C31.7042 34.1821 30.1735 35.1062 28.1363 35.8892L31.8723 36.8891C32.9008 36.2984 33.817 35.6285 34.6411 34.8578Z" fill="#3F5FFF"/>
<path d="M16.1125 32.1124C14.3625 30.3624 16.5375 25.3624 20.9625 20.9374C25.3875 16.5124 30.375 14.3374 32.125 16.0874C33.875 17.8374 31.7 22.8374 27.275 27.2624C22.85 31.6874 17.85 33.8499 16.1125 32.1124Z" fill="#6D4534"/>
<path d="M25.4873 9.08761C23.9373 11.9876 23.6248 15.3126 24.5873 18.4501C25.3998 21.1251 27.0748 23.3876 29.3498 24.9501C29.9998 24.1376 30.5623 23.3251 31.0373 22.5376C29.2998 21.3501 28.0248 19.6251 27.3998 17.5876C26.6623 15.2001 26.8998 12.6751 28.0748 10.4751C28.4623 9.75011 28.1873 8.86261 27.4748 8.48761C26.7498 8.10011 25.8623 8.37511 25.4873 9.08761Z" fill="#F70A8D"/>
<path d="M12.3125 20.8908C9.94915 19.0239 6.88387 18.6437 4.24514 19.6278C3.5671 19.8807 2.81244 19.536 2.55956 18.858C2.30668 18.1799 2.65135 17.4253 3.3294 17.1724C6.79067 15.8815 10.8254 16.3764 13.937 18.8344C14.5049 19.283 14.6016 20.107 14.153 20.6748C13.7044 21.2427 12.8804 21.3394 12.3125 20.8908Z" fill="#F70A8D"/>
<path d="M32.4873 12.1126C31.6865 12.1126 31.0373 11.4634 31.0373 10.6626C31.0373 9.86178 31.6865 9.21259 32.4873 9.21259C33.2881 9.21259 33.9373 9.86178 33.9373 10.6626C33.9373 11.4634 33.2881 12.1126 32.4873 12.1126Z" fill="#F70A8D"/>
<path d="M7.33729 10.6626C7.33729 11.4634 7.98648 12.1126 8.78729 12.1126C9.5881 12.1126 10.2373 11.4634 10.2373 10.6626C10.2373 9.86178 9.5881 9.21259 8.78729 9.21259C7.98648 9.21259 7.33729 9.86178 7.33729 10.6626Z" fill="#F70A8D"/>
<path d="M24.3877 4.95C24.3877 5.61274 24.925 6.15 25.5877 6.15C26.2505 6.15 26.7877 5.61274 26.7877 4.95C26.7877 4.28726 26.2505 3.75 25.5877 3.75C24.925 3.75 24.3877 4.28726 24.3877 4.95Z" fill="#F9C23C"/>
<path d="M8.15022 30.5125C8.15022 31.1821 8.69307 31.725 9.36272 31.725C10.0324 31.725 10.5752 31.1821 10.5752 30.5125C10.5752 29.8429 10.0324 29.3 9.36272 29.3C8.69307 29.3 8.15022 29.8429 8.15022 30.5125Z" fill="#F9C23C"/>
<path d="M12.9625 5.02508C13.1625 4.85008 13.4125 4.73758 13.6875 4.72508C14.3625 4.68758 14.9375 5.20008 14.9875 5.87508C15.075 7.25008 16.025 9.73758 16.3875 10.5751C16.3875 10.5813 16.3906 10.5876 16.3937 10.5938C16.3968 10.6001 16.4 10.6063 16.4 10.6126C16.4669 10.7777 16.5385 10.9404 16.6148 11.1007C16.7423 10.941 16.8832 10.7948 17.0375 10.6626C17.3875 10.3501 17.8125 10.1126 18.3125 9.95009L18.35 9.93759C20.0375 9.37509 21.875 10.2876 22.4375 11.9876C22.7125 12.8126 22.65 13.6876 22.2625 14.4626C21.875 15.2376 21.2125 15.8126 20.3875 16.0876C20.2988 16.1171 20.209 16.1358 20.1195 16.1443C19.4879 16.3149 18.8767 16.3208 18.2883 16.1628C18.3239 16.3344 18.3653 16.5052 18.4125 16.6751C18.5875 17.3251 18.2 18.0001 17.55 18.1751C16.9 18.3501 16.225 17.9626 16.05 17.3126C15.7683 16.2944 15.6463 15.2574 15.6838 14.2097C15.0335 13.3949 14.5139 12.4973 14.125 11.5251L14.1066 11.4805C13.8748 10.9198 12.6588 7.97767 12.5375 6.01258C12.525 5.62508 12.6875 5.26258 12.9625 5.02508ZM19.0625 12.2626C18.7182 12.3773 18.3653 12.5704 18.2143 13.3577C18.8299 13.9294 19.2249 13.8667 19.575 13.7501C19.617 13.7361 19.6594 13.7245 19.7019 13.7153C19.8606 13.6406 19.9884 13.5088 20.0625 13.3501C20.1625 13.1626 20.175 12.9501 20.1 12.7501C19.9625 12.3376 19.5125 12.1126 19.1 12.2501L19.0625 12.2626Z" fill="#00A6ED"/>
<path d="M17.1625 22.7001C12.9 21.5126 8.43746 22.0501 4.58746 24.2251C3.87496 24.6376 3.62496 25.5251 4.01246 26.2251C4.41246 26.9376 5.31246 27.1876 6.02496 26.7876C9.18746 25.0126 12.8625 24.5626 16.3625 25.5376C19.25 26.3376 21.725 28.0376 23.5125 30.3876C24.275 29.8626 25.0625 29.2626 25.8375 28.5876C23.675 25.7501 20.6625 23.6751 17.1625 22.7001Z" fill="#00A6ED"/>
<path d="M19.2199 21.2318C19.2199 22.0257 19.8635 22.6693 20.6574 22.6693C21.4513 22.6693 22.0949 22.0257 22.0949 21.2318C22.0949 20.4378 21.4513 19.7943 20.6574 19.7943C19.8635 19.7943 19.2199 20.4378 19.2199 21.2318Z" fill="#00A6ED"/>
</svg>
