<svg width="51" height="51" viewBox="0 0 51 51" fill="none" xmlns="http://www.w3.org/2000/svg">
<g clip-path="url(#clip0_199_15943)">
<path d="M17.1464 45.7055L18.7562 44.6881L18.9093 43.5205L21.9779 42.6519L24.8793 40.8182L25.2478 39.4907L28.2476 38.6894L31.082 36.8979C33.0516 35.6557 32.9391 32.7318 30.8729 31.6474L16.2806 23.9792C14.2144 22.8949 11.7404 24.4514 11.8408 26.79L11.9923 30.5222L12.9933 33.2799L12.1438 34.2543L12.2986 38.0699L13.2926 40.7032L12.442 41.6016L12.5094 43.262C12.5941 45.5923 15.1768 46.9478 17.1464 45.7055Z" fill="#F9C23C"/>
<path d="M18.6268 38.8977C16.3461 37.7985 14.2224 36.2813 12.1458 34.2955L11.9934 30.5406C14.5596 33.404 17.0537 35.3649 19.7117 36.6459C22.2734 37.8805 25.0492 38.5134 28.2885 38.6637L24.8656 40.8271C22.6574 40.4715 20.5976 39.8475 18.6268 38.8977Z" fill="#3F5FFF"/>
<path d="M15.4873 43.5861C14.3967 43.0595 13.395 42.4012 12.4427 41.61L12.2967 38.0119C13.6894 39.5289 15.054 40.6012 16.574 41.3351C18.0903 42.0672 19.8266 42.494 22.0044 42.6354L18.7351 44.7016C17.5775 44.4436 16.5035 44.0767 15.4873 43.5861Z" fill="#3F5FFF"/>
<path d="M32.36 35.4522C33.5101 33.2607 29.946 29.1343 24.4048 26.2262C18.8636 23.3182 13.4549 22.7256 12.3048 24.917C11.1547 27.1084 14.7189 31.2349 20.26 34.1429C25.8012 37.051 31.2182 37.6279 32.36 35.4522Z" fill="#6D4534"/>
<path d="M16.5593 16.259C18.9019 18.5666 20.1895 21.648 20.2041 24.9298C20.2243 27.7254 19.2983 30.3838 17.5912 32.5524C16.7289 31.9701 15.9501 31.3617 15.2623 30.7512C16.5678 29.1005 17.2719 27.0743 17.2624 24.9431C17.2561 22.4443 16.2781 20.1043 14.5018 18.3536C13.9161 17.7767 13.9146 16.8476 14.4833 16.2776C15.0601 15.6919 15.9893 15.6904 16.5593 16.259Z" fill="#F70A8D"/>
<path d="M32.6491 23.6079C34.35 21.1223 37.1634 19.8474 39.9754 20.0018C40.698 20.0415 41.3159 19.4879 41.3556 18.7654C41.3953 18.0428 40.8417 17.4248 40.1191 17.3852C36.4305 17.1826 32.7258 18.8554 30.4864 22.1279C30.0777 22.7252 30.2306 23.5406 30.8278 23.9493C31.425 24.358 32.2405 24.2051 32.6491 23.6079Z" fill="#F70A8D"/>
<path d="M10.7762 21.2297C11.5408 20.9915 11.9674 20.1785 11.7292 19.414C11.4909 18.6495 10.678 18.2228 9.91341 18.4611C9.14887 18.6993 8.72223 19.5123 8.96049 20.2768C9.19876 21.0414 10.0117 21.468 10.7762 21.2297Z" fill="#F70A8D"/>
<path d="M34.3559 12.3626C34.5942 13.1272 34.1675 13.9401 33.403 14.1784C32.6384 14.4166 31.8255 13.99 31.5872 13.2254C31.349 12.4609 31.7756 11.6479 32.5402 11.4097C33.3047 11.1714 34.1176 11.5981 34.3559 12.3626Z" fill="#F70A8D"/>
<path d="M16.378 11.9819C16.5752 12.6146 16.2221 13.2874 15.5894 13.4846C14.9567 13.6818 14.2839 13.3287 14.0867 12.6959C13.8895 12.0632 14.2426 11.3904 14.8753 11.1933C15.5081 10.9961 16.1808 11.3492 16.378 11.9819Z" fill="#F9C23C"/>
<path d="M39.4857 31.5557C39.6849 32.195 39.3282 32.8748 38.6889 33.074C38.0496 33.2732 37.3698 32.9165 37.1705 32.2772C36.9713 31.6378 37.328 30.9581 37.9674 30.7588C38.6067 30.5596 39.2865 30.9163 39.4857 31.5557Z" fill="#F9C23C"/>
<path d="M27.3082 8.65413C27.0652 8.54657 26.793 8.51354 26.5267 8.58343C25.8712 8.74846 25.4747 9.40882 25.6278 10.0681C25.9533 11.4069 25.7865 14.0644 25.6895 14.9718C25.6914 14.9778 25.6903 14.9847 25.6892 14.9916C25.688 14.9985 25.6869 15.0054 25.6888 15.0113C25.6739 15.1889 25.654 15.3656 25.6289 15.5413C25.4596 15.4268 25.2817 15.3291 25.095 15.2488C24.6679 15.0546 24.1915 14.9543 23.6658 14.9479L23.6262 14.9471C21.8478 14.9122 20.365 16.33 20.3338 18.1204C20.3167 18.9899 20.6367 19.8066 21.2372 20.4313C21.8378 21.0559 22.6413 21.4077 23.5108 21.4248C23.6042 21.4266 23.6955 21.4177 23.7836 21.3992C24.4373 21.3742 25.0226 21.198 25.5373 20.8721C25.5544 21.0465 25.5657 21.2218 25.5712 21.3981C25.5975 22.0707 26.1683 22.5999 26.8409 22.5735C27.5135 22.5472 28.0427 21.9764 28.0163 21.3038C27.9823 20.2479 27.7903 19.2215 27.4428 18.2325C27.8212 17.2611 28.0502 16.2496 28.1322 15.2056L28.1365 15.1576C28.191 14.5533 28.4766 11.3827 28.0077 9.47047C27.9044 9.09679 27.6414 8.79906 27.3082 8.65413ZM23.6378 17.3788C24.0006 17.3859 24.395 17.4653 24.7734 18.172C24.3557 18.901 23.9599 18.9587 23.591 18.9514C23.5467 18.9505 23.5028 18.9521 23.4595 18.9559C23.2857 18.9319 23.1245 18.8441 23.0066 18.7146C22.8553 18.5653 22.7802 18.3662 22.7923 18.1529C22.8008 17.7182 23.1635 17.3695 23.5982 17.378L23.6378 17.3788Z" fill="#00A6ED"/>
<path d="M28.5572 26.7783C32.2733 24.3764 36.6936 23.5618 41.0164 24.4929C41.8194 24.6747 42.3221 25.4476 42.1604 26.2312C41.9905 27.0305 41.2057 27.5369 40.4064 27.367C36.859 26.6133 33.2166 27.2771 30.1652 29.2493C27.6464 30.8722 25.7893 33.2316 24.782 36.007C23.8978 35.7326 22.9674 35.3941 22.0267 34.9803C23.247 31.6279 25.5057 28.7505 28.5572 26.7783Z" fill="#00A6ED"/>
<path d="M26.156 25.9886C26.3922 26.7466 25.9693 27.5525 25.2113 27.7887C24.4534 28.0249 23.6474 27.602 23.4112 26.844C23.175 26.0861 23.598 25.2801 24.3559 25.0439C25.1139 24.8077 25.9198 25.2307 26.156 25.9886Z" fill="#00A6ED"/>
</g>
<defs>
<clipPath id="clip0_199_15943">
<rect width="40" height="40" fill="white" transform="translate(0 11.9011) rotate(-17.3091)"/>
</clipPath>
</defs>
</svg>
