<svg width="41" height="41" viewBox="0 0 41 41" fill="none" xmlns="http://www.w3.org/2000/svg">
<path d="M6.55672 37.6193L8.39626 37.1269L8.88984 36.0577L12.0779 36.1415L15.3935 35.254L16.1403 34.0963L19.2426 34.2238L22.4817 33.3568C24.7317 32.7568 25.4942 29.9318 23.8442 28.2818L12.1942 16.6193C10.5442 14.9693 7.71922 15.7193 7.11922 17.9818L6.15343 21.59L6.28864 24.5207L5.18765 25.1983L4.20028 28.8871L4.36573 31.6969L3.28639 32.3015L2.85672 33.9068C2.24422 36.1568 4.30672 38.2193 6.55672 37.6193Z" fill="#F9C23C"/>
<path d="M9.99555 31.5602C8.14516 29.8322 6.56905 27.7519 5.17735 25.2382L6.14904 21.6079C7.74711 25.1052 9.54479 27.7194 11.7013 29.7332C13.7797 31.674 16.2415 33.1042 19.2893 34.2114L15.3778 35.2584C13.3754 34.262 11.5946 33.0534 9.99555 31.5602Z" fill="#3F5FFF"/>
<path d="M5.60339 35.1022C4.7188 34.2749 3.95838 33.3484 3.28458 32.3097L4.21565 28.8312C5.09398 30.6938 6.07778 32.1236 7.31053 33.2764C8.54035 34.4265 10.0711 35.3506 12.1082 36.1335L8.37219 37.1335C7.34373 36.5428 6.42753 35.8729 5.60339 35.1022Z" fill="#3F5FFF"/>
<path d="M24.132 32.3568C25.882 30.6068 23.707 25.6068 19.282 21.1818C14.857 16.7568 9.8695 14.5818 8.1195 16.3318C6.3695 18.0818 8.5445 23.0818 12.9695 27.5068C17.3945 31.9318 22.3945 34.0943 24.132 32.3568Z" fill="#6D4534"/>
<path d="M14.7572 9.33199C16.3072 12.232 16.6197 15.557 15.6572 18.6945C14.8447 21.3695 13.1697 23.632 10.8947 25.1945C10.2447 24.382 9.68224 23.5695 9.20724 22.782C10.9447 21.5945 12.2197 19.8695 12.8447 17.832C13.5822 15.4445 13.3447 12.9195 12.1697 10.7195C11.7822 9.99449 12.0572 9.10699 12.7697 8.73199C13.4947 8.34449 14.3822 8.61949 14.7572 9.33199Z" fill="#F70A8D"/>
<path d="M27.932 21.1352C30.2954 19.2682 33.3606 18.8881 35.9994 19.8722C36.6774 20.1251 37.4321 19.7804 37.6849 19.1024C37.9378 18.4243 37.5932 17.6697 36.9151 17.4168C33.4538 16.1259 29.4191 16.6208 26.3075 19.0788C25.7396 19.5274 25.643 20.3514 26.0915 20.9192C26.5401 21.4871 27.3641 21.5838 27.932 21.1352Z" fill="#F70A8D"/>
<path d="M7.75719 12.357C8.558 12.357 9.20719 11.7078 9.20719 10.907C9.20719 10.1062 8.558 9.45698 7.75719 9.45698C6.95638 9.45698 6.30719 10.1062 6.30719 10.907C6.30719 11.7078 6.95638 12.357 7.75719 12.357Z" fill="#F70A8D"/>
<path d="M32.9072 10.907C32.9072 11.7078 32.258 12.357 31.4572 12.357C30.6564 12.357 30.0072 11.7078 30.0072 10.907C30.0072 10.1062 30.6564 9.45698 31.4572 9.45698C32.258 9.45698 32.9072 10.1062 32.9072 10.907Z" fill="#F70A8D"/>
<path d="M15.8568 5.19438C15.8568 5.85713 15.3196 6.39438 14.6568 6.39438C13.9941 6.39438 13.4568 5.85713 13.4568 5.19438C13.4568 4.53164 13.9941 3.99438 14.6568 3.99438C15.3196 3.99438 15.8568 4.53164 15.8568 5.19438Z" fill="#F9C23C"/>
<path d="M32.0943 30.7569C32.0943 31.4265 31.5515 31.9694 30.8818 31.9694C30.2122 31.9694 29.6693 31.4265 29.6693 30.7569C29.6693 30.0872 30.2122 29.5444 30.8818 29.5444C31.5515 29.5444 32.0943 30.0872 32.0943 30.7569Z" fill="#F9C23C"/>
<path d="M27.2821 5.26946C27.0821 5.09446 26.8321 4.98196 26.5571 4.96946C25.8821 4.93196 25.3071 5.44446 25.2571 6.11946C25.1696 7.49446 24.2196 9.98196 23.8571 10.8195C23.8571 10.8257 23.8539 10.832 23.8508 10.8382C23.8477 10.8445 23.8446 10.8507 23.8446 10.857C23.7776 11.022 23.706 11.1848 23.6297 11.3451C23.5022 11.1854 23.3613 11.0392 23.207 10.907C22.857 10.5945 22.432 10.357 21.932 10.1945L21.8945 10.182C20.207 9.61948 18.3695 10.532 17.807 12.232C17.532 13.057 17.5945 13.932 17.982 14.707C18.3695 15.482 19.032 16.057 19.857 16.332C19.9457 16.3615 20.0355 16.3802 20.125 16.3887C20.7566 16.5593 21.3678 16.5652 21.9562 16.4072C21.9206 16.5788 21.8792 16.7496 21.832 16.9195C21.657 17.5695 22.0445 18.2445 22.6945 18.4195C23.3445 18.5945 24.0195 18.207 24.1945 17.557C24.4762 16.5387 24.5982 15.5017 24.5607 14.4541C25.211 13.6393 25.7306 12.7417 26.1196 11.7695L26.1379 11.7249C26.3697 11.1642 27.5857 8.22205 27.7071 6.25696C27.7196 5.86946 27.5571 5.50696 27.2821 5.26946ZM21.182 12.507C21.5263 12.6217 21.8792 12.8148 22.0302 13.6021C21.4146 14.1738 21.0196 14.1111 20.6696 13.9945C20.6275 13.9804 20.5851 13.9689 20.5427 13.9597C20.3839 13.885 20.2561 13.7532 20.182 13.5945C20.082 13.407 20.0695 13.1945 20.1445 12.9945C20.282 12.582 20.732 12.357 21.1445 12.4945L21.182 12.507Z" fill="#00A6ED"/>
<path d="M23.082 22.9445C27.3445 21.757 31.807 22.2945 35.657 24.4695C36.3695 24.882 36.6195 25.7695 36.232 26.4695C35.832 27.182 34.932 27.432 34.2195 27.032C31.057 25.257 27.382 24.807 23.882 25.782C20.9945 26.582 18.5195 28.282 16.732 30.632C15.9695 30.107 15.182 29.507 14.407 28.832C16.5695 25.9945 19.582 23.9195 23.082 22.9445Z" fill="#00A6ED"/>
<path d="M21.0246 21.4761C21.0246 22.27 20.381 22.9136 19.5871 22.9136C18.7932 22.9136 18.1496 22.27 18.1496 21.4761C18.1496 20.6822 18.7932 20.0386 19.5871 20.0386C20.381 20.0386 21.0246 20.6822 21.0246 21.4761Z" fill="#00A6ED"/>
</svg>
