<svg width="13" height="13" viewBox="0 0 13 13" fill="none" xmlns="http://www.w3.org/2000/svg">
<path d="M6.5 1C3.45882 1 1 3.45882 1 6.5C1 9.54118 3.45882 12 6.5 12C9.54118 12 12 9.54118 12 6.5C12 3.47176 9.54118 1 6.5 1ZM6.21529 3.26471H6.77176C6.83647 3.26471 6.88824 3.31647 6.88824 3.38118V7C6.88824 7.06471 6.75882 7.35421 6.69412 7.35421H6.30588C6.24118 7.35421 6.09882 7.06471 6.09882 7V3.38118C6.09882 3.31647 6.15059 3.26471 6.21529 3.26471ZM6.84941 9.74824C6.74588 9.85177 6.62941 9.89059 6.5 9.89059C6.37059 9.89059 6.25412 9.85177 6.16353 9.76118C6.06 9.67059 5.99529 9.52824 5.99529 9.38588C5.99529 9.25647 6.04706 9.14 6.13765 9.03647C6.22823 8.93294 6.37059 8.88118 6.51294 8.88118C6.66824 8.88118 6.79765 8.94588 6.90118 9.06235C6.96588 9.14 7.00471 9.23059 7.01765 9.33412C7.01765 9.50235 6.96588 9.63177 6.84941 9.74824Z" stroke="black"/>
</svg>
