<svg width="32" height="32" viewBox="0 0 32 32" fill="none" xmlns="http://www.w3.org/2000/svg">
<rect width="32" height="32" rx="16" fill="#F7F8FA"/>
<path fill-rule="evenodd" clip-rule="evenodd" d="M13.5887 19.2194H17.8132C18.1315 19.2194 18.3956 18.97 18.3956 18.6694C18.3956 18.3687 18.1315 18.1267 17.8132 18.1267H13.5887C13.2703 18.1267 13.0063 18.3687 13.0063 18.6694C13.0063 18.97 13.2703 19.2194 13.5887 19.2194ZM16.2135 14.46H13.5887C13.2703 14.46 13.0063 14.7093 13.0063 15.01C13.0063 15.3106 13.2703 15.5526 13.5887 15.5526H16.2135C16.5319 15.5526 16.7959 15.3106 16.7959 15.01C16.7959 14.7093 16.5319 14.46 16.2135 14.46ZM21.7553 13.8187C21.9379 13.8168 22.1366 13.8146 22.3172 13.8146C22.5113 13.8146 22.6666 13.9613 22.6666 14.1446V20.0406C22.6666 21.8593 21.1058 23.3333 19.1799 23.3333H12.9986C10.9796 23.3333 9.33331 21.786 9.33331 19.8793V11.974C9.33331 10.1553 10.9019 8.66663 12.8355 8.66663H16.9823C17.1842 8.66663 17.3395 8.82063 17.3395 9.00396V11.3653C17.3395 12.7073 18.5121 13.8073 19.9332 13.8146C20.2651 13.8146 20.5578 13.8169 20.8139 13.819C21.0131 13.8206 21.1902 13.822 21.3465 13.822C21.4571 13.822 21.6003 13.8204 21.7553 13.8187ZM21.9694 12.7484C21.331 12.7506 20.5786 12.7484 20.0373 12.7433C19.1784 12.7433 18.471 12.0752 18.471 11.2641V9.33105C18.471 9.01498 18.8771 8.85805 19.1093 9.08612C19.5298 9.49894 20.1076 10.0665 20.6827 10.6313C21.2559 11.1943 21.8264 11.7547 22.2357 12.1566C22.4625 12.3788 22.2963 12.7477 21.9694 12.7484Z" fill="#202F3D"/>
</svg>
