<svg width="32" height="32" viewBox="0 0 32 32" fill="none" xmlns="http://www.w3.org/2000/svg">
<rect width="32" height="32" rx="16" fill="#F7F8FA"/>
<path fill-rule="evenodd" clip-rule="evenodd" d="M15.9719 8.83081C15.1536 8.83081 14.3417 9.29256 13.6748 9.77073C13.2213 10.0959 12.767 10.4821 12.3843 10.8075L12.3842 10.8075C12.2033 10.9614 12.0383 11.1016 11.897 11.2154C11.8879 11.2227 11.879 11.2304 11.8704 11.2384C11.5997 11.4894 11.3562 11.7054 11.135 11.9004L11.0453 11.9793L11.0453 11.9794C10.8603 12.1423 10.6883 12.2937 10.5335 12.4366C10.1739 12.7686 9.87089 13.0863 9.64338 13.4833C9.18905 14.2761 9.09668 15.2849 9.09668 17.1427C9.09668 18.5344 9.17788 19.6225 9.39637 20.4632C9.61827 21.3172 9.99158 21.9525 10.5951 22.3856C11.1825 22.8073 11.9272 22.9922 12.7954 23.0817C13.6586 23.1706 14.7149 23.1706 15.9656 23.1706H15.9657H15.9906H16.0155H16.0156C17.2663 23.1706 18.3226 23.1706 19.1858 23.0817C20.054 22.9922 20.7987 22.8073 21.3861 22.3856C21.9896 21.9525 22.3629 21.3172 22.5848 20.4632C22.8033 19.6225 22.8845 18.5344 22.8845 17.1427C22.8845 15.2849 22.7923 14.2762 22.3382 13.4834C22.1108 13.0864 21.8079 12.7687 21.4483 12.4367C21.2934 12.2936 21.1212 12.142 20.936 11.979L20.9359 11.9789L20.8469 11.9004C20.6257 11.7054 20.3821 11.4894 20.1115 11.2384C20.1029 11.2304 20.094 11.2228 20.0849 11.2154C19.95 11.1068 19.7955 10.9766 19.6269 10.8345L19.6269 10.8345C19.2315 10.5013 18.7591 10.1032 18.2817 9.76594C17.6064 9.28891 16.788 8.83081 15.9719 8.83081ZM13.5493 18.7573C13.5493 18.4794 13.7746 18.2541 14.0526 18.2541H17.9292C18.2072 18.2541 18.4325 18.4794 18.4325 18.7573C18.4325 19.0353 18.2072 19.2606 17.9292 19.2606H14.0526C13.7746 19.2606 13.5493 19.0353 13.5493 18.7573Z" fill="#202F3D"/>
</svg>
