<svg width="32" height="32" viewBox="0 0 32 32" fill="none" xmlns="http://www.w3.org/2000/svg">
<rect width="32" height="32" rx="16" fill="#F7F8FA"/>
<path d="M15.9663 17.6932C18.2538 17.6932 20.207 18.0558 20.207 19.507C20.207 20.9576 18.2663 21.3334 15.9663 21.3334C13.6789 21.3334 11.7257 20.9708 11.7257 19.5202C11.7257 18.069 13.6664 17.6932 15.9663 17.6932ZM19.6237 16.8193C20.4982 16.8031 21.4384 16.9232 21.7858 17.0085C22.5218 17.1532 23.0059 17.4486 23.2065 17.8778C23.376 18.2303 23.376 18.6392 23.2065 18.991C22.8997 19.6568 21.9106 19.8706 21.5261 19.9258C21.4467 19.9378 21.3829 19.8688 21.3912 19.7889C21.5876 17.9439 20.0254 17.0691 19.6213 16.868C19.604 16.859 19.6004 16.8452 19.6022 16.8367C19.6034 16.8307 19.6106 16.8211 19.6237 16.8193ZM12.2127 16.8181L12.3774 16.8196C12.3905 16.8214 12.3971 16.831 12.3983 16.8364C12.4001 16.8454 12.3965 16.8586 12.3798 16.8682C11.9751 17.0693 10.4129 17.9441 10.6093 19.7886C10.6176 19.869 10.5544 19.9375 10.475 19.9261C10.0905 19.8708 9.10141 19.6571 8.79459 18.9912C8.62446 18.6388 8.62446 18.2305 8.79459 17.8781C8.99516 17.4488 9.47867 17.1534 10.2147 17.0081C10.5627 16.9234 11.5023 16.8034 12.3774 16.8196L12.2127 16.8181ZM15.9663 10.6667C17.5237 10.6667 18.7725 11.9216 18.7725 13.4886C18.7725 15.0551 17.5237 16.3112 15.9663 16.3112C14.4089 16.3112 13.1602 15.0551 13.1602 13.4886C13.1602 11.9216 14.4089 10.6667 15.9663 10.6667ZM19.7759 11.1373C21.2802 11.1373 22.4615 12.5609 22.0592 14.1466C21.7876 15.2141 20.8044 15.9232 19.7091 15.8944C19.5992 15.8913 19.4912 15.8811 19.3867 15.8631C19.3109 15.8499 19.2727 15.7641 19.3157 15.7004C19.7335 15.082 19.9717 14.3381 19.9717 13.5396C19.9717 12.7062 19.7115 11.9293 19.2596 11.2922C19.2453 11.2724 19.2345 11.2418 19.2488 11.219C19.2608 11.2004 19.2829 11.1908 19.3038 11.186C19.456 11.1548 19.6124 11.1373 19.7759 11.1373ZM12.2243 11.1373C12.3878 11.1373 12.5442 11.1547 12.6971 11.1859C12.7173 11.1907 12.74 11.2009 12.752 11.2189C12.7657 11.2418 12.7556 11.2724 12.7412 11.2922C12.2893 11.9292 12.0291 12.7061 12.0291 13.5395C12.0291 14.338 12.2673 15.0819 12.6851 15.7004C12.7281 15.764 12.6899 15.8499 12.6141 15.8631C12.509 15.8817 12.4016 15.8913 12.2917 15.8943C11.1964 15.9231 10.2132 15.214 9.9416 14.1465C9.53867 12.5608 10.72 11.1373 12.2243 11.1373Z" fill="#202F3D"/>
</svg>
