<svg width="29" height="30" viewBox="0 0 29 30" fill="none" xmlns="http://www.w3.org/2000/svg">
<path d="M14.8924 2.70908L18.2573 6.73547C18.7192 7.2975 19.694 7.7107 20.4222 7.66158L24.7239 7.36926C27.4752 7.18371 28.5527 8.95649 27.0939 11.3024L24.6381 15.2819C24.2221 15.9559 24.1726 17.0775 24.5194 17.7901L26.3837 21.5552C27.8568 24.536 26.4718 26.1519 23.2922 25.1646L18.869 23.7866C18.0701 23.5373 16.9153 23.8107 16.3 24.3949L12.9644 27.6099C10.5779 29.9151 8.5994 29.0819 8.58255 25.77L8.56064 21.5687C8.55114 20.7762 8.00389 19.7959 7.32993 19.38L3.35037 16.9242C1.00756 15.4784 1.16271 13.4137 3.70508 12.3459L7.68116 10.6783C8.34117 10.3987 9.02716 9.59229 9.18802 8.88281L10.3902 3.77507C11.049 1.00201 13.0731 0.522774 14.8924 2.70908Z" fill="#EDA076"/>
<path d="M14.8924 2.70908L18.2573 6.73547C18.7192 7.2975 19.694 7.7107 20.4222 7.66158L24.7239 7.36926C27.4752 7.18371 28.5527 8.95649 27.0939 11.3024L24.6381 15.2819C24.2221 15.9559 24.1726 17.0775 24.5194 17.7901L26.3837 21.5552C27.8568 24.536 26.4718 26.1519 23.2922 25.1646L18.869 23.7866C18.0701 23.5373 16.9153 23.8107 16.3 24.3949L12.9644 27.6099C10.5779 29.9151 8.5994 29.0819 8.58255 25.77L8.56064 21.5687C8.55114 20.7762 8.00389 19.7959 7.32993 19.38L3.35037 16.9242C1.00756 15.4784 1.16271 13.4137 3.70508 12.3459L7.68116 10.6783C8.34117 10.3987 9.02716 9.59229 9.18802 8.88281L10.3902 3.77507C11.049 1.00201 13.0731 0.522774 14.8924 2.70908Z" fill="url(#paint0_radial_199_15979)" fill-opacity="0.4"/>
<path d="M14.8924 2.70908L18.2573 6.73547C18.7192 7.2975 19.694 7.7107 20.4222 7.66158L24.7239 7.36926C27.4752 7.18371 28.5527 8.95649 27.0939 11.3024L24.6381 15.2819C24.2221 15.9559 24.1726 17.0775 24.5194 17.7901L26.3837 21.5552C27.8568 24.536 26.4718 26.1519 23.2922 25.1646L18.869 23.7866C18.0701 23.5373 16.9153 23.8107 16.3 24.3949L12.9644 27.6099C10.5779 29.9151 8.5994 29.0819 8.58255 25.77L8.56064 21.5687C8.55114 20.7762 8.00389 19.7959 7.32993 19.38L3.35037 16.9242C1.00756 15.4784 1.16271 13.4137 3.70508 12.3459L7.68116 10.6783C8.34117 10.3987 9.02716 9.59229 9.18802 8.88281L10.3902 3.77507C11.049 1.00201 13.0731 0.522774 14.8924 2.70908Z" fill="#F6DB8B"/>
<path d="M14.8924 2.70908L18.2573 6.73547C18.7192 7.2975 19.694 7.7107 20.4222 7.66158L24.7239 7.36926C27.4752 7.18371 28.5527 8.95649 27.0939 11.3024L24.6381 15.2819C24.2221 15.9559 24.1726 17.0775 24.5194 17.7901L26.3837 21.5552C27.8568 24.536 26.4718 26.1519 23.2922 25.1646L18.869 23.7866C18.0701 23.5373 16.9153 23.8107 16.3 24.3949L12.9644 27.6099C10.5779 29.9151 8.5994 29.0819 8.58255 25.77L8.56064 21.5687C8.55114 20.7762 8.00389 19.7959 7.32993 19.38L3.35037 16.9242C1.00756 15.4784 1.16271 13.4137 3.70508 12.3459L7.68116 10.6783C8.34117 10.3987 9.02716 9.59229 9.18802 8.88281L10.3902 3.77507C11.049 1.00201 13.0731 0.522774 14.8924 2.70908Z" stroke="#EDA076" stroke-width="2" stroke-linecap="round" stroke-linejoin="round"/>
<defs>
<radialGradient id="paint0_radial_199_15979" cx="0" cy="0" r="1" gradientUnits="userSpaceOnUse" gradientTransform="translate(15.2577 14.251) rotate(76.6793) scale(13.2255 13.3348)">
<stop stop-color="white"/>
<stop offset="1" stop-color="white" stop-opacity="0"/>
</radialGradient>
</defs>
</svg>
