<svg width="29" height="31" viewBox="0 0 29 31" fill="none" xmlns="http://www.w3.org/2000/svg">
<path d="M20.1587 4.34934L20.8613 9.54939C20.9528 10.2711 21.5576 11.1401 22.2001 11.4865L25.9963 13.5308C28.4235 14.8395 28.3908 16.9137 25.9066 18.1219L21.7082 20.1814C20.9972 20.5302 20.3577 21.4529 20.2716 22.2408L19.8435 26.4203C19.5022 29.7276 17.4692 30.3573 15.3043 27.8279L12.2952 24.3053C11.7519 23.6687 10.629 23.2849 9.79707 23.4515L5.26139 24.3953C2.01374 25.0748 0.783237 23.3156 2.53335 20.5038L4.75301 16.9366C5.16714 16.2609 5.22625 15.1398 4.87747 14.4288L2.81797 10.2304C1.60552 7.75874 2.83673 6.09415 5.55716 6.54489L9.81045 7.25182C10.5179 7.36682 11.5281 7.04982 12.0422 6.5351L15.7807 2.85297C17.8155 0.857158 19.7837 1.52988 20.1587 4.34934Z" fill="#EDA076"/>
<path d="M20.1587 4.34934L20.8613 9.54939C20.9528 10.2711 21.5576 11.1401 22.2001 11.4865L25.9963 13.5308C28.4235 14.8395 28.3908 16.9137 25.9066 18.1219L21.7082 20.1814C20.9972 20.5302 20.3577 21.4529 20.2716 22.2408L19.8435 26.4203C19.5022 29.7276 17.4692 30.3573 15.3043 27.8279L12.2952 24.3053C11.7519 23.6687 10.629 23.2849 9.79707 23.4515L5.26139 24.3953C2.01374 25.0748 0.783237 23.3156 2.53335 20.5038L4.75301 16.9366C5.16714 16.2609 5.22625 15.1398 4.87747 14.4288L2.81797 10.2304C1.60552 7.75874 2.83673 6.09415 5.55716 6.54489L9.81045 7.25182C10.5179 7.36682 11.5281 7.04982 12.0422 6.5351L15.7807 2.85297C17.8155 0.857158 19.7837 1.52988 20.1587 4.34934Z" fill="url(#paint0_radial_199_15994)" fill-opacity="0.4"/>
<path d="M20.1587 4.34934L20.8613 9.54939C20.9528 10.2711 21.5576 11.1401 22.2001 11.4865L25.9963 13.5308C28.4235 14.8395 28.3908 16.9137 25.9066 18.1219L21.7082 20.1814C20.9972 20.5302 20.3577 21.4529 20.2716 22.2408L19.8435 26.4203C19.5022 29.7276 17.4692 30.3573 15.3043 27.8279L12.2952 24.3053C11.7519 23.6687 10.629 23.2849 9.79707 23.4515L5.26139 24.3953C2.01374 25.0748 0.783237 23.3156 2.53335 20.5038L4.75301 16.9366C5.16714 16.2609 5.22625 15.1398 4.87747 14.4288L2.81797 10.2304C1.60552 7.75874 2.83673 6.09415 5.55716 6.54489L9.81045 7.25182C10.5179 7.36682 11.5281 7.04982 12.0422 6.5351L15.7807 2.85297C17.8155 0.857158 19.7837 1.52988 20.1587 4.34934Z" fill="#F6DB8B"/>
<path d="M20.1587 4.34934L20.8613 9.54939C20.9528 10.2711 21.5576 11.1401 22.2001 11.4865L25.9963 13.5308C28.4235 14.8395 28.3908 16.9137 25.9066 18.1219L21.7082 20.1814C20.9972 20.5302 20.3577 21.4529 20.2716 22.2408L19.8435 26.4203C19.5022 29.7276 17.4692 30.3573 15.3043 27.8279L12.2952 24.3053C11.7519 23.6687 10.629 23.2849 9.79707 23.4515L5.26139 24.3953C2.01374 25.0748 0.783237 23.3156 2.53335 20.5038L4.75301 16.9366C5.16714 16.2609 5.22625 15.1398 4.87747 14.4288L2.81797 10.2304C1.60552 7.75874 2.83673 6.09415 5.55716 6.54489L9.81045 7.25182C10.5179 7.36682 11.5281 7.04982 12.0422 6.5351L15.7807 2.85297C17.8155 0.857158 19.7837 1.52988 20.1587 4.34934Z" stroke="#EDA076" stroke-width="2" stroke-linecap="round" stroke-linejoin="round"/>
<defs>
<radialGradient id="paint0_radial_199_15994" cx="0" cy="0" r="1" gradientUnits="userSpaceOnUse" gradientTransform="translate(14.319 14.3116) rotate(108.87) scale(13.2255 13.3348)">
<stop stop-color="white"/>
<stop offset="1" stop-color="white" stop-opacity="0"/>
</radialGradient>
</defs>
</svg>
