<svg width="16" height="16" viewBox="0 0 16 16" fill="none" xmlns="http://www.w3.org/2000/svg">
<path d="M11.0259 5.76766L11.0259 5.76763L11.0225 5.76422C10.6656 5.40737 10.0812 5.40737 9.7244 5.76422L7.20677 8.28185L6.2758 7.35088C5.91896 6.99404 5.33457 6.99404 4.97773 7.35088C4.61904 7.70958 4.62388 8.28474 4.97434 8.64551L4.97431 8.64555L4.97823 8.64945L6.5644 10.229C6.56455 10.2291 6.56471 10.2293 6.56486 10.2294C6.56487 10.2294 6.56488 10.2294 6.5649 10.2295C6.74544 10.4097 6.97889 10.4933 7.20677 10.4933C7.43948 10.4933 7.67385 10.4109 7.8558 10.229L11.0225 7.06229C11.3812 6.70359 11.3763 6.12843 11.0259 5.76766ZM10.8934 1.66659C11.9424 1.66659 12.7953 2.03294 13.3866 2.65185C13.9792 3.27212 14.3334 4.17177 14.3334 5.27992V10.7273C14.3334 11.8315 13.9794 12.7293 13.3867 13.3487C12.7954 13.9669 11.9425 14.3333 10.8934 14.3333H5.11344C4.06435 14.3333 3.2096 13.9668 2.61651 13.3484C2.02225 12.7288 1.66677 11.8311 1.66677 10.7273V5.27992C1.66677 4.17217 2.02242 3.27256 2.61666 2.65216C3.20971 2.033 4.06436 1.66659 5.11344 1.66659H10.8934Z" fill="#CCECBC" stroke="#BDE9A7" stroke-width="0.666667"/>
</svg>
