<svg width="32" height="32" viewBox="0 0 32 32" fill="none" xmlns="http://www.w3.org/2000/svg">
<rect width="32" height="32" rx="16" fill="#F7F8FA"/>
<path d="M21.9569 10.0546C21.6234 9.71236 21.1299 9.58485 20.6697 9.71907L9.93866 12.8396C9.45313 12.9745 9.10899 13.3618 9.01629 13.8537C8.92158 14.3543 9.25238 14.9898 9.68456 15.2556L13.0399 17.3178C13.3841 17.5292 13.8283 17.4762 14.113 17.189L17.9553 13.3228C18.1487 13.1215 18.4688 13.1215 18.6622 13.3228C18.8556 13.5174 18.8556 13.8329 18.6622 14.0342L14.8133 17.901C14.5279 18.1876 14.4745 18.6338 14.6846 18.9801L16.7348 22.3691C16.9749 22.7718 17.3884 23 17.8419 23C17.8953 23 17.9553 23 18.0086 22.9932C18.5288 22.9261 18.9423 22.5705 19.0957 22.0671L22.277 11.3498C22.4171 10.8935 22.2904 10.3969 21.9569 10.0546Z" fill="#202F3D"/>
</svg>
