<svg width="32" height="32" viewBox="0 0 32 32" fill="none" xmlns="http://www.w3.org/2000/svg">
<rect width="32" height="32" rx="16" fill="#F7F8FA"/>
<path fill-rule="evenodd" clip-rule="evenodd" d="M19.622 9.66663C20.6054 9.66663 21.5514 10.0396 22.2473 10.7088C22.944 11.3766 23.3334 12.2774 23.3334 13.2203V18.7796C23.3334 20.7429 21.6687 22.3333 19.622 22.3333H12.3774C10.3307 22.3333 8.66675 20.7429 8.66675 18.7796V13.2203C8.66675 11.257 10.3233 9.66663 12.3774 9.66663H19.622ZM20.7888 14.2688L20.8474 14.2125C21.0227 14.0084 21.0227 13.7129 20.8394 13.5088C20.7374 13.404 20.5974 13.3399 20.4514 13.3259C20.2974 13.3181 20.1508 13.3681 20.04 13.4666L16.7334 15.9999C16.3081 16.3384 15.6987 16.3384 15.2668 15.9999L11.9668 13.4666C11.7387 13.3047 11.4234 13.3259 11.2334 13.5159C11.0354 13.7059 11.0134 14.0084 11.1814 14.2196L11.2774 14.311L14.6141 16.8092C15.0248 17.1188 15.5227 17.2877 16.0441 17.2877C16.564 17.2877 17.0708 17.1188 17.4807 16.8092L20.7888 14.2688Z" fill="#202F3D"/>
</svg>
