<svg width="32" height="32" viewBox="0 0 32 32" fill="none" xmlns="http://www.w3.org/2000/svg">
<rect width="32" height="32" rx="16" fill="#F7F8FA"/>
<path fill-rule="evenodd" clip-rule="evenodd" d="M18.6949 9.33349C19.1366 9.33349 19.5776 9.39594 19.9969 9.53699C22.5806 10.3791 23.5116 13.2212 22.7339 15.7054C22.2929 16.9748 21.5719 18.1334 20.6276 19.0801C19.2759 20.3923 17.7926 21.5572 16.1959 22.5607L16.0209 22.6667L15.8389 22.5537C14.2367 21.5572 12.745 20.3923 11.3807 19.0731C10.4427 18.1264 9.721 16.9748 9.27301 15.7054C8.48202 13.2212 9.41301 10.3791 12.0247 9.52226C12.2277 9.45208 12.437 9.40296 12.647 9.37559H12.731C12.9277 9.34682 13.123 9.33349 13.319 9.33349H13.396C13.837 9.34682 14.264 9.42401 14.6777 9.56506H14.719C14.747 9.5784 14.768 9.59313 14.782 9.60647C14.9366 9.65629 15.0829 9.71243 15.2229 9.78962L15.4889 9.90892C15.5532 9.94329 15.6254 9.9958 15.6877 10.0412C15.7272 10.0699 15.7628 10.0958 15.7899 10.1124C15.8014 10.1192 15.813 10.126 15.8247 10.1328C15.8847 10.168 15.9472 10.2045 15.9999 10.2451C16.7776 9.64927 17.7219 9.32647 18.6949 9.33349ZM20.5569 14.3861C20.8438 14.3784 21.0888 14.1475 21.1098 13.852V13.7685C21.1308 12.7854 20.5366 11.8949 19.6329 11.551C19.3459 11.4521 19.0309 11.6071 18.9259 11.9019C18.8279 12.1966 18.9819 12.5194 19.2759 12.624C19.7246 12.7924 20.0249 13.2352 20.0249 13.7257V13.7475C20.0116 13.9082 20.0599 14.0633 20.1579 14.1826C20.2559 14.3019 20.4029 14.3713 20.5569 14.3861Z" fill="#202F3D"/>
</svg>
