<svg width="32" height="32" viewBox="0 0 32 32" fill="none" xmlns="http://www.w3.org/2000/svg">
<rect width="32" height="32" rx="16" fill="#F7F8FA"/>
<path fill-rule="evenodd" clip-rule="evenodd" d="M14.5968 15.4867C14.3052 15.4867 14.0745 15.7134 14.0745 16C14.0745 16.28 14.3052 16.5134 14.5968 16.5134H18.6666V19.7C18.6666 21.3334 17.3168 22.6667 15.6482 22.6667H12.3449C10.6831 22.6667 9.33325 21.34 9.33325 19.7067V12.3C9.33325 10.66 10.6898 9.33337 12.3517 9.33337H15.6617C17.3168 9.33337 18.6666 10.66 18.6666 12.2934V15.4867H14.5968ZM21.0867 13.6935L23.0334 15.6335C23.1334 15.7335 23.1867 15.8602 23.1867 16.0002C23.1867 16.1335 23.1334 16.2668 23.0334 16.3602L21.0867 18.3002C20.9867 18.4002 20.8534 18.4535 20.7267 18.4535C20.5934 18.4535 20.4601 18.4002 20.3601 18.3002C20.1601 18.1002 20.1601 17.7735 20.3601 17.5735L21.4267 16.5135H18.6667V15.4868H21.4267L20.3601 14.4268C20.1601 14.2268 20.1601 13.9002 20.3601 13.7002C20.5601 13.4935 20.8867 13.4935 21.0867 13.6935Z" fill="#202F3D"/>
</svg>
