<svg width="32" height="32" viewBox="0 0 32 32" fill="none" xmlns="http://www.w3.org/2000/svg">
<rect width="32" height="32" rx="16" fill="#F7F8FA"/>
<path d="M14.1067 15.2467C14.04 15.24 13.96 15.24 13.8867 15.2467C12.3 15.1934 11.04 13.8934 11.04 12.2934C11.04 10.66 12.36 9.33337 14 9.33337C15.6334 9.33337 16.96 10.66 16.96 12.2934C16.9534 13.8934 15.6934 15.1934 14.1067 15.2467Z" fill="#202F3D" stroke="#202F3D" stroke-width="1.5" stroke-linecap="round" stroke-linejoin="round"/>
<path d="M18.9399 10.6666C20.2333 10.6666 21.2733 11.7133 21.2733 13C21.2733 14.26 20.2733 15.2866 19.0266 15.3333C18.9733 15.3266 18.9133 15.3266 18.8533 15.3333" stroke="#202F3D" stroke-width="1.5" stroke-linecap="round" stroke-linejoin="round"/>
<path d="M10.7732 17.7066C9.1599 18.7866 9.1599 20.5466 10.7732 21.62C12.6066 22.8466 15.6132 22.8466 17.4466 21.62C19.0599 20.54 19.0599 18.78 17.4466 17.7066C15.6199 16.4866 12.6132 16.4866 10.7732 17.7066Z" fill="#202F3D" stroke="#202F3D" stroke-width="1.5" stroke-linecap="round" stroke-linejoin="round"/>
<path d="M20.2266 21.3334C20.7066 21.2334 21.1599 21.04 21.5332 20.7534C22.5732 19.9734 22.5732 18.6867 21.5332 17.9067C21.1666 17.6267 20.7199 17.44 20.2466 17.3334" stroke="#202F3D" stroke-width="1.5" stroke-linecap="round" stroke-linejoin="round"/>
</svg>
