<svg width="32" height="32" viewBox="0 0 32 32" fill="none" xmlns="http://www.w3.org/2000/svg">
<rect width="32" height="32" rx="16" fill="#F7F8FA"/>
<path d="M17.1533 10.34L18.3266 12.6867C18.4866 13.0133 18.9133 13.3267 19.2733 13.3867L21.3999 13.74C22.7599 13.9667 23.0799 14.9533 22.0999 15.9267L20.4466 17.58C20.1666 17.86 20.0133 18.4 20.0999 18.7867L20.5733 20.8333C20.9466 22.4533 20.0866 23.08 18.6533 22.2333L16.6599 21.0533C16.2999 20.84 15.7066 20.84 15.3399 21.0533L13.3466 22.2333C11.9199 23.08 11.0533 22.4467 11.4266 20.8333L11.8999 18.7867C11.9866 18.4 11.8333 17.86 11.5533 17.58L9.89994 15.9267C8.92661 14.9533 9.23994 13.9667 10.5999 13.74L12.7266 13.3867C13.0799 13.3267 13.5066 13.0133 13.6666 12.6867L14.8399 10.34C15.4799 9.06668 16.5199 9.06668 17.1533 10.34Z" fill="#202F3D" stroke="#202F3D" stroke-width="1.5" stroke-linecap="round" stroke-linejoin="round"/>
</svg>
