<svg width="32" height="32" viewBox="0 0 32 32" fill="none" xmlns="http://www.w3.org/2000/svg">
<rect width="32" height="32" rx="16" fill="#F7F8FA"/>
<path fill-rule="evenodd" clip-rule="evenodd" d="M13.5887 19.2193H17.8131C18.1315 19.2193 18.3955 18.97 18.3955 18.6693C18.3955 18.3686 18.1315 18.1266 17.8131 18.1266H13.5887C13.2703 18.1266 13.0063 18.3686 13.0063 18.6693C13.0063 18.97 13.2703 19.2193 13.5887 19.2193ZM16.2134 14.46H13.5887C13.2703 14.46 13.0063 14.7093 13.0063 15.01C13.0063 15.3106 13.2703 15.5526 13.5887 15.5526H16.2134C16.5318 15.5526 16.7958 15.3106 16.7958 15.01C16.7958 14.7093 16.5318 14.46 16.2134 14.46ZM21.7553 13.8187C21.9378 13.8168 22.1366 13.8146 22.3171 13.8146C22.5113 13.8146 22.6666 13.9613 22.6666 14.1446V20.0406C22.6666 21.8593 21.1057 23.3333 19.1799 23.3333H12.9986C10.9795 23.3333 9.33325 21.786 9.33325 19.8793V11.974C9.33325 10.1553 10.9019 8.66663 12.8355 8.66663H16.9823C17.1842 8.66663 17.3395 8.82063 17.3395 9.00396V11.3653C17.3395 12.7073 18.5121 13.8073 19.9331 13.8146C20.2651 13.8146 20.5577 13.8169 20.8138 13.819C21.013 13.8206 21.1902 13.822 21.3465 13.822C21.457 13.822 21.6003 13.8204 21.7553 13.8187ZM21.9693 12.7483C21.331 12.7505 20.5785 12.7483 20.0372 12.7432C19.1784 12.7432 18.4709 12.0751 18.4709 11.2641V9.33101C18.4709 9.01495 18.8771 8.85801 19.1093 9.08608C19.5297 9.49891 20.1075 10.0664 20.6826 10.6313C21.2558 11.1943 21.8263 11.7546 22.2357 12.1565C22.4624 12.3787 22.2962 12.7476 21.9693 12.7483Z" fill="#202F3D"/>
</svg>
