<svg width="16" height="16" viewBox="0 0 16 16" fill="none" xmlns="http://www.w3.org/2000/svg">
<path fill-rule="evenodd" clip-rule="evenodd" d="M1.93334 6.70694C1.86509 7.24966 1.83325 7.8515 1.83325 8.51702C1.83325 13.1544 3.37925 14.6997 8.01592 14.6997C12.6533 14.6997 14.1993 13.1544 14.1993 8.51702C14.1993 7.8534 14.1676 7.2531 14.0997 6.71159C14.0997 6.71159 14.0997 6.7116 14.0997 6.71159C14.0554 6.35781 13.9956 6.02909 13.9192 5.72423C13.521 4.13707 12.6699 3.19577 11.1877 2.72195C10.8818 2.62415 10.549 2.54628 10.1877 2.48674C9.55414 2.38233 8.83302 2.33435 8.01592 2.33435C7.20184 2.33435 6.48303 2.38199 5.85114 2.48563C5.48976 2.54491 5.15681 2.6225 4.85073 2.71998C3.36796 3.19218 2.51557 4.131 2.11581 5.71443C2.10734 5.75537 2.09847 5.79765 2.08936 5.8411C2.0349 6.10073 1.97167 6.40214 1.93334 6.70694ZM13.9192 5.72423L2.11581 5.71443C2.10734 5.75537 2.09847 5.79765 2.08936 5.8411C2.0349 6.10073 1.97167 6.40214 1.93334 6.70694L14.0997 6.71159C14.0554 6.35781 13.9956 6.02909 13.9192 5.72423C13.9192 5.72423 13.9192 5.72422 13.9192 5.72423ZM11.1877 2.72195L11.1878 1.33625C11.1721 1.07429 10.9546 0.866699 10.6887 0.866699C10.4126 0.866699 10.1887 1.09056 10.1887 1.3667L10.1877 2.48674C10.549 2.54628 10.8818 2.62415 11.1877 2.72195ZM5.84985 2.48584C5.48901 2.54508 5.15642 2.62262 4.85073 2.71998L4.85083 1.33519C4.86709 1.07373 5.08429 0.866699 5.34985 0.866699C5.626 0.866699 5.84985 1.09056 5.84985 1.3667V2.48584ZM5.08105 8.34064C4.80491 8.34064 4.58105 8.56449 4.58105 8.84064C4.58105 9.11678 4.80491 9.34064 5.08105 9.34064H5.08743C5.36357 9.34064 5.58743 9.11678 5.58743 8.84064C5.58743 8.56449 5.36357 8.34064 5.08743 8.34064H5.08105ZM7.51953 8.84064C7.51953 8.56449 7.74339 8.34064 8.01953 8.34064H8.02591C8.30205 8.34064 8.52591 8.56449 8.52591 8.84064C8.52591 9.11678 8.30205 9.34064 8.02591 9.34064H8.01953C7.74339 9.34064 7.51953 9.11678 7.51953 8.84064ZM10.4524 8.84064C10.4524 8.56449 10.6763 8.34064 10.9524 8.34064H10.9588C11.2349 8.34064 11.4588 8.56449 11.4588 8.84064C11.4588 9.11678 11.2349 9.34064 10.9588 9.34064H10.9524C10.6763 9.34064 10.4524 9.11678 10.4524 8.84064ZM10.4524 11.4086C10.4524 11.1325 10.6763 10.9086 10.9524 10.9086H10.9588C11.2349 10.9086 11.4588 11.1325 11.4588 11.4086C11.4588 11.6848 11.2349 11.9086 10.9588 11.9086H10.9524C10.6763 11.9086 10.4524 11.6848 10.4524 11.4086ZM8.01953 10.9086C7.74339 10.9086 7.51953 11.1325 7.51953 11.4086C7.51953 11.6848 7.74339 11.9086 8.01953 11.9086H8.02591C8.30205 11.9086 8.52591 11.6848 8.52591 11.4086C8.52591 11.1325 8.30205 10.9086 8.02591 10.9086H8.01953ZM4.58105 11.4086C4.58105 11.1325 4.80491 10.9086 5.08105 10.9086H5.08743C5.36357 10.9086 5.58743 11.1325 5.58743 11.4086C5.58743 11.6848 5.36357 11.9086 5.08743 11.9086H5.08105C4.80491 11.9086 4.58105 11.6848 4.58105 11.4086Z" fill="#202F3D"/>
</svg>
