<svg width="32" height="32" viewBox="0 0 32 32" fill="none" xmlns="http://www.w3.org/2000/svg">
<path d="M16 31C13.0333 31 10.1332 30.1203 7.66645 28.4721C5.19972 26.8238 3.27713 24.4812 2.14181 21.7403C1.0065 18.9994 0.709449 15.9834 1.28823 13.0737C1.86701 10.1639 3.29562 7.49119 5.3934 5.3934C7.49119 3.29562 10.1639 1.86701 13.0737 1.28823C15.9834 0.709449 18.9994 1.0065 21.7403 2.14181C24.4812 3.27713 26.8238 5.19972 28.4721 7.66645C30.1203 10.1332 31 13.0333 31 16C31 19.9783 29.4197 23.7936 26.6066 26.6066C23.7936 29.4197 19.9783 31 16 31ZM16 3.00001C13.4288 3.00001 10.9154 3.76244 8.77759 5.1909C6.63975 6.61936 4.97351 8.64968 3.98957 11.0251C3.00563 13.4006 2.74819 16.0144 3.2498 18.5362C3.75141 21.0579 4.98954 23.3743 6.80762 25.1924C8.6257 27.0105 10.9421 28.2486 13.4638 28.7502C15.9856 29.2518 18.5995 28.9944 20.9749 28.0104C23.3503 27.0265 25.3807 25.3603 26.8091 23.2224C28.2376 21.0846 29 18.5712 29 16C29 12.5522 27.6304 9.24559 25.1924 6.80762C22.7544 4.36965 19.4478 3.00001 16 3.00001Z" fill="#D62929"/>
<path d="M11.2143 20.7857C11.3571 20.9286 11.5 21 11.7143 21C11.9286 21 12.0714 20.9286 12.2143 20.7857L16 17L19.7857 20.7857C19.9286 20.9286 20.1429 21 20.2857 21C20.4286 21 20.6429 20.9286 20.7857 20.7857C21.0714 20.5 21.0714 20.0714 20.7857 19.7857L17 16L20.7857 12.2143C21.0714 11.9286 21.0714 11.5 20.7857 11.2143C20.5 10.9286 20.0714 10.9286 19.7857 11.2143L16 15L12.2143 11.2143C11.9286 10.9286 11.5 10.9286 11.2143 11.2143C10.9286 11.5 10.9286 11.9286 11.2143 12.2143L15 16L11.2143 19.7857C10.9286 20.0714 10.9286 20.5 11.2143 20.7857Z" fill="#D62929"/>
</svg>
